%TF.GenerationSoftware,KiCad,Pcbnew,(6.0.5-0)*%
%TF.CreationDate,2022-12-05T01:18:56+00:00*%
%TF.ProjectId,Ebow,45626f77-2e6b-4696-9361-645f70636258,rev?*%
%TF.SameCoordinates,Original*%
%TF.FileFunction,Copper,L2,Bot*%
%TF.FilePolarity,Positive*%
%FSLAX46Y46*%
G04 Gerber Fmt 4.6, Leading zero omitted, Abs format (unit mm)*
G04 Created by KiCad (PCBNEW (6.0.5-0)) date 2022-12-05 01:18:56*
%MOMM*%
%LPD*%
G01*
G04 APERTURE LIST*
%TA.AperFunction,Profile*%
%ADD10C,0.100000*%
%TD*%
%TA.AperFunction,ConnectorPad*%
%ADD11C,5.000000*%
%TD*%
%TA.AperFunction,ComponentPad*%
%ADD12C,2.900000*%
%TD*%
%TA.AperFunction,ComponentPad*%
%ADD13R,1.700000X1.700000*%
%TD*%
%TA.AperFunction,ComponentPad*%
%ADD14O,1.700000X1.700000*%
%TD*%
G04 APERTURE END LIST*
D10*
X98298000Y-107950000D02*
X104648000Y-107950000D01*
X98298000Y-101600000D02*
X98298000Y-107950000D01*
X104648000Y-107950000D02*
X104648000Y-130556000D01*
X57150000Y-124206000D02*
X50800000Y-124206000D01*
X57150000Y-124206000D02*
X57150000Y-130556000D01*
X50800000Y-124206000D02*
X50800000Y-101600000D01*
X104648000Y-130556000D02*
X57150000Y-130556000D01*
X50800000Y-101600000D02*
X98298000Y-101600000D01*
D11*
%TO.P,H2,1*%
%TO.N,N/C*%
X87833200Y-127812800D03*
D12*
X87833200Y-127812800D03*
%TD*%
D11*
%TO.P,H1,1*%
%TO.N,N/C*%
X67818000Y-104343200D03*
D12*
X67818000Y-104343200D03*
%TD*%
D13*
%TO.P,J1,1,Pin_1*%
%TO.N,+5V*%
X75565000Y-113665000D03*
D14*
%TO.P,J1,2,Pin_2*%
%TO.N,GND*%
X75565000Y-111125000D03*
%TD*%
%TA.AperFunction,Conductor*%
%TO.N,GND*%
G36*
X66813425Y-101621002D02*
G01*
X66859918Y-101674658D01*
X66870022Y-101744932D01*
X66840528Y-101809512D01*
X66796250Y-101842241D01*
X66577153Y-101939103D01*
X66573899Y-101941039D01*
X66573893Y-101941042D01*
X66551780Y-101954198D01*
X66297319Y-102105586D01*
X66039513Y-102304482D01*
X66036812Y-102307141D01*
X66036805Y-102307147D01*
X65810177Y-102530244D01*
X65807469Y-102532910D01*
X65805105Y-102535877D01*
X65805102Y-102535880D01*
X65790613Y-102554063D01*
X65604548Y-102787560D01*
X65433690Y-103064744D01*
X65297369Y-103360447D01*
X65296210Y-103364048D01*
X65296207Y-103364054D01*
X65287682Y-103390527D01*
X65197560Y-103670385D01*
X65196841Y-103674101D01*
X65196839Y-103674109D01*
X65136428Y-103986351D01*
X65136427Y-103986360D01*
X65135709Y-103990070D01*
X65135442Y-103993846D01*
X65135441Y-103993851D01*
X65133719Y-104018177D01*
X65112712Y-104314869D01*
X65128902Y-104640079D01*
X65129543Y-104643810D01*
X65129544Y-104643818D01*
X65144030Y-104728116D01*
X65184045Y-104960989D01*
X65185133Y-104964628D01*
X65185134Y-104964631D01*
X65208697Y-105043418D01*
X65277341Y-105272949D01*
X65407439Y-105571442D01*
X65572455Y-105852144D01*
X65574756Y-105855159D01*
X65767698Y-106107975D01*
X65767703Y-106107981D01*
X65769998Y-106110988D01*
X65997208Y-106344225D01*
X66250792Y-106548476D01*
X66527078Y-106720783D01*
X66822063Y-106858651D01*
X67131474Y-106960081D01*
X67450830Y-107023605D01*
X67454602Y-107023892D01*
X67454610Y-107023893D01*
X67771728Y-107048015D01*
X67771733Y-107048015D01*
X67775505Y-107048302D01*
X68100795Y-107033815D01*
X68421989Y-106980354D01*
X68734434Y-106888693D01*
X69033604Y-106760159D01*
X69036882Y-106758255D01*
X69036888Y-106758252D01*
X69200708Y-106663097D01*
X69315165Y-106596615D01*
X69575040Y-106400430D01*
X69809464Y-106174445D01*
X69811862Y-106171500D01*
X70012643Y-105924878D01*
X70012647Y-105924872D01*
X70015040Y-105921933D01*
X70188792Y-105646554D01*
X70328202Y-105352295D01*
X70431251Y-105043418D01*
X70496446Y-104724399D01*
X70522843Y-104399858D01*
X70523436Y-104343200D01*
X70503841Y-104018177D01*
X70499399Y-103993851D01*
X70446025Y-103701604D01*
X70445342Y-103697863D01*
X70348784Y-103386896D01*
X70215567Y-103089782D01*
X70047621Y-102810824D01*
X70045294Y-102807840D01*
X70045289Y-102807833D01*
X69849713Y-102557058D01*
X69849711Y-102557056D01*
X69847377Y-102554063D01*
X69617738Y-102323218D01*
X69362029Y-102121633D01*
X69083954Y-101952229D01*
X68840860Y-101841701D01*
X68787128Y-101795297D01*
X68767012Y-101727210D01*
X68786901Y-101659056D01*
X68840479Y-101612474D01*
X68893012Y-101601000D01*
X98171000Y-101601000D01*
X98239121Y-101621002D01*
X98285614Y-101674658D01*
X98297000Y-101727000D01*
X98297000Y-107949802D01*
X98296918Y-107950000D01*
X98297000Y-107950198D01*
X98297235Y-107950765D01*
X98298000Y-107951082D01*
X98298198Y-107951000D01*
X104521000Y-107951000D01*
X104589121Y-107971002D01*
X104635614Y-108024658D01*
X104647000Y-108077000D01*
X104647000Y-130429000D01*
X104626998Y-130497121D01*
X104573342Y-130543614D01*
X104521000Y-130555000D01*
X88904254Y-130555000D01*
X88836133Y-130534998D01*
X88789640Y-130481342D01*
X88779536Y-130411068D01*
X88809030Y-130346488D01*
X88854516Y-130313232D01*
X89045315Y-130231258D01*
X89048804Y-130229759D01*
X89052082Y-130227855D01*
X89052088Y-130227852D01*
X89215908Y-130132697D01*
X89330365Y-130066215D01*
X89590240Y-129870030D01*
X89824664Y-129644045D01*
X89827062Y-129641100D01*
X90027843Y-129394478D01*
X90027847Y-129394472D01*
X90030240Y-129391533D01*
X90203992Y-129116154D01*
X90343402Y-128821895D01*
X90446451Y-128513018D01*
X90511646Y-128193999D01*
X90538043Y-127869458D01*
X90538636Y-127812800D01*
X90519041Y-127487777D01*
X90514599Y-127463451D01*
X90461225Y-127171204D01*
X90460542Y-127167463D01*
X90363984Y-126856496D01*
X90230767Y-126559382D01*
X90062821Y-126280424D01*
X90060494Y-126277440D01*
X90060489Y-126277433D01*
X89864913Y-126026658D01*
X89864911Y-126026656D01*
X89862577Y-126023663D01*
X89632938Y-125792818D01*
X89377229Y-125591233D01*
X89099154Y-125421829D01*
X88980653Y-125367950D01*
X88806194Y-125288627D01*
X88806186Y-125288624D01*
X88802742Y-125287058D01*
X88492285Y-125188873D01*
X88350271Y-125162168D01*
X88176005Y-125129397D01*
X88176000Y-125129396D01*
X88172281Y-125128697D01*
X87847366Y-125107401D01*
X87843586Y-125107609D01*
X87843585Y-125107609D01*
X87746356Y-125112960D01*
X87522245Y-125125294D01*
X87518518Y-125125955D01*
X87518514Y-125125955D01*
X87259825Y-125171801D01*
X87201629Y-125182115D01*
X87198004Y-125183220D01*
X87197999Y-125183221D01*
X86996396Y-125244666D01*
X86890161Y-125277044D01*
X86886697Y-125278575D01*
X86886690Y-125278578D01*
X86703138Y-125359726D01*
X86592353Y-125408703D01*
X86589099Y-125410639D01*
X86589093Y-125410642D01*
X86566980Y-125423798D01*
X86312519Y-125575186D01*
X86054713Y-125774082D01*
X86052012Y-125776741D01*
X86052005Y-125776747D01*
X85825377Y-125999844D01*
X85822669Y-126002510D01*
X85820305Y-126005477D01*
X85820302Y-126005480D01*
X85805813Y-126023663D01*
X85619748Y-126257160D01*
X85448890Y-126534344D01*
X85312569Y-126830047D01*
X85311410Y-126833648D01*
X85311407Y-126833654D01*
X85302882Y-126860127D01*
X85212760Y-127139985D01*
X85212041Y-127143701D01*
X85212039Y-127143709D01*
X85151628Y-127455951D01*
X85151627Y-127455960D01*
X85150909Y-127459670D01*
X85150642Y-127463446D01*
X85150641Y-127463451D01*
X85148919Y-127487777D01*
X85127912Y-127784469D01*
X85144102Y-128109679D01*
X85144743Y-128113410D01*
X85144744Y-128113418D01*
X85159230Y-128197716D01*
X85199245Y-128430589D01*
X85200333Y-128434228D01*
X85200334Y-128434231D01*
X85223897Y-128513018D01*
X85292541Y-128742549D01*
X85422639Y-129041042D01*
X85587655Y-129321744D01*
X85589956Y-129324759D01*
X85782898Y-129577575D01*
X85782903Y-129577581D01*
X85785198Y-129580588D01*
X86012408Y-129813825D01*
X86265992Y-130018076D01*
X86542278Y-130190383D01*
X86626528Y-130229759D01*
X86808594Y-130314852D01*
X86861838Y-130361816D01*
X86881239Y-130430110D01*
X86860638Y-130498052D01*
X86806575Y-130544070D01*
X86755244Y-130555000D01*
X57277000Y-130555000D01*
X57208879Y-130534998D01*
X57162386Y-130481342D01*
X57151000Y-130429000D01*
X57151000Y-124206198D01*
X57151082Y-124206000D01*
X57150765Y-124205235D01*
X57150198Y-124205000D01*
X57150000Y-124204918D01*
X57149802Y-124205000D01*
X50927000Y-124205000D01*
X50858879Y-124184998D01*
X50812386Y-124131342D01*
X50801000Y-124079000D01*
X50801000Y-111392966D01*
X74233257Y-111392966D01*
X74263565Y-111527446D01*
X74266645Y-111537275D01*
X74346770Y-111734603D01*
X74351413Y-111743794D01*
X74462694Y-111925388D01*
X74468777Y-111933699D01*
X74608213Y-112094667D01*
X74615580Y-112101883D01*
X74779434Y-112237916D01*
X74787881Y-112243831D01*
X74971756Y-112351279D01*
X74981043Y-112355729D01*
X75020484Y-112370790D01*
X75076987Y-112413778D01*
X75101280Y-112480489D01*
X75085650Y-112549743D01*
X75035059Y-112599554D01*
X74975535Y-112614500D01*
X74695252Y-112614500D01*
X74689184Y-112615707D01*
X74648939Y-112623712D01*
X74648938Y-112623712D01*
X74636769Y-112626133D01*
X74570448Y-112670448D01*
X74526133Y-112736769D01*
X74514500Y-112795252D01*
X74514500Y-114534748D01*
X74526133Y-114593231D01*
X74570448Y-114659552D01*
X74636769Y-114703867D01*
X74648938Y-114706288D01*
X74648939Y-114706288D01*
X74689184Y-114714293D01*
X74695252Y-114715500D01*
X76434748Y-114715500D01*
X76440816Y-114714293D01*
X76481061Y-114706288D01*
X76481062Y-114706288D01*
X76493231Y-114703867D01*
X76559552Y-114659552D01*
X76603867Y-114593231D01*
X76615500Y-114534748D01*
X76615500Y-112795252D01*
X76603867Y-112736769D01*
X76559552Y-112670448D01*
X76493231Y-112626133D01*
X76481062Y-112623712D01*
X76481061Y-112623712D01*
X76440816Y-112615707D01*
X76434748Y-112614500D01*
X76155107Y-112614500D01*
X76086986Y-112594498D01*
X76040493Y-112540842D01*
X76030389Y-112470568D01*
X76059883Y-112405988D01*
X76099675Y-112375349D01*
X76258090Y-112297742D01*
X76266945Y-112292464D01*
X76440328Y-112168792D01*
X76448200Y-112162139D01*
X76599052Y-112011812D01*
X76605730Y-112003965D01*
X76730003Y-111831020D01*
X76735313Y-111822183D01*
X76829670Y-111631267D01*
X76833469Y-111621672D01*
X76895377Y-111417910D01*
X76897555Y-111407837D01*
X76898986Y-111396962D01*
X76896775Y-111382778D01*
X76883617Y-111379000D01*
X74248225Y-111379000D01*
X74234694Y-111382973D01*
X74233257Y-111392966D01*
X50801000Y-111392966D01*
X50801000Y-110859183D01*
X74229389Y-110859183D01*
X74230912Y-110867607D01*
X74243292Y-110871000D01*
X75292885Y-110871000D01*
X75308124Y-110866525D01*
X75309329Y-110865135D01*
X75311000Y-110857452D01*
X75311000Y-110852885D01*
X75819000Y-110852885D01*
X75823475Y-110868124D01*
X75824865Y-110869329D01*
X75832548Y-110871000D01*
X76883344Y-110871000D01*
X76896875Y-110867027D01*
X76898180Y-110857947D01*
X76856214Y-110690875D01*
X76852894Y-110681124D01*
X76767972Y-110485814D01*
X76763105Y-110476739D01*
X76647426Y-110297926D01*
X76641136Y-110289757D01*
X76497806Y-110132240D01*
X76490273Y-110125215D01*
X76323139Y-109993222D01*
X76314552Y-109987517D01*
X76128117Y-109884599D01*
X76118705Y-109880369D01*
X75917959Y-109809280D01*
X75907988Y-109806646D01*
X75836837Y-109793972D01*
X75823540Y-109795432D01*
X75819000Y-109809989D01*
X75819000Y-110852885D01*
X75311000Y-110852885D01*
X75311000Y-109808102D01*
X75307082Y-109794758D01*
X75292806Y-109792771D01*
X75254324Y-109798660D01*
X75244288Y-109801051D01*
X75041868Y-109867212D01*
X75032359Y-109871209D01*
X74843463Y-109969542D01*
X74834738Y-109975036D01*
X74664433Y-110102905D01*
X74656726Y-110109748D01*
X74509590Y-110263717D01*
X74503104Y-110271727D01*
X74383098Y-110447649D01*
X74378000Y-110456623D01*
X74288338Y-110649783D01*
X74284775Y-110659470D01*
X74229389Y-110859183D01*
X50801000Y-110859183D01*
X50801000Y-101727000D01*
X50821002Y-101658879D01*
X50874658Y-101612386D01*
X50927000Y-101601000D01*
X66745304Y-101601000D01*
X66813425Y-101621002D01*
G37*
%TD.AperFunction*%
%TD*%
M02*
