%TF.GenerationSoftware,KiCad,Pcbnew,(6.0.5-0)*%
%TF.CreationDate,2022-12-05T01:18:56+00:00*%
%TF.ProjectId,Ebow,45626f77-2e6b-4696-9361-645f70636258,rev?*%
%TF.SameCoordinates,Original*%
%TF.FileFunction,Legend,Top*%
%TF.FilePolarity,Positive*%
%FSLAX46Y46*%
G04 Gerber Fmt 4.6, Leading zero omitted, Abs format (unit mm)*
G04 Created by KiCad (PCBNEW (6.0.5-0)) date 2022-12-05 01:18:56*
%MOMM*%
%LPD*%
G01*
G04 APERTURE LIST*
%ADD10C,0.300000*%
%ADD11C,0.500000*%
%TA.AperFunction,Profile*%
%ADD12C,0.100000*%
%TD*%
%ADD13C,0.150000*%
%ADD14C,0.120000*%
G04 APERTURE END LIST*
D10*
X82808571Y-109263571D02*
X82308571Y-108549285D01*
X81951428Y-109263571D02*
X81951428Y-107763571D01*
X82522857Y-107763571D01*
X82665714Y-107835000D01*
X82737142Y-107906428D01*
X82808571Y-108049285D01*
X82808571Y-108263571D01*
X82737142Y-108406428D01*
X82665714Y-108477857D01*
X82522857Y-108549285D01*
X81951428Y-108549285D01*
X84022857Y-109192142D02*
X83880000Y-109263571D01*
X83594285Y-109263571D01*
X83451428Y-109192142D01*
X83380000Y-109049285D01*
X83380000Y-108477857D01*
X83451428Y-108335000D01*
X83594285Y-108263571D01*
X83880000Y-108263571D01*
X84022857Y-108335000D01*
X84094285Y-108477857D01*
X84094285Y-108620714D01*
X83380000Y-108763571D01*
X84594285Y-108263571D02*
X84951428Y-109263571D01*
X85308571Y-108263571D01*
X85808571Y-108835000D02*
X86522857Y-108835000D01*
X85665714Y-109263571D02*
X86165714Y-107763571D01*
X86665714Y-109263571D01*
X88951428Y-108263571D02*
X88951428Y-109263571D01*
X88594285Y-107692142D02*
X88237142Y-108763571D01*
X89165714Y-108763571D01*
X89951428Y-108406428D02*
X89808571Y-108335000D01*
X89737142Y-108263571D01*
X89665714Y-108120714D01*
X89665714Y-108049285D01*
X89737142Y-107906428D01*
X89808571Y-107835000D01*
X89951428Y-107763571D01*
X90237142Y-107763571D01*
X90380000Y-107835000D01*
X90451428Y-107906428D01*
X90522857Y-108049285D01*
X90522857Y-108120714D01*
X90451428Y-108263571D01*
X90380000Y-108335000D01*
X90237142Y-108406428D01*
X89951428Y-108406428D01*
X89808571Y-108477857D01*
X89737142Y-108549285D01*
X89665714Y-108692142D01*
X89665714Y-108977857D01*
X89737142Y-109120714D01*
X89808571Y-109192142D01*
X89951428Y-109263571D01*
X90237142Y-109263571D01*
X90380000Y-109192142D01*
X90451428Y-109120714D01*
X90522857Y-108977857D01*
X90522857Y-108692142D01*
X90451428Y-108549285D01*
X90380000Y-108477857D01*
X90237142Y-108406428D01*
X91094285Y-107906428D02*
X91165714Y-107835000D01*
X91308571Y-107763571D01*
X91665714Y-107763571D01*
X91808571Y-107835000D01*
X91880000Y-107906428D01*
X91951428Y-108049285D01*
X91951428Y-108192142D01*
X91880000Y-108406428D01*
X91022857Y-109263571D01*
X91951428Y-109263571D01*
X92522857Y-107906428D02*
X92594285Y-107835000D01*
X92737142Y-107763571D01*
X93094285Y-107763571D01*
X93237142Y-107835000D01*
X93308571Y-107906428D01*
X93380000Y-108049285D01*
X93380000Y-108192142D01*
X93308571Y-108406428D01*
X92451428Y-109263571D01*
X93380000Y-109263571D01*
D11*
X73891428Y-105989285D02*
X74320000Y-106132142D01*
X75034285Y-106132142D01*
X75320000Y-105989285D01*
X75462857Y-105846428D01*
X75605714Y-105560714D01*
X75605714Y-105275000D01*
X75462857Y-104989285D01*
X75320000Y-104846428D01*
X75034285Y-104703571D01*
X74462857Y-104560714D01*
X74177142Y-104417857D01*
X74034285Y-104275000D01*
X73891428Y-103989285D01*
X73891428Y-103703571D01*
X74034285Y-103417857D01*
X74177142Y-103275000D01*
X74462857Y-103132142D01*
X75177142Y-103132142D01*
X75605714Y-103275000D01*
X78177142Y-104132142D02*
X78177142Y-106132142D01*
X76891428Y-104132142D02*
X76891428Y-105703571D01*
X77034285Y-105989285D01*
X77320000Y-106132142D01*
X77748571Y-106132142D01*
X78034285Y-105989285D01*
X78177142Y-105846428D01*
X79462857Y-105989285D02*
X79748571Y-106132142D01*
X80320000Y-106132142D01*
X80605714Y-105989285D01*
X80748571Y-105703571D01*
X80748571Y-105560714D01*
X80605714Y-105275000D01*
X80320000Y-105132142D01*
X79891428Y-105132142D01*
X79605714Y-104989285D01*
X79462857Y-104703571D01*
X79462857Y-104560714D01*
X79605714Y-104275000D01*
X79891428Y-104132142D01*
X80320000Y-104132142D01*
X80605714Y-104275000D01*
X81605714Y-104132142D02*
X82748571Y-104132142D01*
X82034285Y-103132142D02*
X82034285Y-105703571D01*
X82177142Y-105989285D01*
X82462857Y-106132142D01*
X82748571Y-106132142D01*
X85034285Y-106132142D02*
X85034285Y-104560714D01*
X84891428Y-104275000D01*
X84605714Y-104132142D01*
X84034285Y-104132142D01*
X83748571Y-104275000D01*
X85034285Y-105989285D02*
X84748571Y-106132142D01*
X84034285Y-106132142D01*
X83748571Y-105989285D01*
X83605714Y-105703571D01*
X83605714Y-105417857D01*
X83748571Y-105132142D01*
X84034285Y-104989285D01*
X84748571Y-104989285D01*
X85034285Y-104846428D01*
X86462857Y-106132142D02*
X86462857Y-104132142D01*
X86462857Y-103132142D02*
X86320000Y-103275000D01*
X86462857Y-103417857D01*
X86605714Y-103275000D01*
X86462857Y-103132142D01*
X86462857Y-103417857D01*
X87891428Y-104132142D02*
X87891428Y-106132142D01*
X87891428Y-104417857D02*
X88034285Y-104275000D01*
X88320000Y-104132142D01*
X88748571Y-104132142D01*
X89034285Y-104275000D01*
X89177142Y-104560714D01*
X89177142Y-106132142D01*
X91748571Y-105989285D02*
X91462857Y-106132142D01*
X90891428Y-106132142D01*
X90605714Y-105989285D01*
X90462857Y-105703571D01*
X90462857Y-104560714D01*
X90605714Y-104275000D01*
X90891428Y-104132142D01*
X91462857Y-104132142D01*
X91748571Y-104275000D01*
X91891428Y-104560714D01*
X91891428Y-104846428D01*
X90462857Y-105132142D01*
X93177142Y-106132142D02*
X93177142Y-104132142D01*
X93177142Y-104703571D02*
X93320000Y-104417857D01*
X93462857Y-104275000D01*
X93748571Y-104132142D01*
X94034285Y-104132142D01*
D12*
X98298000Y-107950000D02*
X104648000Y-107950000D01*
X98298000Y-101600000D02*
X98298000Y-107950000D01*
X104648000Y-107950000D02*
X104648000Y-130556000D01*
X57150000Y-124206000D02*
X50800000Y-124206000D01*
X57150000Y-124206000D02*
X57150000Y-130556000D01*
X50800000Y-124206000D02*
X50800000Y-101600000D01*
X104648000Y-130556000D02*
X57150000Y-130556000D01*
X50800000Y-101600000D02*
X98298000Y-101600000D01*
D13*
%TO.C,L2*%
X98893333Y-123007380D02*
X98417142Y-123007380D01*
X98417142Y-122007380D01*
X99179047Y-122102619D02*
X99226666Y-122055000D01*
X99321904Y-122007380D01*
X99560000Y-122007380D01*
X99655238Y-122055000D01*
X99702857Y-122102619D01*
X99750476Y-122197857D01*
X99750476Y-122293095D01*
X99702857Y-122435952D01*
X99131428Y-123007380D01*
X99750476Y-123007380D01*
%TO.C,U1*%
X64008095Y-115657380D02*
X64008095Y-116466904D01*
X64055714Y-116562142D01*
X64103333Y-116609761D01*
X64198571Y-116657380D01*
X64389047Y-116657380D01*
X64484285Y-116609761D01*
X64531904Y-116562142D01*
X64579523Y-116466904D01*
X64579523Y-115657380D01*
X65579523Y-116657380D02*
X65008095Y-116657380D01*
X65293809Y-116657380D02*
X65293809Y-115657380D01*
X65198571Y-115800238D01*
X65103333Y-115895476D01*
X65008095Y-115943095D01*
%TO.C,R1*%
X80478333Y-128722380D02*
X80145000Y-128246190D01*
X79906904Y-128722380D02*
X79906904Y-127722380D01*
X80287857Y-127722380D01*
X80383095Y-127770000D01*
X80430714Y-127817619D01*
X80478333Y-127912857D01*
X80478333Y-128055714D01*
X80430714Y-128150952D01*
X80383095Y-128198571D01*
X80287857Y-128246190D01*
X79906904Y-128246190D01*
X81430714Y-128722380D02*
X80859285Y-128722380D01*
X81145000Y-128722380D02*
X81145000Y-127722380D01*
X81049761Y-127865238D01*
X80954523Y-127960476D01*
X80859285Y-128008095D01*
%TO.C,L1*%
X56348333Y-110307380D02*
X55872142Y-110307380D01*
X55872142Y-109307380D01*
X57205476Y-110307380D02*
X56634047Y-110307380D01*
X56919761Y-110307380D02*
X56919761Y-109307380D01*
X56824523Y-109450238D01*
X56729285Y-109545476D01*
X56634047Y-109593095D01*
%TO.C,J1*%
X75231666Y-108032380D02*
X75231666Y-108746666D01*
X75184047Y-108889523D01*
X75088809Y-108984761D01*
X74945952Y-109032380D01*
X74850714Y-109032380D01*
X76231666Y-109032380D02*
X75660238Y-109032380D01*
X75945952Y-109032380D02*
X75945952Y-108032380D01*
X75850714Y-108175238D01*
X75755476Y-108270476D01*
X75660238Y-108318095D01*
%TO.C,C4*%
X79732142Y-117641666D02*
X79779761Y-117689285D01*
X79827380Y-117832142D01*
X79827380Y-117927380D01*
X79779761Y-118070238D01*
X79684523Y-118165476D01*
X79589285Y-118213095D01*
X79398809Y-118260714D01*
X79255952Y-118260714D01*
X79065476Y-118213095D01*
X78970238Y-118165476D01*
X78875000Y-118070238D01*
X78827380Y-117927380D01*
X78827380Y-117832142D01*
X78875000Y-117689285D01*
X78922619Y-117641666D01*
X79160714Y-116784523D02*
X79827380Y-116784523D01*
X78779761Y-117022619D02*
X79494047Y-117260714D01*
X79494047Y-116641666D01*
%TO.C,C3*%
X80478333Y-125452142D02*
X80430714Y-125499761D01*
X80287857Y-125547380D01*
X80192619Y-125547380D01*
X80049761Y-125499761D01*
X79954523Y-125404523D01*
X79906904Y-125309285D01*
X79859285Y-125118809D01*
X79859285Y-124975952D01*
X79906904Y-124785476D01*
X79954523Y-124690238D01*
X80049761Y-124595000D01*
X80192619Y-124547380D01*
X80287857Y-124547380D01*
X80430714Y-124595000D01*
X80478333Y-124642619D01*
X80811666Y-124547380D02*
X81430714Y-124547380D01*
X81097380Y-124928333D01*
X81240238Y-124928333D01*
X81335476Y-124975952D01*
X81383095Y-125023571D01*
X81430714Y-125118809D01*
X81430714Y-125356904D01*
X81383095Y-125452142D01*
X81335476Y-125499761D01*
X81240238Y-125547380D01*
X80954523Y-125547380D01*
X80859285Y-125499761D01*
X80811666Y-125452142D01*
%TO.C,C2*%
X70318333Y-124817142D02*
X70270714Y-124864761D01*
X70127857Y-124912380D01*
X70032619Y-124912380D01*
X69889761Y-124864761D01*
X69794523Y-124769523D01*
X69746904Y-124674285D01*
X69699285Y-124483809D01*
X69699285Y-124340952D01*
X69746904Y-124150476D01*
X69794523Y-124055238D01*
X69889761Y-123960000D01*
X70032619Y-123912380D01*
X70127857Y-123912380D01*
X70270714Y-123960000D01*
X70318333Y-124007619D01*
X70699285Y-124007619D02*
X70746904Y-123960000D01*
X70842142Y-123912380D01*
X71080238Y-123912380D01*
X71175476Y-123960000D01*
X71223095Y-124007619D01*
X71270714Y-124102857D01*
X71270714Y-124198095D01*
X71223095Y-124340952D01*
X70651666Y-124912380D01*
X71270714Y-124912380D01*
%TO.C,C1*%
X70318333Y-109857142D02*
X70270714Y-109904761D01*
X70127857Y-109952380D01*
X70032619Y-109952380D01*
X69889761Y-109904761D01*
X69794523Y-109809523D01*
X69746904Y-109714285D01*
X69699285Y-109523809D01*
X69699285Y-109380952D01*
X69746904Y-109190476D01*
X69794523Y-109095238D01*
X69889761Y-109000000D01*
X70032619Y-108952380D01*
X70127857Y-108952380D01*
X70270714Y-109000000D01*
X70318333Y-109047619D01*
X71270714Y-109952380D02*
X70699285Y-109952380D01*
X70985000Y-109952380D02*
X70985000Y-108952380D01*
X70889761Y-109095238D01*
X70794523Y-109190476D01*
X70699285Y-109238095D01*
D14*
%TO.C,L2*%
X94960000Y-121205000D02*
X94960000Y-111205000D01*
X103160000Y-121205000D02*
X103160000Y-111205000D01*
%TO.C,U1*%
X67310000Y-117455000D02*
X69260000Y-117455000D01*
X67310000Y-122575000D02*
X69260000Y-122575000D01*
X67310000Y-117455000D02*
X63860000Y-117455000D01*
X67310000Y-122575000D02*
X65360000Y-122575000D01*
%TO.C,R1*%
X77697064Y-129005000D02*
X77242936Y-129005000D01*
X77697064Y-127535000D02*
X77242936Y-127535000D01*
%TO.C,L1*%
X60615000Y-111205000D02*
X60615000Y-121205000D01*
X52415000Y-111205000D02*
X52415000Y-121205000D01*
%TO.C,J1*%
X76895000Y-113665000D02*
X76895000Y-114995000D01*
X76895000Y-109795000D02*
X74235000Y-109795000D01*
X76895000Y-112395000D02*
X76895000Y-109795000D01*
X76895000Y-112395000D02*
X74235000Y-112395000D01*
X76895000Y-114995000D02*
X75565000Y-114995000D01*
X74235000Y-112395000D02*
X74235000Y-109795000D01*
%TO.C,C4*%
X81360000Y-114765000D02*
X81360000Y-115765000D01*
X90620000Y-121735000D02*
X90620000Y-118685000D01*
X80860000Y-115265000D02*
X81860000Y-115265000D01*
X90620000Y-113215000D02*
X90620000Y-116265000D01*
X82100000Y-120670563D02*
X83164437Y-121735000D01*
X83164437Y-121735000D02*
X90620000Y-121735000D01*
X82100000Y-120670563D02*
X82100000Y-118685000D01*
X82100000Y-114279437D02*
X83164437Y-113215000D01*
X83164437Y-113215000D02*
X90620000Y-113215000D01*
X82100000Y-114279437D02*
X82100000Y-116265000D01*
%TO.C,C3*%
X77731252Y-125830000D02*
X77208748Y-125830000D01*
X77731252Y-124360000D02*
X77208748Y-124360000D01*
%TO.C,C2*%
X69570000Y-125804437D02*
X69570000Y-125940000D01*
X68505563Y-124740000D02*
X65050000Y-124740000D01*
X65050000Y-129260000D02*
X65050000Y-128060000D01*
X69570000Y-128195563D02*
X69570000Y-128060000D01*
X68505563Y-129260000D02*
X65050000Y-129260000D01*
X69570000Y-128195563D02*
X68505563Y-129260000D01*
X69570000Y-125804437D02*
X68505563Y-124740000D01*
X65050000Y-124740000D02*
X65050000Y-125940000D01*
%TO.C,C1*%
X69570000Y-110564437D02*
X69570000Y-110700000D01*
X68505563Y-109500000D02*
X65050000Y-109500000D01*
X65050000Y-114020000D02*
X65050000Y-112820000D01*
X69570000Y-112955563D02*
X69570000Y-112820000D01*
X68505563Y-114020000D02*
X65050000Y-114020000D01*
X69570000Y-112955563D02*
X68505563Y-114020000D01*
X69570000Y-110564437D02*
X68505563Y-109500000D01*
X65050000Y-109500000D02*
X65050000Y-110700000D01*
%TD*%
M02*
