<?xml version="1.0" standalone="no"?>
 <!DOCTYPE svg PUBLIC "-//W3C//DTD SVG 1.1//EN" 
 "http://www.w3.org/Graphics/SVG/1.1/DTD/svg11.dtd"> 
<svg
  xmlns:svg="http://www.w3.org/2000/svg"
  xmlns="http://www.w3.org/2000/svg"
  xmlns:xlink="http://www.w3.org/1999/xlink"
  version="1.1"
  width="29.700220cm" height="21.000720cm" viewBox="0 0 116930 82680">
<title>SVG Picture created as Ebow.svg date 2022/12/05 02:05:01 </title>
  <desc>Picture generated by Eeschema-SVG </desc>
<g style="fill:#000000; fill-opacity:1.000000;stroke:#000000; stroke-opacity:1.000000;
stroke-linecap:round; stroke-linejoin:round;"
 transform="translate(0 0) scale(1 1)">
</g>
<g style="fill:#840000; fill-opacity:0.0; 
stroke:#840000; stroke-width:0.000000; stroke-opacity:1; 
stroke-linecap:round; stroke-linejoin:round;">
</g>
<g style="fill:#840000; fill-opacity:0.0; 
stroke:#840000; stroke-width:60.000000; stroke-opacity:1; 
stroke-linecap:round; stroke-linejoin:round;">
<rect x="69685.905512" y="65357.165354" width="42519.685039" height="12598.425197" rx="0.000000" />
<rect x="3937.007874" y="3937.007874" width="109055.984252" height="74805.984252" rx="0.000000" />
<rect x="4724.409449" y="4724.409449" width="107481.181102" height="73231.181102" rx="0.000000" />
<path d="M23622 4724
L23622 3937
" />
<path d="M43307 4724
L43307 3937
" />
<path d="M62992 4724
L62992 3937
" />
<path d="M82677 4724
L82677 3937
" />
<path d="M102362 4724
L102362 3937
" />
<text x="13779.527559" y="4586.614173"
textLength="617.440945" font-size="682.401575" lengthAdjust="spacingAndGlyphs"
text-anchor="start" opacity="0">1</text>
<g class="stroked-text"><desc>1</desc>
<path d="M14199 4562
L13907 4562
" />
<path d="M14053 4562
L14053 4050
L14004 4123
L13955 4172
L13907 4196
" />
</g><text x="33464.566929" y="4586.614173"
textLength="547.440945" font-size="682.401575" lengthAdjust="spacingAndGlyphs"
text-anchor="start" opacity="0">2</text>
<g class="stroked-text"><desc>2</desc>
<path d="M33592 4099
L33616 4074
L33665 4050
L33787 4050
L33835 4074
L33860 4099
L33884 4147
L33884 4196
L33860 4269
L33567 4562
L33884 4562
" />
</g><text x="53149.606299" y="4586.614173"
textLength="547.440945" font-size="682.401575" lengthAdjust="spacingAndGlyphs"
text-anchor="start" opacity="0">3</text>
<g class="stroked-text"><desc>3</desc>
<path d="M53252 4050
L53569 4050
L53398 4245
L53472 4245
L53520 4269
L53545 4294
L53569 4342
L53569 4464
L53545 4513
L53520 4537
L53472 4562
L53325 4562
L53277 4537
L53252 4513
" />
</g><text x="72834.645669" y="4586.614173"
textLength="547.440945" font-size="682.401575" lengthAdjust="spacingAndGlyphs"
text-anchor="start" opacity="0">4</text>
<g class="stroked-text"><desc>4</desc>
<path d="M73205 4221
L73205 4562
" />
<path d="M73083 4026
L72962 4391
L73278 4391
" />
</g><text x="92519.685039" y="4586.614173"
textLength="547.440945" font-size="682.401575" lengthAdjust="spacingAndGlyphs"
text-anchor="start" opacity="0">5</text>
<g class="stroked-text"><desc>5</desc>
<path d="M92915 4050
L92671 4050
L92647 4294
L92671 4269
L92720 4245
L92842 4245
L92890 4269
L92915 4294
L92939 4342
L92939 4464
L92915 4513
L92890 4537
L92842 4562
L92720 4562
L92671 4537
L92647 4513
" />
</g><text x="112204.724409" y="4586.614173"
textLength="547.440945" font-size="682.401575" lengthAdjust="spacingAndGlyphs"
text-anchor="start" opacity="0">6</text>
<g class="stroked-text"><desc>6</desc>
<path d="M112575 4050
L112478 4050
L112429 4074
L112405 4099
L112356 4172
L112332 4269
L112332 4464
L112356 4513
L112380 4537
L112429 4562
L112527 4562
L112575 4537
L112600 4513
L112624 4464
L112624 4342
L112600 4294
L112575 4269
L112527 4245
L112429 4245
L112380 4269
L112356 4294
L112332 4342
" />
</g><path d="M23622 77955
L23622 78742
" />
<path d="M43307 77955
L43307 78742
" />
<path d="M62992 77955
L62992 78742
" />
<path d="M82677 77955
L82677 78742
" />
<path d="M102362 77955
L102362 78742
" />
<text x="13779.527559" y="78605.196850"
textLength="547.440945" font-size="682.401575" lengthAdjust="spacingAndGlyphs"
text-anchor="start" opacity="0">1</text>
<g class="stroked-text"><desc>1</desc>
<path d="M14199 78580
L13907 78580
" />
<path d="M14053 78580
L14053 78068
L14004 78142
L13955 78190
L13907 78215
" />
</g><text x="33464.566929" y="78605.196850"
textLength="547.440945" font-size="682.401575" lengthAdjust="spacingAndGlyphs"
text-anchor="start" opacity="0">2</text>
<g class="stroked-text"><desc>2</desc>
<path d="M33592 78117
L33616 78093
L33665 78068
L33787 78068
L33835 78093
L33860 78117
L33884 78166
L33884 78215
L33860 78288
L33567 78580
L33884 78580
" />
</g><text x="53149.606299" y="78605.196850"
textLength="547.440945" font-size="682.401575" lengthAdjust="spacingAndGlyphs"
text-anchor="start" opacity="0">3</text>
<g class="stroked-text"><desc>3</desc>
<path d="M53252 78068
L53569 78068
L53398 78263
L53472 78263
L53520 78288
L53545 78312
L53569 78361
L53569 78483
L53545 78532
L53520 78556
L53472 78580
L53325 78580
L53277 78556
L53252 78532
" />
</g><text x="72834.645669" y="78605.196850"
textLength="547.440945" font-size="682.401575" lengthAdjust="spacingAndGlyphs"
text-anchor="start" opacity="0">4</text>
<g class="stroked-text"><desc>4</desc>
<path d="M73205 78239
L73205 78580
" />
<path d="M73083 78044
L72962 78410
L73278 78410
" />
</g><text x="92519.685039" y="78605.196850"
textLength="547.440945" font-size="682.401575" lengthAdjust="spacingAndGlyphs"
text-anchor="start" opacity="0">5</text>
<g class="stroked-text"><desc>5</desc>
<path d="M92915 78068
L92671 78068
L92647 78312
L92671 78288
L92720 78263
L92842 78263
L92890 78288
L92915 78312
L92939 78361
L92939 78483
L92915 78532
L92890 78556
L92842 78580
L92720 78580
L92671 78556
L92647 78532
" />
</g><text x="112204.724409" y="78605.196850"
textLength="547.440945" font-size="682.401575" lengthAdjust="spacingAndGlyphs"
text-anchor="start" opacity="0">6</text>
<g class="stroked-text"><desc>6</desc>
<path d="M112575 78068
L112478 78068
L112429 78093
L112405 78117
L112356 78190
L112332 78288
L112332 78483
L112356 78532
L112380 78556
L112429 78580
L112527 78580
L112575 78556
L112600 78532
L112624 78483
L112624 78361
L112600 78312
L112575 78288
L112527 78263
L112429 78263
L112380 78288
L112356 78312
L112332 78361
" />
</g><path d="M3937 23622
L4724 23622
" />
<path d="M3937 43307
L4724 43307
" />
<path d="M3937 62992
L4724 62992
" />
<text x="4330.708661" y="14035.433071"
textLength="498.700787" font-size="682.401575" lengthAdjust="spacingAndGlyphs"
text-anchor="middle" opacity="0">A</text>
<g class="stroked-text"><desc>A</desc>
<path d="M4208 13864
L4452 13864
" />
<path d="M4160 14011
L4330 13499
L4501 14011
" />
</g><text x="4330.708661" y="33720.472441"
textLength="571.811024" font-size="682.401575" lengthAdjust="spacingAndGlyphs"
text-anchor="middle" opacity="0">B</text>
<g class="stroked-text"><desc>B</desc>
<path d="M4367 33427
L4440 33452
L4464 33476
L4489 33525
L4489 33598
L4464 33647
L4440 33671
L4391 33696
L4196 33696
L4196 33184
L4367 33184
L4415 33208
L4440 33233
L4464 33281
L4464 33330
L4440 33379
L4415 33403
L4367 33427
L4196 33427
" />
</g><text x="4330.708661" y="53405.511811"
textLength="571.811024" font-size="682.401575" lengthAdjust="spacingAndGlyphs"
text-anchor="middle" opacity="0">C</text>
<g class="stroked-text"><desc>C</desc>
<path d="M4489 53332
L4464 53356
L4391 53381
L4342 53381
L4269 53356
L4221 53307
L4196 53259
L4172 53161
L4172 53088
L4196 52991
L4221 52942
L4269 52893
L4342 52869
L4391 52869
L4464 52893
L4489 52918
" />
</g><text x="4330.708661" y="73090.551181"
textLength="571.811024" font-size="682.401575" lengthAdjust="spacingAndGlyphs"
text-anchor="middle" opacity="0">D</text>
<g class="stroked-text"><desc>D</desc>
<path d="M4196 73066
L4196 72554
L4318 72554
L4391 72578
L4440 72627
L4464 72676
L4489 72773
L4489 72846
L4464 72944
L4440 72993
L4391 73041
L4318 73066
L4196 73066
" />
</g><path d="M112992 23622
L112205 23622
" />
<path d="M112992 43307
L112205 43307
" />
<path d="M112992 62992
L112205 62992
" />
<text x="112599.291339" y="14035.433071"
textLength="498.700787" font-size="682.401575" lengthAdjust="spacingAndGlyphs"
text-anchor="middle" opacity="0">A</text>
<g class="stroked-text"><desc>A</desc>
<path d="M112477 13864
L112721 13864
" />
<path d="M112428 14011
L112599 13499
L112769 14011
" />
</g><text x="112599.291339" y="33720.472441"
textLength="571.811024" font-size="682.401575" lengthAdjust="spacingAndGlyphs"
text-anchor="middle" opacity="0">B</text>
<g class="stroked-text"><desc>B</desc>
<path d="M112635 33427
L112708 33452
L112733 33476
L112757 33525
L112757 33598
L112733 33647
L112708 33671
L112660 33696
L112465 33696
L112465 33184
L112635 33184
L112684 33208
L112708 33233
L112733 33281
L112733 33330
L112708 33379
L112684 33403
L112635 33427
L112465 33427
" />
</g><text x="112599.291339" y="53405.511811"
textLength="571.811024" font-size="682.401575" lengthAdjust="spacingAndGlyphs"
text-anchor="middle" opacity="0">C</text>
<g class="stroked-text"><desc>C</desc>
<path d="M112757 53332
L112733 53356
L112660 53381
L112611 53381
L112538 53356
L112489 53307
L112465 53259
L112440 53161
L112440 53088
L112465 52991
L112489 52942
L112538 52893
L112611 52869
L112660 52869
L112733 52893
L112757 52918
" />
</g><text x="112599.291339" y="73090.551181"
textLength="571.811024" font-size="682.401575" lengthAdjust="spacingAndGlyphs"
text-anchor="middle" opacity="0">D</text>
<g class="stroked-text"><desc>D</desc>
<path d="M112465 73066
L112465 72554
L112587 72554
L112660 72578
L112708 72627
L112733 72676
L112757 72773
L112757 72846
L112733 72944
L112708 72993
L112660 73041
L112587 73066
L112465 73066
" />
</g><text x="78741.023622" y="76321.732283"
textLength="2759.645669" font-size="787.401575" lengthAdjust="spacingAndGlyphs"
text-anchor="start" opacity="0">Date: </text>
<g class="stroked-text"><desc>Date: </desc>
<path d="M78911 76293
L78911 75703
L79052 75703
L79136 75731
L79192 75787
L79220 75843
L79249 75956
L79249 76040
L79220 76152
L79192 76209
L79136 76265
L79052 76293
L78911 76293
" />
<path d="M79755 76293
L79755 75984
L79727 75928
L79670 75899
L79558 75899
L79502 75928
" />
<path d="M79755 76265
L79699 76293
L79558 76293
L79502 76265
L79474 76209
L79474 76152
L79502 76096
L79558 76068
L79699 76068
L79755 76040
" />
<path d="M79952 75899
L80177 75899
" />
<path d="M80036 75703
L80036 76209
L80064 76265
L80120 76293
L80177 76293
" />
<path d="M80598 76265
L80542 76293
L80430 76293
L80373 76265
L80345 76209
L80345 75984
L80373 75928
L80430 75899
L80542 75899
L80598 75928
L80627 75984
L80627 76040
L80345 76096
" />
<path d="M80880 76237
L80908 76265
L80880 76293
L80852 76265
L80880 76237
L80880 76293
" />
<path d="M80880 75928
L80908 75956
L80880 75984
L80852 75956
L80880 75928
L80880 75984
" />
</g><path d="M69685 76577
L112205 76577
" />
<text x="70079.606299" y="77424.094488"
textLength="13530.196850" font-size="787.401575" lengthAdjust="spacingAndGlyphs"
text-anchor="start" opacity="0">KiCad E.D.A.  kicad (6.0.5-0)</text>
<g class="stroked-text"><desc>KiCad E.D.A.  kicad (6.0.5-0)</desc>
<path d="M70250 77395
L70250 76805
" />
<path d="M70587 77395
L70334 77058
" />
<path d="M70587 76805
L70250 77142
" />
<path d="M70840 77395
L70840 77002
" />
<path d="M70840 76805
L70812 76833
L70840 76861
L70868 76833
L70840 76805
L70840 76861
" />
<path d="M71459 77339
L71431 77367
L71346 77395
L71290 77395
L71206 77367
L71150 77311
L71121 77255
L71093 77142
L71093 77058
L71121 76946
L71150 76889
L71206 76833
L71290 76805
L71346 76805
L71431 76833
L71459 76861
" />
<path d="M71965 77395
L71965 77086
L71937 77030
L71881 77002
L71768 77002
L71712 77030
" />
<path d="M71965 77367
L71909 77395
L71768 77395
L71712 77367
L71684 77311
L71684 77255
L71712 77199
L71768 77170
L71909 77170
L71965 77142
" />
<path d="M72499 77395
L72499 76805
" />
<path d="M72499 77367
L72443 77395
L72331 77395
L72274 77367
L72246 77339
L72218 77283
L72218 77114
L72246 77058
L72274 77030
L72331 77002
L72443 77002
L72499 77030
" />
<path d="M73231 77086
L73427 77086
" />
<path d="M73512 77395
L73231 77395
L73231 76805
L73512 76805
" />
<path d="M73765 77339
L73793 77367
L73765 77395
L73737 77367
L73765 77339
L73765 77395
" />
<path d="M74046 77395
L74046 76805
L74187 76805
L74271 76833
L74327 76889
L74355 76946
L74384 77058
L74384 77142
L74355 77255
L74327 77311
L74271 77367
L74187 77395
L74046 77395
" />
<path d="M74637 77339
L74665 77367
L74637 77395
L74609 77367
L74637 77339
L74637 77395
" />
<path d="M74890 77227
L75171 77227
" />
<path d="M74834 77395
L75030 76805
L75227 77395
" />
<path d="M75424 77339
L75452 77367
L75424 77395
L75396 77367
L75424 77339
L75424 77395
" />
<path d="M76605 77395
L76605 76805
" />
<path d="M76661 77170
L76830 77395
" />
<path d="M76830 77002
L76605 77227
" />
<path d="M77083 77395
L77083 77002
" />
<path d="M77083 76805
L77055 76833
L77083 76861
L77111 76833
L77083 76805
L77083 76861
" />
<path d="M77618 77367
L77561 77395
L77449 77395
L77393 77367
L77364 77339
L77336 77283
L77336 77114
L77364 77058
L77393 77030
L77449 77002
L77561 77002
L77618 77030
" />
<path d="M78124 77395
L78124 77086
L78096 77030
L78039 77002
L77927 77002
L77871 77030
" />
<path d="M78124 77367
L78067 77395
L77927 77395
L77871 77367
L77842 77311
L77842 77255
L77871 77199
L77927 77170
L78067 77170
L78124 77142
" />
<path d="M78658 77395
L78658 76805
" />
<path d="M78658 77367
L78602 77395
L78489 77395
L78433 77367
L78405 77339
L78377 77283
L78377 77114
L78405 77058
L78433 77030
L78489 77002
L78602 77002
L78658 77030
" />
<path d="M79558 77620
L79530 77592
L79474 77508
L79445 77452
L79417 77367
L79389 77227
L79389 77114
L79417 76974
L79445 76889
L79474 76833
L79530 76749
L79558 76721
" />
<path d="M80036 76805
L79923 76805
L79867 76833
L79839 76861
L79783 76946
L79755 77058
L79755 77283
L79783 77339
L79811 77367
L79867 77395
L79980 77395
L80036 77367
L80064 77339
L80092 77283
L80092 77142
L80064 77086
L80036 77058
L79980 77030
L79867 77030
L79811 77058
L79783 77086
L79755 77142
" />
<path d="M80345 77339
L80373 77367
L80345 77395
L80317 77367
L80345 77339
L80345 77395
" />
<path d="M80739 76805
L80795 76805
L80852 76833
L80880 76861
L80908 76917
L80936 77030
L80936 77170
L80908 77283
L80880 77339
L80852 77367
L80795 77395
L80739 77395
L80683 77367
L80655 77339
L80627 77283
L80598 77170
L80598 77030
L80627 76917
L80655 76861
L80683 76833
L80739 76805
" />
<path d="M81189 77339
L81217 77367
L81189 77395
L81161 77367
L81189 77339
L81189 77395
" />
<path d="M81751 76805
L81470 76805
L81442 77086
L81470 77058
L81526 77030
L81667 77030
L81723 77058
L81751 77086
L81780 77142
L81780 77283
L81751 77339
L81723 77367
L81667 77395
L81526 77395
L81470 77367
L81442 77339
" />
<path d="M82033 77170
L82483 77170
" />
<path d="M82876 76805
L82932 76805
L82989 76833
L83017 76861
L83045 76917
L83073 77030
L83073 77170
L83045 77283
L83017 77339
L82989 77367
L82932 77395
L82876 77395
L82820 77367
L82792 77339
L82764 77283
L82736 77170
L82736 77030
L82764 76917
L82792 76861
L82820 76833
L82876 76805
" />
<path d="M83270 77620
L83298 77592
L83354 77508
L83382 77452
L83411 77367
L83439 77227
L83439 77114
L83411 76974
L83382 76889
L83354 76833
L83298 76749
L83270 76721
" />
</g><path d="M69685 75396
L112205 75396
" />
</g>
<g style="fill:#840000; fill-opacity:0.0; 
stroke:#840000; stroke-width:118.110236; stroke-opacity:1; 
stroke-linecap:round; stroke-linejoin:round;">
<text x="103544.173228" y="76321.732283"
textLength="2844.015748" font-size="787.401575" lengthAdjust="spacingAndGlyphs"
text-anchor="start" opacity="0">Rev: A</text>
<g class="stroked-text"><desc>Rev: A</desc>
<path d="M104098 76293
L103902 76012
" />
<path d="M103761 76293
L103761 75703
L103986 75703
L104042 75731
L104070 75759
L104098 75815
L104098 75899
L104070 75956
L104042 75984
L103986 76012
L103761 76012
" />
<path d="M104577 76265
L104520 76293
L104408 76293
L104352 76265
L104323 76209
L104323 75984
L104352 75928
L104408 75899
L104520 75899
L104577 75928
L104605 75984
L104605 76040
L104323 76096
" />
<path d="M104802 75899
L104942 76293
L105083 75899
" />
<path d="M105308 76237
L105336 76265
L105308 76293
L105280 76265
L105308 76237
L105308 76293
" />
<path d="M105308 75928
L105336 75956
L105308 75984
L105280 75956
L105308 75928
L105308 75984
" />
<path d="M106011 76124
L106292 76124
" />
<path d="M105955 76293
L106151 75703
L106348 76293
" />
</g></g>
<g style="fill:#840000; fill-opacity:0.0; 
stroke:#840000; stroke-width:60.000000; stroke-opacity:1; 
stroke-linecap:round; stroke-linejoin:round;">
<text x="70079.606299" y="76321.732283"
textLength="3781.220472" font-size="787.401575" lengthAdjust="spacingAndGlyphs"
text-anchor="start" opacity="0">Size: A4</text>
<g class="stroked-text"><desc>Size: A4</desc>
<path d="M70222 76265
L70306 76293
L70447 76293
L70503 76265
L70531 76237
L70559 76181
L70559 76124
L70531 76068
L70503 76040
L70447 76012
L70334 75984
L70278 75956
L70250 75928
L70222 75871
L70222 75815
L70250 75759
L70278 75731
L70334 75703
L70475 75703
L70559 75731
" />
<path d="M70812 76293
L70812 75899
" />
<path d="M70812 75703
L70784 75731
L70812 75759
L70840 75731
L70812 75703
L70812 75759
" />
<path d="M71037 75899
L71346 75899
L71037 76293
L71346 76293
" />
<path d="M71796 76265
L71740 76293
L71628 76293
L71571 76265
L71543 76209
L71543 75984
L71571 75928
L71628 75899
L71740 75899
L71796 75928
L71825 75984
L71825 76040
L71543 76096
" />
<path d="M72078 76237
L72106 76265
L72078 76293
L72049 76265
L72078 76237
L72078 76293
" />
<path d="M72078 75928
L72106 75956
L72078 75984
L72049 75956
L72078 75928
L72078 75984
" />
<path d="M72781 76124
L73062 76124
" />
<path d="M72724 76293
L72921 75703
L73118 76293
" />
<path d="M73568 75899
L73568 76293
" />
<path d="M73427 75674
L73287 76096
L73652 76096
" />
</g><text x="103544.173228" y="77424.094488"
textLength="3350.196850" font-size="787.401575" lengthAdjust="spacingAndGlyphs"
text-anchor="start" opacity="0">Id: 1/1</text>
<g class="stroked-text"><desc>Id: 1/1</desc>
<path d="M103714 77395
L103714 76805
" />
<path d="M104249 77395
L104249 76805
" />
<path d="M104249 77367
L104192 77395
L104080 77395
L104024 77367
L103995 77339
L103967 77283
L103967 77114
L103995 77058
L104024 77030
L104080 77002
L104192 77002
L104249 77030
" />
<path d="M104530 77339
L104558 77367
L104530 77395
L104502 77367
L104530 77339
L104530 77395
" />
<path d="M104530 77030
L104558 77058
L104530 77086
L104502 77058
L104530 77030
L104530 77086
" />
<path d="M105570 77395
L105233 77395
" />
<path d="M105402 77395
L105402 76805
L105345 76889
L105289 76946
L105233 76974
" />
<path d="M106245 76777
L105739 77536
" />
<path d="M106751 77395
L106414 77395
" />
<path d="M106583 77395
L106583 76805
L106526 76889
L106470 76946
L106414 76974
" />
</g><path d="M69685 73821
L112205 73821
" />
</g>
<g style="fill:#840000; fill-opacity:0.0; 
stroke:#840000; stroke-width:157.480315; stroke-opacity:1; 
stroke-linecap:round; stroke-linejoin:round;">
<text x="70079.606299" y="74924.094488"
textLength="9217.322835" font-size="1049.842520" lengthAdjust="spacingAndGlyphs"
text-anchor="start" opacity="0">Title: Sustainer</text>
<g class="stroked-text"><desc>Title: Sustainer</desc>
<path d="M70360 74099
L70810 74099
" />
<path d="M70486 74886
L70585 74099
" />
<path d="M70974 74886
L71039 74361
" />
<path d="M71072 74099
L71030 74136
L71063 74174
L71105 74136
L71072 74099
L71063 74174
" />
<path d="M71302 74361
L71602 74361
" />
<path d="M71447 74099
L71363 74774
L71391 74849
L71461 74886
L71536 74886
" />
<path d="M71911 74886
L71841 74849
L71812 74774
L71897 74099
" />
<path d="M72516 74849
L72436 74886
L72286 74886
L72216 74849
L72187 74774
L72225 74474
L72272 74399
L72352 74361
L72501 74361
L72572 74399
L72600 74474
L72591 74549
L72206 74624
" />
<path d="M72895 74811
L72928 74849
L72886 74886
L72853 74849
L72895 74811
L72886 74886
" />
<path d="M72947 74399
L72980 74436
L72937 74474
L72905 74436
L72947 74399
L72937 74474
" />
<path d="M73828 74849
L73936 74886
L74123 74886
L74203 74849
L74245 74811
L74292 74736
L74301 74661
L74273 74586
L74240 74549
L74170 74511
L74025 74474
L73954 74436
L73922 74399
L73893 74324
L73903 74249
L73950 74174
L73992 74136
L74072 74099
L74259 74099
L74367 74136
" />
<path d="M75014 74361
L74948 74886
" />
<path d="M74676 74361
L74625 74774
L74653 74849
L74723 74886
L74836 74886
L74915 74849
L74957 74811
" />
<path d="M75290 74849
L75360 74886
L75510 74886
L75590 74849
L75637 74774
L75642 74736
L75614 74661
L75543 74624
L75431 74624
L75360 74586
L75332 74511
L75337 74474
L75384 74399
L75464 74361
L75576 74361
L75646 74399
" />
<path d="M75914 74361
L76214 74361
" />
<path d="M76059 74099
L75974 74774
L76003 74849
L76073 74886
L76148 74886
" />
<path d="M76748 74886
L76799 74474
L76771 74399
L76701 74361
L76551 74361
L76471 74399
" />
<path d="M76752 74849
L76673 74886
L76485 74886
L76415 74849
L76387 74774
L76396 74699
L76443 74624
L76523 74586
L76710 74586
L76790 74549
" />
<path d="M77123 74886
L77188 74361
" />
<path d="M77221 74099
L77179 74136
L77212 74174
L77254 74136
L77221 74099
L77212 74174
" />
<path d="M77563 74361
L77498 74886
" />
<path d="M77554 74436
L77596 74399
L77676 74361
L77788 74361
L77859 74399
L77887 74474
L77835 74886
" />
<path d="M78515 74849
L78435 74886
L78285 74886
L78215 74849
L78187 74774
L78224 74474
L78271 74399
L78351 74361
L78501 74361
L78571 74399
L78599 74474
L78590 74549
L78205 74624
" />
<path d="M78885 74886
L78951 74361
" />
<path d="M78932 74511
L78979 74436
L79021 74399
L79101 74361
L79176 74361
" />
</g></g>
<g style="fill:#840000; fill-opacity:0.0; 
stroke:#840000; stroke-width:60.000000; stroke-opacity:1; 
stroke-linecap:round; stroke-linejoin:round;">
<text x="70079.606299" y="73408.346457"
textLength="9344.212598" font-size="787.401575" lengthAdjust="spacingAndGlyphs"
text-anchor="start" opacity="0">File: Ebow.kicad_sch</text>
<g class="stroked-text"><desc>File: Ebow.kicad_sch</desc>
<path d="M70447 73070
L70250 73070
" />
<path d="M70250 73380
L70250 72789
L70531 72789
" />
<path d="M70756 73380
L70756 72986
" />
<path d="M70756 72789
L70728 72817
L70756 72845
L70784 72817
L70756 72789
L70756 72845
" />
<path d="M71121 73380
L71065 73352
L71037 73295
L71037 72789
" />
<path d="M71571 73352
L71515 73380
L71403 73380
L71346 73352
L71318 73295
L71318 73070
L71346 73014
L71403 72986
L71515 72986
L71571 73014
L71600 73070
L71600 73127
L71318 73183
" />
<path d="M71853 73323
L71881 73352
L71853 73380
L71825 73352
L71853 73323
L71853 73380
" />
<path d="M71853 73014
L71881 73042
L71853 73070
L71825 73042
L71853 73014
L71853 73070
" />
<path d="M72584 73070
L72781 73070
" />
<path d="M72865 73380
L72584 73380
L72584 72789
L72865 72789
" />
<path d="M73118 73380
L73118 72789
" />
<path d="M73118 73014
L73174 72986
L73287 72986
L73343 73014
L73371 73042
L73399 73098
L73399 73267
L73371 73323
L73343 73352
L73287 73380
L73174 73380
L73118 73352
" />
<path d="M73737 73380
L73681 73352
L73652 73323
L73624 73267
L73624 73098
L73652 73042
L73681 73014
L73737 72986
L73821 72986
L73877 73014
L73905 73042
L73934 73098
L73934 73267
L73905 73323
L73877 73352
L73821 73380
L73737 73380
" />
<path d="M74130 72986
L74243 73380
L74355 73098
L74468 73380
L74580 72986
" />
<path d="M74805 73323
L74834 73352
L74805 73380
L74777 73352
L74805 73323
L74805 73380
" />
<path d="M75087 73380
L75087 72789
" />
<path d="M75143 73155
L75312 73380
" />
<path d="M75312 72986
L75087 73211
" />
<path d="M75565 73380
L75565 72986
" />
<path d="M75565 72789
L75537 72817
L75565 72845
L75593 72817
L75565 72789
L75565 72845
" />
<path d="M76099 73352
L76043 73380
L75930 73380
L75874 73352
L75846 73323
L75818 73267
L75818 73098
L75846 73042
L75874 73014
L75930 72986
L76043 72986
L76099 73014
" />
<path d="M76605 73380
L76605 73070
L76577 73014
L76521 72986
L76408 72986
L76352 73014
" />
<path d="M76605 73352
L76549 73380
L76408 73380
L76352 73352
L76324 73295
L76324 73239
L76352 73183
L76408 73155
L76549 73155
L76605 73127
" />
<path d="M77139 73380
L77139 72789
" />
<path d="M77139 73352
L77083 73380
L76971 73380
L76915 73352
L76886 73323
L76858 73267
L76858 73098
L76886 73042
L76915 73014
L76971 72986
L77083 72986
L77139 73014
" />
<path d="M77280 73436
L77730 73436
" />
<path d="M77842 73352
L77899 73380
L78011 73380
L78067 73352
L78096 73295
L78096 73267
L78067 73211
L78011 73183
L77927 73183
L77871 73155
L77842 73098
L77842 73070
L77871 73014
L77927 72986
L78011 72986
L78067 73014
" />
<path d="M78602 73352
L78546 73380
L78433 73380
L78377 73352
L78349 73323
L78321 73267
L78321 73098
L78349 73042
L78377 73014
L78433 72986
L78546 72986
L78602 73014
" />
<path d="M78855 73380
L78855 72789
" />
<path d="M79108 73380
L79108 73070
L79080 73014
L79024 72986
L78939 72986
L78883 73014
L78855 73042
" />
</g><path d="M69685 71459
L112205 71459
" />
<text x="70079.606299" y="72345.354331"
textLength="3856.417323" font-size="787.401575" lengthAdjust="spacingAndGlyphs"
text-anchor="start" opacity="0">Sheet: /</text>
<g class="stroked-text"><desc>Sheet: /</desc>
<path d="M70222 72289
L70306 72317
L70447 72317
L70503 72289
L70531 72260
L70559 72204
L70559 72148
L70531 72092
L70503 72064
L70447 72035
L70334 72007
L70278 71979
L70250 71951
L70222 71895
L70222 71839
L70250 71782
L70278 71754
L70334 71726
L70475 71726
L70559 71754
" />
<path d="M70812 72317
L70812 71726
" />
<path d="M71065 72317
L71065 72007
L71037 71951
L70981 71923
L70897 71923
L70840 71951
L70812 71979
" />
<path d="M71571 72289
L71515 72317
L71403 72317
L71346 72289
L71318 72232
L71318 72007
L71346 71951
L71403 71923
L71515 71923
L71571 71951
L71600 72007
L71600 72064
L71318 72120
" />
<path d="M72078 72289
L72021 72317
L71909 72317
L71853 72289
L71825 72232
L71825 72007
L71853 71951
L71909 71923
L72021 71923
L72078 71951
L72106 72007
L72106 72064
L71825 72120
" />
<path d="M72274 71923
L72499 71923
" />
<path d="M72359 71726
L72359 72232
L72387 72289
L72443 72317
L72499 72317
" />
<path d="M72696 72260
L72724 72289
L72696 72317
L72668 72289
L72696 72260
L72696 72317
" />
<path d="M72696 71951
L72724 71979
L72696 72007
L72668 71979
L72696 71951
L72696 72007
" />
<path d="M73849 71698
L73343 72457
" />
</g></g>
<g style="fill:#840000; fill-opacity:0.0; 
stroke:#840000; stroke-width:118.110236; stroke-opacity:1; 
stroke-linecap:round; stroke-linejoin:round;">
<text x="70079.606299" y="71164.251969"
textLength="60.000000" font-size="787.401575" lengthAdjust="spacingAndGlyphs"
text-anchor="start" opacity="0"></text>
<g class="stroked-text"><desc></desc>
</g></g>
<g style="fill:#840000; fill-opacity:0.0; 
stroke:#840000; stroke-width:60.000000; stroke-opacity:1; 
stroke-linecap:round; stroke-linejoin:round;">
<text x="70079.606299" y="69983.149606"
textLength="118.110236" font-size="787.401575" lengthAdjust="spacingAndGlyphs"
text-anchor="start" opacity="0"></text>
<g class="stroked-text"><desc></desc>
</g><text x="70079.606299" y="68802.047244"
textLength="60.000000" font-size="787.401575" lengthAdjust="spacingAndGlyphs"
text-anchor="start" opacity="0"></text>
<g class="stroked-text"><desc></desc>
</g><text x="70079.606299" y="67620.944882"
textLength="60.000000" font-size="787.401575" lengthAdjust="spacingAndGlyphs"
text-anchor="start" opacity="0"></text>
<g class="stroked-text"><desc></desc>
</g><text x="70079.606299" y="66439.842520"
textLength="60.000000" font-size="787.401575" lengthAdjust="spacingAndGlyphs"
text-anchor="start" opacity="0"></text>
<g class="stroked-text"><desc></desc>
</g><path d="M77559 75396
L77559 76577
" />
<path d="M102756 75396
L102756 77955
" />
<g >
</g>
<g style="fill:#FFFFC2; fill-opacity:0.0; 
stroke:#FFFFC2; stroke-width:60.000000; stroke-opacity:1; 
stroke-linecap:round; stroke-linejoin:round;">
</g>
<g style="fill:#FFFFC2; fill-opacity:0.6; 
stroke:#FFFFC2; stroke-width:0.039370; stroke-opacity:1; 
stroke-linecap:round; stroke-linejoin:round;">
<path style="fill:#FFFFC2; fill-opacity:0.6; 
stroke:#FFFFC2; stroke-width:0.039370; stroke-opacity:1; 
stroke-linecap:round; stroke-linejoin:round;fill-rule:evenodd;"
d="M 53000.000000,42250.000000
49000.000000,40250.000000
49000.000000,44250.000000
Z" /> 
</g>
<g style="fill:#840000; fill-opacity:0.6; 
stroke:#840000; stroke-width:0.039370; stroke-opacity:1; 
stroke-linecap:round; stroke-linejoin:round;">
</g>
<g style="fill:#840000; fill-opacity:0.0; 
stroke:#840000; stroke-width:100.000000; stroke-opacity:1; 
stroke-linecap:round; stroke-linejoin:round;">
<path style="fill:#840000; fill-opacity:0.0; 
stroke:#840000; stroke-width:100.000000; stroke-opacity:1; 
stroke-linecap:round; stroke-linejoin:round;fill:none"
d="M 53000.000000,42250.000000
49000.000000,40250.000000
49000.000000,44250.000000
Z" /> 
<path style="fill:#840000; fill-opacity:0.0; 
stroke:#840000; stroke-width:100.000000; stroke-opacity:1; 
stroke-linecap:round; stroke-linejoin:round;fill:none"
d="M 53000.000000,42250.000000
49000.000000,40250.000000
49000.000000,44250.000000
Z" /> 
</g>
<g style="fill:#840000; fill-opacity:0.0; 
stroke:#840000; stroke-width:60.000000; stroke-opacity:1; 
stroke-linecap:round; stroke-linejoin:round;">
<path d="M51000 43250
L51000 45250
" />
</g>
<g style="fill:#008484; fill-opacity:0.0; 
stroke:#008484; stroke-width:60.000000; stroke-opacity:1; 
stroke-linecap:round; stroke-linejoin:round;">
<g transform="rotate(-90.000000 51000.000000 43200.000000)">
<text x="51000.000000" y="43300.000000"
textLength="736.181102" font-size="266.653543" lengthAdjust="spacingAndGlyphs"
text-anchor="start" opacity="0">GAIN</text>
</g>
<g class="stroked-text"><desc>GAIN</desc>
<path d="M50900 43017
L50890 43036
L50890 43065
L50900 43093
L50919 43112
L50938 43122
L50976 43131
L51004 43131
L51042 43122
L51061 43112
L51080 43093
L51090 43065
L51090 43046
L51080 43017
L51071 43008
L51004 43008
L51004 43046
" />
<path d="M51033 42931
L51033 42836
" />
<path d="M51090 42950
L50890 42884
L51090 42817
" />
<path d="M51090 42750
L50890 42750
" />
<path d="M51090 42655
L50890 42655
L51090 42541
L50890 42541
" />
</g></g>
<g style="fill:#840000; fill-opacity:0.0; 
stroke:#840000; stroke-width:60.000000; stroke-opacity:1; 
stroke-linecap:round; stroke-linejoin:round;">
<g transform="rotate(-90.000000 50900.000000 44250.000000)">
<text x="50900.000000" y="44250.000000"
textLength="536.181102" font-size="666.653543" lengthAdjust="spacingAndGlyphs"
text-anchor="middle" opacity="0">1</text>
</g>
<g class="stroked-text"><desc>1</desc>
<path d="M50876 44107
L50876 44392
" />
<path d="M50876 44250
L50376 44250
L50447 44297
L50495 44345
L50519 44392
" />
</g><path d="M49000 43250
L48000 43250
" />
</g>
<g style="fill:#008484; fill-opacity:0.0; 
stroke:#008484; stroke-width:60.000000; stroke-opacity:1; 
stroke-linecap:round; stroke-linejoin:round;">
<text x="49050.000000" y="43500.000000"
textLength="679.055118" font-size="666.653543" lengthAdjust="spacingAndGlyphs"
text-anchor="start" opacity="0">-</text>
<g class="stroked-text"><desc>-</desc>
<path d="M49199 43285
L49580 43285
" />
</g></g>
<g style="fill:#840000; fill-opacity:0.0; 
stroke:#840000; stroke-width:60.000000; stroke-opacity:1; 
stroke-linecap:round; stroke-linejoin:round;">
<text x="48500.000000" y="43150.000000"
textLength="536.181102" font-size="666.653543" lengthAdjust="spacingAndGlyphs"
text-anchor="middle" opacity="0">2</text>
<g class="stroked-text"><desc>2</desc>
<path d="M48357 42673
L48380 42650
L48428 42626
L48547 42626
L48595 42650
L48619 42673
L48642 42721
L48642 42769
L48619 42840
L48333 43126
L48642 43126
" />
</g><path d="M49000 41250
L48000 41250
" />
</g>
<g style="fill:#008484; fill-opacity:0.0; 
stroke:#008484; stroke-width:60.000000; stroke-opacity:1; 
stroke-linecap:round; stroke-linejoin:round;">
<text x="49050.000000" y="41500.000000"
textLength="679.055118" font-size="666.653543" lengthAdjust="spacingAndGlyphs"
text-anchor="start" opacity="0">+</text>
<g class="stroked-text"><desc>+</desc>
<path d="M49199 41285
L49580 41285
" />
<path d="M49389 41476
L49389 41095
" />
</g></g>
<g style="fill:#840000; fill-opacity:0.0; 
stroke:#840000; stroke-width:60.000000; stroke-opacity:1; 
stroke-linecap:round; stroke-linejoin:round;">
<text x="48500.000000" y="41150.000000"
textLength="536.181102" font-size="666.653543" lengthAdjust="spacingAndGlyphs"
text-anchor="middle" opacity="0">3</text>
<g class="stroked-text"><desc>3</desc>
<path d="M48333 40626
L48642 40626
L48476 40816
L48547 40816
L48595 40840
L48619 40864
L48642 40911
L48642 41030
L48619 41078
L48595 41102
L48547 41126
L48404 41126
L48357 41102
L48333 41078
" />
</g><path d="M50000 43750
L50000 45250
" />
</g>
<g style="fill:#008484; fill-opacity:0.0; 
stroke:#008484; stroke-width:60.000000; stroke-opacity:1; 
stroke-linecap:round; stroke-linejoin:round;">
<g transform="rotate(-90.000000 50000.000000 43700.000000)">
<text x="50000.000000" y="43950.000000"
textLength="1583.818898" font-size="666.653543" lengthAdjust="spacingAndGlyphs"
text-anchor="start" opacity="0">GND</text>
</g>
<g class="stroked-text"><desc>GND</desc>
<path d="M49750 43289
L49726 43336
L49726 43408
L49750 43479
L49797 43527
L49845 43550
L49940 43574
L50011 43574
L50107 43550
L50154 43527
L50202 43479
L50226 43408
L50226 43360
L50202 43289
L50178 43265
L50011 43265
L50011 43360
" />
<path d="M50226 43050
L49726 43050
L50226 42765
L49726 42765
" />
<path d="M50226 42527
L49726 42527
L49726 42408
L49750 42336
L49797 42289
L49845 42265
L49940 42241
L50011 42241
L50107 42265
L50154 42289
L50202 42336
L50226 42408
L50226 42527
" />
</g></g>
<g style="fill:#840000; fill-opacity:0.0; 
stroke:#840000; stroke-width:60.000000; stroke-opacity:1; 
stroke-linecap:round; stroke-linejoin:round;">
<g transform="rotate(-90.000000 49900.000000 44500.000000)">
<text x="49900.000000" y="44500.000000"
textLength="536.181102" font-size="666.653543" lengthAdjust="spacingAndGlyphs"
text-anchor="middle" opacity="0">4</text>
</g>
<g class="stroked-text"><desc>4</desc>
<path d="M49542 44404
L49876 44404
" />
<path d="M49352 44523
L49709 44642
L49709 44333
" />
</g><path d="M53000 42250
L54000 42250
" />
<text x="53500.000000" y="42150.000000"
textLength="536.181102" font-size="666.653543" lengthAdjust="spacingAndGlyphs"
text-anchor="middle" opacity="0">5</text>
<g class="stroked-text"><desc>5</desc>
<path d="M53619 41626
L53380 41626
L53357 41864
L53380 41840
L53428 41816
L53547 41816
L53595 41840
L53619 41864
L53642 41911
L53642 42030
L53619 42078
L53595 42102
L53547 42126
L53428 42126
L53380 42102
L53357 42078
" />
</g><path d="M50000 40750
L50000 39250
" />
</g>
<g style="fill:#008484; fill-opacity:0.0; 
stroke:#008484; stroke-width:60.000000; stroke-opacity:1; 
stroke-linecap:round; stroke-linejoin:round;">
<g transform="rotate(-90.000000 50000.000000 40800.000000)">
<text x="50000.000000" y="41050.000000"
textLength="1107.637795" font-size="666.653543" lengthAdjust="spacingAndGlyphs"
text-anchor="end" opacity="0">V+</text>
</g>
<g class="stroked-text"><desc>V+</desc>
<path d="M49726 41830
L50226 41663
L49726 41496
" />
<path d="M50035 41330
L50035 40949
" />
<path d="M50226 41139
L49845 41139
" />
</g></g>
<g style="fill:#840000; fill-opacity:0.0; 
stroke:#840000; stroke-width:60.000000; stroke-opacity:1; 
stroke-linecap:round; stroke-linejoin:round;">
<g transform="rotate(-90.000000 49900.000000 40000.000000)">
<text x="49900.000000" y="40000.000000"
textLength="536.181102" font-size="666.653543" lengthAdjust="spacingAndGlyphs"
text-anchor="middle" opacity="0">6</text>
</g>
<g class="stroked-text"><desc>6</desc>
<path d="M49376 39904
L49376 40000
L49400 40047
L49423 40071
L49495 40119
L49590 40142
L49780 40142
L49828 40119
L49852 40095
L49876 40047
L49876 39952
L49852 39904
L49828 39880
L49780 39857
L49661 39857
L49614 39880
L49590 39904
L49566 39952
L49566 40047
L49590 40095
L49614 40119
L49661 40142
" />
</g><path d="M51000 41250
L51000 39250
" />
</g>
<g style="fill:#008484; fill-opacity:0.0; 
stroke:#008484; stroke-width:60.000000; stroke-opacity:1; 
stroke-linecap:round; stroke-linejoin:round;">
<g transform="rotate(-90.000000 51000.000000 41300.000000)">
<text x="51000.000000" y="41400.000000"
textLength="1183.818898" font-size="266.653543" lengthAdjust="spacingAndGlyphs"
text-anchor="end" opacity="0">BYPASS</text>
</g>
<g class="stroked-text"><desc>BYPASS</desc>
<path d="M50985 42339
L50995 42310
L51004 42301
L51023 42291
L51052 42291
L51071 42301
L51080 42310
L51090 42330
L51090 42406
L50890 42406
L50890 42339
L50900 42320
L50909 42310
L50928 42301
L50947 42301
L50966 42310
L50976 42320
L50985 42339
L50985 42406
" />
<path d="M50995 42168
L51090 42168
" />
<path d="M50890 42234
L50995 42168
L50890 42101
" />
<path d="M51090 42034
L50890 42034
L50890 41958
L50900 41939
L50909 41930
L50928 41920
L50957 41920
L50976 41930
L50985 41939
L50995 41958
L50995 42034
" />
<path d="M51033 41844
L51033 41749
" />
<path d="M51090 41863
L50890 41796
L51090 41730
" />
<path d="M51080 41672
L51090 41644
L51090 41596
L51080 41577
L51071 41568
L51052 41558
L51033 41558
L51014 41568
L51004 41577
L50995 41596
L50985 41634
L50976 41653
L50966 41663
L50947 41672
L50928 41672
L50909 41663
L50900 41653
L50890 41634
L50890 41587
L50900 41558
" />
<path d="M51080 41482
L51090 41453
L51090 41406
L51080 41387
L51071 41377
L51052 41368
L51033 41368
L51014 41377
L51004 41387
L50995 41406
L50985 41444
L50976 41463
L50966 41472
L50947 41482
L50928 41482
L50909 41472
L50900 41463
L50890 41444
L50890 41396
L50900 41368
" />
</g></g>
<g style="fill:#840000; fill-opacity:0.0; 
stroke:#840000; stroke-width:60.000000; stroke-opacity:1; 
stroke-linecap:round; stroke-linejoin:round;">
<g transform="rotate(-90.000000 50900.000000 40250.000000)">
<text x="50900.000000" y="40250.000000"
textLength="536.181102" font-size="666.653543" lengthAdjust="spacingAndGlyphs"
text-anchor="middle" opacity="0">7</text>
</g>
<g class="stroked-text"><desc>7</desc>
<path d="M50376 40416
L50376 40083
L50876 40297
" />
</g><path d="M52000 42750
L52000 45250
" />
</g>
<g style="fill:#008484; fill-opacity:0.0; 
stroke:#008484; stroke-width:60.000000; stroke-opacity:1; 
stroke-linecap:round; stroke-linejoin:round;">
<g transform="rotate(-90.000000 52000.000000 42700.000000)">
<text x="52000.000000" y="42800.000000"
textLength="736.181102" font-size="266.653543" lengthAdjust="spacingAndGlyphs"
text-anchor="start" opacity="0">GAIN</text>
</g>
<g class="stroked-text"><desc>GAIN</desc>
<path d="M51900 42517
L51890 42536
L51890 42565
L51900 42593
L51919 42612
L51938 42622
L51976 42631
L52004 42631
L52042 42622
L52061 42612
L52080 42593
L52090 42565
L52090 42546
L52080 42517
L52071 42508
L52004 42508
L52004 42546
" />
<path d="M52033 42431
L52033 42336
" />
<path d="M52090 42450
L51890 42384
L52090 42317
" />
<path d="M52090 42250
L51890 42250
" />
<path d="M52090 42155
L51890 42155
L52090 42041
L51890 42041
" />
</g></g>
<g style="fill:#840000; fill-opacity:0.0; 
stroke:#840000; stroke-width:60.000000; stroke-opacity:1; 
stroke-linecap:round; stroke-linejoin:round;">
<g transform="rotate(-90.000000 51900.000000 44000.000000)">
<text x="51900.000000" y="44000.000000"
textLength="536.181102" font-size="666.653543" lengthAdjust="spacingAndGlyphs"
text-anchor="middle" opacity="0">8</text>
</g>
<g class="stroked-text"><desc>8</desc>
<path d="M51590 44047
L51566 44095
L51542 44119
L51495 44142
L51471 44142
L51423 44119
L51400 44095
L51376 44047
L51376 43952
L51400 43904
L51423 43880
L51471 43857
L51495 43857
L51542 43880
L51566 43904
L51590 43952
L51590 44047
L51614 44095
L51638 44119
L51685 44142
L51780 44142
L51828 44119
L51852 44095
L51876 44047
L51876 43952
L51852 43904
L51828 43880
L51780 43857
L51685 43857
L51638 43880
L51614 43904
L51590 43952
" />
</g></g>
<g style="fill:#008484; fill-opacity:0.0; 
stroke:#008484; stroke-width:60.000000; stroke-opacity:1; 
stroke-linecap:round; stroke-linejoin:round;">
<text x="55000.000000" y="40649.960630"
textLength="1060.000000" font-size="666.653543" lengthAdjust="spacingAndGlyphs"
text-anchor="middle" opacity="0">U1</text>
<g class="stroked-text"><desc>U1</desc>
<path d="M54619 40126
L54619 40530
L54642 40578
L54666 40602
L54714 40626
L54809 40626
L54857 40602
L54880 40578
L54904 40530
L54904 40126
" />
<path d="M55404 40626
L55119 40626
" />
<path d="M55261 40626
L55261 40126
L55214 40197
L55166 40245
L55119 40268
" />
</g><text x="55000.000000" y="41649.960630"
textLength="2464.763780" font-size="666.653543" lengthAdjust="spacingAndGlyphs"
text-anchor="middle" opacity="0">LM386</text>
<g class="stroked-text"><desc>LM386</desc>
<path d="M54154 41626
L53916 41626
L53916 41126
" />
<path d="M54321 41626
L54321 41126
L54488 41483
L54654 41126
L54654 41626
" />
<path d="M54845 41126
L55154 41126
L54988 41316
L55059 41316
L55107 41340
L55130 41364
L55154 41411
L55154 41530
L55130 41578
L55107 41602
L55059 41626
L54916 41626
L54869 41602
L54845 41578
" />
<path d="M55440 41340
L55392 41316
L55369 41292
L55345 41245
L55345 41221
L55369 41173
L55392 41149
L55440 41126
L55535 41126
L55583 41149
L55607 41173
L55630 41221
L55630 41245
L55607 41292
L55583 41316
L55535 41340
L55440 41340
L55392 41364
L55369 41388
L55345 41435
L55345 41530
L55369 41578
L55392 41602
L55440 41626
L55535 41626
L55583 41602
L55607 41578
L55630 41530
L55630 41435
L55607 41388
L55583 41364
L55535 41340
" />
<path d="M56059 41126
L55964 41126
L55916 41149
L55892 41173
L55845 41245
L55821 41340
L55821 41530
L55845 41578
L55869 41602
L55916 41626
L56011 41626
L56059 41602
L56083 41578
L56107 41530
L56107 41411
L56083 41364
L56059 41340
L56011 41316
L55916 41316
L55869 41340
L55845 41364
L55821 41411
" />
</g></g>
</g>
<g style="fill:#008484; fill-opacity:0.0; 
stroke:#008484; stroke-width:60.000000; stroke-opacity:1; 
stroke-linecap:round; stroke-linejoin:round;">
<g >
</g>
<g style="fill:#840000; fill-opacity:0.0; 
stroke:#840000; stroke-width:60.000000; stroke-opacity:1; 
stroke-linecap:round; stroke-linejoin:round;">
</g>
<g style="fill:#840000; fill-opacity:0.0; 
stroke:#840000; stroke-width:500.000000; stroke-opacity:1; 
stroke-linecap:round; stroke-linejoin:round;">
<circle cx="87750.000000" cy="17500.000000" r="500.000000" /> 
</g>
<g style="fill:#008484; fill-opacity:0.0; 
stroke:#008484; stroke-width:500.000000; stroke-opacity:1; 
stroke-linecap:round; stroke-linejoin:round;">
</g>
<g style="fill:#008484; fill-opacity:0.0; 
stroke:#008484; stroke-width:60.000000; stroke-opacity:1; 
stroke-linecap:round; stroke-linejoin:round;">
<text x="89531.259843" y="17249.921260"
textLength="1060.000000" font-size="666.653543" lengthAdjust="spacingAndGlyphs"
text-anchor="middle" opacity="0">H2</text>
<g class="stroked-text"><desc>H2</desc>
<path d="M89150 17226
L89150 16726
" />
<path d="M89150 16964
L89435 16964
" />
<path d="M89435 17226
L89435 16726
" />
<path d="M89650 16773
L89674 16749
L89721 16726
L89840 16726
L89888 16749
L89912 16773
L89935 16821
L89935 16868
L89912 16940
L89626 17226
L89935 17226
" />
</g><text x="91543.149606" y="18249.921260"
textLength="5083.818898" font-size="666.653543" lengthAdjust="spacingAndGlyphs"
text-anchor="middle" opacity="0">MountingHole</text>
<g class="stroked-text"><desc>MountingHole</desc>
<path d="M89150 18226
L89150 17726
L89316 18083
L89483 17726
L89483 18226
" />
<path d="M89793 18226
L89745 18202
L89721 18178
L89697 18130
L89697 17987
L89721 17940
L89745 17916
L89793 17892
L89864 17892
L89912 17916
L89935 17940
L89959 17987
L89959 18130
L89935 18178
L89912 18202
L89864 18226
L89793 18226
" />
<path d="M90388 17892
L90388 18226
" />
<path d="M90174 17892
L90174 18154
L90197 18202
L90245 18226
L90316 18226
L90364 18202
L90388 18178
" />
<path d="M90626 17892
L90626 18226
" />
<path d="M90626 17940
L90650 17916
L90697 17892
L90769 17892
L90816 17916
L90840 17964
L90840 18226
" />
<path d="M91007 17892
L91197 17892
" />
<path d="M91078 17726
L91078 18154
L91102 18202
L91150 18226
L91197 18226
" />
<path d="M91364 18226
L91364 17892
" />
<path d="M91364 17726
L91340 17749
L91364 17773
L91388 17749
L91364 17726
L91364 17773
" />
<path d="M91602 17892
L91602 18226
" />
<path d="M91602 17940
L91626 17916
L91674 17892
L91745 17892
L91793 17916
L91816 17964
L91816 18226
" />
<path d="M92269 17892
L92269 18297
L92245 18345
L92221 18368
L92174 18392
L92102 18392
L92055 18368
" />
<path d="M92269 18202
L92221 18226
L92126 18226
L92078 18202
L92055 18178
L92031 18130
L92031 17987
L92055 17940
L92078 17916
L92126 17892
L92221 17892
L92269 17916
" />
<path d="M92507 18226
L92507 17726
" />
<path d="M92507 17964
L92793 17964
" />
<path d="M92793 18226
L92793 17726
" />
<path d="M93102 18226
L93055 18202
L93031 18178
L93007 18130
L93007 17987
L93031 17940
L93055 17916
L93102 17892
L93174 17892
L93221 17916
L93245 17940
L93269 17987
L93269 18130
L93245 18178
L93221 18202
L93174 18226
L93102 18226
" />
<path d="M93555 18226
L93507 18202
L93483 18154
L93483 17726
" />
<path d="M93935 18202
L93888 18226
L93793 18226
L93745 18202
L93721 18154
L93721 17964
L93745 17916
L93793 17892
L93888 17892
L93935 17916
L93959 17964
L93959 18011
L93721 18059
" />
</g></g>
</g>
<g style="fill:#008484; fill-opacity:0.0; 
stroke:#008484; stroke-width:60.000000; stroke-opacity:1; 
stroke-linecap:round; stroke-linejoin:round;">
<g >
</g>
<g style="fill:#840000; fill-opacity:0.0; 
stroke:#840000; stroke-width:60.000000; stroke-opacity:1; 
stroke-linecap:round; stroke-linejoin:round;">
</g>
<g style="fill:#840000; fill-opacity:0.0; 
stroke:#840000; stroke-width:200.000000; stroke-opacity:1; 
stroke-linecap:round; stroke-linejoin:round;">
<path style="fill:#840000; fill-opacity:0.0; 
stroke:#840000; stroke-width:200.000000; stroke-opacity:1; 
stroke-linecap:round; stroke-linejoin:round;fill:none"
d="M 75450.000000,15200.000000
77050.000000,15200.000000
" /> 
<path style="fill:#840000; fill-opacity:0.0; 
stroke:#840000; stroke-width:200.000000; stroke-opacity:1; 
stroke-linecap:round; stroke-linejoin:round;fill:none"
d="M 75450.000000,15800.000000
77050.000000,15800.000000
" /> 
</g>
<g style="fill:#840000; fill-opacity:0.0; 
stroke:#840000; stroke-width:60.000000; stroke-opacity:1; 
stroke-linecap:round; stroke-linejoin:round;">
<path d="M76250 15900
L76250 17000
" />
<path d="M76250 15100
L76250 14000
" />
</g>
<g style="fill:#008484; fill-opacity:0.0; 
stroke:#008484; stroke-width:60.000000; stroke-opacity:1; 
stroke-linecap:round; stroke-linejoin:round;">
<text x="74230.629921" y="16250.039370"
textLength="1036.181102" font-size="666.653543" lengthAdjust="spacingAndGlyphs"
text-anchor="middle" opacity="0">C1</text>
<g class="stroked-text"><desc>C1</desc>
<path d="M74147 16178
L74123 16202
L74052 16226
L74004 16226
L73932 16202
L73885 16154
L73861 16107
L73837 16011
L73837 15940
L73861 15845
L73885 15797
L73932 15750
L74004 15726
L74052 15726
L74123 15750
L74147 15773
" />
<path d="M74623 16226
L74337 16226
" />
<path d="M74480 16226
L74480 15726
L74432 15797
L74385 15845
L74337 15869
" />
</g><text x="73802.047244" y="15250.039370"
textLength="1893.346457" font-size="666.653543" lengthAdjust="spacingAndGlyphs"
text-anchor="middle" opacity="0">10uF</text>
<g class="stroked-text"><desc>10uF</desc>
<path d="M73266 15226
L72980 15226
" />
<path d="M73123 15226
L73123 14726
L73075 14797
L73028 14845
L72980 14869
" />
<path d="M73575 14726
L73623 14726
L73671 14750
L73694 14773
L73718 14821
L73742 14916
L73742 15035
L73718 15130
L73694 15178
L73671 15202
L73623 15226
L73575 15226
L73528 15202
L73504 15178
L73480 15130
L73456 15035
L73456 14916
L73480 14821
L73504 14773
L73528 14750
L73575 14726
" />
<path d="M74171 14892
L74171 15226
" />
<path d="M73956 14892
L73956 15154
L73980 15202
L74028 15226
L74099 15226
L74147 15202
L74171 15178
" />
<path d="M74575 14964
L74409 14964
" />
<path d="M74409 15226
L74409 14726
L74647 14726
" />
</g></g>
</g>
<g style="fill:#008484; fill-opacity:0.0; 
stroke:#008484; stroke-width:60.000000; stroke-opacity:1; 
stroke-linecap:round; stroke-linejoin:round;">
<g >
</g>
<g style="fill:#840000; fill-opacity:0.0; 
stroke:#840000; stroke-width:60.000000; stroke-opacity:1; 
stroke-linecap:round; stroke-linejoin:round;">
</g>
<g style="fill:#840000; fill-opacity:0.0; 
stroke:#840000; stroke-width:500.000000; stroke-opacity:1; 
stroke-linecap:round; stroke-linejoin:round;">
<circle cx="87750.000000" cy="13000.000000" r="500.000000" /> 
</g>
<g style="fill:#008484; fill-opacity:0.0; 
stroke:#008484; stroke-width:500.000000; stroke-opacity:1; 
stroke-linecap:round; stroke-linejoin:round;">
</g>
<g style="fill:#008484; fill-opacity:0.0; 
stroke:#008484; stroke-width:60.000000; stroke-opacity:1; 
stroke-linecap:round; stroke-linejoin:round;">
<text x="89531.259843" y="12749.921260"
textLength="1060.000000" font-size="666.653543" lengthAdjust="spacingAndGlyphs"
text-anchor="middle" opacity="0">H1</text>
<g class="stroked-text"><desc>H1</desc>
<path d="M89150 12726
L89150 12226
" />
<path d="M89150 12464
L89435 12464
" />
<path d="M89435 12726
L89435 12226
" />
<path d="M89935 12726
L89650 12726
" />
<path d="M89793 12726
L89793 12226
L89745 12297
L89697 12345
L89650 12368
" />
</g><text x="91543.149606" y="13749.921260"
textLength="5083.818898" font-size="666.653543" lengthAdjust="spacingAndGlyphs"
text-anchor="middle" opacity="0">MountingHole</text>
<g class="stroked-text"><desc>MountingHole</desc>
<path d="M89150 13726
L89150 13226
L89316 13583
L89483 13226
L89483 13726
" />
<path d="M89793 13726
L89745 13702
L89721 13678
L89697 13630
L89697 13487
L89721 13440
L89745 13416
L89793 13392
L89864 13392
L89912 13416
L89935 13440
L89959 13487
L89959 13630
L89935 13678
L89912 13702
L89864 13726
L89793 13726
" />
<path d="M90388 13392
L90388 13726
" />
<path d="M90174 13392
L90174 13654
L90197 13702
L90245 13726
L90316 13726
L90364 13702
L90388 13678
" />
<path d="M90626 13392
L90626 13726
" />
<path d="M90626 13440
L90650 13416
L90697 13392
L90769 13392
L90816 13416
L90840 13464
L90840 13726
" />
<path d="M91007 13392
L91197 13392
" />
<path d="M91078 13226
L91078 13654
L91102 13702
L91150 13726
L91197 13726
" />
<path d="M91364 13726
L91364 13392
" />
<path d="M91364 13226
L91340 13249
L91364 13273
L91388 13249
L91364 13226
L91364 13273
" />
<path d="M91602 13392
L91602 13726
" />
<path d="M91602 13440
L91626 13416
L91674 13392
L91745 13392
L91793 13416
L91816 13464
L91816 13726
" />
<path d="M92269 13392
L92269 13797
L92245 13845
L92221 13868
L92174 13892
L92102 13892
L92055 13868
" />
<path d="M92269 13702
L92221 13726
L92126 13726
L92078 13702
L92055 13678
L92031 13630
L92031 13487
L92055 13440
L92078 13416
L92126 13392
L92221 13392
L92269 13416
" />
<path d="M92507 13726
L92507 13226
" />
<path d="M92507 13464
L92793 13464
" />
<path d="M92793 13726
L92793 13226
" />
<path d="M93102 13726
L93055 13702
L93031 13678
L93007 13630
L93007 13487
L93031 13440
L93055 13416
L93102 13392
L93174 13392
L93221 13416
L93245 13440
L93269 13487
L93269 13630
L93245 13678
L93221 13702
L93174 13726
L93102 13726
" />
<path d="M93555 13726
L93507 13702
L93483 13654
L93483 13226
" />
<path d="M93935 13702
L93888 13726
L93793 13726
L93745 13702
L93721 13654
L93721 13464
L93745 13416
L93793 13392
L93888 13392
L93935 13416
L93959 13464
L93959 13511
L93721 13559
" />
</g></g>
</g>
<g style="fill:#008484; fill-opacity:0.0; 
stroke:#008484; stroke-width:60.000000; stroke-opacity:1; 
stroke-linecap:round; stroke-linejoin:round;">
<g >
</g>
<g style="fill:#840000; fill-opacity:0.0; 
stroke:#840000; stroke-width:60.000000; stroke-opacity:1; 
stroke-linecap:round; stroke-linejoin:round;">
</g>
<g style="fill:#FFFFC2; fill-opacity:0.0; 
stroke:#FFFFC2; stroke-width:60.000000; stroke-opacity:1; 
stroke-linecap:round; stroke-linejoin:round;">
</g>
<g style="fill:#FFFFC2; fill-opacity:0.6; 
stroke:#FFFFC2; stroke-width:0.039370; stroke-opacity:1; 
stroke-linecap:round; stroke-linejoin:round;">
<rect x="18000.000000" y="14750.000000" width="1000.000000" height="2000.000000" rx="0.000000" />
</g>
<g style="fill:#840000; fill-opacity:0.6; 
stroke:#840000; stroke-width:0.039370; stroke-opacity:1; 
stroke-linecap:round; stroke-linejoin:round;">
</g>
<g style="fill:#840000; fill-opacity:0.0; 
stroke:#840000; stroke-width:100.000000; stroke-opacity:1; 
stroke-linecap:round; stroke-linejoin:round;">
<rect x="18000.000000" y="14750.000000" width="1000.000000" height="2000.000000" rx="0.000000" />
</g>
<g style="fill:#840000; fill-opacity:0.0; 
stroke:#840000; stroke-width:60.000000; stroke-opacity:1; 
stroke-linecap:round; stroke-linejoin:round;">
<rect x="18500.000000" y="16200.000000" width="500.000000" height="100.000000" rx="0.000000" />
<rect x="18500.000000" y="15200.000000" width="500.000000" height="100.000000" rx="0.000000" />
</g>
<g style="fill:#840000; fill-opacity:0.0; 
stroke:#840000; stroke-width:100.000000; stroke-opacity:1; 
stroke-linecap:round; stroke-linejoin:round;">
<rect x="18000.000000" y="14750.000000" width="1000.000000" height="2000.000000" rx="0.000000" />
</g>
<g style="fill:#840000; fill-opacity:0.0; 
stroke:#840000; stroke-width:60.000000; stroke-opacity:1; 
stroke-linecap:round; stroke-linejoin:round;">
<path d="M19000 15250
L20500 15250
" />
<text x="19750.000000" y="15150.000000"
textLength="536.181102" font-size="666.653543" lengthAdjust="spacingAndGlyphs"
text-anchor="middle" opacity="0">1</text>
<g class="stroked-text"><desc>1</desc>
<path d="M19892 15126
L19607 15126
" />
<path d="M19750 15126
L19750 14626
L19702 14697
L19654 14745
L19607 14769
" />
</g><path d="M19000 16250
L20500 16250
" />
<text x="19750.000000" y="16150.000000"
textLength="536.181102" font-size="666.653543" lengthAdjust="spacingAndGlyphs"
text-anchor="middle" opacity="0">2</text>
<g class="stroked-text"><desc>2</desc>
<path d="M19607 15673
L19630 15650
L19678 15626
L19797 15626
L19845 15650
L19869 15673
L19892 15721
L19892 15769
L19869 15840
L19583 16126
L19892 16126
" />
</g></g>
<g style="fill:#008484; fill-opacity:0.0; 
stroke:#008484; stroke-width:60.000000; stroke-opacity:1; 
stroke-linecap:round; stroke-linejoin:round;">
<text x="18499.960630" y="12749.960630"
textLength="917.125984" font-size="666.653543" lengthAdjust="spacingAndGlyphs"
text-anchor="middle" opacity="0">J1</text>
<g class="stroked-text"><desc>J1</desc>
<path d="M18333 12226
L18333 12583
L18309 12654
L18261 12702
L18190 12726
L18142 12726
" />
<path d="M18833 12726
L18547 12726
" />
<path d="M18690 12726
L18690 12226
L18642 12297
L18595 12345
L18547 12368
" />
</g><text x="18500.000000" y="13749.960630"
textLength="4607.637795" font-size="666.653543" lengthAdjust="spacingAndGlyphs"
text-anchor="middle" opacity="0">Conn_01x02</text>
<g class="stroked-text"><desc>Conn_01x02</desc>
<path d="M16630 13678
L16607 13702
L16535 13726
L16488 13726
L16416 13702
L16369 13654
L16345 13607
L16321 13511
L16321 13440
L16345 13345
L16369 13297
L16416 13249
L16488 13226
L16535 13226
L16607 13249
L16630 13273
" />
<path d="M16916 13726
L16869 13702
L16845 13678
L16821 13630
L16821 13488
L16845 13440
L16869 13416
L16916 13392
L16988 13392
L17035 13416
L17059 13440
L17083 13488
L17083 13630
L17059 13678
L17035 13702
L16988 13726
L16916 13726
" />
<path d="M17297 13392
L17297 13726
" />
<path d="M17297 13440
L17321 13416
L17369 13392
L17440 13392
L17488 13416
L17511 13464
L17511 13726
" />
<path d="M17750 13392
L17750 13726
" />
<path d="M17750 13440
L17773 13416
L17821 13392
L17892 13392
L17940 13416
L17964 13464
L17964 13726
" />
<path d="M18083 13773
L18464 13773
" />
<path d="M18678 13226
L18726 13226
L18773 13249
L18797 13273
L18821 13321
L18845 13416
L18845 13535
L18821 13630
L18797 13678
L18773 13702
L18726 13726
L18678 13726
L18630 13702
L18607 13678
L18583 13630
L18559 13535
L18559 13416
L18583 13321
L18607 13273
L18630 13249
L18678 13226
" />
<path d="M19321 13726
L19035 13726
" />
<path d="M19178 13726
L19178 13226
L19130 13297
L19083 13345
L19035 13368
" />
<path d="M19488 13726
L19750 13392
" />
<path d="M19488 13392
L19750 13726
" />
<path d="M20035 13226
L20083 13226
L20130 13249
L20154 13273
L20178 13321
L20202 13416
L20202 13535
L20178 13630
L20154 13678
L20130 13702
L20083 13726
L20035 13726
L19988 13702
L19964 13678
L19940 13630
L19916 13535
L19916 13416
L19940 13321
L19964 13273
L19988 13249
L20035 13226
" />
<path d="M20392 13273
L20416 13249
L20464 13226
L20583 13226
L20630 13249
L20654 13273
L20678 13321
L20678 13368
L20654 13440
L20369 13726
L20678 13726
" />
</g></g>
</g>
<g style="fill:#008484; fill-opacity:0.0; 
stroke:#008484; stroke-width:60.000000; stroke-opacity:1; 
stroke-linecap:round; stroke-linejoin:round;">
<g >
</g>
<g style="fill:#840000; fill-opacity:0.0; 
stroke:#840000; stroke-width:60.000000; stroke-opacity:1; 
stroke-linecap:round; stroke-linejoin:round;">
<path style="fill:#840000; fill-opacity:0.0; 
stroke:#840000; stroke-width:60.000000; stroke-opacity:1; 
stroke-linecap:round; stroke-linejoin:round;fill:none"
d="M 23250.000000,17750.000000
23250.000000,18250.000000
23750.000000,18250.000000
23250.000000,18750.000000
22750.000000,18250.000000
23250.000000,18250.000000
" /> 
</g>
<g style="fill:#008484; fill-opacity:0.0; 
stroke:#008484; stroke-width:60.000000; stroke-opacity:1; 
stroke-linecap:round; stroke-linejoin:round;">
<text x="23250.000000" y="19749.960630"
textLength="1583.818898" font-size="666.653543" lengthAdjust="spacingAndGlyphs"
text-anchor="middle" opacity="0">GND</text>
<g class="stroked-text"><desc>GND</desc>
<path d="M22869 19249
L22821 19226
L22750 19226
L22678 19249
L22630 19297
L22607 19345
L22583 19440
L22583 19511
L22607 19607
L22630 19654
L22678 19702
L22750 19726
L22797 19726
L22869 19702
L22892 19678
L22892 19511
L22797 19511
" />
<path d="M23107 19726
L23107 19226
L23392 19726
L23392 19226
" />
<path d="M23630 19726
L23630 19226
L23750 19226
L23821 19249
L23869 19297
L23892 19345
L23916 19440
L23916 19511
L23892 19607
L23869 19654
L23821 19702
L23750 19726
L23630 19726
" />
</g></g>
</g>
<g style="fill:#008484; fill-opacity:0.0; 
stroke:#008484; stroke-width:60.000000; stroke-opacity:1; 
stroke-linecap:round; stroke-linejoin:round;">
<g >
</g>
<g style="fill:#840000; fill-opacity:0.0; 
stroke:#840000; stroke-width:60.000000; stroke-opacity:1; 
stroke-linecap:round; stroke-linejoin:round;">
<path style="fill:#840000; fill-opacity:0.0; 
stroke:#840000; stroke-width:60.000000; stroke-opacity:1; 
stroke-linecap:round; stroke-linejoin:round;fill:none"
d="M 22950.000000,13500.000000
23250.000000,13000.000000
" /> 
<path style="fill:#840000; fill-opacity:0.0; 
stroke:#840000; stroke-width:60.000000; stroke-opacity:1; 
stroke-linecap:round; stroke-linejoin:round;fill:none"
d="M 23250.000000,14000.000000
23250.000000,13000.000000
" /> 
<path style="fill:#840000; fill-opacity:0.0; 
stroke:#840000; stroke-width:60.000000; stroke-opacity:1; 
stroke-linecap:round; stroke-linejoin:round;fill:none"
d="M 23250.000000,13000.000000
23550.000000,13500.000000
" /> 
</g>
<g style="fill:#008484; fill-opacity:0.0; 
stroke:#008484; stroke-width:60.000000; stroke-opacity:1; 
stroke-linecap:round; stroke-linejoin:round;">
<text x="23250.000000" y="12249.960630"
textLength="1583.818898" font-size="666.653543" lengthAdjust="spacingAndGlyphs"
text-anchor="middle" opacity="0">+9V</text>
<g class="stroked-text"><desc>+9V</desc>
<path d="M22607 12035
L22988 12035
" />
<path d="M22797 12226
L22797 11845
" />
<path d="M23250 12226
L23345 12226
L23392 12202
L23416 12178
L23464 12107
L23488 12011
L23488 11821
L23464 11773
L23440 11749
L23392 11726
L23297 11726
L23250 11749
L23226 11773
L23202 11821
L23202 11940
L23226 11988
L23250 12011
L23297 12035
L23392 12035
L23440 12011
L23464 11988
L23488 11940
" />
<path d="M23630 11726
L23797 12226
L23964 11726
" />
</g></g>
</g>
<g style="fill:#008484; fill-opacity:0.0; 
stroke:#008484; stroke-width:60.000000; stroke-opacity:1; 
stroke-linecap:round; stroke-linejoin:round;">
<g >
</g>
<g style="fill:#840000; fill-opacity:0.0; 
stroke:#840000; stroke-width:60.000000; stroke-opacity:1; 
stroke-linecap:round; stroke-linejoin:round;">
</g>
<g style="fill:#840000; fill-opacity:0.0; 
stroke:#840000; stroke-width:200.000000; stroke-opacity:1; 
stroke-linecap:round; stroke-linejoin:round;">
<path style="fill:#840000; fill-opacity:0.0; 
stroke:#840000; stroke-width:200.000000; stroke-opacity:1; 
stroke-linecap:round; stroke-linejoin:round;fill:none"
d="M 65550.000000,15800.000000
63950.000000,15800.000000
" /> 
<path style="fill:#840000; fill-opacity:0.0; 
stroke:#840000; stroke-width:200.000000; stroke-opacity:1; 
stroke-linecap:round; stroke-linejoin:round;fill:none"
d="M 65550.000000,15200.000000
63950.000000,15200.000000
" /> 
</g>
<g style="fill:#840000; fill-opacity:0.0; 
stroke:#840000; stroke-width:60.000000; stroke-opacity:1; 
stroke-linecap:round; stroke-linejoin:round;">
<path d="M64750 15100
L64750 14000
" />
<path d="M64750 15900
L64750 17000
" />
</g>
<g style="fill:#008484; fill-opacity:0.0; 
stroke:#008484; stroke-width:60.000000; stroke-opacity:1; 
stroke-linecap:round; stroke-linejoin:round;">
<text x="66769.330709" y="15249.921260"
textLength="1036.181102" font-size="666.653543" lengthAdjust="spacingAndGlyphs"
text-anchor="middle" opacity="0">C2</text>
<g class="stroked-text"><desc>C2</desc>
<path d="M66685 15178
L66662 15202
L66590 15226
L66543 15226
L66471 15202
L66424 15154
L66400 15107
L66376 15011
L66376 14940
L66400 14845
L66424 14797
L66471 14749
L66543 14726
L66590 14726
L66662 14749
L66685 14773
" />
<path d="M66876 14773
L66900 14749
L66947 14726
L67066 14726
L67114 14749
L67138 14773
L67162 14821
L67162 14868
L67138 14940
L66852 15226
L67162 15226
" />
</g><text x="67197.913386" y="16249.921260"
textLength="1893.346457" font-size="666.653543" lengthAdjust="spacingAndGlyphs"
text-anchor="middle" opacity="0">10uF</text>
<g class="stroked-text"><desc>10uF</desc>
<path d="M66662 16226
L66376 16226
" />
<path d="M66519 16226
L66519 15726
L66471 15797
L66424 15845
L66376 15868
" />
<path d="M66971 15726
L67019 15726
L67066 15749
L67090 15773
L67114 15821
L67138 15916
L67138 16035
L67114 16130
L67090 16178
L67066 16202
L67019 16226
L66971 16226
L66924 16202
L66900 16178
L66876 16130
L66852 16035
L66852 15916
L66876 15821
L66900 15773
L66924 15749
L66971 15726
" />
<path d="M67566 15892
L67566 16226
" />
<path d="M67352 15892
L67352 16154
L67376 16202
L67424 16226
L67495 16226
L67543 16202
L67566 16178
" />
<path d="M67971 15964
L67805 15964
" />
<path d="M67805 16226
L67805 15726
L68043 15726
" />
</g></g>
</g>
<g style="fill:#008484; fill-opacity:0.0; 
stroke:#008484; stroke-width:60.000000; stroke-opacity:1; 
stroke-linecap:round; stroke-linejoin:round;">
<g >
</g>
<g style="fill:#840000; fill-opacity:0.0; 
stroke:#840000; stroke-width:60.000000; stroke-opacity:1; 
stroke-linecap:round; stroke-linejoin:round;">
<path style="fill:#840000; fill-opacity:0.0; 
stroke:#840000; stroke-width:60.000000; stroke-opacity:1; 
stroke-linecap:round; stroke-linejoin:round;fill:none"
d="M 64750.000000,20750.000000
64750.000000,21250.000000
65250.000000,21250.000000
64750.000000,21750.000000
64250.000000,21250.000000
64750.000000,21250.000000
" /> 
</g>
<g style="fill:#008484; fill-opacity:0.0; 
stroke:#008484; stroke-width:60.000000; stroke-opacity:1; 
stroke-linecap:round; stroke-linejoin:round;">
<text x="64750.000000" y="22749.960630"
textLength="1583.818898" font-size="666.653543" lengthAdjust="spacingAndGlyphs"
text-anchor="middle" opacity="0">GND</text>
<g class="stroked-text"><desc>GND</desc>
<path d="M64369 22249
L64321 22226
L64250 22226
L64178 22249
L64130 22297
L64107 22345
L64083 22440
L64083 22511
L64107 22607
L64130 22654
L64178 22702
L64250 22726
L64297 22726
L64369 22702
L64392 22678
L64392 22511
L64297 22511
" />
<path d="M64607 22726
L64607 22226
L64892 22726
L64892 22226
" />
<path d="M65130 22726
L65130 22226
L65250 22226
L65321 22249
L65369 22297
L65392 22345
L65416 22440
L65416 22511
L65392 22607
L65369 22654
L65321 22702
L65250 22726
L65130 22726
" />
</g></g>
</g>
<g style="fill:#008484; fill-opacity:0.0; 
stroke:#008484; stroke-width:60.000000; stroke-opacity:1; 
stroke-linecap:round; stroke-linejoin:round;">
<g >
</g>
<g style="fill:#840000; fill-opacity:0.0; 
stroke:#840000; stroke-width:60.000000; stroke-opacity:1; 
stroke-linecap:round; stroke-linejoin:round;">
<path style="fill:#840000; fill-opacity:0.0; 
stroke:#840000; stroke-width:60.000000; stroke-opacity:1; 
stroke-linecap:round; stroke-linejoin:round;fill:none"
d="M 80250.000000,57750.000000
80250.000000,58250.000000
80750.000000,58250.000000
80250.000000,58750.000000
79750.000000,58250.000000
80250.000000,58250.000000
" /> 
</g>
<g style="fill:#008484; fill-opacity:0.0; 
stroke:#008484; stroke-width:60.000000; stroke-opacity:1; 
stroke-linecap:round; stroke-linejoin:round;">
<text x="80250.000000" y="59999.960630"
textLength="1583.818898" font-size="666.653543" lengthAdjust="spacingAndGlyphs"
text-anchor="middle" opacity="0">GND</text>
<g class="stroked-text"><desc>GND</desc>
<path d="M79869 59499
L79821 59476
L79750 59476
L79678 59499
L79630 59547
L79607 59595
L79583 59690
L79583 59761
L79607 59857
L79630 59904
L79678 59952
L79750 59976
L79797 59976
L79869 59952
L79892 59928
L79892 59761
L79797 59761
" />
<path d="M80107 59976
L80107 59476
L80392 59976
L80392 59476
" />
<path d="M80630 59976
L80630 59476
L80750 59476
L80821 59499
L80869 59547
L80892 59595
L80916 59690
L80916 59761
L80892 59857
L80869 59904
L80821 59952
L80750 59976
L80630 59976
" />
</g></g>
</g>
<g style="fill:#008484; fill-opacity:0.0; 
stroke:#008484; stroke-width:60.000000; stroke-opacity:1; 
stroke-linecap:round; stroke-linejoin:round;">
<g >
</g>
<g style="fill:#840000; fill-opacity:0.0; 
stroke:#840000; stroke-width:60.000000; stroke-opacity:1; 
stroke-linecap:round; stroke-linejoin:round;">
<path style="fill:#840000; fill-opacity:0.0; 
stroke:#840000; stroke-width:60.000000; stroke-opacity:1; 
stroke-linecap:round; stroke-linejoin:round;fill:none"
d="M 35250.000000,58000.000000
35250.000000,58500.000000
35750.000000,58500.000000
35250.000000,59000.000000
34750.000000,58500.000000
35250.000000,58500.000000
" /> 
</g>
<g style="fill:#008484; fill-opacity:0.0; 
stroke:#008484; stroke-width:60.000000; stroke-opacity:1; 
stroke-linecap:round; stroke-linejoin:round;">
<text x="35250.000000" y="60249.960630"
textLength="1583.818898" font-size="666.653543" lengthAdjust="spacingAndGlyphs"
text-anchor="middle" opacity="0">GND</text>
<g class="stroked-text"><desc>GND</desc>
<path d="M34869 59749
L34821 59726
L34750 59726
L34678 59749
L34630 59797
L34607 59845
L34583 59940
L34583 60011
L34607 60107
L34630 60154
L34678 60202
L34750 60226
L34797 60226
L34869 60202
L34892 60178
L34892 60011
L34797 60011
" />
<path d="M35107 60226
L35107 59726
L35392 60226
L35392 59726
" />
<path d="M35630 60226
L35630 59726
L35750 59726
L35821 59749
L35869 59797
L35892 59845
L35916 59940
L35916 60011
L35892 60107
L35869 60154
L35821 60202
L35750 60226
L35630 60226
" />
</g></g>
</g>
<g style="fill:#008484; fill-opacity:0.0; 
stroke:#008484; stroke-width:60.000000; stroke-opacity:1; 
stroke-linecap:round; stroke-linejoin:round;">
<g >
</g>
<g style="fill:#840000; fill-opacity:0.0; 
stroke:#840000; stroke-width:60.000000; stroke-opacity:1; 
stroke-linecap:round; stroke-linejoin:round;">
<path style="fill:#840000; fill-opacity:0.0; 
stroke:#840000; stroke-width:60.000000; stroke-opacity:1; 
stroke-linecap:round; stroke-linejoin:round;fill:none"
d="M 46750.000000,58000.000000
46750.000000,58500.000000
47250.000000,58500.000000
46750.000000,59000.000000
46250.000000,58500.000000
46750.000000,58500.000000
" /> 
</g>
<g style="fill:#008484; fill-opacity:0.0; 
stroke:#008484; stroke-width:60.000000; stroke-opacity:1; 
stroke-linecap:round; stroke-linejoin:round;">
<text x="46750.000000" y="60249.960630"
textLength="1583.818898" font-size="666.653543" lengthAdjust="spacingAndGlyphs"
text-anchor="middle" opacity="0">GND</text>
<g class="stroked-text"><desc>GND</desc>
<path d="M46369 59749
L46321 59726
L46250 59726
L46178 59749
L46130 59797
L46107 59845
L46083 59940
L46083 60011
L46107 60107
L46130 60154
L46178 60202
L46250 60226
L46297 60226
L46369 60202
L46392 60178
L46392 60011
L46297 60011
" />
<path d="M46607 60226
L46607 59726
L46892 60226
L46892 59726
" />
<path d="M47130 60226
L47130 59726
L47250 59726
L47321 59749
L47369 59797
L47392 59845
L47416 59940
L47416 60011
L47392 60107
L47369 60154
L47321 60202
L47250 60226
L47130 60226
" />
</g></g>
</g>
<g style="fill:#008484; fill-opacity:0.0; 
stroke:#008484; stroke-width:60.000000; stroke-opacity:1; 
stroke-linecap:round; stroke-linejoin:round;">
<g >
</g>
<g style="fill:#840000; fill-opacity:0.0; 
stroke:#840000; stroke-width:60.000000; stroke-opacity:1; 
stroke-linecap:round; stroke-linejoin:round;">
<path d="M80250.436332 44749.999619 A250.000000 250.000000 0.0 0 0 80250.436332 44250.000381" />
<path d="M80250.436332 44249.999619 A250.000000 250.000000 0.0 0 0 80250.436332 43750.000381" />
<path style="fill:#840000; fill-opacity:0.0; 
stroke:#840000; stroke-width:60.000000; stroke-opacity:1; 
stroke-linecap:round; stroke-linejoin:round;fill:none"
d="M 80650.000000,42750.000000
80650.000000,44750.000000
" /> 
<path style="fill:#840000; fill-opacity:0.0; 
stroke:#840000; stroke-width:60.000000; stroke-opacity:1; 
stroke-linecap:round; stroke-linejoin:round;fill:none"
d="M 80850.000000,44750.000000
80850.000000,42750.000000
" /> 
<path d="M80250.436332 43749.999619 A250.000000 250.000000 0.0 0 0 80250.436332 43250.000381" />
<path d="M80250.436332 43249.999619 A250.000000 250.000000 0.0 0 0 80250.436332 42750.000381" />
<path d="M80250 42750
L80250 42250
" />
<path d="M80250 44750
L80250 45250
" />
</g>
<g style="fill:#008484; fill-opacity:0.0; 
stroke:#008484; stroke-width:60.000000; stroke-opacity:1; 
stroke-linecap:round; stroke-linejoin:round;">
<text x="81721.732283" y="43499.921260"
textLength="940.944882" font-size="666.653543" lengthAdjust="spacingAndGlyphs"
text-anchor="middle" opacity="0">L2</text>
<g class="stroked-text"><desc>L2</desc>
<path d="M81638 43476
L81400 43476
L81400 42976
" />
<path d="M81781 43023
L81805 42999
L81852 42976
L81971 42976
L82019 42999
L82043 43023
L82066 43071
L82066 43118
L82043 43190
L81757 43476
L82066 43476
" />
</g><text x="82400.314961" y="44499.921260"
textLength="2298.110236" font-size="666.653543" lengthAdjust="spacingAndGlyphs"
text-anchor="middle" opacity="0">L_Iron</text>
<g class="stroked-text"><desc>L_Iron</desc>
<path d="M81638 44476
L81400 44476
L81400 43976
" />
<path d="M81686 44523
L82066 44523
" />
<path d="M82186 44476
L82186 43976
" />
<path d="M82424 44476
L82424 44142
" />
<path d="M82424 44237
L82447 44190
L82471 44166
L82519 44142
L82566 44142
" />
<path d="M82805 44476
L82757 44452
L82733 44428
L82709 44380
L82709 44237
L82733 44190
L82757 44166
L82805 44142
L82876 44142
L82924 44166
L82947 44190
L82971 44237
L82971 44380
L82947 44428
L82924 44452
L82876 44476
L82805 44476
" />
<path d="M83186 44142
L83186 44476
" />
<path d="M83186 44190
L83209 44166
L83257 44142
L83328 44142
L83376 44166
L83400 44214
L83400 44476
" />
</g></g>
</g>
<g style="fill:#008484; fill-opacity:0.0; 
stroke:#008484; stroke-width:60.000000; stroke-opacity:1; 
stroke-linecap:round; stroke-linejoin:round;">
<g >
</g>
<g style="fill:#840000; fill-opacity:0.0; 
stroke:#840000; stroke-width:60.000000; stroke-opacity:1; 
stroke-linecap:round; stroke-linejoin:round;">
</g>
<g style="fill:#840000; fill-opacity:0.0; 
stroke:#840000; stroke-width:200.000000; stroke-opacity:1; 
stroke-linecap:round; stroke-linejoin:round;">
<path style="fill:#840000; fill-opacity:0.0; 
stroke:#840000; stroke-width:200.000000; stroke-opacity:1; 
stroke-linecap:round; stroke-linejoin:round;fill:none"
d="M 69300.000000,43050.000000
69300.000000,41450.000000
" /> 
<path style="fill:#840000; fill-opacity:0.0; 
stroke:#840000; stroke-width:200.000000; stroke-opacity:1; 
stroke-linecap:round; stroke-linejoin:round;fill:none"
d="M 68700.000000,43050.000000
68700.000000,41450.000000
" /> 
</g>
<g style="fill:#840000; fill-opacity:0.0; 
stroke:#840000; stroke-width:60.000000; stroke-opacity:1; 
stroke-linecap:round; stroke-linejoin:round;">
<path d="M68600 42250
L67500 42250
" />
<path d="M69400 42250
L70500 42250
" />
</g>
<g style="fill:#008484; fill-opacity:0.0; 
stroke:#008484; stroke-width:60.000000; stroke-opacity:1; 
stroke-linecap:round; stroke-linejoin:round;">
<text x="68999.960630" y="39750.000000"
textLength="1036.181102" font-size="666.653543" lengthAdjust="spacingAndGlyphs"
text-anchor="middle" opacity="0">C4</text>
<g class="stroked-text"><desc>C4</desc>
<path d="M68916 39678
L68892 39702
L68821 39726
L68773 39726
L68702 39702
L68654 39654
L68630 39607
L68607 39511
L68607 39440
L68630 39345
L68654 39297
L68702 39250
L68773 39226
L68821 39226
L68892 39250
L68916 39273
" />
<path d="M69345 39392
L69345 39726
" />
<path d="M69226 39202
L69107 39559
L69416 39559
" />
</g><text x="69000.000000" y="40750.000000"
textLength="2369.527559" font-size="666.653543" lengthAdjust="spacingAndGlyphs"
text-anchor="middle" opacity="0">220uF</text>
<g class="stroked-text"><desc>220uF</desc>
<path d="M67940 40273
L67964 40250
L68011 40226
L68130 40226
L68178 40250
L68202 40273
L68226 40321
L68226 40369
L68202 40440
L67916 40726
L68226 40726
" />
<path d="M68416 40273
L68440 40250
L68488 40226
L68607 40226
L68654 40250
L68678 40273
L68702 40321
L68702 40369
L68678 40440
L68392 40726
L68702 40726
" />
<path d="M69011 40226
L69059 40226
L69107 40250
L69130 40273
L69154 40321
L69178 40416
L69178 40535
L69154 40630
L69130 40678
L69107 40702
L69059 40726
L69011 40726
L68964 40702
L68940 40678
L68916 40630
L68892 40535
L68892 40416
L68916 40321
L68940 40273
L68964 40250
L69011 40226
" />
<path d="M69607 40392
L69607 40726
" />
<path d="M69392 40392
L69392 40654
L69416 40702
L69464 40726
L69535 40726
L69583 40702
L69607 40678
" />
<path d="M70011 40464
L69845 40464
" />
<path d="M69845 40726
L69845 40226
L70083 40226
" />
</g></g>
</g>
<g style="fill:#008484; fill-opacity:0.0; 
stroke:#008484; stroke-width:60.000000; stroke-opacity:1; 
stroke-linecap:round; stroke-linejoin:round;">
<g >
</g>
<g style="fill:#840000; fill-opacity:0.0; 
stroke:#840000; stroke-width:60.000000; stroke-opacity:1; 
stroke-linecap:round; stroke-linejoin:round;">
<path style="fill:#840000; fill-opacity:0.0; 
stroke:#840000; stroke-width:60.000000; stroke-opacity:1; 
stroke-linecap:round; stroke-linejoin:round;fill:none"
d="M 50000.000000,58000.000000
50000.000000,58500.000000
50500.000000,58500.000000
50000.000000,59000.000000
49500.000000,58500.000000
50000.000000,58500.000000
" /> 
</g>
<g style="fill:#008484; fill-opacity:0.0; 
stroke:#008484; stroke-width:60.000000; stroke-opacity:1; 
stroke-linecap:round; stroke-linejoin:round;">
<text x="50000.000000" y="60249.960630"
textLength="1583.818898" font-size="666.653543" lengthAdjust="spacingAndGlyphs"
text-anchor="middle" opacity="0">GND</text>
<g class="stroked-text"><desc>GND</desc>
<path d="M49619 59749
L49571 59726
L49500 59726
L49428 59749
L49380 59797
L49357 59845
L49333 59940
L49333 60011
L49357 60107
L49380 60154
L49428 60202
L49500 60226
L49547 60226
L49619 60202
L49642 60178
L49642 60011
L49547 60011
" />
<path d="M49857 60226
L49857 59726
L50142 60226
L50142 59726
" />
<path d="M50380 60226
L50380 59726
L50500 59726
L50571 59749
L50619 59797
L50642 59845
L50666 59940
L50666 60011
L50642 60107
L50619 60154
L50571 60202
L50500 60226
L50380 60226
" />
</g></g>
</g>
<g style="fill:#008484; fill-opacity:0.0; 
stroke:#008484; stroke-width:60.000000; stroke-opacity:1; 
stroke-linecap:round; stroke-linejoin:round;">
<g >
</g>
<g style="fill:#840000; fill-opacity:0.0; 
stroke:#840000; stroke-width:60.000000; stroke-opacity:1; 
stroke-linecap:round; stroke-linejoin:round;">
<path style="fill:#840000; fill-opacity:0.0; 
stroke:#840000; stroke-width:60.000000; stroke-opacity:1; 
stroke-linecap:round; stroke-linejoin:round;fill:none"
d="M 50000.000000,33000.000000
49500.000000,33000.000000
49250.000000,33400.000000
49000.000000,33000.000000
49250.000000,32600.000000
49500.000000,33000.000000
" /> 
<path d="M50000 33000
L50000 33000
" />
</g>
</g>
<g style="fill:#840000; fill-opacity:0.0; 
stroke:#840000; stroke-width:60.000000; stroke-opacity:1; 
stroke-linecap:round; stroke-linejoin:round;">
<g >
<path style="fill:#840000; fill-opacity:0.0; 
stroke:#840000; stroke-width:60.000000; stroke-opacity:1; 
stroke-linecap:round; stroke-linejoin:round;fill:none"
d="M 49700.000000,31000.000000
50000.000000,30500.000000
" /> 
<path style="fill:#840000; fill-opacity:0.0; 
stroke:#840000; stroke-width:60.000000; stroke-opacity:1; 
stroke-linecap:round; stroke-linejoin:round;fill:none"
d="M 50000.000000,31500.000000
50000.000000,30500.000000
" /> 
<path style="fill:#840000; fill-opacity:0.0; 
stroke:#840000; stroke-width:60.000000; stroke-opacity:1; 
stroke-linecap:round; stroke-linejoin:round;fill:none"
d="M 50000.000000,30500.000000
50300.000000,31000.000000
" /> 
</g>
<g style="fill:#008484; fill-opacity:0.0; 
stroke:#008484; stroke-width:60.000000; stroke-opacity:1; 
stroke-linecap:round; stroke-linejoin:round;">
<text x="50000.000000" y="29499.960630"
textLength="1583.818898" font-size="666.653543" lengthAdjust="spacingAndGlyphs"
text-anchor="middle" opacity="0">+5V</text>
<g class="stroked-text"><desc>+5V</desc>
<path d="M49357 29285
L49738 29285
" />
<path d="M49547 29476
L49547 29095
" />
<path d="M50214 28976
L49976 28976
L49952 29214
L49976 29190
L50023 29166
L50142 29166
L50190 29190
L50214 29214
L50238 29261
L50238 29380
L50214 29428
L50190 29452
L50142 29476
L50023 29476
L49976 29452
L49952 29428
" />
<path d="M50380 28976
L50547 29476
L50714 28976
" />
</g></g>
</g>
<g style="fill:#008484; fill-opacity:0.0; 
stroke:#008484; stroke-width:60.000000; stroke-opacity:1; 
stroke-linecap:round; stroke-linejoin:round;">
<g >
</g>
<g style="fill:#840000; fill-opacity:0.0; 
stroke:#840000; stroke-width:60.000000; stroke-opacity:1; 
stroke-linecap:round; stroke-linejoin:round;">
<path style="fill:#840000; fill-opacity:0.0; 
stroke:#840000; stroke-width:60.000000; stroke-opacity:1; 
stroke-linecap:round; stroke-linejoin:round;fill:none"
d="M 65500.000000,58000.000000
65500.000000,58500.000000
66000.000000,58500.000000
65500.000000,59000.000000
65000.000000,58500.000000
65500.000000,58500.000000
" /> 
</g>
<g style="fill:#008484; fill-opacity:0.0; 
stroke:#008484; stroke-width:60.000000; stroke-opacity:1; 
stroke-linecap:round; stroke-linejoin:round;">
<text x="65500.000000" y="59999.960630"
textLength="1583.818898" font-size="666.653543" lengthAdjust="spacingAndGlyphs"
text-anchor="middle" opacity="0">GND</text>
<g class="stroked-text"><desc>GND</desc>
<path d="M65119 59499
L65071 59476
L65000 59476
L64928 59499
L64880 59547
L64857 59595
L64833 59690
L64833 59761
L64857 59857
L64880 59904
L64928 59952
L65000 59976
L65047 59976
L65119 59952
L65142 59928
L65142 59761
L65047 59761
" />
<path d="M65357 59976
L65357 59476
L65642 59976
L65642 59476
" />
<path d="M65880 59976
L65880 59476
L66000 59476
L66071 59499
L66119 59547
L66142 59595
L66166 59690
L66166 59761
L66142 59857
L66119 59904
L66071 59952
L66000 59976
L65880 59976
" />
</g></g>
</g>
<g style="fill:#008484; fill-opacity:0.0; 
stroke:#008484; stroke-width:60.000000; stroke-opacity:1; 
stroke-linecap:round; stroke-linejoin:round;">
<g >
</g>
<g style="fill:#840000; fill-opacity:0.0; 
stroke:#840000; stroke-width:60.000000; stroke-opacity:1; 
stroke-linecap:round; stroke-linejoin:round;">
</g>
<g style="fill:#840000; fill-opacity:0.0; 
stroke:#840000; stroke-width:100.000000; stroke-opacity:1; 
stroke-linecap:round; stroke-linejoin:round;">
<rect x="65100.000000" y="54250.000000" width="800.000000" height="2000.000000" rx="0.000000" />
</g>
<g style="fill:#840000; fill-opacity:0.0; 
stroke:#840000; stroke-width:60.000000; stroke-opacity:1; 
stroke-linecap:round; stroke-linejoin:round;">
<path d="M65500 54250
L65500 53750
" />
<path d="M65500 56250
L65500 56750
" />
</g>
<g style="fill:#008484; fill-opacity:0.0; 
stroke:#008484; stroke-width:60.000000; stroke-opacity:1; 
stroke-linecap:round; stroke-linejoin:round;">
<text x="66769.330709" y="54999.921260"
textLength="1036.181102" font-size="666.653543" lengthAdjust="spacingAndGlyphs"
text-anchor="middle" opacity="0">R1</text>
<g class="stroked-text"><desc>R1</desc>
<path d="M66685 54976
L66519 54737
" />
<path d="M66400 54976
L66400 54476
L66590 54476
L66638 54499
L66662 54523
L66685 54571
L66685 54642
L66662 54690
L66638 54714
L66590 54737
L66400 54737
" />
<path d="M67162 54976
L66876 54976
" />
<path d="M67019 54976
L67019 54476
L66971 54547
L66924 54595
L66876 54618
" />
</g><text x="67007.440945" y="55999.921260"
textLength="1512.362205" font-size="666.653543" lengthAdjust="spacingAndGlyphs"
text-anchor="middle" opacity="0">10R</text>
<g class="stroked-text"><desc>10R</desc>
<path d="M66662 55976
L66376 55976
" />
<path d="M66519 55976
L66519 55476
L66471 55547
L66424 55595
L66376 55618
" />
<path d="M66971 55476
L67019 55476
L67066 55499
L67090 55523
L67114 55571
L67138 55666
L67138 55785
L67114 55880
L67090 55928
L67066 55952
L67019 55976
L66971 55976
L66924 55952
L66900 55928
L66876 55880
L66852 55785
L66852 55666
L66876 55571
L66900 55523
L66924 55499
L66971 55476
" />
<path d="M67638 55976
L67471 55737
" />
<path d="M67352 55976
L67352 55476
L67543 55476
L67590 55499
L67614 55523
L67638 55571
L67638 55642
L67614 55690
L67590 55714
L67543 55737
L67352 55737
" />
</g></g>
</g>
<g style="fill:#008484; fill-opacity:0.0; 
stroke:#008484; stroke-width:60.000000; stroke-opacity:1; 
stroke-linecap:round; stroke-linejoin:round;">
<g >
</g>
<g style="fill:#840000; fill-opacity:0.0; 
stroke:#840000; stroke-width:60.000000; stroke-opacity:1; 
stroke-linecap:round; stroke-linejoin:round;">
</g>
<g style="fill:#840000; fill-opacity:0.0; 
stroke:#840000; stroke-width:200.000000; stroke-opacity:1; 
stroke-linecap:round; stroke-linejoin:round;">
<path style="fill:#840000; fill-opacity:0.0; 
stroke:#840000; stroke-width:200.000000; stroke-opacity:1; 
stroke-linecap:round; stroke-linejoin:round;fill:none"
d="M 66300.000000,51200.000000
64700.000000,51200.000000
" /> 
<path style="fill:#840000; fill-opacity:0.0; 
stroke:#840000; stroke-width:200.000000; stroke-opacity:1; 
stroke-linecap:round; stroke-linejoin:round;fill:none"
d="M 66300.000000,51800.000000
64700.000000,51800.000000
" /> 
</g>
<g style="fill:#840000; fill-opacity:0.0; 
stroke:#840000; stroke-width:60.000000; stroke-opacity:1; 
stroke-linecap:round; stroke-linejoin:round;">
<path d="M65500 51900
L65500 53000
" />
<path d="M65500 51100
L65500 50000
" />
</g>
<g style="fill:#008484; fill-opacity:0.0; 
stroke:#008484; stroke-width:60.000000; stroke-opacity:1; 
stroke-linecap:round; stroke-linejoin:round;">
<text x="67269.330709" y="51249.960630"
textLength="1036.181102" font-size="666.653543" lengthAdjust="spacingAndGlyphs"
text-anchor="middle" opacity="0">C3</text>
<g class="stroked-text"><desc>C3</desc>
<path d="M67185 51178
L67162 51202
L67090 51226
L67043 51226
L66971 51202
L66924 51154
L66900 51107
L66876 51011
L66876 50940
L66900 50845
L66924 50797
L66971 50749
L67043 50726
L67090 50726
L67162 50749
L67185 50773
" />
<path d="M67352 50726
L67662 50726
L67495 50916
L67566 50916
L67614 50940
L67638 50964
L67662 51011
L67662 51130
L67638 51178
L67614 51202
L67566 51226
L67424 51226
L67376 51202
L67352 51178
" />
</g><text x="67697.913386" y="52249.960630"
textLength="1893.346457" font-size="666.653543" lengthAdjust="spacingAndGlyphs"
text-anchor="middle" opacity="0">47nF</text>
<g class="stroked-text"><desc>47nF</desc>
<path d="M67114 51892
L67114 52226
" />
<path d="M66995 51702
L66876 52059
L67185 52059
" />
<path d="M67328 51726
L67662 51726
L67447 52226
" />
<path d="M67852 51892
L67852 52226
" />
<path d="M67852 51940
L67876 51916
L67924 51892
L67995 51892
L68043 51916
L68066 51964
L68066 52226
" />
<path d="M68471 51964
L68305 51964
" />
<path d="M68305 52226
L68305 51726
L68543 51726
" />
</g></g>
</g>
<g style="fill:#008484; fill-opacity:0.0; 
stroke:#008484; stroke-width:60.000000; stroke-opacity:1; 
stroke-linecap:round; stroke-linejoin:round;">
<g >
</g>
<g style="fill:#840000; fill-opacity:0.0; 
stroke:#840000; stroke-width:60.000000; stroke-opacity:1; 
stroke-linecap:round; stroke-linejoin:round;">
<path style="fill:#840000; fill-opacity:0.0; 
stroke:#840000; stroke-width:60.000000; stroke-opacity:1; 
stroke-linecap:round; stroke-linejoin:round;fill:none"
d="M 50000.000000,57250.000000
49500.000000,57250.000000
49250.000000,57650.000000
49000.000000,57250.000000
49250.000000,56850.000000
49500.000000,57250.000000
" /> 
<path d="M50000 57250
L50000 57250
" />
</g>
</g>
<g style="fill:#840000; fill-opacity:0.0; 
stroke:#840000; stroke-width:60.000000; stroke-opacity:1; 
stroke-linecap:round; stroke-linejoin:round;">
<g >
<path d="M35249.563668 41750.000381 A250.000000 250.000000 0.0 0 0 35249.563668 42249.999619" />
<path d="M35249.563668 42250.000381 A250.000000 250.000000 0.0 0 0 35249.563668 42749.999619" />
<path style="fill:#840000; fill-opacity:0.0; 
stroke:#840000; stroke-width:60.000000; stroke-opacity:1; 
stroke-linecap:round; stroke-linejoin:round;fill:none"
d="M 34850.000000,43750.000000
34850.000000,41750.000000
" /> 
<path style="fill:#840000; fill-opacity:0.0; 
stroke:#840000; stroke-width:60.000000; stroke-opacity:1; 
stroke-linecap:round; stroke-linejoin:round;fill:none"
d="M 34650.000000,41750.000000
34650.000000,43750.000000
" /> 
<path d="M35249.563668 42750.000381 A250.000000 250.000000 0.0 0 0 35249.563668 43249.999619" />
<path d="M35249.563668 43250.000381 A250.000000 250.000000 0.0 0 0 35249.563668 43749.999619" />
<path d="M35250 43750
L35250 44250
" />
<path d="M35250 41750
L35250 41250
" />
</g>
<g style="fill:#008484; fill-opacity:0.0; 
stroke:#008484; stroke-width:60.000000; stroke-opacity:1; 
stroke-linecap:round; stroke-linejoin:round;">
<text x="35971.732283" y="42499.960630"
textLength="940.944882" font-size="666.653543" lengthAdjust="spacingAndGlyphs"
text-anchor="middle" opacity="0">L1</text>
<g class="stroked-text"><desc>L1</desc>
<path d="M35888 42476
L35650 42476
L35650 41976
" />
<path d="M36316 42476
L36031 42476
" />
<path d="M36174 42476
L36174 41976
L36126 42047
L36078 42095
L36031 42118
" />
</g><text x="36650.314961" y="43499.960630"
textLength="2298.110236" font-size="666.653543" lengthAdjust="spacingAndGlyphs"
text-anchor="middle" opacity="0">L_Iron</text>
<g class="stroked-text"><desc>L_Iron</desc>
<path d="M35888 43476
L35650 43476
L35650 42976
" />
<path d="M35936 43523
L36316 43523
" />
<path d="M36436 43476
L36436 42976
" />
<path d="M36674 43476
L36674 43142
" />
<path d="M36674 43238
L36697 43190
L36721 43166
L36769 43142
L36816 43142
" />
<path d="M37055 43476
L37007 43452
L36983 43428
L36959 43380
L36959 43238
L36983 43190
L37007 43166
L37055 43142
L37126 43142
L37174 43166
L37197 43190
L37221 43238
L37221 43380
L37197 43428
L37174 43452
L37126 43476
L37055 43476
" />
<path d="M37436 43142
L37436 43476
" />
<path d="M37436 43190
L37459 43166
L37507 43142
L37578 43142
L37626 43166
L37650 43214
L37650 43476
" />
</g></g>
</g>
<g style="fill:#008484; fill-opacity:0.0; 
stroke:#008484; stroke-width:62.519685; stroke-opacity:1; 
stroke-linecap:round; stroke-linejoin:round;">
</g>
<g style="fill:#008484; fill-opacity:0.0; 
stroke:#008484; stroke-width:60.000000; stroke-opacity:1; 
stroke-linecap:round; stroke-linejoin:round;">
</g>
<g style="fill:#000000; fill-opacity:0.0; 
stroke:#000000; stroke-width:60.000000; stroke-opacity:1; 
stroke-linecap:round; stroke-linejoin:round;">
<g transform="rotate(-90.000000 64612.480315 8500.000000)">
<text x="64612.480315" y="8500.000000"
textLength="3345.708661" font-size="666.653543" lengthAdjust="spacingAndGlyphs"
text-anchor="end" opacity="0">BYPASS1</text>
</g>
<g class="stroked-text"><desc>BYPASS1</desc>
<path d="M64326 11530
L64350 11458
L64374 11434
L64421 11410
L64493 11410
L64541 11434
L64564 11458
L64588 11506
L64588 11696
L64088 11696
L64088 11530
L64112 11482
L64136 11458
L64183 11434
L64231 11434
L64279 11458
L64302 11482
L64326 11530
L64326 11696
" />
<path d="M64350 11101
L64588 11101
" />
<path d="M64088 11268
L64350 11101
L64088 10934
" />
<path d="M64588 10768
L64088 10768
L64088 10577
L64112 10530
L64136 10506
L64183 10482
L64255 10482
L64302 10506
L64326 10530
L64350 10577
L64350 10768
" />
<path d="M64445 10291
L64445 10053
" />
<path d="M64588 10339
L64088 10172
L64588 10006
" />
<path d="M64564 9863
L64588 9791
L64588 9672
L64564 9625
L64541 9601
L64493 9577
L64445 9577
L64398 9601
L64374 9625
L64350 9672
L64326 9768
L64302 9815
L64279 9839
L64231 9863
L64183 9863
L64136 9839
L64112 9815
L64088 9768
L64088 9649
L64112 9577
" />
<path d="M64564 9387
L64588 9315
L64588 9196
L64564 9149
L64541 9125
L64493 9101
L64445 9101
L64398 9125
L64374 9149
L64350 9196
L64326 9291
L64302 9339
L64279 9363
L64231 9387
L64183 9387
L64136 9363
L64112 9339
L64088 9291
L64088 9172
L64112 9101
" />
<path d="M64588 8625
L64588 8910
" />
<path d="M64588 8768
L64088 8768
L64160 8815
L64207 8863
L64231 8910
" />
</g></g>
<g style="fill:#000000; fill-opacity:0.0; 
stroke:#000000; stroke-width:62.519685; stroke-opacity:1; 
stroke-linecap:round; stroke-linejoin:round;">
</g>
<g style="fill:#000000; fill-opacity:0.0; 
stroke:#000000; stroke-width:60.000000; stroke-opacity:1; 
stroke-linecap:round; stroke-linejoin:round;">
<g transform="rotate(-90.000000 50862.480315 49250.000000)">
<text x="50862.480315" y="49250.000000"
textLength="2226.653543" font-size="666.653543" lengthAdjust="spacingAndGlyphs"
text-anchor="start" opacity="0">GAIN1</text>
</g>
<g class="stroked-text"><desc>GAIN1</desc>
<path d="M50362 48839
L50338 48886
L50338 48958
L50362 49029
L50410 49077
L50457 49100
L50552 49124
L50624 49124
L50719 49100
L50767 49077
L50814 49029
L50838 48958
L50838 48910
L50814 48839
L50791 48815
L50624 48815
L50624 48910
" />
<path d="M50695 48624
L50695 48386
" />
<path d="M50838 48672
L50338 48505
L50838 48339
" />
<path d="M50838 48172
L50338 48172
" />
<path d="M50838 47934
L50338 47934
L50838 47648
L50338 47648
" />
<path d="M50838 47148
L50838 47434
" />
<path d="M50838 47291
L50338 47291
L50410 47339
L50457 47386
L50481 47434
" />
</g></g>
<g style="fill:#000000; fill-opacity:0.0; 
stroke:#000000; stroke-width:62.519685; stroke-opacity:1; 
stroke-linecap:round; stroke-linejoin:round;">
</g>
<g style="fill:#000000; fill-opacity:0.0; 
stroke:#000000; stroke-width:60.000000; stroke-opacity:1; 
stroke-linecap:round; stroke-linejoin:round;">
<g transform="rotate(-90.000000 76112.480315 21000.000000)">
<text x="76112.480315" y="21000.000000"
textLength="2226.653543" font-size="666.653543" lengthAdjust="spacingAndGlyphs"
text-anchor="start" opacity="0">GAIN2</text>
</g>
<g class="stroked-text"><desc>GAIN2</desc>
<path d="M75612 20589
L75588 20636
L75588 20708
L75612 20779
L75660 20827
L75707 20850
L75802 20874
L75874 20874
L75969 20850
L76017 20827
L76064 20779
L76088 20708
L76088 20660
L76064 20589
L76041 20565
L75874 20565
L75874 20660
" />
<path d="M75945 20374
L75945 20136
" />
<path d="M76088 20422
L75588 20255
L76088 20089
" />
<path d="M76088 19922
L75588 19922
" />
<path d="M76088 19684
L75588 19684
L76088 19398
L75588 19398
" />
<path d="M75636 19184
L75612 19160
L75588 19112
L75588 18993
L75612 18946
L75636 18922
L75683 18898
L75731 18898
L75802 18922
L76088 19208
L76088 18898
" />
</g></g>
<g style="fill:#000000; fill-opacity:0.0; 
stroke:#000000; stroke-width:62.519685; stroke-opacity:1; 
stroke-linecap:round; stroke-linejoin:round;">
</g>
<g style="fill:#000000; fill-opacity:0.0; 
stroke:#000000; stroke-width:60.000000; stroke-opacity:1; 
stroke-linecap:round; stroke-linejoin:round;">
<g transform="rotate(-90.000000 76112.480315 10000.000000)">
<text x="76112.480315" y="10000.000000"
textLength="2226.653543" font-size="666.653543" lengthAdjust="spacingAndGlyphs"
text-anchor="end" opacity="0">GAIN1</text>
</g>
<g class="stroked-text"><desc>GAIN1</desc>
<path d="M75612 11815
L75588 11863
L75588 11934
L75612 12006
L75660 12053
L75707 12077
L75802 12101
L75874 12101
L75969 12077
L76017 12053
L76064 12006
L76088 11934
L76088 11887
L76064 11815
L76041 11791
L75874 11791
L75874 11887
" />
<path d="M75945 11601
L75945 11363
" />
<path d="M76088 11649
L75588 11482
L76088 11315
" />
<path d="M76088 11149
L75588 11149
" />
<path d="M76088 10910
L75588 10910
L76088 10625
L75588 10625
" />
<path d="M76088 10125
L76088 10410
" />
<path d="M76088 10268
L75588 10268
L75660 10315
L75707 10363
L75731 10410
" />
</g></g>
<g style="fill:#000000; fill-opacity:0.0; 
stroke:#000000; stroke-width:62.519685; stroke-opacity:1; 
stroke-linecap:round; stroke-linejoin:round;">
</g>
<g style="fill:#000000; fill-opacity:0.0; 
stroke:#000000; stroke-width:60.000000; stroke-opacity:1; 
stroke-linecap:round; stroke-linejoin:round;">
<g transform="rotate(-90.000000 51862.480315 49250.000000)">
<text x="51862.480315" y="49250.000000"
textLength="2226.653543" font-size="666.653543" lengthAdjust="spacingAndGlyphs"
text-anchor="start" opacity="0">GAIN2</text>
</g>
<g class="stroked-text"><desc>GAIN2</desc>
<path d="M51362 48839
L51338 48886
L51338 48958
L51362 49029
L51410 49077
L51457 49100
L51552 49124
L51624 49124
L51719 49100
L51767 49077
L51814 49029
L51838 48958
L51838 48910
L51814 48839
L51791 48815
L51624 48815
L51624 48910
" />
<path d="M51695 48624
L51695 48386
" />
<path d="M51838 48672
L51338 48505
L51838 48339
" />
<path d="M51838 48172
L51338 48172
" />
<path d="M51838 47934
L51338 47934
L51838 47648
L51338 47648
" />
<path d="M51386 47434
L51362 47410
L51338 47362
L51338 47243
L51362 47196
L51386 47172
L51433 47148
L51481 47148
L51552 47172
L51838 47458
L51838 47148
" />
</g></g>
<g style="fill:#000000; fill-opacity:0.0; 
stroke:#000000; stroke-width:62.519685; stroke-opacity:1; 
stroke-linecap:round; stroke-linejoin:round;">
</g>
<g style="fill:#000000; fill-opacity:0.0; 
stroke:#000000; stroke-width:60.000000; stroke-opacity:1; 
stroke-linecap:round; stroke-linejoin:round;">
<g transform="rotate(-90.000000 50862.480315 33500.000000)">
<text x="50862.480315" y="33500.000000"
textLength="3345.708661" font-size="666.653543" lengthAdjust="spacingAndGlyphs"
text-anchor="end" opacity="0">BYPASS1</text>
</g>
<g class="stroked-text"><desc>BYPASS1</desc>
<path d="M50576 36530
L50600 36458
L50624 36434
L50671 36410
L50743 36410
L50791 36434
L50814 36458
L50838 36506
L50838 36696
L50338 36696
L50338 36530
L50362 36482
L50386 36458
L50433 36434
L50481 36434
L50529 36458
L50552 36482
L50576 36530
L50576 36696
" />
<path d="M50600 36101
L50838 36101
" />
<path d="M50338 36268
L50600 36101
L50338 35934
" />
<path d="M50838 35768
L50338 35768
L50338 35577
L50362 35530
L50386 35506
L50433 35482
L50505 35482
L50552 35506
L50576 35530
L50600 35577
L50600 35768
" />
<path d="M50695 35291
L50695 35053
" />
<path d="M50838 35339
L50338 35172
L50838 35006
" />
<path d="M50814 34863
L50838 34791
L50838 34672
L50814 34625
L50791 34601
L50743 34577
L50695 34577
L50648 34601
L50624 34625
L50600 34672
L50576 34768
L50552 34815
L50529 34839
L50481 34863
L50433 34863
L50386 34839
L50362 34815
L50338 34768
L50338 34649
L50362 34577
" />
<path d="M50814 34387
L50838 34315
L50838 34196
L50814 34149
L50791 34125
L50743 34101
L50695 34101
L50648 34125
L50624 34149
L50600 34196
L50576 34291
L50552 34339
L50529 34363
L50481 34387
L50433 34387
L50386 34363
L50362 34339
L50338 34291
L50338 34172
L50362 34101
" />
<path d="M50838 33625
L50838 33910
" />
<path d="M50838 33768
L50338 33768
L50410 33815
L50457 33863
L50481 33910
" />
</g></g>
<g style="fill:#0000C2; fill-opacity:0.0; 
stroke:#0000C2; stroke-width:60.000000; stroke-opacity:1; 
stroke-linecap:round; stroke-linejoin:round;">
</g>
<g style="fill:#0000C2; fill-opacity:0.0; 
stroke:#0000C2; stroke-width:60.000000; stroke-opacity:1; 
stroke-linecap:round; stroke-linejoin:round;stroke-dasharray:300.000000,300.000000;">
<path d="M31250 58250
L31250 58500
" />
</g>
<g style="fill:#0000C2; fill-opacity:0.0; 
stroke:#0000C2; stroke-width:60.000000; stroke-opacity:1; 
stroke-linecap:round; stroke-linejoin:round;">
</g>
<g style="fill:#008400; fill-opacity:0.0; 
stroke:#008400; stroke-width:60.000000; stroke-opacity:1; 
stroke-linecap:round; stroke-linejoin:round;">
<path d="M65500 56750
L65500 58000
" />
<path d="M76250 14000
L76250 10000
" />
<path d="M76250 17000
L76250 21000
" />
<path d="M65500 53000
L65500 53750
" />
<path d="M54000 42250
L65500 42250
" />
<path d="M52000 45250
L52000 49250
" />
<path d="M51000 45250
L51000 49250
" />
<path d="M64750 8500
L64750 14000
" />
<path d="M50000 31500
L50000 33000
" />
<path d="M64750 17000
L64750 20750
" />
<path d="M80250 45250
L80250 57750
" />
<path d="M65500 42250
L67500 42250
" />
<path d="M65500 42250
L65500 50000
" />
<path d="M51000 33500
L51000 39250
" />
<path d="M35250 44250
L35250 58000
" />
<path d="M70500 42250
L80250 42250
" />
<path d="M46750 43250
L46750 58000
" />
<path d="M50000 33000
L50000 39250
" />
<path d="M50000 57250
L50000 58000
" />
<path d="M48000 43250
L46750 43250
" />
<path d="M20500 16250
L23250 16250
" />
<path d="M23250 16250
L23250 17750
" />
<path d="M23250 14000
L23250 15250
" />
<path d="M50000 45250
L50000 57250
" />
<path d="M35250 41250
L48000 41250
" />
<path d="M20500 15250
L23250 15250
" />
</g>
<g style="fill:#008400; fill-opacity:1.0; 
stroke:#008400; stroke-width:60.000000; stroke-opacity:1; 
stroke-linecap:round; stroke-linejoin:round;">
<circle cx="50000.000000" cy="33000.000000" r="180.000000" /> 
<circle cx="65500.000000" cy="42250.000000" r="180.000000" /> 
<circle cx="50000.000000" cy="57250.000000" r="180.000000" /> 
</g> 
</svg>
