<?xml version="1.0" standalone="no"?>
 <!DOCTYPE svg PUBLIC "-//W3C//DTD SVG 1.1//EN" 
 "http://www.w3.org/Graphics/SVG/1.1/DTD/svg11.dtd"> 
<svg
  xmlns:svg="http://www.w3.org/2000/svg"
  xmlns="http://www.w3.org/2000/svg"
  xmlns:xlink="http://www.w3.org/1999/xlink"
  version="1.1"
  width="7.015480cm" height="3.068320cm" viewBox="0 0 70154800 30683200">
<title>SVG Picture created as Ebow-B_Cu.svg date 2022/11/20 11:54:10 </title>
  <desc>Picture generated by PCBNEW </desc>
<g style="fill:#000000; fill-opacity:1.000000;stroke:#000000; stroke-opacity:1.000000;
stroke-linecap:round; stroke-linejoin:round;"
 transform="translate(0 0) scale(1 1)">
</g>
<g style="fill:#000000; fill-opacity:0.0; 
stroke:#000000; stroke-width:0.000000; stroke-opacity:1; 
stroke-linecap:round; stroke-linejoin:round;">
<g >
</g>
<g >
</g>
<g style="fill:#4D7FC4; fill-opacity:0.0; 
stroke:#4D7FC4; stroke-width:0.000000; stroke-opacity:1; 
stroke-linecap:round; stroke-linejoin:round;">
</g>
<g style="fill:#4D7FC4; fill-opacity:0.0; 
stroke:#4D7FC4; stroke-width:1.000000; stroke-opacity:1; 
stroke-linecap:round; stroke-linejoin:round;">
</g>
<g style="fill:#4D7FC4; fill-opacity:1.0; 
stroke:#4D7FC4; stroke-width:1.000000; stroke-opacity:1; 
stroke-linecap:round; stroke-linejoin:round;">
<path style="fill:#4D7FC4; fill-opacity:1.0; 
stroke:#4D7FC4; stroke-width:1.000000; stroke-opacity:1; 
stroke-linecap:round; stroke-linejoin:round;fill-rule:evenodd;"
d="M 48093999.000000,3560142.000000
46394001.000000,3560142.000000
46394001.000000,1860144.000000
48093999.000000,1860144.000000
Z" /> 
<circle cx="49784000.000000" cy="2710143.000000" r="850000.000000" /> 
</g>
<g >
</g>
<g >
</g>
<g >
</g>
<g >
</g>
<g style="fill:#4D7FC4; fill-opacity:1.0; 
stroke:#4D7FC4; stroke-width:1.000000; stroke-opacity:1; 
stroke-linecap:round; stroke-linejoin:round;">
<path style="fill:#4D7FC4; fill-opacity:1.0; 
stroke:#4D7FC4; stroke-width:1.000000; stroke-opacity:1; 
stroke-linecap:round; stroke-linejoin:round;fill-rule:evenodd;"
d="M 67093999.000000,17556142.000000
65494001.000000,17556142.000000
65494001.000000,15956144.000000
67093999.000000,15956144.000000
Z" /> 
<circle cx="66294000.000000" cy="13556143.000000" r="800000.000000" /> 
</g>
<g style="fill:#4D7FC4; fill-opacity:1.0; 
stroke:#4D7FC4; stroke-width:21200.000000; stroke-opacity:1; 
stroke-linecap:round; stroke-linejoin:round;">
</g>
<g >
</g>
<g >
</g>
<g >
</g>
<g >
</g>
<g style="fill:#4D7FC4; fill-opacity:1.0; 
stroke:#4D7FC4; stroke-width:21200.000000; stroke-opacity:1; 
stroke-linecap:round; stroke-linejoin:round;">
</g>
<g style="fill:#4D7FC4; fill-opacity:1.0; 
stroke:#4D7FC4; stroke-width:1.000000; stroke-opacity:1; 
stroke-linecap:round; stroke-linejoin:round;">
<path style="fill:#4D7FC4; fill-opacity:1.0; 
stroke:#4D7FC4; stroke-width:1.000000; stroke-opacity:1; 
stroke-linecap:round; stroke-linejoin:round;fill-rule:evenodd;"
d="M 3264001.000000,12756144.000000
4863999.000000,12756144.000000
4863999.000000,14356142.000000
3264001.000000,14356142.000000
Z" /> 
<circle cx="4064000.000000" cy="16756143.000000" r="800000.000000" /> 
</g>
<g style="fill:#4D7FC4; fill-opacity:1.0; 
stroke:#4D7FC4; stroke-width:21200.000000; stroke-opacity:1; 
stroke-linecap:round; stroke-linejoin:round;">
</g>
<g >
</g>
<g style="fill:#ECECEC; fill-opacity:1.0; 
stroke:#ECECEC; stroke-width:21200.000000; stroke-opacity:1; 
stroke-linecap:round; stroke-linejoin:round;">
</g>
<g style="fill:#ECECEC; fill-opacity:1.0; 
stroke:#ECECEC; stroke-width:1.000000; stroke-opacity:1; 
stroke-linecap:round; stroke-linejoin:round;">
<circle cx="4064000.000000" cy="6774143.000000" r="400000.000000" /> 
</g>
<g style="fill:#ECECEC; fill-opacity:1.0; 
stroke:#ECECEC; stroke-width:21200.000000; stroke-opacity:1; 
stroke-linecap:round; stroke-linejoin:round;">
</g>
<g style="fill:#ECECEC; fill-opacity:1.0; 
stroke:#ECECEC; stroke-width:1.000000; stroke-opacity:1; 
stroke-linecap:round; stroke-linejoin:round;">
<circle cx="28956000.000000" cy="11092143.000000" r="400000.000000" /> 
</g>
<g style="fill:#ECECEC; fill-opacity:1.0; 
stroke:#ECECEC; stroke-width:21200.000000; stroke-opacity:1; 
stroke-linecap:round; stroke-linejoin:round;">
</g>
<g style="fill:#ECECEC; fill-opacity:1.0; 
stroke:#ECECEC; stroke-width:1.000000; stroke-opacity:1; 
stroke-linecap:round; stroke-linejoin:round;">
<circle cx="58674000.000000" cy="7790143.000000" r="400000.000000" /> 
</g>
<g style="fill:#ECECEC; fill-opacity:1.0; 
stroke:#ECECEC; stroke-width:21200.000000; stroke-opacity:1; 
stroke-linecap:round; stroke-linejoin:round;">
</g>
<g style="fill:#ECECEC; fill-opacity:1.0; 
stroke:#ECECEC; stroke-width:1.000000; stroke-opacity:1; 
stroke-linecap:round; stroke-linejoin:round;">
<circle cx="10668000.000000" cy="23030143.000000" r="400000.000000" /> 
</g>
<g style="fill:#ECECEC; fill-opacity:1.0; 
stroke:#ECECEC; stroke-width:21200.000000; stroke-opacity:1; 
stroke-linecap:round; stroke-linejoin:round;">
</g>
<g style="fill:#ECECEC; fill-opacity:1.0; 
stroke:#ECECEC; stroke-width:1.000000; stroke-opacity:1; 
stroke-linecap:round; stroke-linejoin:round;">
<circle cx="66548000.000000" cy="22522143.000000" r="400000.000000" /> 
</g>
<g style="fill:#ECECEC; fill-opacity:1.0; 
stroke:#ECECEC; stroke-width:21200.000000; stroke-opacity:1; 
stroke-linecap:round; stroke-linejoin:round;">
</g>
<g style="fill:#ECECEC; fill-opacity:1.0; 
stroke:#ECECEC; stroke-width:1.000000; stroke-opacity:1; 
stroke-linecap:round; stroke-linejoin:round;">
<circle cx="42418000.000000" cy="13632143.000000" r="400000.000000" /> 
</g>
<g style="fill:#ECECEC; fill-opacity:1.0; 
stroke:#ECECEC; stroke-width:21200.000000; stroke-opacity:1; 
stroke-linecap:round; stroke-linejoin:round;">
</g>
<g >
</g>
<g style="fill:#4D7FC4; fill-opacity:1.0; 
stroke:#4D7FC4; stroke-width:21200.000000; stroke-opacity:1; 
stroke-linecap:round; stroke-linejoin:round;">
</g>
<g style="fill:#4D7FC4; fill-opacity:1.0; 
stroke:#4D7FC4; stroke-width:2000000.000000; stroke-opacity:1; 
stroke-linecap:round; stroke-linejoin:round;">
</g>
<g style="fill:#4D7FC4; fill-opacity:0.0; 
stroke:#4D7FC4; stroke-width:2000000.000000; stroke-opacity:1; 
stroke-linecap:round; stroke-linejoin:round;">
<path d="M22860000 11092143
L28956000 11092143
" />
<path d="M17196000 16756143
L22860000 11092143
" />
<path d="M4064000 16756143
L17196000 16756143
" />
<path d="M44704000 13632143
L47244000 11092143
" />
<path d="M47244000 11092143
L47244000 2710143
" />
<path d="M42418000 13632143
L44704000 13632143
" />
</g>
<g >
</g>
<g style="fill:#4D7FC4; fill-opacity:0.0; 
stroke:#4D7FC4; stroke-width:2000000.000000; stroke-opacity:1; 
stroke-linecap:round; stroke-linejoin:round;">
<g >
</g>
<g style="fill:#4D7FC4; fill-opacity:1.0; 
stroke:#4D7FC4; stroke-width:1.000000; stroke-opacity:1; 
stroke-linecap:round; stroke-linejoin:round;">
<path style="fill:#4D7FC4; fill-opacity:1.0; 
stroke:#4D7FC4; stroke-width:1.000000; stroke-opacity:1; 
stroke-linecap:round; stroke-linejoin:round;fill-rule:evenodd;"
d="M 7562121.000000,698645.000000
7608614.000000,752301.000000
7620000.000000,804643.000000
7620000.000000,14522143.000000
7599998.000000,14590264.000000
7546342.000000,14636757.000000
7494000.000000,14648143.000000
5478899.000000,14648143.000000
5410778.000000,14628141.000000
5364285.000000,14574485.000000
5354181.000000,14504211.000000
5360918.000000,14477912.000000
5362477.000000,14473752.000000
5366105.000000,14458494.000000
5371631.000000,14407629.000000
5372000.000000,14400815.000000
5372000.000000,13828258.000000
5367525.000000,13813019.000000
5366135.000000,13811814.000000
5358452.000000,13810143.000000
2774116.000000,13810143.000000
2758877.000000,13814618.000000
2757672.000000,13816008.000000
2756001.000000,13823691.000000
2756001.000000,14400812.000000
2756371.000000,14407633.000000
2761895.000000,14458495.000000
2765522.000000,14473750.000000
2767082.000000,14477912.000000
2767336.000000,14481381.000000
2767349.000000,14481436.000000
2767340.000000,14481438.000000
2772266.000000,14548719.000000
2738347.000000,14611088.000000
2676092.000000,14645218.000000
2649101.000000,14648143.000000
888500.000000,14648143.000000
820379.000000,14628141.000000
773886.000000,14574485.000000
762500.000000,14522143.000000
762500.000000,13284028.000000
2756000.000000,13284028.000000
2760475.000000,13299267.000000
2761865.000000,13300472.000000
2769548.000000,13302143.000000
3791885.000000,13302143.000000
3807124.000000,13297668.000000
3808329.000000,13296278.000000
3810000.000000,13288595.000000
3810000.000000,13284028.000000
4318000.000000,13284028.000000
4322475.000000,13299267.000000
4323865.000000,13300472.000000
4331548.000000,13302143.000000
5353884.000000,13302143.000000
5369123.000000,13297668.000000
5370328.000000,13296278.000000
5371999.000000,13288595.000000
5371999.000000,12711474.000000
5371629.000000,12704653.000000
5366105.000000,12653791.000000
5362479.000000,12638539.000000
5317324.000000,12518089.000000
5308786.000000,12502494.000000
5232285.000000,12400419.000000
5219724.000000,12387858.000000
5117649.000000,12311357.000000
5102054.000000,12302819.000000
4981606.000000,12257665.000000
4966351.000000,12254038.000000
4915486.000000,12248512.000000
4908672.000000,12248143.000000
4336115.000000,12248143.000000
4320876.000000,12252618.000000
4319671.000000,12254008.000000
4318000.000000,12261691.000000
4318000.000000,13284028.000000
3810000.000000,13284028.000000
3810000.000000,12266259.000000
3805525.000000,12251020.000000
3804135.000000,12249815.000000
3796452.000000,12248144.000000
3219331.000000,12248144.000000
3212510.000000,12248514.000000
3161648.000000,12254038.000000
3146396.000000,12257664.000000
3025946.000000,12302819.000000
3010351.000000,12311357.000000
2908276.000000,12387858.000000
2895715.000000,12400419.000000
2819214.000000,12502494.000000
2810676.000000,12518089.000000
2765522.000000,12638537.000000
2761895.000000,12653792.000000
2756369.000000,12704657.000000
2756000.000000,12711471.000000
2756000.000000,13284028.000000
762500.000000,13284028.000000
762500.000000,804643.000000
782502.000000,736522.000000
836158.000000,690029.000000
888500.000000,678643.000000
7494000.000000,678643.000000
Z" /> 
</g>
</g>
<g style="fill:#4D7FC4; fill-opacity:1.0; 
stroke:#4D7FC4; stroke-width:1.000000; stroke-opacity:1; 
stroke-linecap:round; stroke-linejoin:round;">
<g >
<path style="fill:#4D7FC4; fill-opacity:1.0; 
stroke:#4D7FC4; stroke-width:1.000000; stroke-opacity:1; 
stroke-linecap:round; stroke-linejoin:round;fill-rule:evenodd;"
d="M 69537621.000000,698645.000000
69584114.000000,752301.000000
69595500.000000,804643.000000
69595500.000000,15030143.000000
69575498.000000,15098264.000000
69521842.000000,15144757.000000
69469500.000000,15156143.000000
62484000.000000,15156143.000000
62484000.000000,30015643.000000
62463998.000000,30083764.000000
62410342.000000,30130257.000000
62358000.000000,30141643.000000
888500.000000,30141643.000000
820379.000000,30121641.000000
773886.000000,30067985.000000
762500.000000,30015643.000000
762500.000000,17842205.000000
3342493.000000,17842205.000000
3351789.000000,17854220.000000
3402994.000000,17890074.000000
3412489.000000,17895557.000000
3609947.000000,17987633.000000
3620239.000000,17991379.000000
3830688.000000,18047768.000000
3841481.000000,18049671.000000
4058525.000000,18068660.000000
4069475.000000,18068660.000000
4286519.000000,18049671.000000
4297312.000000,18047768.000000
4507761.000000,17991379.000000
4518053.000000,17987633.000000
4715511.000000,17895557.000000
4725006.000000,17890074.000000
4777048.000000,17853634.000000
4785424.000000,17843155.000000
4778356.000000,17829709.000000
4076812.000000,17128165.000000
4062868.000000,17120551.000000
4061035.000000,17120682.000000
4054420.000000,17124933.000000
3348923.000000,17830430.000000
3342493.000000,17842205.000000
762500.000000,17842205.000000
762500.000000,16761618.000000
2751483.000000,16761618.000000
2770472.000000,16978662.000000
2772375.000000,16989455.000000
2828764.000000,17199904.000000
2832510.000000,17210196.000000
2924586.000000,17407654.000000
2930069.000000,17417149.000000
2966509.000000,17469191.000000
2976988.000000,17477567.000000
2990434.000000,17470499.000000
3691978.000000,16768955.000000
3698356.000000,16757275.000000
4428408.000000,16757275.000000
4428539.000000,16759108.000000
4432790.000000,16765723.000000
5138287.000000,17471220.000000
5150062.000000,17477650.000000
5162077.000000,17468354.000000
5197931.000000,17417149.000000
5203414.000000,17407654.000000
5295490.000000,17210196.000000
5299236.000000,17199904.000000
5355625.000000,16989455.000000
5357528.000000,16978662.000000
5376517.000000,16761618.000000
5376517.000000,16750668.000000
5357528.000000,16533624.000000
5355625.000000,16522831.000000
5299236.000000,16312382.000000
5295490.000000,16302090.000000
5203414.000000,16104632.000000
5197931.000000,16095137.000000
5161491.000000,16043095.000000
5151012.000000,16034719.000000
5137566.000000,16041787.000000
4436022.000000,16743331.000000
4428408.000000,16757275.000000
3698356.000000,16757275.000000
3699592.000000,16755011.000000
3699461.000000,16753178.000000
3695210.000000,16746563.000000
2989713.000000,16041066.000000
2977938.000000,16034636.000000
2965923.000000,16043932.000000
2930069.000000,16095137.000000
2924586.000000,16104632.000000
2832510.000000,16302090.000000
2828764.000000,16312382.000000
2772375.000000,16522831.000000
2770472.000000,16533624.000000
2751483.000000,16750668.000000
2751483.000000,16761618.000000
762500.000000,16761618.000000
762500.000000,15669131.000000
3342576.000000,15669131.000000
3349644.000000,15682577.000000
4051188.000000,16384121.000000
4065132.000000,16391735.000000
4066965.000000,16391604.000000
4073580.000000,16387353.000000
4779077.000000,15681856.000000
4785507.000000,15670081.000000
4776211.000000,15658066.000000
4725006.000000,15622212.000000
4715511.000000,15616729.000000
4518053.000000,15524653.000000
4507761.000000,15520907.000000
4297312.000000,15464518.000000
4286519.000000,15462615.000000
4069475.000000,15443626.000000
4058525.000000,15443626.000000
3841481.000000,15462615.000000
3830688.000000,15464518.000000
3620239.000000,15520907.000000
3609947.000000,15524653.000000
3412489.000000,15616729.000000
3402994.000000,15622212.000000
3350952.000000,15658652.000000
3342576.000000,15669131.000000
762500.000000,15669131.000000
762500.000000,15282143.000000
782502.000000,15214022.000000
836158.000000,15167529.000000
888500.000000,15156143.000000
8128000.000000,15156143.000000
8128000.000000,13684960.000000
40905514.000000,13684960.000000
40906095.000000,13689980.000000
40906095.000000,13689984.000000
40917605.000000,13789455.000000
40933415.000000,13926099.000000
40934791.000000,13930963.000000
40934792.000000,13930966.000000
40957212.000000,14010196.000000
40999510.000000,14159675.000000
41001644.000000,14164251.000000
41001646.000000,14164257.000000
41054522.000000,14277650.000000
41102099.000000,14379679.000000
41238544.000000,14580450.000000
41405332.000000,14756824.000000
41409358.000000,14759902.000000
41409359.000000,14759903.000000
41594154.000000,14901190.000000
41594158.000000,14901193.000000
41598174.000000,14904263.000000
41602632.000000,14906653.000000
41602633.000000,14906654.000000
41694335.000000,14955824.000000
41812109.000000,15018974.000000
42041631.000000,15098005.000000
42140978.000000,15115165.000000
42276926.000000,15138647.000000
42276932.000000,15138648.000000
42280836.000000,15139322.000000
42284797.000000,15139502.000000
42284798.000000,15139502.000000
42308506.000000,15140579.000000
42308525.000000,15140579.000000
42309925.000000,15140643.000000
44679984.000000,15140643.000000
44683502.000000,15140692.000000
44778150.000000,15143336.000000
44778153.000000,15143336.000000
44783205.000000,15143477.000000
44861098.000000,15133084.000000
44867639.000000,15132385.000000
44896332.000000,15130076.000000
44940923.000000,15126489.000000
44940927.000000,15126488.000000
44945965.000000,15126083.000000
44977878.000000,15118244.000000
44991258.000000,15115717.000000
45023820.000000,15111372.000000
45028661.000000,15109911.000000
45028663.000000,15109910.000000
45099029.000000,15088665.000000
45105392.000000,15086924.000000
45181706.000000,15068180.000000
45211952.000000,15055342.000000
45224763.000000,15050704.000000
45251362.000000,15042673.000000
45256208.000000,15041210.000000
45260756.000000,15038992.000000
45260763.000000,15038989.000000
45326818.000000,15006772.000000
45332820.000000,15004036.000000
45377504.000000,14985068.000000
45405156.000000,14973331.000000
45432956.000000,14955824.000000
45444860.000000,14949198.000000
45474388.000000,14934797.000000
45538600.000000,14889500.000000
45544086.000000,14885842.000000
45606286.000000,14846672.000000
45606287.000000,14846671.000000
45610567.000000,14843976.000000
45614356.000000,14840635.000000
45614362.000000,14840631.000000
45635217.000000,14822245.000000
45645912.000000,14813799.000000
45655893.000000,14806758.000000
45672747.000000,14794869.000000
45676569.000000,14791379.000000
45693187.000000,14776205.000000
45693195.000000,14776197.000000
45694250.000000,14775234.000000
45733966.000000,14735518.000000
45739736.000000,14730099.000000
45788858.000000,14686793.000000
45788861.000000,14686790.000000
45792655.000000,14683445.000000
45819179.000000,14651154.000000
45827295.000000,14642205.000000
65572493.000000,14642205.000000
65581789.000000,14654220.000000
65632994.000000,14690074.000000
65642489.000000,14695557.000000
65839947.000000,14787633.000000
65850239.000000,14791379.000000
66060688.000000,14847768.000000
66071481.000000,14849671.000000
66288525.000000,14868660.000000
66299475.000000,14868660.000000
66516519.000000,14849671.000000
66527312.000000,14847768.000000
66737761.000000,14791379.000000
66748053.000000,14787633.000000
66945511.000000,14695557.000000
66955006.000000,14690074.000000
67007048.000000,14653634.000000
67015424.000000,14643155.000000
67008356.000000,14629709.000000
66306812.000000,13928165.000000
66292868.000000,13920551.000000
66291035.000000,13920682.000000
66284420.000000,13924933.000000
65578923.000000,14630430.000000
65572493.000000,14642205.000000
45827295.000000,14642205.000000
45827449.000000,14642035.000000
46907866.000000,13561618.000000
64981483.000000,13561618.000000
65000472.000000,13778662.000000
65002375.000000,13789455.000000
65058764.000000,13999904.000000
65062510.000000,14010196.000000
65154586.000000,14207654.000000
65160069.000000,14217149.000000
65196509.000000,14269191.000000
65206988.000000,14277567.000000
65220434.000000,14270499.000000
65921978.000000,13568955.000000
65928356.000000,13557275.000000
66658408.000000,13557275.000000
66658539.000000,13559108.000000
66662790.000000,13565723.000000
67368287.000000,14271220.000000
67380062.000000,14277650.000000
67392077.000000,14268354.000000
67427931.000000,14217149.000000
67433414.000000,14207654.000000
67525490.000000,14010196.000000
67529236.000000,13999904.000000
67585625.000000,13789455.000000
67587528.000000,13778662.000000
67606517.000000,13561618.000000
67606517.000000,13550668.000000
67587528.000000,13333624.000000
67585625.000000,13322831.000000
67529236.000000,13112382.000000
67525490.000000,13102090.000000
67433414.000000,12904632.000000
67427931.000000,12895137.000000
67391491.000000,12843095.000000
67381012.000000,12834719.000000
67367566.000000,12841787.000000
66666022.000000,13543331.000000
66658408.000000,13557275.000000
65928356.000000,13557275.000000
65929592.000000,13555011.000000
65929461.000000,13553178.000000
65925210.000000,13546563.000000
65219713.000000,12841066.000000
65207938.000000,12834636.000000
65195923.000000,12843932.000000
65160069.000000,12895137.000000
65154586.000000,12904632.000000
65062510.000000,13102090.000000
65058764.000000,13112382.000000
65002375.000000,13322831.000000
65000472.000000,13333624.000000
64981483.000000,13550668.000000
64981483.000000,13561618.000000
46907866.000000,13561618.000000
48000353.000000,12469131.000000
65572576.000000,12469131.000000
65579644.000000,12482577.000000
66281188.000000,13184121.000000
66295132.000000,13191735.000000
66296965.000000,13191604.000000
66303580.000000,13187353.000000
67009077.000000,12481856.000000
67015507.000000,12470081.000000
67006211.000000,12458066.000000
66955006.000000,12422212.000000
66945511.000000,12416729.000000
66748053.000000,12324653.000000
66737761.000000,12320907.000000
66527312.000000,12264518.000000
66516519.000000,12262615.000000
66299475.000000,12243626.000000
66288525.000000,12243626.000000
66071481.000000,12262615.000000
66060688.000000,12264518.000000
65850239.000000,12320907.000000
65839947.000000,12324653.000000
65642489.000000,12416729.000000
65632994.000000,12422212.000000
65580952.000000,12458652.000000
65572576.000000,12469131.000000
48000353.000000,12469131.000000
48293666.000000,12175818.000000
48296188.000000,12173364.000000
48365001.000000,12108291.000000
48368681.000000,12104811.000000
48416418.000000,12042374.000000
48420531.000000,12037275.000000
48471470.000000,11977423.000000
48474089.000000,11973098.000000
48474093.000000,11973093.000000
48488491.000000,11949319.000000
48496163.000000,11938072.000000
48516120.000000,11911969.000000
48553247.000000,11842727.000000
48556510.000000,11837006.000000
48594602.000000,11774109.000000
48594603.000000,11774108.000000
48597220.000000,11769786.000000
48609534.000000,11739309.000000
48615303.000000,11726993.000000
48630831.000000,11698034.000000
48656423.000000,11623710.000000
48658718.000000,11617572.000000
48686258.000000,11549410.000000
48686259.000000,11549406.000000
48688155.000000,11544714.000000
48695432.000000,11512682.000000
48699163.000000,11499584.000000
48709862.000000,11468512.000000
48723243.000000,11391043.000000
48724526.000000,11384625.000000
48740815.000000,11312929.000000
48740815.000000,11312928.000000
48741935.000000,11307999.000000
48743999.000000,11275190.000000
48745585.000000,11261690.000000
48751179.000000,11229307.000000
48752500.000000,11200218.000000
48752500.000000,11144036.000000
48752749.000000,11136124.000000
48756860.000000,11070785.000000
48757178.000000,11065731.000000
48753101.000000,11024152.000000
48752500.000000,11011856.000000
48752500.000000,3887253.000000
48772502.000000,3819132.000000
48826158.000000,3772639.000000
48896432.000000,3762535.000000
48958984.000000,3790308.000000
48998434.000000,3823060.000000
49006881.000000,3828974.000000
49190756.000000,3936422.000000
49200042.000000,3940872.000000
49399001.000000,4016846.000000
49408899.000000,4019722.000000
49512250.000000,4040749.000000
49526299.000000,4039553.000000
49530000.000000,4029208.000000
49530000.000000,4028660.000000
50038000.000000,4028660.000000
50042064.000000,4042502.000000
50055478.000000,4044536.000000
50062184.000000,4043677.000000
50072262.000000,4041535.000000
50276255.000000,3980334.000000
50285842.000000,3976576.000000
50477095.000000,3882882.000000
50485945.000000,3877607.000000
50659328.000000,3753935.000000
50667200.000000,3747282.000000
50818052.000000,3596955.000000
50824730.000000,3589108.000000
50949003.000000,3416163.000000
50954313.000000,3407326.000000
51048670.000000,3216410.000000
51052469.000000,3206815.000000
51114377.000000,3003053.000000
51116555.000000,2992980.000000
51117986.000000,2982105.000000
51115775.000000,2967921.000000
51102617.000000,2964143.000000
50056115.000000,2964143.000000
50040876.000000,2968618.000000
50039671.000000,2970008.000000
50038000.000000,2977691.000000
50038000.000000,4028660.000000
49530000.000000,4028660.000000
49530000.000000,2438028.000000
50038000.000000,2438028.000000
50042475.000000,2453267.000000
50043865.000000,2454472.000000
50051548.000000,2456143.000000
51102344.000000,2456143.000000
51115875.000000,2452170.000000
51117180.000000,2443090.000000
51075214.000000,2276018.000000
51071894.000000,2266267.000000
50986972.000000,2070957.000000
50982105.000000,2061882.000000
50866426.000000,1883069.000000
50860136.000000,1874900.000000
50716806.000000,1717383.000000
50709273.000000,1710358.000000
50542139.000000,1578365.000000
50533552.000000,1572660.000000
50347117.000000,1469742.000000
50337705.000000,1465512.000000
50136959.000000,1394423.000000
50126988.000000,1391789.000000
50055837.000000,1379115.000000
50042540.000000,1380575.000000
50038000.000000,1395132.000000
50038000.000000,2438028.000000
49530000.000000,2438028.000000
49530000.000000,1393245.000000
49526082.000000,1379901.000000
49511806.000000,1377914.000000
49473324.000000,1383803.000000
49463288.000000,1386194.000000
49260868.000000,1452355.000000
49251359.000000,1456352.000000
49062463.000000,1554685.000000
49053738.000000,1560179.000000
48883433.000000,1688048.000000
48875726.000000,1694891.000000
48798478.000000,1775727.000000
48736954.000000,1811157.000000
48666042.000000,1807700.000000
48608255.000000,1766454.000000
48589402.000000,1732906.000000
48547767.000000,1621846.000000
48544615.000000,1613438.000000
48457261.000000,1496882.000000
48340705.000000,1409528.000000
48204316.000000,1358398.000000
48142134.000000,1351643.000000
47937793.000000,1351643.000000
47892639.000000,1343274.000000
47676022.000000,1260123.000000
47676018.000000,1260122.000000
47671298.000000,1258310.000000
47666348.000000,1257276.000000
47666345.000000,1257275.000000
47438631.000000,1209703.000000
47438627.000000,1209703.000000
47433680.000000,1208669.000000
47191183.000000,1197657.000000
47186163.000000,1198238.000000
47186159.000000,1198238.000000
46955071.000000,1224976.000000
46955067.000000,1224977.000000
46950044.000000,1225558.000000
46945180.000000,1226934.000000
46945177.000000,1226935.000000
46837958.000000,1257275.000000
46716468.000000,1291653.000000
46711892.000000,1293787.000000
46711886.000000,1293789.000000
46613134.000000,1339838.000000
46559884.000000,1351643.000000
46345866.000000,1351643.000000
46283684.000000,1358398.000000
46147295.000000,1409528.000000
46030739.000000,1496882.000000
45943385.000000,1613438.000000
45892255.000000,1749827.000000
45885500.000000,1812009.000000
45885500.000000,2019767.000000
45870545.000000,2079307.000000
45857169.000000,2104252.000000
45778138.000000,2333774.000000
45736821.000000,2572979.000000
45735500.000000,2602068.000000
45735500.000000,10415112.000000
45715498.000000,10483233.000000
45698595.000000,10504207.000000
44116064.000000,12086738.000000
44053752.000000,12120764.000000
44026969.000000,12123643.000000
42356999.000000,12123643.000000
42354491.000000,12123845.000000
42354486.000000,12123845.000000
42181076.000000,12137797.000000
42181071.000000,12137798.000000
42176035.000000,12138203.000000
42171127.000000,12139409.000000
42171124.000000,12139409.000000
41945208.000000,12194899.000000
41940294.000000,12196106.000000
41935642.000000,12198081.000000
41935638.000000,12198082.000000
41802967.000000,12254398.000000
41716844.000000,12290955.000000
41712560.000000,12293653.000000
41515712.000000,12417615.000000
41515709.000000,12417617.000000
41511433.000000,12420310.000000
41507639.000000,12423655.000000
41333142.000000,12577493.000000
41333139.000000,12577496.000000
41329345.000000,12580841.000000
41326135.000000,12584749.000000
41326134.000000,12584750.000000
41224889.000000,12708009.000000
41175266.000000,12768421.000000
41053159.000000,12978221.000000
41051346.000000,12982944.000000
40971250.000000,13191604.000000
40966167.000000,13204845.000000
40965133.000000,13209795.000000
40965132.000000,13209798.000000
40939264.000000,13333624.000000
40916526.000000,13442463.000000
40905514.000000,13684960.000000
8128000.000000,13684960.000000
8128000.000000,804643.000000
8148002.000000,736522.000000
8201658.000000,690029.000000
8254000.000000,678643.000000
69469500.000000,678643.000000
Z" /> 
</g>
</g>
<g style="fill:#4D7FC4; fill-opacity:1.0; 
stroke:#4D7FC4; stroke-width:1.000000; stroke-opacity:1; 
stroke-linecap:round; stroke-linejoin:round;">
<g >
<path style="fill:#4D7FC4; fill-opacity:1.0; 
stroke:#4D7FC4; stroke-width:1.000000; stroke-opacity:1; 
stroke-linecap:round; stroke-linejoin:round;fill-rule:evenodd;"
d="M 64947222.000000,15684145.000000
64993715.000000,15737801.000000
65003819.000000,15808075.000000
64997082.000000,15834374.000000
64995523.000000,15838534.000000
64991895.000000,15853792.000000
64986369.000000,15904657.000000
64986000.000000,15911471.000000
64986000.000000,16484028.000000
64990475.000000,16499267.000000
64991865.000000,16500472.000000
64999548.000000,16502143.000000
67583884.000000,16502143.000000
67599123.000000,16497668.000000
67600328.000000,16496278.000000
67601999.000000,16488595.000000
67601999.000000,15911474.000000
67601629.000000,15904653.000000
67596105.000000,15853791.000000
67592478.000000,15838536.000000
67590918.000000,15834374.000000
67590664.000000,15830905.000000
67590651.000000,15830850.000000
67590660.000000,15830848.000000
67585734.000000,15763567.000000
67619653.000000,15701198.000000
67681908.000000,15667068.000000
67708899.000000,15664143.000000
69469500.000000,15664143.000000
69537621.000000,15684145.000000
69584114.000000,15737801.000000
69595500.000000,15790143.000000
69595500.000000,30015643.000000
69575498.000000,30083764.000000
69521842.000000,30130257.000000
69469500.000000,30141643.000000
63118000.000000,30141643.000000
63049879.000000,30121641.000000
63003386.000000,30067985.000000
62992000.000000,30015643.000000
62992000.000000,17600812.000000
64986001.000000,17600812.000000
64986371.000000,17607633.000000
64991895.000000,17658495.000000
64995521.000000,17673747.000000
65040676.000000,17794197.000000
65049214.000000,17809792.000000
65125715.000000,17911867.000000
65138276.000000,17924428.000000
65240351.000000,18000929.000000
65255946.000000,18009467.000000
65376394.000000,18054621.000000
65391649.000000,18058248.000000
65442514.000000,18063774.000000
65449328.000000,18064143.000000
66021885.000000,18064143.000000
66037124.000000,18059668.000000
66038329.000000,18058278.000000
66040000.000000,18050595.000000
66040000.000000,18046027.000000
66548000.000000,18046027.000000
66552475.000000,18061266.000000
66553865.000000,18062471.000000
66561548.000000,18064142.000000
67138669.000000,18064142.000000
67145490.000000,18063772.000000
67196352.000000,18058248.000000
67211604.000000,18054622.000000
67332054.000000,18009467.000000
67347649.000000,18000929.000000
67449724.000000,17924428.000000
67462285.000000,17911867.000000
67538786.000000,17809792.000000
67547324.000000,17794197.000000
67592478.000000,17673749.000000
67596105.000000,17658494.000000
67601631.000000,17607629.000000
67602000.000000,17600815.000000
67602000.000000,17028258.000000
67597525.000000,17013019.000000
67596135.000000,17011814.000000
67588452.000000,17010143.000000
66566115.000000,17010143.000000
66550876.000000,17014618.000000
66549671.000000,17016008.000000
66548000.000000,17023691.000000
66548000.000000,18046027.000000
66040000.000000,18046027.000000
66040000.000000,17028258.000000
66035525.000000,17013019.000000
66034135.000000,17011814.000000
66026452.000000,17010143.000000
65004116.000000,17010143.000000
64988877.000000,17014618.000000
64987672.000000,17016008.000000
64986001.000000,17023691.000000
64986001.000000,17600812.000000
62992000.000000,17600812.000000
62992000.000000,15790143.000000
63012002.000000,15722022.000000
63065658.000000,15675529.000000
63118000.000000,15664143.000000
64879101.000000,15664143.000000
Z" /> 
</g>
</g>
</g>
<g style="fill:#FFFFFF; fill-opacity:1.0; 
stroke:#FFFFFF; stroke-width:1.000000; stroke-opacity:1; 
stroke-linecap:round; stroke-linejoin:round;">
<circle cx="4064000.000000" cy="6774143.000000" r="200000.000000" /> 
</g>
<g style="fill:#FFFFFF; fill-opacity:1.0; 
stroke:#FFFFFF; stroke-width:21200.000000; stroke-opacity:1; 
stroke-linecap:round; stroke-linejoin:round;">
</g>
<g style="fill:#FFFFFF; fill-opacity:1.0; 
stroke:#FFFFFF; stroke-width:1.000000; stroke-opacity:1; 
stroke-linecap:round; stroke-linejoin:round;">
<circle cx="28956000.000000" cy="11092143.000000" r="200000.000000" /> 
</g>
<g style="fill:#FFFFFF; fill-opacity:1.0; 
stroke:#FFFFFF; stroke-width:21200.000000; stroke-opacity:1; 
stroke-linecap:round; stroke-linejoin:round;">
</g>
<g style="fill:#FFFFFF; fill-opacity:1.0; 
stroke:#FFFFFF; stroke-width:1.000000; stroke-opacity:1; 
stroke-linecap:round; stroke-linejoin:round;">
<circle cx="58674000.000000" cy="7790143.000000" r="200000.000000" /> 
</g>
<g style="fill:#FFFFFF; fill-opacity:1.0; 
stroke:#FFFFFF; stroke-width:21200.000000; stroke-opacity:1; 
stroke-linecap:round; stroke-linejoin:round;">
</g>
<g style="fill:#FFFFFF; fill-opacity:1.0; 
stroke:#FFFFFF; stroke-width:1.000000; stroke-opacity:1; 
stroke-linecap:round; stroke-linejoin:round;">
<circle cx="10668000.000000" cy="23030143.000000" r="200000.000000" /> 
</g>
<g style="fill:#FFFFFF; fill-opacity:1.0; 
stroke:#FFFFFF; stroke-width:21200.000000; stroke-opacity:1; 
stroke-linecap:round; stroke-linejoin:round;">
</g>
<g style="fill:#FFFFFF; fill-opacity:1.0; 
stroke:#FFFFFF; stroke-width:1.000000; stroke-opacity:1; 
stroke-linecap:round; stroke-linejoin:round;">
<circle cx="66548000.000000" cy="22522143.000000" r="200000.000000" /> 
</g>
<g style="fill:#FFFFFF; fill-opacity:1.0; 
stroke:#FFFFFF; stroke-width:21200.000000; stroke-opacity:1; 
stroke-linecap:round; stroke-linejoin:round;">
</g>
<g style="fill:#FFFFFF; fill-opacity:1.0; 
stroke:#FFFFFF; stroke-width:1.000000; stroke-opacity:1; 
stroke-linecap:round; stroke-linejoin:round;">
<circle cx="42418000.000000" cy="13632143.000000" r="200000.000000" /> 
</g>
<g style="fill:#FFFFFF; fill-opacity:1.0; 
stroke:#FFFFFF; stroke-width:21200.000000; stroke-opacity:1; 
stroke-linecap:round; stroke-linejoin:round;">
</g>
<g style="fill:#FFFFFF; fill-opacity:1.0; 
stroke:#FFFFFF; stroke-width:1.000000; stroke-opacity:1; 
stroke-linecap:round; stroke-linejoin:round;">
<circle cx="47244000.000000" cy="2710143.000000" r="500000.000000" /> 
</g>
<g style="fill:#FFFFFF; fill-opacity:1.0; 
stroke:#FFFFFF; stroke-width:21200.000000; stroke-opacity:1; 
stroke-linecap:round; stroke-linejoin:round;">
</g>
<g style="fill:#FFFFFF; fill-opacity:1.0; 
stroke:#FFFFFF; stroke-width:1.000000; stroke-opacity:1; 
stroke-linecap:round; stroke-linejoin:round;">
<circle cx="49784000.000000" cy="2710143.000000" r="500000.000000" /> 
</g>
<g style="fill:#FFFFFF; fill-opacity:1.0; 
stroke:#FFFFFF; stroke-width:21200.000000; stroke-opacity:1; 
stroke-linecap:round; stroke-linejoin:round;">
</g>
<g style="fill:#FFFFFF; fill-opacity:1.0; 
stroke:#FFFFFF; stroke-width:1.000000; stroke-opacity:1; 
stroke-linecap:round; stroke-linejoin:round;">
<circle cx="66294000.000000" cy="16756143.000000" r="500000.000000" /> 
</g>
<g style="fill:#FFFFFF; fill-opacity:1.0; 
stroke:#FFFFFF; stroke-width:21200.000000; stroke-opacity:1; 
stroke-linecap:round; stroke-linejoin:round;">
</g>
<g style="fill:#FFFFFF; fill-opacity:1.0; 
stroke:#FFFFFF; stroke-width:1.000000; stroke-opacity:1; 
stroke-linecap:round; stroke-linejoin:round;">
<circle cx="66294000.000000" cy="13556143.000000" r="500000.000000" /> 
</g>
<g style="fill:#FFFFFF; fill-opacity:1.0; 
stroke:#FFFFFF; stroke-width:21200.000000; stroke-opacity:1; 
stroke-linecap:round; stroke-linejoin:round;">
</g>
<g style="fill:#FFFFFF; fill-opacity:1.0; 
stroke:#FFFFFF; stroke-width:1.000000; stroke-opacity:1; 
stroke-linecap:round; stroke-linejoin:round;">
<circle cx="4064000.000000" cy="13556143.000000" r="500000.000000" /> 
</g>
<g style="fill:#FFFFFF; fill-opacity:1.0; 
stroke:#FFFFFF; stroke-width:21200.000000; stroke-opacity:1; 
stroke-linecap:round; stroke-linejoin:round;">
</g>
<g style="fill:#FFFFFF; fill-opacity:1.0; 
stroke:#FFFFFF; stroke-width:1.000000; stroke-opacity:1; 
stroke-linecap:round; stroke-linejoin:round;">
<circle cx="4064000.000000" cy="16756143.000000" r="500000.000000" /> 
</g>
<g style="fill:#FFFFFF; fill-opacity:1.0; 
stroke:#FFFFFF; stroke-width:21200.000000; stroke-opacity:1; 
stroke-linecap:round; stroke-linejoin:round;">
</g>
<g style="fill:#000000; fill-opacity:1.0; 
stroke:#000000; stroke-width:21200.000000; stroke-opacity:1; 
stroke-linecap:round; stroke-linejoin:round;">
</g>
<g style="fill:#D0D2CD; fill-opacity:1.0; 
stroke:#D0D2CD; stroke-width:21200.000000; stroke-opacity:1; 
stroke-linecap:round; stroke-linejoin:round;">
</g>
<g style="fill:#D0D2CD; fill-opacity:1.0; 
stroke:#D0D2CD; stroke-width:100000.000000; stroke-opacity:1; 
stroke-linecap:round; stroke-linejoin:round;">
</g>
<g style="fill:#D0D2CD; fill-opacity:0.0; 
stroke:#D0D2CD; stroke-width:100000.000000; stroke-opacity:1; 
stroke-linecap:round; stroke-linejoin:round;">
<path d="M254000 170143
L70104000 170143
" />
<path d="M70104000 170143
L70104000 30650143
" />
<path d="M70104000 30650143
L254000 30650143
" />
<path d="M254000 30650143
L254000 170143
" />
<g >
</g>
<g >
</g>
<g >
</g>
<g >
</g>
<g >
</g>
<g >
</g>
<g >
</g>
<g >
</g>
<g >
</g>
<g >
</g>
<g >
</g>
<g >
</g>
<g >
</g>
</g> 
</svg>
