<?xml version="1.0" standalone="no"?>
 <!DOCTYPE svg PUBLIC "-//W3C//DTD SVG 1.1//EN" 
 "http://www.w3.org/Graphics/SVG/1.1/DTD/svg11.dtd"> 
<svg
  xmlns:svg="http://www.w3.org/2000/svg"
  xmlns="http://www.w3.org/2000/svg"
  xmlns:xlink="http://www.w3.org/1999/xlink"
  version="1.1"
  width="29.700220cm" height="21.000720cm" viewBox="0 0 116930 82680">
<title>SVG Picture created as Ebow.svg date 2022/11/20 12:02:43 </title>
  <desc>Picture generated by Eeschema-SVG </desc>
<g style="fill:#000000; fill-opacity:1.000000;stroke:#000000; stroke-opacity:1.000000;
stroke-linecap:round; stroke-linejoin:round;"
 transform="translate(0 0) scale(1 1)">
</g>
<g style="fill:#840000; fill-opacity:0.0; 
stroke:#840000; stroke-width:0.000000; stroke-opacity:1; 
stroke-linecap:round; stroke-linejoin:round;">
</g>
<g style="fill:#840000; fill-opacity:0.0; 
stroke:#840000; stroke-width:60.000000; stroke-opacity:1; 
stroke-linecap:round; stroke-linejoin:round;">
<rect x="69685.905512" y="65357.165354" width="42519.685039" height="12598.425197" rx="0.000000" />
<rect x="3937.007874" y="3937.007874" width="109055.984252" height="74805.984252" rx="0.000000" />
<rect x="4724.409449" y="4724.409449" width="107481.181102" height="73231.181102" rx="0.000000" />
<path d="M23622 4724
L23622 3937
" />
<path d="M43307 4724
L43307 3937
" />
<path d="M62992 4724
L62992 3937
" />
<path d="M82677 4724
L82677 3937
" />
<path d="M102362 4724
L102362 3937
" />
<text x="13779.527559" y="4586.614173"
textLength="547.440945" font-size="682.401575" lengthAdjust="spacingAndGlyphs"
text-anchor="start" opacity="0">1</text>
<g class="stroked-text"><desc>1</desc>
<path d="M14199 4562
L13907 4562
" />
<path d="M14053 4562
L14053 4050
L14004 4123
L13955 4172
L13907 4196
" />
</g><text x="33464.566929" y="4586.614173"
textLength="547.440945" font-size="682.401575" lengthAdjust="spacingAndGlyphs"
text-anchor="start" opacity="0">2</text>
<g class="stroked-text"><desc>2</desc>
<path d="M33592 4099
L33616 4074
L33665 4050
L33787 4050
L33835 4074
L33860 4099
L33884 4147
L33884 4196
L33860 4269
L33567 4562
L33884 4562
" />
</g><text x="53149.606299" y="4586.614173"
textLength="547.440945" font-size="682.401575" lengthAdjust="spacingAndGlyphs"
text-anchor="start" opacity="0">3</text>
<g class="stroked-text"><desc>3</desc>
<path d="M53252 4050
L53569 4050
L53398 4245
L53472 4245
L53520 4269
L53545 4294
L53569 4342
L53569 4464
L53545 4513
L53520 4537
L53472 4562
L53325 4562
L53277 4537
L53252 4513
" />
</g><text x="72834.645669" y="4586.614173"
textLength="547.440945" font-size="682.401575" lengthAdjust="spacingAndGlyphs"
text-anchor="start" opacity="0">4</text>
<g class="stroked-text"><desc>4</desc>
<path d="M73205 4221
L73205 4562
" />
<path d="M73083 4026
L72962 4391
L73278 4391
" />
</g><text x="92519.685039" y="4586.614173"
textLength="547.440945" font-size="682.401575" lengthAdjust="spacingAndGlyphs"
text-anchor="start" opacity="0">5</text>
<g class="stroked-text"><desc>5</desc>
<path d="M92915 4050
L92671 4050
L92647 4294
L92671 4269
L92720 4245
L92842 4245
L92890 4269
L92915 4294
L92939 4342
L92939 4464
L92915 4513
L92890 4537
L92842 4562
L92720 4562
L92671 4537
L92647 4513
" />
</g><text x="112204.724409" y="4586.614173"
textLength="547.440945" font-size="682.401575" lengthAdjust="spacingAndGlyphs"
text-anchor="start" opacity="0">6</text>
<g class="stroked-text"><desc>6</desc>
<path d="M112575 4050
L112478 4050
L112429 4074
L112405 4099
L112356 4172
L112332 4269
L112332 4464
L112356 4513
L112380 4537
L112429 4562
L112527 4562
L112575 4537
L112600 4513
L112624 4464
L112624 4342
L112600 4294
L112575 4269
L112527 4245
L112429 4245
L112380 4269
L112356 4294
L112332 4342
" />
</g><path d="M23622 77955
L23622 78742
" />
<path d="M43307 77955
L43307 78742
" />
<path d="M62992 77955
L62992 78742
" />
<path d="M82677 77955
L82677 78742
" />
<path d="M102362 77955
L102362 78742
" />
<text x="13779.527559" y="78605.196850"
textLength="547.440945" font-size="682.401575" lengthAdjust="spacingAndGlyphs"
text-anchor="start" opacity="0">1</text>
<g class="stroked-text"><desc>1</desc>
<path d="M14199 78580
L13907 78580
" />
<path d="M14053 78580
L14053 78068
L14004 78142
L13955 78190
L13907 78215
" />
</g><text x="33464.566929" y="78605.196850"
textLength="547.440945" font-size="682.401575" lengthAdjust="spacingAndGlyphs"
text-anchor="start" opacity="0">2</text>
<g class="stroked-text"><desc>2</desc>
<path d="M33592 78117
L33616 78093
L33665 78068
L33787 78068
L33835 78093
L33860 78117
L33884 78166
L33884 78215
L33860 78288
L33567 78580
L33884 78580
" />
</g><text x="53149.606299" y="78605.196850"
textLength="547.440945" font-size="682.401575" lengthAdjust="spacingAndGlyphs"
text-anchor="start" opacity="0">3</text>
<g class="stroked-text"><desc>3</desc>
<path d="M53252 78068
L53569 78068
L53398 78263
L53472 78263
L53520 78288
L53545 78312
L53569 78361
L53569 78483
L53545 78532
L53520 78556
L53472 78580
L53325 78580
L53277 78556
L53252 78532
" />
</g><text x="72834.645669" y="78605.196850"
textLength="547.440945" font-size="682.401575" lengthAdjust="spacingAndGlyphs"
text-anchor="start" opacity="0">4</text>
<g class="stroked-text"><desc>4</desc>
<path d="M73205 78239
L73205 78580
" />
<path d="M73083 78044
L72962 78410
L73278 78410
" />
</g><text x="92519.685039" y="78605.196850"
textLength="547.440945" font-size="682.401575" lengthAdjust="spacingAndGlyphs"
text-anchor="start" opacity="0">5</text>
<g class="stroked-text"><desc>5</desc>
<path d="M92915 78068
L92671 78068
L92647 78312
L92671 78288
L92720 78263
L92842 78263
L92890 78288
L92915 78312
L92939 78361
L92939 78483
L92915 78532
L92890 78556
L92842 78580
L92720 78580
L92671 78556
L92647 78532
" />
</g><text x="112204.724409" y="78605.196850"
textLength="547.440945" font-size="682.401575" lengthAdjust="spacingAndGlyphs"
text-anchor="start" opacity="0">6</text>
<g class="stroked-text"><desc>6</desc>
<path d="M112575 78068
L112478 78068
L112429 78093
L112405 78117
L112356 78190
L112332 78288
L112332 78483
L112356 78532
L112380 78556
L112429 78580
L112527 78580
L112575 78556
L112600 78532
L112624 78483
L112624 78361
L112600 78312
L112575 78288
L112527 78263
L112429 78263
L112380 78288
L112356 78312
L112332 78361
" />
</g><path d="M3937 23622
L4724 23622
" />
<path d="M3937 43307
L4724 43307
" />
<path d="M3937 62992
L4724 62992
" />
<text x="4330.708661" y="14035.433071"
textLength="498.700787" font-size="682.401575" lengthAdjust="spacingAndGlyphs"
text-anchor="middle" opacity="0">A</text>
<g class="stroked-text"><desc>A</desc>
<path d="M4208 13864
L4452 13864
" />
<path d="M4160 14011
L4330 13499
L4501 14011
" />
</g><text x="4330.708661" y="33720.472441"
textLength="571.811024" font-size="682.401575" lengthAdjust="spacingAndGlyphs"
text-anchor="middle" opacity="0">B</text>
<g class="stroked-text"><desc>B</desc>
<path d="M4367 33427
L4440 33452
L4464 33476
L4489 33525
L4489 33598
L4464 33647
L4440 33671
L4391 33696
L4196 33696
L4196 33184
L4367 33184
L4415 33208
L4440 33233
L4464 33281
L4464 33330
L4440 33379
L4415 33403
L4367 33427
L4196 33427
" />
</g><text x="4330.708661" y="53405.511811"
textLength="571.811024" font-size="682.401575" lengthAdjust="spacingAndGlyphs"
text-anchor="middle" opacity="0">C</text>
<g class="stroked-text"><desc>C</desc>
<path d="M4489 53332
L4464 53356
L4391 53381
L4342 53381
L4269 53356
L4221 53307
L4196 53259
L4172 53161
L4172 53088
L4196 52991
L4221 52942
L4269 52893
L4342 52869
L4391 52869
L4464 52893
L4489 52918
" />
</g><text x="4330.708661" y="73090.551181"
textLength="571.811024" font-size="682.401575" lengthAdjust="spacingAndGlyphs"
text-anchor="middle" opacity="0">D</text>
<g class="stroked-text"><desc>D</desc>
<path d="M4196 73066
L4196 72554
L4318 72554
L4391 72578
L4440 72627
L4464 72676
L4489 72773
L4489 72846
L4464 72944
L4440 72993
L4391 73041
L4318 73066
L4196 73066
" />
</g><path d="M112992 23622
L112205 23622
" />
<path d="M112992 43307
L112205 43307
" />
<path d="M112992 62992
L112205 62992
" />
<text x="112599.291339" y="14035.433071"
textLength="498.700787" font-size="682.401575" lengthAdjust="spacingAndGlyphs"
text-anchor="middle" opacity="0">A</text>
<g class="stroked-text"><desc>A</desc>
<path d="M112477 13864
L112721 13864
" />
<path d="M112428 14011
L112599 13499
L112769 14011
" />
</g><text x="112599.291339" y="33720.472441"
textLength="571.811024" font-size="682.401575" lengthAdjust="spacingAndGlyphs"
text-anchor="middle" opacity="0">B</text>
<g class="stroked-text"><desc>B</desc>
<path d="M112635 33427
L112708 33452
L112733 33476
L112757 33525
L112757 33598
L112733 33647
L112708 33671
L112660 33696
L112465 33696
L112465 33184
L112635 33184
L112684 33208
L112708 33233
L112733 33281
L112733 33330
L112708 33379
L112684 33403
L112635 33427
L112465 33427
" />
</g><text x="112599.291339" y="53405.511811"
textLength="571.811024" font-size="682.401575" lengthAdjust="spacingAndGlyphs"
text-anchor="middle" opacity="0">C</text>
<g class="stroked-text"><desc>C</desc>
<path d="M112757 53332
L112733 53356
L112660 53381
L112611 53381
L112538 53356
L112489 53307
L112465 53259
L112440 53161
L112440 53088
L112465 52991
L112489 52942
L112538 52893
L112611 52869
L112660 52869
L112733 52893
L112757 52918
" />
</g><text x="112599.291339" y="73090.551181"
textLength="571.811024" font-size="682.401575" lengthAdjust="spacingAndGlyphs"
text-anchor="middle" opacity="0">D</text>
<g class="stroked-text"><desc>D</desc>
<path d="M112465 73066
L112465 72554
L112587 72554
L112660 72578
L112708 72627
L112733 72676
L112757 72773
L112757 72846
L112733 72944
L112708 72993
L112660 73041
L112587 73066
L112465 73066
" />
</g><text x="78741.023622" y="76321.732283"
textLength="2759.645669" font-size="787.401575" lengthAdjust="spacingAndGlyphs"
text-anchor="start" opacity="0">Date: </text>
<g class="stroked-text"><desc>Date: </desc>
<path d="M78911 76293
L78911 75703
L79052 75703
L79136 75731
L79192 75787
L79220 75843
L79249 75956
L79249 76040
L79220 76152
L79192 76209
L79136 76265
L79052 76293
L78911 76293
" />
<path d="M79755 76293
L79755 75984
L79727 75928
L79670 75899
L79558 75899
L79502 75928
" />
<path d="M79755 76265
L79699 76293
L79558 76293
L79502 76265
L79474 76209
L79474 76152
L79502 76096
L79558 76068
L79699 76068
L79755 76040
" />
<path d="M79952 75899
L80177 75899
" />
<path d="M80036 75703
L80036 76209
L80064 76265
L80120 76293
L80177 76293
" />
<path d="M80598 76265
L80542 76293
L80430 76293
L80373 76265
L80345 76209
L80345 75984
L80373 75928
L80430 75899
L80542 75899
L80598 75928
L80627 75984
L80627 76040
L80345 76096
" />
<path d="M80880 76237
L80908 76265
L80880 76293
L80852 76265
L80880 76237
L80880 76293
" />
<path d="M80880 75928
L80908 75956
L80880 75984
L80852 75956
L80880 75928
L80880 75984
" />
</g><path d="M69685 76577
L112205 76577
" />
<text x="70079.606299" y="77424.094488"
textLength="13530.196850" font-size="787.401575" lengthAdjust="spacingAndGlyphs"
text-anchor="start" opacity="0">KiCad E.D.A.  kicad (6.0.5-0)</text>
<g class="stroked-text"><desc>KiCad E.D.A.  kicad (6.0.5-0)</desc>
<path d="M70250 77395
L70250 76805
" />
<path d="M70587 77395
L70334 77058
" />
<path d="M70587 76805
L70250 77142
" />
<path d="M70840 77395
L70840 77002
" />
<path d="M70840 76805
L70812 76833
L70840 76861
L70868 76833
L70840 76805
L70840 76861
" />
<path d="M71459 77339
L71431 77367
L71346 77395
L71290 77395
L71206 77367
L71150 77311
L71121 77255
L71093 77142
L71093 77058
L71121 76946
L71150 76889
L71206 76833
L71290 76805
L71346 76805
L71431 76833
L71459 76861
" />
<path d="M71965 77395
L71965 77086
L71937 77030
L71881 77002
L71768 77002
L71712 77030
" />
<path d="M71965 77367
L71909 77395
L71768 77395
L71712 77367
L71684 77311
L71684 77255
L71712 77199
L71768 77170
L71909 77170
L71965 77142
" />
<path d="M72499 77395
L72499 76805
" />
<path d="M72499 77367
L72443 77395
L72331 77395
L72274 77367
L72246 77339
L72218 77283
L72218 77114
L72246 77058
L72274 77030
L72331 77002
L72443 77002
L72499 77030
" />
<path d="M73231 77086
L73427 77086
" />
<path d="M73512 77395
L73231 77395
L73231 76805
L73512 76805
" />
<path d="M73765 77339
L73793 77367
L73765 77395
L73737 77367
L73765 77339
L73765 77395
" />
<path d="M74046 77395
L74046 76805
L74187 76805
L74271 76833
L74327 76889
L74355 76946
L74384 77058
L74384 77142
L74355 77255
L74327 77311
L74271 77367
L74187 77395
L74046 77395
" />
<path d="M74637 77339
L74665 77367
L74637 77395
L74609 77367
L74637 77339
L74637 77395
" />
<path d="M74890 77227
L75171 77227
" />
<path d="M74834 77395
L75030 76805
L75227 77395
" />
<path d="M75424 77339
L75452 77367
L75424 77395
L75396 77367
L75424 77339
L75424 77395
" />
<path d="M76605 77395
L76605 76805
" />
<path d="M76661 77170
L76830 77395
" />
<path d="M76830 77002
L76605 77227
" />
<path d="M77083 77395
L77083 77002
" />
<path d="M77083 76805
L77055 76833
L77083 76861
L77111 76833
L77083 76805
L77083 76861
" />
<path d="M77618 77367
L77561 77395
L77449 77395
L77393 77367
L77364 77339
L77336 77283
L77336 77114
L77364 77058
L77393 77030
L77449 77002
L77561 77002
L77618 77030
" />
<path d="M78124 77395
L78124 77086
L78096 77030
L78039 77002
L77927 77002
L77871 77030
" />
<path d="M78124 77367
L78067 77395
L77927 77395
L77871 77367
L77842 77311
L77842 77255
L77871 77199
L77927 77170
L78067 77170
L78124 77142
" />
<path d="M78658 77395
L78658 76805
" />
<path d="M78658 77367
L78602 77395
L78489 77395
L78433 77367
L78405 77339
L78377 77283
L78377 77114
L78405 77058
L78433 77030
L78489 77002
L78602 77002
L78658 77030
" />
<path d="M79558 77620
L79530 77592
L79474 77508
L79445 77452
L79417 77367
L79389 77227
L79389 77114
L79417 76974
L79445 76889
L79474 76833
L79530 76749
L79558 76721
" />
<path d="M80036 76805
L79923 76805
L79867 76833
L79839 76861
L79783 76946
L79755 77058
L79755 77283
L79783 77339
L79811 77367
L79867 77395
L79980 77395
L80036 77367
L80064 77339
L80092 77283
L80092 77142
L80064 77086
L80036 77058
L79980 77030
L79867 77030
L79811 77058
L79783 77086
L79755 77142
" />
<path d="M80345 77339
L80373 77367
L80345 77395
L80317 77367
L80345 77339
L80345 77395
" />
<path d="M80739 76805
L80795 76805
L80852 76833
L80880 76861
L80908 76917
L80936 77030
L80936 77170
L80908 77283
L80880 77339
L80852 77367
L80795 77395
L80739 77395
L80683 77367
L80655 77339
L80627 77283
L80598 77170
L80598 77030
L80627 76917
L80655 76861
L80683 76833
L80739 76805
" />
<path d="M81189 77339
L81217 77367
L81189 77395
L81161 77367
L81189 77339
L81189 77395
" />
<path d="M81751 76805
L81470 76805
L81442 77086
L81470 77058
L81526 77030
L81667 77030
L81723 77058
L81751 77086
L81780 77142
L81780 77283
L81751 77339
L81723 77367
L81667 77395
L81526 77395
L81470 77367
L81442 77339
" />
<path d="M82033 77170
L82483 77170
" />
<path d="M82876 76805
L82932 76805
L82989 76833
L83017 76861
L83045 76917
L83073 77030
L83073 77170
L83045 77283
L83017 77339
L82989 77367
L82932 77395
L82876 77395
L82820 77367
L82792 77339
L82764 77283
L82736 77170
L82736 77030
L82764 76917
L82792 76861
L82820 76833
L82876 76805
" />
<path d="M83270 77620
L83298 77592
L83354 77508
L83382 77452
L83411 77367
L83439 77227
L83439 77114
L83411 76974
L83382 76889
L83354 76833
L83298 76749
L83270 76721
" />
</g><path d="M69685 75396
L112205 75396
" />
</g>
<g style="fill:#840000; fill-opacity:0.0; 
stroke:#840000; stroke-width:118.110236; stroke-opacity:1; 
stroke-linecap:round; stroke-linejoin:round;">
<text x="103544.173228" y="76321.732283"
textLength="2337.834646" font-size="787.401575" lengthAdjust="spacingAndGlyphs"
text-anchor="start" opacity="0">Rev: </text>
<g class="stroked-text"><desc>Rev: </desc>
<path d="M104098 76293
L103902 76012
" />
<path d="M103761 76293
L103761 75703
L103986 75703
L104042 75731
L104070 75759
L104098 75815
L104098 75899
L104070 75956
L104042 75984
L103986 76012
L103761 76012
" />
<path d="M104577 76265
L104520 76293
L104408 76293
L104352 76265
L104323 76209
L104323 75984
L104352 75928
L104408 75899
L104520 75899
L104577 75928
L104605 75984
L104605 76040
L104323 76096
" />
<path d="M104802 75899
L104942 76293
L105083 75899
" />
<path d="M105308 76237
L105336 76265
L105308 76293
L105280 76265
L105308 76237
L105308 76293
" />
<path d="M105308 75928
L105336 75956
L105308 75984
L105280 75956
L105308 75928
L105308 75984
" />
</g></g>
<g style="fill:#840000; fill-opacity:0.0; 
stroke:#840000; stroke-width:60.000000; stroke-opacity:1; 
stroke-linecap:round; stroke-linejoin:round;">
<text x="70079.606299" y="76321.732283"
textLength="3781.220472" font-size="787.401575" lengthAdjust="spacingAndGlyphs"
text-anchor="start" opacity="0">Size: A4</text>
<g class="stroked-text"><desc>Size: A4</desc>
<path d="M70222 76265
L70306 76293
L70447 76293
L70503 76265
L70531 76237
L70559 76181
L70559 76124
L70531 76068
L70503 76040
L70447 76012
L70334 75984
L70278 75956
L70250 75928
L70222 75871
L70222 75815
L70250 75759
L70278 75731
L70334 75703
L70475 75703
L70559 75731
" />
<path d="M70812 76293
L70812 75899
" />
<path d="M70812 75703
L70784 75731
L70812 75759
L70840 75731
L70812 75703
L70812 75759
" />
<path d="M71037 75899
L71346 75899
L71037 76293
L71346 76293
" />
<path d="M71796 76265
L71740 76293
L71628 76293
L71571 76265
L71543 76209
L71543 75984
L71571 75928
L71628 75899
L71740 75899
L71796 75928
L71825 75984
L71825 76040
L71543 76096
" />
<path d="M72078 76237
L72106 76265
L72078 76293
L72049 76265
L72078 76237
L72078 76293
" />
<path d="M72078 75928
L72106 75956
L72078 75984
L72049 75956
L72078 75928
L72078 75984
" />
<path d="M72781 76124
L73062 76124
" />
<path d="M72724 76293
L72921 75703
L73118 76293
" />
<path d="M73568 75899
L73568 76293
" />
<path d="M73427 75674
L73287 76096
L73652 76096
" />
</g><text x="103544.173228" y="77424.094488"
textLength="3350.196850" font-size="787.401575" lengthAdjust="spacingAndGlyphs"
text-anchor="start" opacity="0">Id: 1/1</text>
<g class="stroked-text"><desc>Id: 1/1</desc>
<path d="M103714 77395
L103714 76805
" />
<path d="M104249 77395
L104249 76805
" />
<path d="M104249 77367
L104192 77395
L104080 77395
L104024 77367
L103995 77339
L103967 77283
L103967 77114
L103995 77058
L104024 77030
L104080 77002
L104192 77002
L104249 77030
" />
<path d="M104530 77339
L104558 77367
L104530 77395
L104502 77367
L104530 77339
L104530 77395
" />
<path d="M104530 77030
L104558 77058
L104530 77086
L104502 77058
L104530 77030
L104530 77086
" />
<path d="M105570 77395
L105233 77395
" />
<path d="M105402 77395
L105402 76805
L105345 76889
L105289 76946
L105233 76974
" />
<path d="M106245 76777
L105739 77536
" />
<path d="M106751 77395
L106414 77395
" />
<path d="M106583 77395
L106583 76805
L106526 76889
L106470 76946
L106414 76974
" />
</g><path d="M69685 73821
L112205 73821
" />
</g>
<g style="fill:#840000; fill-opacity:0.0; 
stroke:#840000; stroke-width:157.480315; stroke-opacity:1; 
stroke-linecap:round; stroke-linejoin:round;">
<text x="70079.606299" y="74924.094488"
textLength="3705.511811" font-size="1049.842520" lengthAdjust="spacingAndGlyphs"
text-anchor="start" opacity="0">Title: </text>
<g class="stroked-text"><desc>Title: </desc>
<path d="M70360 74099
L70810 74099
" />
<path d="M70486 74886
L70585 74099
" />
<path d="M70974 74886
L71039 74361
" />
<path d="M71072 74099
L71030 74136
L71063 74174
L71105 74136
L71072 74099
L71063 74174
" />
<path d="M71302 74361
L71602 74361
" />
<path d="M71447 74099
L71363 74774
L71391 74849
L71461 74886
L71536 74886
" />
<path d="M71911 74886
L71841 74849
L71812 74774
L71897 74099
" />
<path d="M72516 74849
L72436 74886
L72286 74886
L72216 74849
L72187 74774
L72225 74474
L72272 74399
L72352 74361
L72501 74361
L72572 74399
L72600 74474
L72591 74549
L72206 74624
" />
<path d="M72895 74811
L72928 74849
L72886 74886
L72853 74849
L72895 74811
L72886 74886
" />
<path d="M72947 74399
L72980 74436
L72937 74474
L72905 74436
L72947 74399
L72937 74474
" />
</g></g>
<g style="fill:#840000; fill-opacity:0.0; 
stroke:#840000; stroke-width:60.000000; stroke-opacity:1; 
stroke-linecap:round; stroke-linejoin:round;">
<text x="70079.606299" y="73408.346457"
textLength="9344.212598" font-size="787.401575" lengthAdjust="spacingAndGlyphs"
text-anchor="start" opacity="0">File: Ebow.kicad_sch</text>
<g class="stroked-text"><desc>File: Ebow.kicad_sch</desc>
<path d="M70447 73070
L70250 73070
" />
<path d="M70250 73380
L70250 72789
L70531 72789
" />
<path d="M70756 73380
L70756 72986
" />
<path d="M70756 72789
L70728 72817
L70756 72845
L70784 72817
L70756 72789
L70756 72845
" />
<path d="M71121 73380
L71065 73352
L71037 73295
L71037 72789
" />
<path d="M71571 73352
L71515 73380
L71403 73380
L71346 73352
L71318 73295
L71318 73070
L71346 73014
L71403 72986
L71515 72986
L71571 73014
L71600 73070
L71600 73127
L71318 73183
" />
<path d="M71853 73323
L71881 73352
L71853 73380
L71825 73352
L71853 73323
L71853 73380
" />
<path d="M71853 73014
L71881 73042
L71853 73070
L71825 73042
L71853 73014
L71853 73070
" />
<path d="M72584 73070
L72781 73070
" />
<path d="M72865 73380
L72584 73380
L72584 72789
L72865 72789
" />
<path d="M73118 73380
L73118 72789
" />
<path d="M73118 73014
L73174 72986
L73287 72986
L73343 73014
L73371 73042
L73399 73098
L73399 73267
L73371 73323
L73343 73352
L73287 73380
L73174 73380
L73118 73352
" />
<path d="M73737 73380
L73681 73352
L73652 73323
L73624 73267
L73624 73098
L73652 73042
L73681 73014
L73737 72986
L73821 72986
L73877 73014
L73905 73042
L73934 73098
L73934 73267
L73905 73323
L73877 73352
L73821 73380
L73737 73380
" />
<path d="M74130 72986
L74243 73380
L74355 73098
L74468 73380
L74580 72986
" />
<path d="M74805 73323
L74834 73352
L74805 73380
L74777 73352
L74805 73323
L74805 73380
" />
<path d="M75087 73380
L75087 72789
" />
<path d="M75143 73155
L75312 73380
" />
<path d="M75312 72986
L75087 73211
" />
<path d="M75565 73380
L75565 72986
" />
<path d="M75565 72789
L75537 72817
L75565 72845
L75593 72817
L75565 72789
L75565 72845
" />
<path d="M76099 73352
L76043 73380
L75930 73380
L75874 73352
L75846 73323
L75818 73267
L75818 73098
L75846 73042
L75874 73014
L75930 72986
L76043 72986
L76099 73014
" />
<path d="M76605 73380
L76605 73070
L76577 73014
L76521 72986
L76408 72986
L76352 73014
" />
<path d="M76605 73352
L76549 73380
L76408 73380
L76352 73352
L76324 73295
L76324 73239
L76352 73183
L76408 73155
L76549 73155
L76605 73127
" />
<path d="M77139 73380
L77139 72789
" />
<path d="M77139 73352
L77083 73380
L76971 73380
L76915 73352
L76886 73323
L76858 73267
L76858 73098
L76886 73042
L76915 73014
L76971 72986
L77083 72986
L77139 73014
" />
<path d="M77280 73436
L77730 73436
" />
<path d="M77842 73352
L77899 73380
L78011 73380
L78067 73352
L78096 73295
L78096 73267
L78067 73211
L78011 73183
L77927 73183
L77871 73155
L77842 73098
L77842 73070
L77871 73014
L77927 72986
L78011 72986
L78067 73014
" />
<path d="M78602 73352
L78546 73380
L78433 73380
L78377 73352
L78349 73323
L78321 73267
L78321 73098
L78349 73042
L78377 73014
L78433 72986
L78546 72986
L78602 73014
" />
<path d="M78855 73380
L78855 72789
" />
<path d="M79108 73380
L79108 73070
L79080 73014
L79024 72986
L78939 72986
L78883 73014
L78855 73042
" />
</g><path d="M69685 71459
L112205 71459
" />
<text x="70079.606299" y="72345.354331"
textLength="3856.417323" font-size="787.401575" lengthAdjust="spacingAndGlyphs"
text-anchor="start" opacity="0">Sheet: /</text>
<g class="stroked-text"><desc>Sheet: /</desc>
<path d="M70222 72289
L70306 72317
L70447 72317
L70503 72289
L70531 72260
L70559 72204
L70559 72148
L70531 72092
L70503 72064
L70447 72035
L70334 72007
L70278 71979
L70250 71951
L70222 71895
L70222 71839
L70250 71782
L70278 71754
L70334 71726
L70475 71726
L70559 71754
" />
<path d="M70812 72317
L70812 71726
" />
<path d="M71065 72317
L71065 72007
L71037 71951
L70981 71923
L70897 71923
L70840 71951
L70812 71979
" />
<path d="M71571 72289
L71515 72317
L71403 72317
L71346 72289
L71318 72232
L71318 72007
L71346 71951
L71403 71923
L71515 71923
L71571 71951
L71600 72007
L71600 72064
L71318 72120
" />
<path d="M72078 72289
L72021 72317
L71909 72317
L71853 72289
L71825 72232
L71825 72007
L71853 71951
L71909 71923
L72021 71923
L72078 71951
L72106 72007
L72106 72064
L71825 72120
" />
<path d="M72274 71923
L72499 71923
" />
<path d="M72359 71726
L72359 72232
L72387 72289
L72443 72317
L72499 72317
" />
<path d="M72696 72260
L72724 72289
L72696 72317
L72668 72289
L72696 72260
L72696 72317
" />
<path d="M72696 71951
L72724 71979
L72696 72007
L72668 71979
L72696 71951
L72696 72007
" />
<path d="M73849 71698
L73343 72457
" />
</g></g>
<g style="fill:#840000; fill-opacity:0.0; 
stroke:#840000; stroke-width:118.110236; stroke-opacity:1; 
stroke-linecap:round; stroke-linejoin:round;">
<text x="70079.606299" y="71164.251969"
textLength="60.000000" font-size="787.401575" lengthAdjust="spacingAndGlyphs"
text-anchor="start" opacity="0"></text>
<g class="stroked-text"><desc></desc>
</g></g>
<g style="fill:#840000; fill-opacity:0.0; 
stroke:#840000; stroke-width:60.000000; stroke-opacity:1; 
stroke-linecap:round; stroke-linejoin:round;">
<text x="70079.606299" y="69983.149606"
textLength="118.110236" font-size="787.401575" lengthAdjust="spacingAndGlyphs"
text-anchor="start" opacity="0"></text>
<g class="stroked-text"><desc></desc>
</g><text x="70079.606299" y="68802.047244"
textLength="60.000000" font-size="787.401575" lengthAdjust="spacingAndGlyphs"
text-anchor="start" opacity="0"></text>
<g class="stroked-text"><desc></desc>
</g><text x="70079.606299" y="67620.944882"
textLength="60.000000" font-size="787.401575" lengthAdjust="spacingAndGlyphs"
text-anchor="start" opacity="0"></text>
<g class="stroked-text"><desc></desc>
</g><text x="70079.606299" y="66439.842520"
textLength="60.000000" font-size="787.401575" lengthAdjust="spacingAndGlyphs"
text-anchor="start" opacity="0"></text>
<g class="stroked-text"><desc></desc>
</g><path d="M77559 75396
L77559 76577
" />
<path d="M102756 75396
L102756 77955
" />
<g >
</g>
<g style="fill:#FFFFC2; fill-opacity:0.0; 
stroke:#FFFFC2; stroke-width:60.000000; stroke-opacity:1; 
stroke-linecap:round; stroke-linejoin:round;">
</g>
<g style="fill:#FFFFC2; fill-opacity:0.6; 
stroke:#FFFFC2; stroke-width:0.039370; stroke-opacity:1; 
stroke-linecap:round; stroke-linejoin:round;">
<path style="fill:#FFFFC2; fill-opacity:0.6; 
stroke:#FFFFC2; stroke-width:0.039370; stroke-opacity:1; 
stroke-linecap:round; stroke-linejoin:round;fill-rule:evenodd;"
d="M 53000.000000,42250.000000
49000.000000,40250.000000
49000.000000,44250.000000
Z" /> 
</g>
<g style="fill:#840000; fill-opacity:0.6; 
stroke:#840000; stroke-width:0.039370; stroke-opacity:1; 
stroke-linecap:round; stroke-linejoin:round;">
</g>
<g style="fill:#840000; fill-opacity:0.0; 
stroke:#840000; stroke-width:100.000000; stroke-opacity:1; 
stroke-linecap:round; stroke-linejoin:round;">
<path style="fill:#840000; fill-opacity:0.0; 
stroke:#840000; stroke-width:100.000000; stroke-opacity:1; 
stroke-linecap:round; stroke-linejoin:round;fill:none"
d="M 53000.000000,42250.000000
49000.000000,40250.000000
49000.000000,44250.000000
Z" /> 
<path style="fill:#840000; fill-opacity:0.0; 
stroke:#840000; stroke-width:100.000000; stroke-opacity:1; 
stroke-linecap:round; stroke-linejoin:round;fill:none"
d="M 53000.000000,42250.000000
49000.000000,40250.000000
49000.000000,44250.000000
Z" /> 
</g>
<g style="fill:#840000; fill-opacity:0.0; 
stroke:#840000; stroke-width:60.000000; stroke-opacity:1; 
stroke-linecap:round; stroke-linejoin:round;">
<path d="M51000 43250
L51000 45250
" />
</g>
<g style="fill:#008484; fill-opacity:0.0; 
stroke:#008484; stroke-width:60.000000; stroke-opacity:1; 
stroke-linecap:round; stroke-linejoin:round;">
<g transform="rotate(-90.000000 51000.000000 43200.000000)">
<text x="51000.000000" y="43300.000000"
textLength="736.181102" font-size="266.653543" lengthAdjust="spacingAndGlyphs"
text-anchor="start" opacity="0">GAIN</text>
</g>
<g class="stroked-text"><desc>GAIN</desc>
<path d="M50900 43017
L50890 43036
L50890 43065
L50900 43093
L50919 43112
L50938 43122
L50976 43131
L51004 43131
L51042 43122
L51061 43112
L51080 43093
L51090 43065
L51090 43046
L51080 43017
L51071 43008
L51004 43008
L51004 43046
" />
<path d="M51033 42931
L51033 42836
" />
<path d="M51090 42950
L50890 42884
L51090 42817
" />
<path d="M51090 42750
L50890 42750
" />
<path d="M51090 42655
L50890 42655
L51090 42541
L50890 42541
" />
</g></g>
<g style="fill:#840000; fill-opacity:0.0; 
stroke:#840000; stroke-width:60.000000; stroke-opacity:1; 
stroke-linecap:round; stroke-linejoin:round;">
<g transform="rotate(-90.000000 50900.000000 44250.000000)">
<text x="50900.000000" y="44250.000000"
textLength="536.181102" font-size="666.653543" lengthAdjust="spacingAndGlyphs"
text-anchor="middle" opacity="0">1</text>
</g>
<g class="stroked-text"><desc>1</desc>
<path d="M50876 44107
L50876 44392
" />
<path d="M50876 44250
L50376 44250
L50447 44297
L50495 44345
L50519 44392
" />
</g><path d="M49000 43250
L48000 43250
" />
</g>
<g style="fill:#008484; fill-opacity:0.0; 
stroke:#008484; stroke-width:60.000000; stroke-opacity:1; 
stroke-linecap:round; stroke-linejoin:round;">
<text x="49050.000000" y="43500.000000"
textLength="679.055118" font-size="666.653543" lengthAdjust="spacingAndGlyphs"
text-anchor="start" opacity="0">-</text>
<g class="stroked-text"><desc>-</desc>
<path d="M49199 43285
L49580 43285
" />
</g></g>
<g style="fill:#840000; fill-opacity:0.0; 
stroke:#840000; stroke-width:60.000000; stroke-opacity:1; 
stroke-linecap:round; stroke-linejoin:round;">
<text x="48500.000000" y="43150.000000"
textLength="536.181102" font-size="666.653543" lengthAdjust="spacingAndGlyphs"
text-anchor="middle" opacity="0">2</text>
<g class="stroked-text"><desc>2</desc>
<path d="M48357 42673
L48380 42650
L48428 42626
L48547 42626
L48595 42650
L48619 42673
L48642 42721
L48642 42769
L48619 42840
L48333 43126
L48642 43126
" />
</g><path d="M49000 41250
L48000 41250
" />
</g>
<g style="fill:#008484; fill-opacity:0.0; 
stroke:#008484; stroke-width:60.000000; stroke-opacity:1; 
stroke-linecap:round; stroke-linejoin:round;">
<text x="49050.000000" y="41500.000000"
textLength="679.055118" font-size="666.653543" lengthAdjust="spacingAndGlyphs"
text-anchor="start" opacity="0">+</text>
<g class="stroked-text"><desc>+</desc>
<path d="M49199 41285
L49580 41285
" />
<path d="M49389 41476
L49389 41095
" />
</g></g>
<g style="fill:#840000; fill-opacity:0.0; 
stroke:#840000; stroke-width:60.000000; stroke-opacity:1; 
stroke-linecap:round; stroke-linejoin:round;">
<text x="48500.000000" y="41150.000000"
textLength="536.181102" font-size="666.653543" lengthAdjust="spacingAndGlyphs"
text-anchor="middle" opacity="0">3</text>
<g class="stroked-text"><desc>3</desc>
<path d="M48333 40626
L48642 40626
L48476 40816
L48547 40816
L48595 40840
L48619 40864
L48642 40911
L48642 41030
L48619 41078
L48595 41102
L48547 41126
L48404 41126
L48357 41102
L48333 41078
" />
</g><path d="M50000 43750
L50000 45250
" />
</g>
<g style="fill:#008484; fill-opacity:0.0; 
stroke:#008484; stroke-width:60.000000; stroke-opacity:1; 
stroke-linecap:round; stroke-linejoin:round;">
<g transform="rotate(-90.000000 50000.000000 43700.000000)">
<text x="50000.000000" y="43950.000000"
textLength="1583.818898" font-size="666.653543" lengthAdjust="spacingAndGlyphs"
text-anchor="start" opacity="0">GND</text>
</g>
<g class="stroked-text"><desc>GND</desc>
<path d="M49750 43289
L49726 43336
L49726 43408
L49750 43479
L49797 43527
L49845 43550
L49940 43574
L50011 43574
L50107 43550
L50154 43527
L50202 43479
L50226 43408
L50226 43360
L50202 43289
L50178 43265
L50011 43265
L50011 43360
" />
<path d="M50226 43050
L49726 43050
L50226 42765
L49726 42765
" />
<path d="M50226 42527
L49726 42527
L49726 42408
L49750 42336
L49797 42289
L49845 42265
L49940 42241
L50011 42241
L50107 42265
L50154 42289
L50202 42336
L50226 42408
L50226 42527
" />
</g></g>
<g style="fill:#840000; fill-opacity:0.0; 
stroke:#840000; stroke-width:60.000000; stroke-opacity:1; 
stroke-linecap:round; stroke-linejoin:round;">
<g transform="rotate(-90.000000 49900.000000 44500.000000)">
<text x="49900.000000" y="44500.000000"
textLength="536.181102" font-size="666.653543" lengthAdjust="spacingAndGlyphs"
text-anchor="middle" opacity="0">4</text>
</g>
<g class="stroked-text"><desc>4</desc>
<path d="M49542 44404
L49876 44404
" />
<path d="M49352 44523
L49709 44642
L49709 44333
" />
</g><path d="M53000 42250
L54000 42250
" />
<text x="53500.000000" y="42150.000000"
textLength="536.181102" font-size="666.653543" lengthAdjust="spacingAndGlyphs"
text-anchor="middle" opacity="0">5</text>
<g class="stroked-text"><desc>5</desc>
<path d="M53619 41626
L53380 41626
L53357 41864
L53380 41840
L53428 41816
L53547 41816
L53595 41840
L53619 41864
L53642 41911
L53642 42030
L53619 42078
L53595 42102
L53547 42126
L53428 42126
L53380 42102
L53357 42078
" />
</g><path d="M50000 40750
L50000 39250
" />
</g>
<g style="fill:#008484; fill-opacity:0.0; 
stroke:#008484; stroke-width:60.000000; stroke-opacity:1; 
stroke-linecap:round; stroke-linejoin:round;">
<g transform="rotate(-90.000000 50000.000000 40800.000000)">
<text x="50000.000000" y="41050.000000"
textLength="1107.637795" font-size="666.653543" lengthAdjust="spacingAndGlyphs"
text-anchor="end" opacity="0">V+</text>
</g>
<g class="stroked-text"><desc>V+</desc>
<path d="M49726 41830
L50226 41663
L49726 41496
" />
<path d="M50035 41330
L50035 40949
" />
<path d="M50226 41139
L49845 41139
" />
</g></g>
<g style="fill:#840000; fill-opacity:0.0; 
stroke:#840000; stroke-width:60.000000; stroke-opacity:1; 
stroke-linecap:round; stroke-linejoin:round;">
<g transform="rotate(-90.000000 49900.000000 40000.000000)">
<text x="49900.000000" y="40000.000000"
textLength="536.181102" font-size="666.653543" lengthAdjust="spacingAndGlyphs"
text-anchor="middle" opacity="0">6</text>
</g>
<g class="stroked-text"><desc>6</desc>
<path d="M49376 39904
L49376 40000
L49400 40047
L49423 40071
L49495 40119
L49590 40142
L49780 40142
L49828 40119
L49852 40095
L49876 40047
L49876 39952
L49852 39904
L49828 39880
L49780 39857
L49661 39857
L49614 39880
L49590 39904
L49566 39952
L49566 40047
L49590 40095
L49614 40119
L49661 40142
" />
</g><path d="M51000 41250
L51000 39250
" />
</g>
<g style="fill:#008484; fill-opacity:0.0; 
stroke:#008484; stroke-width:60.000000; stroke-opacity:1; 
stroke-linecap:round; stroke-linejoin:round;">
<g transform="rotate(-90.000000 51000.000000 41300.000000)">
<text x="51000.000000" y="41400.000000"
textLength="1183.818898" font-size="266.653543" lengthAdjust="spacingAndGlyphs"
text-anchor="end" opacity="0">BYPASS</text>
</g>
<g class="stroked-text"><desc>BYPASS</desc>
<path d="M50985 42339
L50995 42310
L51004 42301
L51023 42291
L51052 42291
L51071 42301
L51080 42310
L51090 42330
L51090 42406
L50890 42406
L50890 42339
L50900 42320
L50909 42310
L50928 42301
L50947 42301
L50966 42310
L50976 42320
L50985 42339
L50985 42406
" />
<path d="M50995 42168
L51090 42168
" />
<path d="M50890 42234
L50995 42168
L50890 42101
" />
<path d="M51090 42034
L50890 42034
L50890 41958
L50900 41939
L50909 41930
L50928 41920
L50957 41920
L50976 41930
L50985 41939
L50995 41958
L50995 42034
" />
<path d="M51033 41844
L51033 41749
" />
<path d="M51090 41863
L50890 41796
L51090 41730
" />
<path d="M51080 41672
L51090 41644
L51090 41596
L51080 41577
L51071 41568
L51052 41558
L51033 41558
L51014 41568
L51004 41577
L50995 41596
L50985 41634
L50976 41653
L50966 41663
L50947 41672
L50928 41672
L50909 41663
L50900 41653
L50890 41634
L50890 41587
L50900 41558
" />
<path d="M51080 41482
L51090 41453
L51090 41406
L51080 41387
L51071 41377
L51052 41368
L51033 41368
L51014 41377
L51004 41387
L50995 41406
L50985 41444
L50976 41463
L50966 41472
L50947 41482
L50928 41482
L50909 41472
L50900 41463
L50890 41444
L50890 41396
L50900 41368
" />
</g></g>
<g style="fill:#840000; fill-opacity:0.0; 
stroke:#840000; stroke-width:60.000000; stroke-opacity:1; 
stroke-linecap:round; stroke-linejoin:round;">
<g transform="rotate(-90.000000 50900.000000 40250.000000)">
<text x="50900.000000" y="40250.000000"
textLength="536.181102" font-size="666.653543" lengthAdjust="spacingAndGlyphs"
text-anchor="middle" opacity="0">7</text>
</g>
<g class="stroked-text"><desc>7</desc>
<path d="M50376 40416
L50376 40083
L50876 40297
" />
</g><path d="M52000 42750
L52000 45250
" />
</g>
<g style="fill:#008484; fill-opacity:0.0; 
stroke:#008484; stroke-width:60.000000; stroke-opacity:1; 
stroke-linecap:round; stroke-linejoin:round;">
<g transform="rotate(-90.000000 52000.000000 42700.000000)">
<text x="52000.000000" y="42800.000000"
textLength="736.181102" font-size="266.653543" lengthAdjust="spacingAndGlyphs"
text-anchor="start" opacity="0">GAIN</text>
</g>
<g class="stroked-text"><desc>GAIN</desc>
<path d="M51900 42517
L51890 42536
L51890 42565
L51900 42593
L51919 42612
L51938 42622
L51976 42631
L52004 42631
L52042 42622
L52061 42612
L52080 42593
L52090 42565
L52090 42546
L52080 42517
L52071 42508
L52004 42508
L52004 42546
" />
<path d="M52033 42431
L52033 42336
" />
<path d="M52090 42450
L51890 42384
L52090 42317
" />
<path d="M52090 42250
L51890 42250
" />
<path d="M52090 42155
L51890 42155
L52090 42041
L51890 42041
" />
</g></g>
<g style="fill:#840000; fill-opacity:0.0; 
stroke:#840000; stroke-width:60.000000; stroke-opacity:1; 
stroke-linecap:round; stroke-linejoin:round;">
<g transform="rotate(-90.000000 51900.000000 44000.000000)">
<text x="51900.000000" y="44000.000000"
textLength="536.181102" font-size="666.653543" lengthAdjust="spacingAndGlyphs"
text-anchor="middle" opacity="0">8</text>
</g>
<g class="stroked-text"><desc>8</desc>
<path d="M51590 44047
L51566 44095
L51542 44119
L51495 44142
L51471 44142
L51423 44119
L51400 44095
L51376 44047
L51376 43952
L51400 43904
L51423 43880
L51471 43857
L51495 43857
L51542 43880
L51566 43904
L51590 43952
L51590 44047
L51614 44095
L51638 44119
L51685 44142
L51780 44142
L51828 44119
L51852 44095
L51876 44047
L51876 43952
L51852 43904
L51828 43880
L51780 43857
L51685 43857
L51638 43880
L51614 43904
L51590 43952
" />
</g></g>
<g style="fill:#008484; fill-opacity:0.0; 
stroke:#008484; stroke-width:60.000000; stroke-opacity:1; 
stroke-linecap:round; stroke-linejoin:round;">
<text x="55000.000000" y="40649.960630"
textLength="1060.000000" font-size="666.653543" lengthAdjust="spacingAndGlyphs"
text-anchor="middle" opacity="0">U1</text>
<g class="stroked-text"><desc>U1</desc>
<path d="M54619 40126
L54619 40530
L54642 40578
L54666 40602
L54714 40626
L54809 40626
L54857 40602
L54880 40578
L54904 40530
L54904 40126
" />
<path d="M55404 40626
L55119 40626
" />
<path d="M55261 40626
L55261 40126
L55214 40197
L55166 40245
L55119 40268
" />
</g><text x="55000.000000" y="41649.960630"
textLength="2464.763780" font-size="666.653543" lengthAdjust="spacingAndGlyphs"
text-anchor="middle" opacity="0">LM386</text>
<g class="stroked-text"><desc>LM386</desc>
<path d="M54154 41626
L53916 41626
L53916 41126
" />
<path d="M54321 41626
L54321 41126
L54488 41483
L54654 41126
L54654 41626
" />
<path d="M54845 41126
L55154 41126
L54988 41316
L55059 41316
L55107 41340
L55130 41364
L55154 41411
L55154 41530
L55130 41578
L55107 41602
L55059 41626
L54916 41626
L54869 41602
L54845 41578
" />
<path d="M55440 41340
L55392 41316
L55369 41292
L55345 41245
L55345 41221
L55369 41173
L55392 41149
L55440 41126
L55535 41126
L55583 41149
L55607 41173
L55630 41221
L55630 41245
L55607 41292
L55583 41316
L55535 41340
L55440 41340
L55392 41364
L55369 41388
L55345 41435
L55345 41530
L55369 41578
L55392 41602
L55440 41626
L55535 41626
L55583 41602
L55607 41578
L55630 41530
L55630 41435
L55607 41388
L55583 41364
L55535 41340
" />
<path d="M56059 41126
L55964 41126
L55916 41149
L55892 41173
L55845 41245
L55821 41340
L55821 41530
L55845 41578
L55869 41602
L55916 41626
L56011 41626
L56059 41602
L56083 41578
L56107 41530
L56107 41411
L56083 41364
L56059 41340
L56011 41316
L55916 41316
L55869 41340
L55845 41364
L55821 41411
" />
</g></g>
</g>
<g style="fill:#008484; fill-opacity:0.0; 
stroke:#008484; stroke-width:60.000000; stroke-opacity:1; 
stroke-linecap:round; stroke-linejoin:round;">
<g >
</g>
<g style="fill:#840000; fill-opacity:0.0; 
stroke:#840000; stroke-width:60.000000; stroke-opacity:1; 
stroke-linecap:round; stroke-linejoin:round;">
<path style="fill:#840000; fill-opacity:0.0; 
stroke:#840000; stroke-width:60.000000; stroke-opacity:1; 
stroke-linecap:round; stroke-linejoin:round;fill:none"
d="M 30500.000000,58250.000000
30500.000000,58750.000000
31000.000000,58750.000000
30500.000000,59250.000000
30000.000000,58750.000000
30500.000000,58750.000000
" /> 
</g>
<g style="fill:#008484; fill-opacity:0.0; 
stroke:#008484; stroke-width:60.000000; stroke-opacity:1; 
stroke-linecap:round; stroke-linejoin:round;">
<text x="30500.000000" y="60499.960630"
textLength="1583.818898" font-size="666.653543" lengthAdjust="spacingAndGlyphs"
text-anchor="middle" opacity="0">GND</text>
<g class="stroked-text"><desc>GND</desc>
<path d="M30119 59999
L30071 59976
L30000 59976
L29928 59999
L29880 60047
L29857 60095
L29833 60190
L29833 60261
L29857 60357
L29880 60404
L29928 60452
L30000 60476
L30047 60476
L30119 60452
L30142 60428
L30142 60261
L30047 60261
" />
<path d="M30357 60476
L30357 59976
L30642 60476
L30642 59976
" />
<path d="M30880 60476
L30880 59976
L31000 59976
L31071 59999
L31119 60047
L31142 60095
L31166 60190
L31166 60261
L31142 60357
L31119 60404
L31071 60452
L31000 60476
L30880 60476
" />
</g></g>
</g>
<g style="fill:#008484; fill-opacity:0.0; 
stroke:#008484; stroke-width:60.000000; stroke-opacity:1; 
stroke-linecap:round; stroke-linejoin:round;">
<g >
</g>
<g style="fill:#840000; fill-opacity:0.0; 
stroke:#840000; stroke-width:60.000000; stroke-opacity:1; 
stroke-linecap:round; stroke-linejoin:round;">
<path style="fill:#840000; fill-opacity:0.0; 
stroke:#840000; stroke-width:60.000000; stroke-opacity:1; 
stroke-linecap:round; stroke-linejoin:round;fill:none"
d="M 22950.000000,13500.000000
23250.000000,13000.000000
" /> 
<path style="fill:#840000; fill-opacity:0.0; 
stroke:#840000; stroke-width:60.000000; stroke-opacity:1; 
stroke-linecap:round; stroke-linejoin:round;fill:none"
d="M 23250.000000,14000.000000
23250.000000,13000.000000
" /> 
<path style="fill:#840000; fill-opacity:0.0; 
stroke:#840000; stroke-width:60.000000; stroke-opacity:1; 
stroke-linecap:round; stroke-linejoin:round;fill:none"
d="M 23250.000000,13000.000000
23550.000000,13500.000000
" /> 
</g>
<g style="fill:#008484; fill-opacity:0.0; 
stroke:#008484; stroke-width:60.000000; stroke-opacity:1; 
stroke-linecap:round; stroke-linejoin:round;">
<text x="23250.000000" y="12249.960630"
textLength="1583.818898" font-size="666.653543" lengthAdjust="spacingAndGlyphs"
text-anchor="middle" opacity="0">+5V</text>
<g class="stroked-text"><desc>+5V</desc>
<path d="M22607 12035
L22988 12035
" />
<path d="M22797 12226
L22797 11845
" />
<path d="M23464 11726
L23226 11726
L23202 11964
L23226 11940
L23273 11916
L23392 11916
L23440 11940
L23464 11964
L23488 12011
L23488 12130
L23464 12178
L23440 12202
L23392 12226
L23273 12226
L23226 12202
L23202 12178
" />
<path d="M23630 11726
L23797 12226
L23964 11726
" />
</g></g>
</g>
<g style="fill:#008484; fill-opacity:0.0; 
stroke:#008484; stroke-width:60.000000; stroke-opacity:1; 
stroke-linecap:round; stroke-linejoin:round;">
<g >
</g>
<g style="fill:#840000; fill-opacity:0.0; 
stroke:#840000; stroke-width:60.000000; stroke-opacity:1; 
stroke-linecap:round; stroke-linejoin:round;">
</g>
<g style="fill:#840000; fill-opacity:0.0; 
stroke:#840000; stroke-width:200.000000; stroke-opacity:1; 
stroke-linecap:round; stroke-linejoin:round;">
<path style="fill:#840000; fill-opacity:0.0; 
stroke:#840000; stroke-width:200.000000; stroke-opacity:1; 
stroke-linecap:round; stroke-linejoin:round;fill:none"
d="M 55050.000000,48050.000000
55050.000000,46450.000000
" /> 
<path style="fill:#840000; fill-opacity:0.0; 
stroke:#840000; stroke-width:200.000000; stroke-opacity:1; 
stroke-linecap:round; stroke-linejoin:round;fill:none"
d="M 54450.000000,48050.000000
54450.000000,46450.000000
" /> 
</g>
<g style="fill:#840000; fill-opacity:0.0; 
stroke:#840000; stroke-width:60.000000; stroke-opacity:1; 
stroke-linecap:round; stroke-linejoin:round;">
<path d="M54350 47250
L53250 47250
" />
<path d="M55150 47250
L56250 47250
" />
</g>
<g style="fill:#008484; fill-opacity:0.0; 
stroke:#008484; stroke-width:60.000000; stroke-opacity:1; 
stroke-linecap:round; stroke-linejoin:round;">
<text x="54749.960630" y="44500.000000"
textLength="1036.181102" font-size="666.653543" lengthAdjust="spacingAndGlyphs"
text-anchor="middle" opacity="0">C1</text>
<g class="stroked-text"><desc>C1</desc>
<path d="M54666 44428
L54642 44452
L54571 44476
L54523 44476
L54452 44452
L54404 44404
L54380 44357
L54357 44261
L54357 44190
L54380 44095
L54404 44047
L54452 44000
L54523 43976
L54571 43976
L54642 44000
L54666 44023
" />
<path d="M55142 44476
L54857 44476
" />
<path d="M54999 44476
L54999 43976
L54952 44047
L54904 44095
L54857 44119
" />
</g><text x="54749.960630" y="45500.000000"
textLength="1893.346457" font-size="666.653543" lengthAdjust="spacingAndGlyphs"
text-anchor="middle" opacity="0">10uF</text>
<g class="stroked-text"><desc>10uF</desc>
<path d="M54214 45476
L53928 45476
" />
<path d="M54071 45476
L54071 44976
L54023 45047
L53976 45095
L53928 45119
" />
<path d="M54523 44976
L54571 44976
L54618 45000
L54642 45023
L54666 45071
L54690 45166
L54690 45285
L54666 45380
L54642 45428
L54618 45452
L54571 45476
L54523 45476
L54476 45452
L54452 45428
L54428 45380
L54404 45285
L54404 45166
L54428 45071
L54452 45023
L54476 45000
L54523 44976
" />
<path d="M55118 45142
L55118 45476
" />
<path d="M54904 45142
L54904 45404
L54928 45452
L54976 45476
L55047 45476
L55095 45452
L55118 45428
" />
<path d="M55523 45214
L55357 45214
" />
<path d="M55357 45476
L55357 44976
L55595 44976
" />
</g></g>
</g>
<g style="fill:#008484; fill-opacity:0.0; 
stroke:#008484; stroke-width:60.000000; stroke-opacity:1; 
stroke-linecap:round; stroke-linejoin:round;">
<g >
</g>
<g style="fill:#840000; fill-opacity:0.0; 
stroke:#840000; stroke-width:60.000000; stroke-opacity:1; 
stroke-linecap:round; stroke-linejoin:round;">
<path style="fill:#840000; fill-opacity:0.0; 
stroke:#840000; stroke-width:60.000000; stroke-opacity:1; 
stroke-linecap:round; stroke-linejoin:round;fill:none"
d="M 23250.000000,17750.000000
23250.000000,18250.000000
23750.000000,18250.000000
23250.000000,18750.000000
22750.000000,18250.000000
23250.000000,18250.000000
" /> 
</g>
<g style="fill:#008484; fill-opacity:0.0; 
stroke:#008484; stroke-width:60.000000; stroke-opacity:1; 
stroke-linecap:round; stroke-linejoin:round;">
<text x="23250.000000" y="19749.960630"
textLength="1583.818898" font-size="666.653543" lengthAdjust="spacingAndGlyphs"
text-anchor="middle" opacity="0">GND</text>
<g class="stroked-text"><desc>GND</desc>
<path d="M22869 19249
L22821 19226
L22750 19226
L22678 19249
L22630 19297
L22607 19345
L22583 19440
L22583 19511
L22607 19607
L22630 19654
L22678 19702
L22750 19726
L22797 19726
L22869 19702
L22892 19678
L22892 19511
L22797 19511
" />
<path d="M23107 19726
L23107 19226
L23392 19726
L23392 19226
" />
<path d="M23630 19726
L23630 19226
L23750 19226
L23821 19249
L23869 19297
L23892 19345
L23916 19440
L23916 19511
L23892 19607
L23869 19654
L23821 19702
L23750 19726
L23630 19726
" />
</g></g>
</g>
<g style="fill:#008484; fill-opacity:0.0; 
stroke:#008484; stroke-width:60.000000; stroke-opacity:1; 
stroke-linecap:round; stroke-linejoin:round;">
<g >
</g>
<g style="fill:#840000; fill-opacity:0.0; 
stroke:#840000; stroke-width:60.000000; stroke-opacity:1; 
stroke-linecap:round; stroke-linejoin:round;">
</g>
<g style="fill:#FFFFC2; fill-opacity:0.0; 
stroke:#FFFFC2; stroke-width:60.000000; stroke-opacity:1; 
stroke-linecap:round; stroke-linejoin:round;">
</g>
<g style="fill:#FFFFC2; fill-opacity:0.6; 
stroke:#FFFFC2; stroke-width:0.039370; stroke-opacity:1; 
stroke-linecap:round; stroke-linejoin:round;">
<rect x="18000.000000" y="14750.000000" width="1000.000000" height="2000.000000" rx="0.000000" />
</g>
<g style="fill:#840000; fill-opacity:0.6; 
stroke:#840000; stroke-width:0.039370; stroke-opacity:1; 
stroke-linecap:round; stroke-linejoin:round;">
</g>
<g style="fill:#840000; fill-opacity:0.0; 
stroke:#840000; stroke-width:100.000000; stroke-opacity:1; 
stroke-linecap:round; stroke-linejoin:round;">
<rect x="18000.000000" y="14750.000000" width="1000.000000" height="2000.000000" rx="0.000000" />
</g>
<g style="fill:#840000; fill-opacity:0.0; 
stroke:#840000; stroke-width:60.000000; stroke-opacity:1; 
stroke-linecap:round; stroke-linejoin:round;">
<rect x="18500.000000" y="16200.000000" width="500.000000" height="100.000000" rx="0.000000" />
<rect x="18500.000000" y="15200.000000" width="500.000000" height="100.000000" rx="0.000000" />
</g>
<g style="fill:#840000; fill-opacity:0.0; 
stroke:#840000; stroke-width:100.000000; stroke-opacity:1; 
stroke-linecap:round; stroke-linejoin:round;">
<rect x="18000.000000" y="14750.000000" width="1000.000000" height="2000.000000" rx="0.000000" />
</g>
<g style="fill:#840000; fill-opacity:0.0; 
stroke:#840000; stroke-width:60.000000; stroke-opacity:1; 
stroke-linecap:round; stroke-linejoin:round;">
<path d="M19000 15250
L20500 15250
" />
<text x="19750.000000" y="15150.000000"
textLength="536.181102" font-size="666.653543" lengthAdjust="spacingAndGlyphs"
text-anchor="middle" opacity="0">1</text>
<g class="stroked-text"><desc>1</desc>
<path d="M19892 15126
L19607 15126
" />
<path d="M19750 15126
L19750 14626
L19702 14697
L19654 14745
L19607 14769
" />
</g><path d="M19000 16250
L20500 16250
" />
<text x="19750.000000" y="16150.000000"
textLength="536.181102" font-size="666.653543" lengthAdjust="spacingAndGlyphs"
text-anchor="middle" opacity="0">2</text>
<g class="stroked-text"><desc>2</desc>
<path d="M19607 15673
L19630 15650
L19678 15626
L19797 15626
L19845 15650
L19869 15673
L19892 15721
L19892 15769
L19869 15840
L19583 16126
L19892 16126
" />
</g></g>
<g style="fill:#008484; fill-opacity:0.0; 
stroke:#008484; stroke-width:60.000000; stroke-opacity:1; 
stroke-linecap:round; stroke-linejoin:round;">
<text x="18499.960630" y="12749.960630"
textLength="917.125984" font-size="666.653543" lengthAdjust="spacingAndGlyphs"
text-anchor="middle" opacity="0">J1</text>
<g class="stroked-text"><desc>J1</desc>
<path d="M18333 12226
L18333 12583
L18309 12654
L18261 12702
L18190 12726
L18142 12726
" />
<path d="M18833 12726
L18547 12726
" />
<path d="M18690 12726
L18690 12226
L18642 12297
L18595 12345
L18547 12368
" />
</g><text x="18500.000000" y="13749.960630"
textLength="4607.637795" font-size="666.653543" lengthAdjust="spacingAndGlyphs"
text-anchor="middle" opacity="0">Conn_01x02</text>
<g class="stroked-text"><desc>Conn_01x02</desc>
<path d="M16630 13678
L16607 13702
L16535 13726
L16488 13726
L16416 13702
L16369 13654
L16345 13607
L16321 13511
L16321 13440
L16345 13345
L16369 13297
L16416 13249
L16488 13226
L16535 13226
L16607 13249
L16630 13273
" />
<path d="M16916 13726
L16869 13702
L16845 13678
L16821 13630
L16821 13488
L16845 13440
L16869 13416
L16916 13392
L16988 13392
L17035 13416
L17059 13440
L17083 13488
L17083 13630
L17059 13678
L17035 13702
L16988 13726
L16916 13726
" />
<path d="M17297 13392
L17297 13726
" />
<path d="M17297 13440
L17321 13416
L17369 13392
L17440 13392
L17488 13416
L17511 13464
L17511 13726
" />
<path d="M17750 13392
L17750 13726
" />
<path d="M17750 13440
L17773 13416
L17821 13392
L17892 13392
L17940 13416
L17964 13464
L17964 13726
" />
<path d="M18083 13773
L18464 13773
" />
<path d="M18678 13226
L18726 13226
L18773 13249
L18797 13273
L18821 13321
L18845 13416
L18845 13535
L18821 13630
L18797 13678
L18773 13702
L18726 13726
L18678 13726
L18630 13702
L18607 13678
L18583 13630
L18559 13535
L18559 13416
L18583 13321
L18607 13273
L18630 13249
L18678 13226
" />
<path d="M19321 13726
L19035 13726
" />
<path d="M19178 13726
L19178 13226
L19130 13297
L19083 13345
L19035 13368
" />
<path d="M19488 13726
L19750 13392
" />
<path d="M19488 13392
L19750 13726
" />
<path d="M20035 13226
L20083 13226
L20130 13249
L20154 13273
L20178 13321
L20202 13416
L20202 13535
L20178 13630
L20154 13678
L20130 13702
L20083 13726
L20035 13726
L19988 13702
L19964 13678
L19940 13630
L19916 13535
L19916 13416
L19940 13321
L19964 13273
L19988 13249
L20035 13226
" />
<path d="M20392 13273
L20416 13249
L20464 13226
L20583 13226
L20630 13249
L20654 13273
L20678 13321
L20678 13368
L20654 13440
L20369 13726
L20678 13726
" />
</g></g>
</g>
<g style="fill:#008484; fill-opacity:0.0; 
stroke:#008484; stroke-width:60.000000; stroke-opacity:1; 
stroke-linecap:round; stroke-linejoin:round;">
<g >
</g>
<g style="fill:#840000; fill-opacity:0.0; 
stroke:#840000; stroke-width:60.000000; stroke-opacity:1; 
stroke-linecap:round; stroke-linejoin:round;">
</g>
<g style="fill:#840000; fill-opacity:0.0; 
stroke:#840000; stroke-width:200.000000; stroke-opacity:1; 
stroke-linecap:round; stroke-linejoin:round;">
<path style="fill:#840000; fill-opacity:0.0; 
stroke:#840000; stroke-width:200.000000; stroke-opacity:1; 
stroke-linecap:round; stroke-linejoin:round;fill:none"
d="M 66300.000000,51200.000000
64700.000000,51200.000000
" /> 
<path style="fill:#840000; fill-opacity:0.0; 
stroke:#840000; stroke-width:200.000000; stroke-opacity:1; 
stroke-linecap:round; stroke-linejoin:round;fill:none"
d="M 66300.000000,51800.000000
64700.000000,51800.000000
" /> 
</g>
<g style="fill:#840000; fill-opacity:0.0; 
stroke:#840000; stroke-width:60.000000; stroke-opacity:1; 
stroke-linecap:round; stroke-linejoin:round;">
<path d="M65500 51900
L65500 53000
" />
<path d="M65500 51100
L65500 50000
" />
</g>
<g style="fill:#008484; fill-opacity:0.0; 
stroke:#008484; stroke-width:60.000000; stroke-opacity:1; 
stroke-linecap:round; stroke-linejoin:round;">
<text x="67269.330709" y="51249.960630"
textLength="1036.181102" font-size="666.653543" lengthAdjust="spacingAndGlyphs"
text-anchor="middle" opacity="0">C3</text>
<g class="stroked-text"><desc>C3</desc>
<path d="M67185 51178
L67162 51202
L67090 51226
L67043 51226
L66971 51202
L66924 51154
L66900 51107
L66876 51011
L66876 50940
L66900 50845
L66924 50797
L66971 50749
L67043 50726
L67090 50726
L67162 50749
L67185 50773
" />
<path d="M67352 50726
L67662 50726
L67495 50916
L67566 50916
L67614 50940
L67638 50964
L67662 51011
L67662 51130
L67638 51178
L67614 51202
L67566 51226
L67424 51226
L67376 51202
L67352 51178
" />
</g><text x="67697.913386" y="52249.960630"
textLength="1893.346457" font-size="666.653543" lengthAdjust="spacingAndGlyphs"
text-anchor="middle" opacity="0">47nF</text>
<g class="stroked-text"><desc>47nF</desc>
<path d="M67114 51892
L67114 52226
" />
<path d="M66995 51702
L66876 52059
L67185 52059
" />
<path d="M67328 51726
L67662 51726
L67447 52226
" />
<path d="M67852 51892
L67852 52226
" />
<path d="M67852 51940
L67876 51916
L67924 51892
L67995 51892
L68043 51916
L68066 51964
L68066 52226
" />
<path d="M68471 51964
L68305 51964
" />
<path d="M68305 52226
L68305 51726
L68543 51726
" />
</g></g>
</g>
<g style="fill:#008484; fill-opacity:0.0; 
stroke:#008484; stroke-width:60.000000; stroke-opacity:1; 
stroke-linecap:round; stroke-linejoin:round;">
<g >
</g>
<g style="fill:#840000; fill-opacity:0.0; 
stroke:#840000; stroke-width:60.000000; stroke-opacity:1; 
stroke-linecap:round; stroke-linejoin:round;">
</g>
<g style="fill:#840000; fill-opacity:0.0; 
stroke:#840000; stroke-width:200.000000; stroke-opacity:1; 
stroke-linecap:round; stroke-linejoin:round;">
<path style="fill:#840000; fill-opacity:0.0; 
stroke:#840000; stroke-width:200.000000; stroke-opacity:1; 
stroke-linecap:round; stroke-linejoin:round;fill:none"
d="M 69300.000000,43050.000000
69300.000000,41450.000000
" /> 
<path style="fill:#840000; fill-opacity:0.0; 
stroke:#840000; stroke-width:200.000000; stroke-opacity:1; 
stroke-linecap:round; stroke-linejoin:round;fill:none"
d="M 68700.000000,43050.000000
68700.000000,41450.000000
" /> 
</g>
<g style="fill:#840000; fill-opacity:0.0; 
stroke:#840000; stroke-width:60.000000; stroke-opacity:1; 
stroke-linecap:round; stroke-linejoin:round;">
<path d="M68600 42250
L67500 42250
" />
<path d="M69400 42250
L70500 42250
" />
</g>
<g style="fill:#008484; fill-opacity:0.0; 
stroke:#008484; stroke-width:60.000000; stroke-opacity:1; 
stroke-linecap:round; stroke-linejoin:round;">
<text x="68999.960630" y="39750.000000"
textLength="1036.181102" font-size="666.653543" lengthAdjust="spacingAndGlyphs"
text-anchor="middle" opacity="0">C4</text>
<g class="stroked-text"><desc>C4</desc>
<path d="M68916 39678
L68892 39702
L68821 39726
L68773 39726
L68702 39702
L68654 39654
L68630 39607
L68607 39511
L68607 39440
L68630 39345
L68654 39297
L68702 39250
L68773 39226
L68821 39226
L68892 39250
L68916 39273
" />
<path d="M69345 39392
L69345 39726
" />
<path d="M69226 39202
L69107 39559
L69416 39559
" />
</g><text x="69000.000000" y="40750.000000"
textLength="2369.527559" font-size="666.653543" lengthAdjust="spacingAndGlyphs"
text-anchor="middle" opacity="0">220uF</text>
<g class="stroked-text"><desc>220uF</desc>
<path d="M67940 40273
L67964 40250
L68011 40226
L68130 40226
L68178 40250
L68202 40273
L68226 40321
L68226 40369
L68202 40440
L67916 40726
L68226 40726
" />
<path d="M68416 40273
L68440 40250
L68488 40226
L68607 40226
L68654 40250
L68678 40273
L68702 40321
L68702 40369
L68678 40440
L68392 40726
L68702 40726
" />
<path d="M69011 40226
L69059 40226
L69107 40250
L69130 40273
L69154 40321
L69178 40416
L69178 40535
L69154 40630
L69130 40678
L69107 40702
L69059 40726
L69011 40726
L68964 40702
L68940 40678
L68916 40630
L68892 40535
L68892 40416
L68916 40321
L68940 40273
L68964 40250
L69011 40226
" />
<path d="M69607 40392
L69607 40726
" />
<path d="M69392 40392
L69392 40654
L69416 40702
L69464 40726
L69535 40726
L69583 40702
L69607 40678
" />
<path d="M70011 40464
L69845 40464
" />
<path d="M69845 40726
L69845 40226
L70083 40226
" />
</g></g>
</g>
<g style="fill:#008484; fill-opacity:0.0; 
stroke:#008484; stroke-width:60.000000; stroke-opacity:1; 
stroke-linecap:round; stroke-linejoin:round;">
<g >
</g>
<g style="fill:#840000; fill-opacity:0.0; 
stroke:#840000; stroke-width:60.000000; stroke-opacity:1; 
stroke-linecap:round; stroke-linejoin:round;">
</g>
<g style="fill:#840000; fill-opacity:0.0; 
stroke:#840000; stroke-width:100.000000; stroke-opacity:1; 
stroke-linecap:round; stroke-linejoin:round;">
<rect x="65100.000000" y="54250.000000" width="800.000000" height="2000.000000" rx="0.000000" />
</g>
<g style="fill:#840000; fill-opacity:0.0; 
stroke:#840000; stroke-width:60.000000; stroke-opacity:1; 
stroke-linecap:round; stroke-linejoin:round;">
<path d="M65500 54250
L65500 53750
" />
<path d="M65500 56250
L65500 56750
" />
</g>
<g style="fill:#008484; fill-opacity:0.0; 
stroke:#008484; stroke-width:60.000000; stroke-opacity:1; 
stroke-linecap:round; stroke-linejoin:round;">
<text x="66769.330709" y="54999.921260"
textLength="1036.181102" font-size="666.653543" lengthAdjust="spacingAndGlyphs"
text-anchor="middle" opacity="0">R1</text>
<g class="stroked-text"><desc>R1</desc>
<path d="M66685 54976
L66519 54737
" />
<path d="M66400 54976
L66400 54476
L66590 54476
L66638 54499
L66662 54523
L66685 54571
L66685 54642
L66662 54690
L66638 54714
L66590 54737
L66400 54737
" />
<path d="M67162 54976
L66876 54976
" />
<path d="M67019 54976
L67019 54476
L66971 54547
L66924 54595
L66876 54618
" />
</g><text x="67007.440945" y="55999.921260"
textLength="1512.362205" font-size="666.653543" lengthAdjust="spacingAndGlyphs"
text-anchor="middle" opacity="0">10R</text>
<g class="stroked-text"><desc>10R</desc>
<path d="M66662 55976
L66376 55976
" />
<path d="M66519 55976
L66519 55476
L66471 55547
L66424 55595
L66376 55618
" />
<path d="M66971 55476
L67019 55476
L67066 55499
L67090 55523
L67114 55571
L67138 55666
L67138 55785
L67114 55880
L67090 55928
L67066 55952
L67019 55976
L66971 55976
L66924 55952
L66900 55928
L66876 55880
L66852 55785
L66852 55666
L66876 55571
L66900 55523
L66924 55499
L66971 55476
" />
<path d="M67638 55976
L67471 55737
" />
<path d="M67352 55976
L67352 55476
L67543 55476
L67590 55499
L67614 55523
L67638 55571
L67638 55642
L67614 55690
L67590 55714
L67543 55737
L67352 55737
" />
</g></g>
</g>
<g style="fill:#008484; fill-opacity:0.0; 
stroke:#008484; stroke-width:60.000000; stroke-opacity:1; 
stroke-linecap:round; stroke-linejoin:round;">
<g >
</g>
<g style="fill:#840000; fill-opacity:0.0; 
stroke:#840000; stroke-width:60.000000; stroke-opacity:1; 
stroke-linecap:round; stroke-linejoin:round;">
<path style="fill:#840000; fill-opacity:0.0; 
stroke:#840000; stroke-width:60.000000; stroke-opacity:1; 
stroke-linecap:round; stroke-linejoin:round;fill:none"
d="M 50000.000000,58250.000000
50000.000000,58750.000000
50500.000000,58750.000000
50000.000000,59250.000000
49500.000000,58750.000000
50000.000000,58750.000000
" /> 
</g>
<g style="fill:#008484; fill-opacity:0.0; 
stroke:#008484; stroke-width:60.000000; stroke-opacity:1; 
stroke-linecap:round; stroke-linejoin:round;">
<text x="50000.000000" y="60499.960630"
textLength="1583.818898" font-size="666.653543" lengthAdjust="spacingAndGlyphs"
text-anchor="middle" opacity="0">GND</text>
<g class="stroked-text"><desc>GND</desc>
<path d="M49619 59999
L49571 59976
L49500 59976
L49428 59999
L49380 60047
L49357 60095
L49333 60190
L49333 60261
L49357 60357
L49380 60404
L49428 60452
L49500 60476
L49547 60476
L49619 60452
L49642 60428
L49642 60261
L49547 60261
" />
<path d="M49857 60476
L49857 59976
L50142 60476
L50142 59976
" />
<path d="M50380 60476
L50380 59976
L50500 59976
L50571 59999
L50619 60047
L50642 60095
L50666 60190
L50666 60261
L50642 60357
L50619 60404
L50571 60452
L50500 60476
L50380 60476
" />
</g></g>
</g>
<g style="fill:#008484; fill-opacity:0.0; 
stroke:#008484; stroke-width:60.000000; stroke-opacity:1; 
stroke-linecap:round; stroke-linejoin:round;">
<g >
</g>
<g style="fill:#840000; fill-opacity:0.0; 
stroke:#840000; stroke-width:60.000000; stroke-opacity:1; 
stroke-linecap:round; stroke-linejoin:round;">
<path style="fill:#840000; fill-opacity:0.0; 
stroke:#840000; stroke-width:60.000000; stroke-opacity:1; 
stroke-linecap:round; stroke-linejoin:round;fill:none"
d="M 50000.000000,57250.000000
49500.000000,57250.000000
49250.000000,57650.000000
49000.000000,57250.000000
49250.000000,56850.000000
49500.000000,57250.000000
" /> 
<path d="M50000 57250
L50000 57250
" />
</g>
</g>
<g style="fill:#840000; fill-opacity:0.0; 
stroke:#840000; stroke-width:60.000000; stroke-opacity:1; 
stroke-linecap:round; stroke-linejoin:round;">
<g >
<path style="fill:#840000; fill-opacity:0.0; 
stroke:#840000; stroke-width:60.000000; stroke-opacity:1; 
stroke-linecap:round; stroke-linejoin:round;fill:none"
d="M 50000.000000,27000.000000
49500.000000,27000.000000
49250.000000,27400.000000
49000.000000,27000.000000
49250.000000,26600.000000
49500.000000,27000.000000
" /> 
<path d="M50000 27000
L50000 27000
" />
</g>
</g>
<g style="fill:#840000; fill-opacity:0.0; 
stroke:#840000; stroke-width:60.000000; stroke-opacity:1; 
stroke-linecap:round; stroke-linejoin:round;">
<g >
<path style="fill:#840000; fill-opacity:0.0; 
stroke:#840000; stroke-width:60.000000; stroke-opacity:1; 
stroke-linecap:round; stroke-linejoin:round;fill:none"
d="M 65500.000000,58000.000000
65500.000000,58500.000000
66000.000000,58500.000000
65500.000000,59000.000000
65000.000000,58500.000000
65500.000000,58500.000000
" /> 
</g>
<g style="fill:#008484; fill-opacity:0.0; 
stroke:#008484; stroke-width:60.000000; stroke-opacity:1; 
stroke-linecap:round; stroke-linejoin:round;">
<text x="65500.000000" y="59999.960630"
textLength="1583.818898" font-size="666.653543" lengthAdjust="spacingAndGlyphs"
text-anchor="middle" opacity="0">GND</text>
<g class="stroked-text"><desc>GND</desc>
<path d="M65119 59499
L65071 59476
L65000 59476
L64928 59499
L64880 59547
L64857 59595
L64833 59690
L64833 59761
L64857 59857
L64880 59904
L64928 59952
L65000 59976
L65047 59976
L65119 59952
L65142 59928
L65142 59761
L65047 59761
" />
<path d="M65357 59976
L65357 59476
L65642 59976
L65642 59476
" />
<path d="M65880 59976
L65880 59476
L66000 59476
L66071 59499
L66119 59547
L66142 59595
L66166 59690
L66166 59761
L66142 59857
L66119 59904
L66071 59952
L66000 59976
L65880 59976
" />
</g></g>
</g>
<g style="fill:#008484; fill-opacity:0.0; 
stroke:#008484; stroke-width:60.000000; stroke-opacity:1; 
stroke-linecap:round; stroke-linejoin:round;">
<g >
</g>
<g style="fill:#840000; fill-opacity:0.0; 
stroke:#840000; stroke-width:60.000000; stroke-opacity:1; 
stroke-linecap:round; stroke-linejoin:round;">
<path style="fill:#840000; fill-opacity:0.0; 
stroke:#840000; stroke-width:60.000000; stroke-opacity:1; 
stroke-linecap:round; stroke-linejoin:round;fill:none"
d="M 49700.000000,25750.000000
50000.000000,25250.000000
" /> 
<path style="fill:#840000; fill-opacity:0.0; 
stroke:#840000; stroke-width:60.000000; stroke-opacity:1; 
stroke-linecap:round; stroke-linejoin:round;fill:none"
d="M 50000.000000,26250.000000
50000.000000,25250.000000
" /> 
<path style="fill:#840000; fill-opacity:0.0; 
stroke:#840000; stroke-width:60.000000; stroke-opacity:1; 
stroke-linecap:round; stroke-linejoin:round;fill:none"
d="M 50000.000000,25250.000000
50300.000000,25750.000000
" /> 
</g>
<g style="fill:#008484; fill-opacity:0.0; 
stroke:#008484; stroke-width:60.000000; stroke-opacity:1; 
stroke-linecap:round; stroke-linejoin:round;">
<text x="50000.000000" y="24249.960630"
textLength="1583.818898" font-size="666.653543" lengthAdjust="spacingAndGlyphs"
text-anchor="middle" opacity="0">+5V</text>
<g class="stroked-text"><desc>+5V</desc>
<path d="M49357 24035
L49738 24035
" />
<path d="M49547 24226
L49547 23845
" />
<path d="M50214 23726
L49976 23726
L49952 23964
L49976 23940
L50023 23916
L50142 23916
L50190 23940
L50214 23964
L50238 24011
L50238 24130
L50214 24178
L50190 24202
L50142 24226
L50023 24226
L49976 24202
L49952 24178
" />
<path d="M50380 23726
L50547 24226
L50714 23726
" />
</g></g>
</g>
<g style="fill:#008484; fill-opacity:0.0; 
stroke:#008484; stroke-width:60.000000; stroke-opacity:1; 
stroke-linecap:round; stroke-linejoin:round;">
<g >
</g>
<g style="fill:#840000; fill-opacity:0.0; 
stroke:#840000; stroke-width:60.000000; stroke-opacity:1; 
stroke-linecap:round; stroke-linejoin:round;">
</g>
<g style="fill:#840000; fill-opacity:0.0; 
stroke:#840000; stroke-width:200.000000; stroke-opacity:1; 
stroke-linecap:round; stroke-linejoin:round;">
<path style="fill:#840000; fill-opacity:0.0; 
stroke:#840000; stroke-width:200.000000; stroke-opacity:1; 
stroke-linecap:round; stroke-linejoin:round;fill:none"
d="M 36300.000000,41950.000000
34700.000000,41950.000000
" /> 
<path style="fill:#840000; fill-opacity:0.0; 
stroke:#840000; stroke-width:200.000000; stroke-opacity:1; 
stroke-linecap:round; stroke-linejoin:round;fill:none"
d="M 36300.000000,42550.000000
34700.000000,42550.000000
" /> 
</g>
<g style="fill:#840000; fill-opacity:0.0; 
stroke:#840000; stroke-width:60.000000; stroke-opacity:1; 
stroke-linecap:round; stroke-linejoin:round;">
<path d="M35500 42650
L35500 43750
" />
<path d="M35500 41850
L35500 40750
" />
</g>
<g style="fill:#008484; fill-opacity:0.0; 
stroke:#008484; stroke-width:60.000000; stroke-opacity:1; 
stroke-linecap:round; stroke-linejoin:round;">
<text x="37269.330709" y="41999.960630"
textLength="1036.181102" font-size="666.653543" lengthAdjust="spacingAndGlyphs"
text-anchor="middle" opacity="0">C5</text>
<g class="stroked-text"><desc>C5</desc>
<path d="M37185 41928
L37162 41952
L37090 41976
L37043 41976
L36971 41952
L36924 41904
L36900 41857
L36876 41761
L36876 41690
L36900 41595
L36924 41547
L36971 41499
L37043 41476
L37090 41476
L37162 41499
L37185 41523
" />
<path d="M37638 41476
L37400 41476
L37376 41714
L37400 41690
L37447 41666
L37566 41666
L37614 41690
L37638 41714
L37662 41761
L37662 41880
L37638 41928
L37614 41952
L37566 41976
L37447 41976
L37400 41952
L37376 41928
" />
</g><text x="37459.803150" y="42999.960630"
textLength="1417.125984" font-size="666.653543" lengthAdjust="spacingAndGlyphs"
text-anchor="middle" opacity="0">1nF</text>
<g class="stroked-text"><desc>1nF</desc>
<path d="M37162 42976
L36876 42976
" />
<path d="M37019 42976
L37019 42476
L36971 42547
L36924 42595
L36876 42618
" />
<path d="M37376 42642
L37376 42976
" />
<path d="M37376 42690
L37400 42666
L37447 42642
L37519 42642
L37566 42666
L37590 42714
L37590 42976
" />
<path d="M37995 42714
L37828 42714
" />
<path d="M37828 42976
L37828 42476
L38066 42476
" />
</g></g>
</g>
<g style="fill:#008484; fill-opacity:0.0; 
stroke:#008484; stroke-width:60.000000; stroke-opacity:1; 
stroke-linecap:round; stroke-linejoin:round;">
<g >
</g>
<g style="fill:#840000; fill-opacity:0.0; 
stroke:#840000; stroke-width:60.000000; stroke-opacity:1; 
stroke-linecap:round; stroke-linejoin:round;">
<path d="M80252.181660 44499.998096 A1250.000000 1250.000000 0.0 0 0 80252.181660 42000.001904" />
<path style="fill:#840000; fill-opacity:0.0; 
stroke:#840000; stroke-width:60.000000; stroke-opacity:1; 
stroke-linecap:round; stroke-linejoin:round;fill:none"
d="M 79600.000000,42500.000000
79800.000000,42500.000000
" /> 
<path style="fill:#840000; fill-opacity:0.0; 
stroke:#840000; stroke-width:60.000000; stroke-opacity:1; 
stroke-linecap:round; stroke-linejoin:round;fill:none"
d="M 79700.000000,42400.000000
79700.000000,42600.000000
" /> 
<path style="fill:#840000; fill-opacity:0.0; 
stroke:#840000; stroke-width:60.000000; stroke-opacity:1; 
stroke-linecap:round; stroke-linejoin:round;fill:none"
d="M 80250.000000,42000.000000
80250.000000,44500.000000
" /> 
<path d="M80250 42250
L79250 42250
" />
<text x="79750.000000" y="42150.000000"
textLength="536.181102" font-size="666.653543" lengthAdjust="spacingAndGlyphs"
text-anchor="middle" opacity="0">1</text>
<g class="stroked-text"><desc>1</desc>
<path d="M79892 42126
L79607 42126
" />
<path d="M79750 42126
L79750 41626
L79702 41697
L79654 41745
L79607 41769
" />
</g><path d="M80250 44250
L79250 44250
" />
<text x="79750.000000" y="44150.000000"
textLength="536.181102" font-size="666.653543" lengthAdjust="spacingAndGlyphs"
text-anchor="middle" opacity="0">2</text>
<g class="stroked-text"><desc>2</desc>
<path d="M79607 43673
L79630 43650
L79678 43626
L79797 43626
L79845 43650
L79869 43673
L79892 43721
L79892 43769
L79869 43840
L79583 44126
L79892 44126
" />
</g></g>
<g style="fill:#008484; fill-opacity:0.0; 
stroke:#008484; stroke-width:60.000000; stroke-opacity:1; 
stroke-linecap:round; stroke-linejoin:round;">
<text x="82757.440945" y="42999.921260"
textLength="1512.362205" font-size="666.653543" lengthAdjust="spacingAndGlyphs"
text-anchor="middle" opacity="0">BZ2</text>
<g class="stroked-text"><desc>BZ2</desc>
<path d="M82316 42714
L82388 42737
L82412 42761
L82435 42809
L82435 42880
L82412 42928
L82388 42952
L82340 42976
L82150 42976
L82150 42476
L82316 42476
L82364 42499
L82388 42523
L82412 42571
L82412 42618
L82388 42666
L82364 42690
L82316 42714
L82150 42714
" />
<path d="M82602 42476
L82935 42476
L82602 42976
L82935 42976
" />
<path d="M83102 42523
L83126 42499
L83174 42476
L83293 42476
L83340 42499
L83364 42523
L83388 42571
L83388 42618
L83364 42690
L83078 42976
L83388 42976
" />
</g><text x="83281.259843" y="43999.921260"
textLength="2560.000000" font-size="666.653543" lengthAdjust="spacingAndGlyphs"
text-anchor="middle" opacity="0">Buzzer</text>
<g class="stroked-text"><desc>Buzzer</desc>
<path d="M82316 43714
L82388 43737
L82412 43761
L82435 43809
L82435 43880
L82412 43928
L82388 43952
L82340 43976
L82150 43976
L82150 43476
L82316 43476
L82364 43499
L82388 43523
L82412 43571
L82412 43618
L82388 43666
L82364 43690
L82316 43714
L82150 43714
" />
<path d="M82864 43642
L82864 43976
" />
<path d="M82650 43642
L82650 43904
L82674 43952
L82721 43976
L82793 43976
L82840 43952
L82864 43928
" />
<path d="M83055 43642
L83316 43642
L83055 43976
L83316 43976
" />
<path d="M83459 43642
L83721 43642
L83459 43976
L83721 43976
" />
<path d="M84102 43952
L84055 43976
L83959 43976
L83912 43952
L83888 43904
L83888 43714
L83912 43666
L83959 43642
L84055 43642
L84102 43666
L84126 43714
L84126 43761
L83888 43809
" />
<path d="M84340 43976
L84340 43642
" />
<path d="M84340 43737
L84364 43690
L84388 43666
L84435 43642
L84483 43642
" />
</g></g>
</g>
<g style="fill:#008484; fill-opacity:0.0; 
stroke:#008484; stroke-width:60.000000; stroke-opacity:1; 
stroke-linecap:round; stroke-linejoin:round;">
<g >
</g>
<g style="fill:#840000; fill-opacity:0.0; 
stroke:#840000; stroke-width:60.000000; stroke-opacity:1; 
stroke-linecap:round; stroke-linejoin:round;">
<path d="M28747.818340 41000.001904 A1250.000000 1250.000000 0.0 0 0 28747.818340 43499.998096" />
<path style="fill:#840000; fill-opacity:0.0; 
stroke:#840000; stroke-width:60.000000; stroke-opacity:1; 
stroke-linecap:round; stroke-linejoin:round;fill:none"
d="M 29400.000000,41500.000000
29200.000000,41500.000000
" /> 
<path style="fill:#840000; fill-opacity:0.0; 
stroke:#840000; stroke-width:60.000000; stroke-opacity:1; 
stroke-linecap:round; stroke-linejoin:round;fill:none"
d="M 29300.000000,41400.000000
29300.000000,41600.000000
" /> 
<path style="fill:#840000; fill-opacity:0.0; 
stroke:#840000; stroke-width:60.000000; stroke-opacity:1; 
stroke-linecap:round; stroke-linejoin:round;fill:none"
d="M 28750.000000,41000.000000
28750.000000,43500.000000
" /> 
<path d="M28750 41250
L29750 41250
" />
<text x="29250.000000" y="41150.000000"
textLength="536.181102" font-size="666.653543" lengthAdjust="spacingAndGlyphs"
text-anchor="middle" opacity="0">1</text>
<g class="stroked-text"><desc>1</desc>
<path d="M29392 41126
L29107 41126
" />
<path d="M29250 41126
L29250 40626
L29202 40697
L29154 40745
L29107 40769
" />
</g><path d="M28750 43250
L29750 43250
" />
<text x="29250.000000" y="43150.000000"
textLength="536.181102" font-size="666.653543" lengthAdjust="spacingAndGlyphs"
text-anchor="middle" opacity="0">2</text>
<g class="stroked-text"><desc>2</desc>
<path d="M29107 42673
L29130 42650
L29178 42626
L29297 42626
L29345 42650
L29369 42673
L29392 42721
L29392 42769
L29369 42840
L29083 43126
L29392 43126
" />
</g></g>
<g style="fill:#008484; fill-opacity:0.0; 
stroke:#008484; stroke-width:60.000000; stroke-opacity:1; 
stroke-linecap:round; stroke-linejoin:round;">
<text x="28450.000000" y="39249.960630"
textLength="1512.362205" font-size="666.653543" lengthAdjust="spacingAndGlyphs"
text-anchor="middle" opacity="0">BZ1</text>
<g class="stroked-text"><desc>BZ1</desc>
<path d="M28009 38964
L28080 38988
L28104 39011
L28128 39059
L28128 39130
L28104 39178
L28080 39202
L28033 39226
L27842 39226
L27842 38726
L28009 38726
L28057 38749
L28080 38773
L28104 38821
L28104 38868
L28080 38916
L28057 38940
L28009 38964
L27842 38964
" />
<path d="M28295 38726
L28628 38726
L28295 39226
L28628 39226
" />
<path d="M29080 39226
L28795 39226
" />
<path d="M28938 39226
L28938 38726
L28890 38797
L28842 38845
L28795 38868
" />
</g><text x="28450.000000" y="40249.960630"
textLength="2560.000000" font-size="666.653543" lengthAdjust="spacingAndGlyphs"
text-anchor="middle" opacity="0">Buzzer</text>
<g class="stroked-text"><desc>Buzzer</desc>
<path d="M27485 39964
L27557 39988
L27580 40011
L27604 40059
L27604 40130
L27580 40178
L27557 40202
L27509 40226
L27319 40226
L27319 39726
L27485 39726
L27533 39749
L27557 39773
L27580 39821
L27580 39868
L27557 39916
L27533 39940
L27485 39964
L27319 39964
" />
<path d="M28033 39892
L28033 40226
" />
<path d="M27819 39892
L27819 40154
L27842 40202
L27890 40226
L27961 40226
L28009 40202
L28033 40178
" />
<path d="M28223 39892
L28485 39892
L28223 40226
L28485 40226
" />
<path d="M28628 39892
L28890 39892
L28628 40226
L28890 40226
" />
<path d="M29271 40202
L29223 40226
L29128 40226
L29080 40202
L29057 40154
L29057 39964
L29080 39916
L29128 39892
L29223 39892
L29271 39916
L29295 39964
L29295 40011
L29057 40059
" />
<path d="M29509 40226
L29509 39892
" />
<path d="M29509 39988
L29533 39940
L29557 39916
L29604 39892
L29652 39892
" />
</g></g>
</g>
<g style="fill:#008484; fill-opacity:0.0; 
stroke:#008484; stroke-width:60.000000; stroke-opacity:1; 
stroke-linecap:round; stroke-linejoin:round;">
<g >
</g>
<g style="fill:#840000; fill-opacity:0.0; 
stroke:#840000; stroke-width:60.000000; stroke-opacity:1; 
stroke-linecap:round; stroke-linejoin:round;">
</g>
<g style="fill:#840000; fill-opacity:0.0; 
stroke:#840000; stroke-width:200.000000; stroke-opacity:1; 
stroke-linecap:round; stroke-linejoin:round;">
<path style="fill:#840000; fill-opacity:0.0; 
stroke:#840000; stroke-width:200.000000; stroke-opacity:1; 
stroke-linecap:round; stroke-linejoin:round;fill:none"
d="M 56300.000000,34050.000000
54700.000000,34050.000000
" /> 
<path style="fill:#840000; fill-opacity:0.0; 
stroke:#840000; stroke-width:200.000000; stroke-opacity:1; 
stroke-linecap:round; stroke-linejoin:round;fill:none"
d="M 56300.000000,33450.000000
54700.000000,33450.000000
" /> 
</g>
<g style="fill:#840000; fill-opacity:0.0; 
stroke:#840000; stroke-width:60.000000; stroke-opacity:1; 
stroke-linecap:round; stroke-linejoin:round;">
<path d="M55500 33350
L55500 32250
" />
<path d="M55500 34150
L55500 35250
" />
</g>
<g style="fill:#008484; fill-opacity:0.0; 
stroke:#008484; stroke-width:60.000000; stroke-opacity:1; 
stroke-linecap:round; stroke-linejoin:round;">
<text x="57519.330709" y="33499.921260"
textLength="1036.181102" font-size="666.653543" lengthAdjust="spacingAndGlyphs"
text-anchor="middle" opacity="0">C2</text>
<g class="stroked-text"><desc>C2</desc>
<path d="M57435 33428
L57412 33452
L57340 33476
L57293 33476
L57221 33452
L57174 33404
L57150 33357
L57126 33261
L57126 33190
L57150 33095
L57174 33047
L57221 32999
L57293 32976
L57340 32976
L57412 32999
L57435 33023
" />
<path d="M57626 33023
L57650 32999
L57697 32976
L57816 32976
L57864 32999
L57888 33023
L57912 33071
L57912 33118
L57888 33190
L57602 33476
L57912 33476
" />
</g><text x="57947.913386" y="34499.921260"
textLength="1893.346457" font-size="666.653543" lengthAdjust="spacingAndGlyphs"
text-anchor="middle" opacity="0">10uF</text>
<g class="stroked-text"><desc>10uF</desc>
<path d="M57412 34476
L57126 34476
" />
<path d="M57269 34476
L57269 33976
L57221 34047
L57174 34095
L57126 34118
" />
<path d="M57721 33976
L57769 33976
L57816 33999
L57840 34023
L57864 34071
L57888 34166
L57888 34285
L57864 34380
L57840 34428
L57816 34452
L57769 34476
L57721 34476
L57674 34452
L57650 34428
L57626 34380
L57602 34285
L57602 34166
L57626 34071
L57650 34023
L57674 33999
L57721 33976
" />
<path d="M58316 34142
L58316 34476
" />
<path d="M58102 34142
L58102 34404
L58126 34452
L58174 34476
L58245 34476
L58293 34452
L58316 34428
" />
<path d="M58721 34214
L58555 34214
" />
<path d="M58555 34476
L58555 33976
L58793 33976
" />
</g></g>
</g>
<g style="fill:#008484; fill-opacity:0.0; 
stroke:#008484; stroke-width:60.000000; stroke-opacity:1; 
stroke-linecap:round; stroke-linejoin:round;">
<g >
</g>
<g style="fill:#840000; fill-opacity:0.0; 
stroke:#840000; stroke-width:60.000000; stroke-opacity:1; 
stroke-linecap:round; stroke-linejoin:round;">
<path style="fill:#840000; fill-opacity:0.0; 
stroke:#840000; stroke-width:60.000000; stroke-opacity:1; 
stroke-linecap:round; stroke-linejoin:round;fill:none"
d="M 76000.000000,57750.000000
76000.000000,58250.000000
76500.000000,58250.000000
76000.000000,58750.000000
75500.000000,58250.000000
76000.000000,58250.000000
" /> 
</g>
<g style="fill:#008484; fill-opacity:0.0; 
stroke:#008484; stroke-width:60.000000; stroke-opacity:1; 
stroke-linecap:round; stroke-linejoin:round;">
<text x="76000.000000" y="59999.960630"
textLength="1583.818898" font-size="666.653543" lengthAdjust="spacingAndGlyphs"
text-anchor="middle" opacity="0">GND</text>
<g class="stroked-text"><desc>GND</desc>
<path d="M75619 59499
L75571 59476
L75500 59476
L75428 59499
L75380 59547
L75357 59595
L75333 59690
L75333 59761
L75357 59857
L75380 59904
L75428 59952
L75500 59976
L75547 59976
L75619 59952
L75642 59928
L75642 59761
L75547 59761
" />
<path d="M75857 59976
L75857 59476
L76142 59976
L76142 59476
" />
<path d="M76380 59976
L76380 59476
L76500 59476
L76571 59499
L76619 59547
L76642 59595
L76666 59690
L76666 59761
L76642 59857
L76619 59904
L76571 59952
L76500 59976
L76380 59976
" />
</g></g>
</g>
<g style="fill:#008484; fill-opacity:0.0; 
stroke:#008484; stroke-width:60.000000; stroke-opacity:1; 
stroke-linecap:round; stroke-linejoin:round;">
<g >
</g>
<g style="fill:#840000; fill-opacity:0.0; 
stroke:#840000; stroke-width:60.000000; stroke-opacity:1; 
stroke-linecap:round; stroke-linejoin:round;">
<path style="fill:#840000; fill-opacity:0.0; 
stroke:#840000; stroke-width:60.000000; stroke-opacity:1; 
stroke-linecap:round; stroke-linejoin:round;fill:none"
d="M 55500.000000,35750.000000
55500.000000,36250.000000
56000.000000,36250.000000
55500.000000,36750.000000
55000.000000,36250.000000
55500.000000,36250.000000
" /> 
</g>
<g style="fill:#008484; fill-opacity:0.0; 
stroke:#008484; stroke-width:60.000000; stroke-opacity:1; 
stroke-linecap:round; stroke-linejoin:round;">
<text x="55500.000000" y="37749.960630"
textLength="1583.818898" font-size="666.653543" lengthAdjust="spacingAndGlyphs"
text-anchor="middle" opacity="0">GND</text>
<g class="stroked-text"><desc>GND</desc>
<path d="M55119 37249
L55071 37226
L55000 37226
L54928 37249
L54880 37297
L54857 37345
L54833 37440
L54833 37511
L54857 37607
L54880 37654
L54928 37702
L55000 37726
L55047 37726
L55119 37702
L55142 37678
L55142 37511
L55047 37511
" />
<path d="M55357 37726
L55357 37226
L55642 37726
L55642 37226
" />
<path d="M55880 37726
L55880 37226
L56000 37226
L56071 37249
L56119 37297
L56142 37345
L56166 37440
L56166 37511
L56142 37607
L56119 37654
L56071 37702
L56000 37726
L55880 37726
" />
</g></g>
</g>
<g style="fill:#008484; fill-opacity:0.0; 
stroke:#008484; stroke-width:60.000000; stroke-opacity:1; 
stroke-linecap:round; stroke-linejoin:round;">
</g>
<g style="fill:#008400; fill-opacity:0.0; 
stroke:#008400; stroke-width:60.000000; stroke-opacity:1; 
stroke-linecap:round; stroke-linejoin:round;">
<path d="M51000 45250
L51000 49250
" />
<path d="M52000 45250
L52000 47250
" />
<path d="M58250 47250
L58250 49250
" />
<path d="M51000 49250
L58250 49250
" />
<path d="M50000 45250
L50000 57250
" />
<path d="M48000 43250
L46750 43250
" />
<path d="M46750 40750
L46750 41250
" />
<path d="M46750 43250
L46750 43750
" />
<path d="M46750 41250
L48000 41250
" />
<path d="M65500 53000
L65500 53750
" />
<path d="M51000 31750
L55500 31750
" />
<path d="M52000 47250
L53250 47250
" />
<path d="M55500 31750
L55500 32250
" />
<path d="M55500 35250
L55500 35750
" />
<path d="M51000 31750
L51000 39250
" />
<path d="M70500 42250
L79250 42250
" />
<path d="M79250 44250
L76000 44250
" />
<path d="M29750 40750
L29750 41250
" />
<path d="M76000 44250
L76000 57750
" />
<path d="M50000 27000
L50000 39250
" />
<path d="M65500 56750
L65500 58000
" />
<path d="M50000 57250
L50000 58250
" />
<path d="M50000 26250
L50000 27000
" />
<path d="M65500 42250
L67500 42250
" />
<path d="M23250 16250
L23250 17750
" />
<path d="M23250 14000
L23250 15250
" />
<path d="M20500 16250
L23250 16250
" />
<path d="M56250 47250
L58250 47250
" />
<path d="M20500 15250
L23250 15250
" />
<path d="M65500 42250
L65500 50000
" />
<path d="M29750 43250
L30500 43250
" />
<path d="M30500 43250
L30500 43750
" />
<path d="M54000 42250
L65500 42250
" />
<path d="M30500 44000
L30500 58250
" />
<path d="M29750 40750
L35500 40750
" />
<path d="M35500 40750
L46750 40750
" />
<path d="M35500 43750
L46750 43750
" />
<path d="M30500 43750
L35500 43750
" />
</g>
<g style="fill:#008400; fill-opacity:1.0; 
stroke:#008400; stroke-width:60.000000; stroke-opacity:1; 
stroke-linecap:round; stroke-linejoin:round;">
<circle cx="65500.000000" cy="42250.000000" r="180.000000" /> 
<circle cx="50000.000000" cy="57250.000000" r="180.000000" /> 
<circle cx="35500.000000" cy="40750.000000" r="180.000000" /> 
<circle cx="50000.000000" cy="27000.000000" r="180.000000" /> 
<circle cx="35500.000000" cy="43750.000000" r="180.000000" /> 
</g> 
</svg>
