<?xml version="1.0" standalone="no"?>
 <!DOCTYPE svg PUBLIC "-//W3C//DTD SVG 1.1//EN" 
 "http://www.w3.org/Graphics/SVG/1.1/DTD/svg11.dtd"> 
<svg
  xmlns:svg="http://www.w3.org/2000/svg"
  xmlns="http://www.w3.org/2000/svg"
  xmlns:xlink="http://www.w3.org/1999/xlink"
  version="1.1"
  width="7.015480cm" height="3.068320cm" viewBox="0 0 70154800 30683200">
<title>SVG Picture created as Ebow-F_Cu.svg date 2022/11/20 11:54:10 </title>
  <desc>Picture generated by PCBNEW </desc>
<g style="fill:#000000; fill-opacity:1.000000;stroke:#000000; stroke-opacity:1.000000;
stroke-linecap:round; stroke-linejoin:round;"
 transform="translate(0 0) scale(1 1)">
</g>
<g style="fill:#000000; fill-opacity:0.0; 
stroke:#000000; stroke-width:0.000000; stroke-opacity:1; 
stroke-linecap:round; stroke-linejoin:round;">
<g >
</g>
<g style="fill:#C83434; fill-opacity:0.0; 
stroke:#C83434; stroke-width:0.000000; stroke-opacity:1; 
stroke-linecap:round; stroke-linejoin:round;">
</g>
<g style="fill:#C83434; fill-opacity:0.0; 
stroke:#C83434; stroke-width:1.000000; stroke-opacity:1; 
stroke-linecap:round; stroke-linejoin:round;">
</g>
<g style="fill:#C83434; fill-opacity:1.0; 
stroke:#C83434; stroke-width:1.000000; stroke-opacity:1; 
stroke-linecap:round; stroke-linejoin:round;">
<path style="fill:#C83434; fill-opacity:1.0; 
stroke:#C83434; stroke-width:1.000000; stroke-opacity:1; 
stroke-linecap:round; stroke-linejoin:round;fill-rule:evenodd;"
d="M 38039000.000000,3868143.000000
38019970.000000,3963814.000000
37965777.000000,4044920.000000
37884671.000000,4099113.000000
37789000.000000,4118143.000000
36964000.000000,4118143.000000
36868329.000000,4099113.000000
36787223.000000,4044920.000000
36733030.000000,3963814.000000
36714000.000000,3868143.000000
36714000.000000,2568143.000000
36733030.000000,2472472.000000
36787223.000000,2391366.000000
36868329.000000,2337173.000000
36964000.000000,2318143.000000
37789000.000000,2318143.000000
37884671.000000,2337173.000000
37965777.000000,2391366.000000
38019970.000000,2472472.000000
38039000.000000,2568143.000000
Z" /> 
<path style="fill:#C83434; fill-opacity:1.0; 
stroke:#C83434; stroke-width:1.000000; stroke-opacity:1; 
stroke-linecap:round; stroke-linejoin:round;fill-rule:evenodd;"
d="M 34914000.000000,3868143.000000
34894970.000000,3963814.000000
34840777.000000,4044920.000000
34759671.000000,4099113.000000
34664000.000000,4118143.000000
33839000.000000,4118143.000000
33743329.000000,4099113.000000
33662223.000000,4044920.000000
33608030.000000,3963814.000000
33589000.000000,3868143.000000
33589000.000000,2568143.000000
33608030.000000,2472472.000000
33662223.000000,2391366.000000
33743329.000000,2337173.000000
33839000.000000,2318143.000000
34664000.000000,2318143.000000
34759671.000000,2337173.000000
34840777.000000,2391366.000000
34894970.000000,2472472.000000
34914000.000000,2568143.000000
Z" /> 
</g>
<g >
</g>
<g style="fill:#C83434; fill-opacity:1.0; 
stroke:#C83434; stroke-width:1.000000; stroke-opacity:1; 
stroke-linecap:round; stroke-linejoin:round;">
<path style="fill:#C83434; fill-opacity:1.0; 
stroke:#C83434; stroke-width:1.000000; stroke-opacity:1; 
stroke-linecap:round; stroke-linejoin:round;fill-rule:evenodd;"
d="M 48093999.000000,3560142.000000
46394001.000000,3560142.000000
46394001.000000,1860144.000000
48093999.000000,1860144.000000
Z" /> 
<circle cx="49784000.000000" cy="2710143.000000" r="850000.000000" /> 
</g>
<g >
</g>
<g style="fill:#C83434; fill-opacity:1.0; 
stroke:#C83434; stroke-width:1.000000; stroke-opacity:1; 
stroke-linecap:round; stroke-linejoin:round;">
<path style="fill:#C83434; fill-opacity:1.0; 
stroke:#C83434; stroke-width:1.000000; stroke-opacity:1; 
stroke-linecap:round; stroke-linejoin:round;fill-rule:evenodd;"
d="M 42479000.000000,10442143.000000
42498030.000000,10346472.000000
42552223.000000,10265366.000000
42633329.000000,10211173.000000
42729000.000000,10192143.000000
43554000.000000,10192143.000000
43649671.000000,10211173.000000
43730777.000000,10265366.000000
43784970.000000,10346472.000000
43804000.000000,10442143.000000
43804000.000000,11742143.000000
43784970.000000,11837814.000000
43730777.000000,11918920.000000
43649671.000000,11973113.000000
43554000.000000,11992143.000000
42729000.000000,11992143.000000
42633329.000000,11973113.000000
42552223.000000,11918920.000000
42498030.000000,11837814.000000
42479000.000000,11742143.000000
Z" /> 
<path style="fill:#C83434; fill-opacity:1.0; 
stroke:#C83434; stroke-width:1.000000; stroke-opacity:1; 
stroke-linecap:round; stroke-linejoin:round;fill-rule:evenodd;"
d="M 45604000.000000,10442143.000000
45623030.000000,10346472.000000
45677223.000000,10265366.000000
45758329.000000,10211173.000000
45854000.000000,10192143.000000
46679000.000000,10192143.000000
46774671.000000,10211173.000000
46855777.000000,10265366.000000
46909970.000000,10346472.000000
46929000.000000,10442143.000000
46929000.000000,11742143.000000
46909970.000000,11837814.000000
46855777.000000,11918920.000000
46774671.000000,11973113.000000
46679000.000000,11992143.000000
45854000.000000,11992143.000000
45758329.000000,11973113.000000
45677223.000000,11918920.000000
45623030.000000,11837814.000000
45604000.000000,11742143.000000
Z" /> 
</g>
<g >
</g>
<g style="fill:#C83434; fill-opacity:1.0; 
stroke:#C83434; stroke-width:1.000000; stroke-opacity:1; 
stroke-linecap:round; stroke-linejoin:round;">
<path style="fill:#C83434; fill-opacity:1.0; 
stroke:#C83434; stroke-width:1.000000; stroke-opacity:1; 
stroke-linecap:round; stroke-linejoin:round;fill-rule:evenodd;"
d="M 31204001.000000,9352142.000000
31204001.000000,7752144.000000
32803999.000000,7752144.000000
32803999.000000,9352142.000000
Z" /> 
<path style="fill:#C83434; fill-opacity:1.0; 
stroke:#C83434; stroke-width:1.000000; stroke-opacity:1; 
stroke-linecap:round; stroke-linejoin:round;fill-rule:evenodd;"
d="M 31204001.000000,11892142.000000
31204001.000000,10292144.000000
32803999.000000,10292144.000000
32803999.000000,11892142.000000
Z" /> 
<path style="fill:#C83434; fill-opacity:1.0; 
stroke:#C83434; stroke-width:1.000000; stroke-opacity:1; 
stroke-linecap:round; stroke-linejoin:round;fill-rule:evenodd;"
d="M 31204001.000000,14432142.000000
31204001.000000,12832144.000000
32803999.000000,12832144.000000
32803999.000000,14432142.000000
Z" /> 
<path style="fill:#C83434; fill-opacity:1.0; 
stroke:#C83434; stroke-width:1.000000; stroke-opacity:1; 
stroke-linecap:round; stroke-linejoin:round;fill-rule:evenodd;"
d="M 31204001.000000,16972142.000000
31204001.000000,15372144.000000
32803999.000000,15372144.000000
32803999.000000,16972142.000000
Z" /> 
<path style="fill:#C83434; fill-opacity:1.0; 
stroke:#C83434; stroke-width:1.000000; stroke-opacity:1; 
stroke-linecap:round; stroke-linejoin:round;fill-rule:evenodd;"
d="M 38824001.000000,16972142.000000
38824001.000000,15372144.000000
40423999.000000,15372144.000000
40423999.000000,16972142.000000
Z" /> 
<path style="fill:#C83434; fill-opacity:1.0; 
stroke:#C83434; stroke-width:1.000000; stroke-opacity:1; 
stroke-linecap:round; stroke-linejoin:round;fill-rule:evenodd;"
d="M 38824001.000000,14432142.000000
38824001.000000,12832144.000000
40423999.000000,12832144.000000
40423999.000000,14432142.000000
Z" /> 
<path style="fill:#C83434; fill-opacity:1.0; 
stroke:#C83434; stroke-width:1.000000; stroke-opacity:1; 
stroke-linecap:round; stroke-linejoin:round;fill-rule:evenodd;"
d="M 38824001.000000,11892142.000000
38824001.000000,10292144.000000
40423999.000000,10292144.000000
40423999.000000,11892142.000000
Z" /> 
<path style="fill:#C83434; fill-opacity:1.0; 
stroke:#C83434; stroke-width:1.000000; stroke-opacity:1; 
stroke-linecap:round; stroke-linejoin:round;fill-rule:evenodd;"
d="M 38824001.000000,9352142.000000
38824001.000000,7752144.000000
40423999.000000,7752144.000000
40423999.000000,9352142.000000
Z" /> 
</g>
<g >
</g>
<g style="fill:#C83434; fill-opacity:1.0; 
stroke:#C83434; stroke-width:1.000000; stroke-opacity:1; 
stroke-linecap:round; stroke-linejoin:round;">
<path style="fill:#C83434; fill-opacity:1.0; 
stroke:#C83434; stroke-width:1.000000; stroke-opacity:1; 
stroke-linecap:round; stroke-linejoin:round;fill-rule:evenodd;"
d="M 24298000.000000,23655143.000000
24278970.000000,23750814.000000
24224777.000000,23831920.000000
24143671.000000,23886113.000000
24048000.000000,23905143.000000
23248000.000000,23905143.000000
23152329.000000,23886113.000000
23071223.000000,23831920.000000
23017030.000000,23750814.000000
22998000.000000,23655143.000000
22998000.000000,22405143.000000
23017030.000000,22309472.000000
23071223.000000,22228366.000000
23152329.000000,22174173.000000
23248000.000000,22155143.000000
24048000.000000,22155143.000000
24143671.000000,22174173.000000
24224777.000000,22228366.000000
24278970.000000,22309472.000000
24298000.000000,22405143.000000
Z" /> 
<path style="fill:#C83434; fill-opacity:1.0; 
stroke:#C83434; stroke-width:1.000000; stroke-opacity:1; 
stroke-linecap:round; stroke-linejoin:round;fill-rule:evenodd;"
d="M 21198000.000000,23655143.000000
21178970.000000,23750814.000000
21124777.000000,23831920.000000
21043671.000000,23886113.000000
20948000.000000,23905143.000000
20148000.000000,23905143.000000
20052329.000000,23886113.000000
19971223.000000,23831920.000000
19917030.000000,23750814.000000
19898000.000000,23655143.000000
19898000.000000,22405143.000000
19917030.000000,22309472.000000
19971223.000000,22228366.000000
20052329.000000,22174173.000000
20148000.000000,22155143.000000
20948000.000000,22155143.000000
21043671.000000,22174173.000000
21124777.000000,22228366.000000
21178970.000000,22309472.000000
21198000.000000,22405143.000000
Z" /> 
</g>
<g >
</g>
<g style="fill:#C83434; fill-opacity:1.0; 
stroke:#C83434; stroke-width:1.000000; stroke-opacity:1; 
stroke-linecap:round; stroke-linejoin:round;">
<path style="fill:#C83434; fill-opacity:1.0; 
stroke:#C83434; stroke-width:1.000000; stroke-opacity:1; 
stroke-linecap:round; stroke-linejoin:round;fill-rule:evenodd;"
d="M 67093999.000000,17556142.000000
65494001.000000,17556142.000000
65494001.000000,15956144.000000
67093999.000000,15956144.000000
Z" /> 
<circle cx="66294000.000000" cy="13556143.000000" r="800000.000000" /> 
</g>
<g style="fill:#C83434; fill-opacity:1.0; 
stroke:#C83434; stroke-width:21200.000000; stroke-opacity:1; 
stroke-linecap:round; stroke-linejoin:round;">
</g>
<g >
</g>
<g style="fill:#C83434; fill-opacity:1.0; 
stroke:#C83434; stroke-width:21200.000000; stroke-opacity:1; 
stroke-linecap:round; stroke-linejoin:round;">
</g>
<g style="fill:#C83434; fill-opacity:1.0; 
stroke:#C83434; stroke-width:1.000000; stroke-opacity:1; 
stroke-linecap:round; stroke-linejoin:round;">
<path style="fill:#C83434; fill-opacity:1.0; 
stroke:#C83434; stroke-width:1.000000; stroke-opacity:1; 
stroke-linecap:round; stroke-linejoin:round;fill-rule:evenodd;"
d="M 24242000.000000,17381143.000000
24146329.000000,17362113.000000
24065223.000000,17307920.000000
24011030.000000,17226814.000000
23992000.000000,17131143.000000
23992000.000000,16306143.000000
24011030.000000,16210472.000000
24065223.000000,16129366.000000
24146329.000000,16075173.000000
24242000.000000,16056143.000000
25542000.000000,16056143.000000
25637671.000000,16075173.000000
25718777.000000,16129366.000000
25772970.000000,16210472.000000
25792000.000000,16306143.000000
25792000.000000,17131143.000000
25772970.000000,17226814.000000
25718777.000000,17307920.000000
25637671.000000,17362113.000000
25542000.000000,17381143.000000
Z" /> 
<path style="fill:#C83434; fill-opacity:1.0; 
stroke:#C83434; stroke-width:1.000000; stroke-opacity:1; 
stroke-linecap:round; stroke-linejoin:round;fill-rule:evenodd;"
d="M 24242000.000000,14256143.000000
24146329.000000,14237113.000000
24065223.000000,14182920.000000
24011030.000000,14101814.000000
23992000.000000,14006143.000000
23992000.000000,13181143.000000
24011030.000000,13085472.000000
24065223.000000,13004366.000000
24146329.000000,12950173.000000
24242000.000000,12931143.000000
25542000.000000,12931143.000000
25637671.000000,12950173.000000
25718777.000000,13004366.000000
25772970.000000,13085472.000000
25792000.000000,13181143.000000
25792000.000000,14006143.000000
25772970.000000,14101814.000000
25718777.000000,14182920.000000
25637671.000000,14237113.000000
25542000.000000,14256143.000000
Z" /> 
</g>
<g >
</g>
<g style="fill:#C83434; fill-opacity:1.0; 
stroke:#C83434; stroke-width:1.000000; stroke-opacity:1; 
stroke-linecap:round; stroke-linejoin:round;">
<path style="fill:#C83434; fill-opacity:1.0; 
stroke:#C83434; stroke-width:1.000000; stroke-opacity:1; 
stroke-linecap:round; stroke-linejoin:round;fill-rule:evenodd;"
d="M 43719000.000000,23500144.000000
43738030.000000,23404473.000000
43792224.000000,23323367.000000
43873330.000000,23269173.000000
43969002.000000,23250144.000000
48068999.000000,23250143.000000
48164670.000000,23269173.000000
48245776.000000,23323367.000000
48299970.000000,23404473.000000
48318999.000000,23500145.000000
48319000.000000,25100142.000000
48299970.000000,25195813.000000
48245776.000000,25276919.000000
48164670.000000,25331113.000000
48068998.000000,25350142.000000
43969001.000000,25350143.000000
43873330.000000,25331113.000000
43792224.000000,25276919.000000
43738030.000000,25195813.000000
43719001.000000,25100141.000000
Z" /> 
<path style="fill:#C83434; fill-opacity:1.0; 
stroke:#C83434; stroke-width:1.000000; stroke-opacity:1; 
stroke-linecap:round; stroke-linejoin:round;fill-rule:evenodd;"
d="M 52519000.000000,23500144.000000
52538030.000000,23404473.000000
52592224.000000,23323367.000000
52673330.000000,23269173.000000
52769002.000000,23250144.000000
56868999.000000,23250143.000000
56964670.000000,23269173.000000
57045776.000000,23323367.000000
57099970.000000,23404473.000000
57118999.000000,23500145.000000
57119000.000000,25100142.000000
57099970.000000,25195813.000000
57045776.000000,25276919.000000
56964670.000000,25331113.000000
56868998.000000,25350142.000000
52769001.000000,25350143.000000
52673330.000000,25331113.000000
52592224.000000,25276919.000000
52538030.000000,25195813.000000
52519001.000000,25100141.000000
Z" /> 
</g>
<g >
</g>
<g style="fill:#C83434; fill-opacity:1.0; 
stroke:#C83434; stroke-width:1.000000; stroke-opacity:1; 
stroke-linecap:round; stroke-linejoin:round;">
<path style="fill:#C83434; fill-opacity:1.0; 
stroke:#C83434; stroke-width:1.000000; stroke-opacity:1; 
stroke-linecap:round; stroke-linejoin:round;fill-rule:evenodd;"
d="M 34605000.000000,22380143.000000
34624030.000000,22284472.000000
34678223.000000,22203366.000000
34759329.000000,22149173.000000
34855000.000000,22130143.000000
35680000.000000,22130143.000000
35775671.000000,22149173.000000
35856777.000000,22203366.000000
35910970.000000,22284472.000000
35930000.000000,22380143.000000
35930000.000000,23680143.000000
35910970.000000,23775814.000000
35856777.000000,23856920.000000
35775671.000000,23911113.000000
35680000.000000,23930143.000000
34855000.000000,23930143.000000
34759329.000000,23911113.000000
34678223.000000,23856920.000000
34624030.000000,23775814.000000
34605000.000000,23680143.000000
Z" /> 
<path style="fill:#C83434; fill-opacity:1.0; 
stroke:#C83434; stroke-width:1.000000; stroke-opacity:1; 
stroke-linecap:round; stroke-linejoin:round;fill-rule:evenodd;"
d="M 37730000.000000,22380143.000000
37749030.000000,22284472.000000
37803223.000000,22203366.000000
37884329.000000,22149173.000000
37980000.000000,22130143.000000
38805000.000000,22130143.000000
38900671.000000,22149173.000000
38981777.000000,22203366.000000
39035970.000000,22284472.000000
39055000.000000,22380143.000000
39055000.000000,23680143.000000
39035970.000000,23775814.000000
38981777.000000,23856920.000000
38900671.000000,23911113.000000
38805000.000000,23930143.000000
37980000.000000,23930143.000000
37884329.000000,23911113.000000
37803223.000000,23856920.000000
37749030.000000,23775814.000000
37730000.000000,23680143.000000
Z" /> 
</g>
<g >
</g>
<g style="fill:#C83434; fill-opacity:1.0; 
stroke:#C83434; stroke-width:1.000000; stroke-opacity:1; 
stroke-linecap:round; stroke-linejoin:round;">
<path style="fill:#C83434; fill-opacity:1.0; 
stroke:#C83434; stroke-width:1.000000; stroke-opacity:1; 
stroke-linecap:round; stroke-linejoin:round;fill-rule:evenodd;"
d="M 3264001.000000,12756144.000000
4863999.000000,12756144.000000
4863999.000000,14356142.000000
3264001.000000,14356142.000000
Z" /> 
<circle cx="4064000.000000" cy="16756143.000000" r="800000.000000" /> 
</g>
<g style="fill:#C83434; fill-opacity:1.0; 
stroke:#C83434; stroke-width:21200.000000; stroke-opacity:1; 
stroke-linecap:round; stroke-linejoin:round;">
</g>
<g >
</g>
<g style="fill:#ECECEC; fill-opacity:1.0; 
stroke:#ECECEC; stroke-width:21200.000000; stroke-opacity:1; 
stroke-linecap:round; stroke-linejoin:round;">
</g>
<g style="fill:#ECECEC; fill-opacity:1.0; 
stroke:#ECECEC; stroke-width:1.000000; stroke-opacity:1; 
stroke-linecap:round; stroke-linejoin:round;">
<circle cx="4064000.000000" cy="6774143.000000" r="400000.000000" /> 
</g>
<g style="fill:#ECECEC; fill-opacity:1.0; 
stroke:#ECECEC; stroke-width:21200.000000; stroke-opacity:1; 
stroke-linecap:round; stroke-linejoin:round;">
</g>
<g style="fill:#ECECEC; fill-opacity:1.0; 
stroke:#ECECEC; stroke-width:1.000000; stroke-opacity:1; 
stroke-linecap:round; stroke-linejoin:round;">
<circle cx="28956000.000000" cy="11092143.000000" r="400000.000000" /> 
</g>
<g style="fill:#ECECEC; fill-opacity:1.0; 
stroke:#ECECEC; stroke-width:21200.000000; stroke-opacity:1; 
stroke-linecap:round; stroke-linejoin:round;">
</g>
<g style="fill:#ECECEC; fill-opacity:1.0; 
stroke:#ECECEC; stroke-width:1.000000; stroke-opacity:1; 
stroke-linecap:round; stroke-linejoin:round;">
<circle cx="58674000.000000" cy="7790143.000000" r="400000.000000" /> 
</g>
<g style="fill:#ECECEC; fill-opacity:1.0; 
stroke:#ECECEC; stroke-width:21200.000000; stroke-opacity:1; 
stroke-linecap:round; stroke-linejoin:round;">
</g>
<g style="fill:#ECECEC; fill-opacity:1.0; 
stroke:#ECECEC; stroke-width:1.000000; stroke-opacity:1; 
stroke-linecap:round; stroke-linejoin:round;">
<circle cx="10668000.000000" cy="23030143.000000" r="400000.000000" /> 
</g>
<g style="fill:#ECECEC; fill-opacity:1.0; 
stroke:#ECECEC; stroke-width:21200.000000; stroke-opacity:1; 
stroke-linecap:round; stroke-linejoin:round;">
</g>
<g style="fill:#ECECEC; fill-opacity:1.0; 
stroke:#ECECEC; stroke-width:1.000000; stroke-opacity:1; 
stroke-linecap:round; stroke-linejoin:round;">
<circle cx="66548000.000000" cy="22522143.000000" r="400000.000000" /> 
</g>
<g style="fill:#ECECEC; fill-opacity:1.0; 
stroke:#ECECEC; stroke-width:21200.000000; stroke-opacity:1; 
stroke-linecap:round; stroke-linejoin:round;">
</g>
<g style="fill:#ECECEC; fill-opacity:1.0; 
stroke:#ECECEC; stroke-width:1.000000; stroke-opacity:1; 
stroke-linecap:round; stroke-linejoin:round;">
<circle cx="42418000.000000" cy="13632143.000000" r="400000.000000" /> 
</g>
<g style="fill:#ECECEC; fill-opacity:1.0; 
stroke:#ECECEC; stroke-width:21200.000000; stroke-opacity:1; 
stroke-linecap:round; stroke-linejoin:round;">
</g>
<g >
</g>
<g style="fill:#C83434; fill-opacity:1.0; 
stroke:#C83434; stroke-width:21200.000000; stroke-opacity:1; 
stroke-linecap:round; stroke-linejoin:round;">
</g>
<g style="fill:#C83434; fill-opacity:1.0; 
stroke:#C83434; stroke-width:2000000.000000; stroke-opacity:1; 
stroke-linecap:round; stroke-linejoin:round;">
</g>
<g style="fill:#C83434; fill-opacity:0.0; 
stroke:#C83434; stroke-width:2000000.000000; stroke-opacity:1; 
stroke-linecap:round; stroke-linejoin:round;">
<path d="M24892000 13593643
L24930500 13632143
" />
<path d="M24930500 13632143
L32004000 13632143
" />
<path d="M32004000 16172143
L25438500 16172143
" />
<path d="M32004000 11092143
L28956000 11092143
" />
<path d="M25438500 16172143
L24892000 16718643
" />
<path d="M42672000 11092143
L39619000 11092143
" />
<path d="M39624000 16172143
L42418000 16172143
" />
<path d="M39624000 13632143
L42418000 13632143
" />
<path d="M39624000 8552143
L42672000 8552143
" />
<path d="M32004000 8552143
L28702000 8552143
" />
<path d="M28702000 8552143
L28702000 3218143
" />
<path d="M28702000 3218143
L34251500 3218143
" />
</g>
<g >
</g>
<g style="fill:#C83434; fill-opacity:0.0; 
stroke:#C83434; stroke-width:2000000.000000; stroke-opacity:1; 
stroke-linecap:round; stroke-linejoin:round;">
<g >
</g>
<g style="fill:#C83434; fill-opacity:1.0; 
stroke:#C83434; stroke-width:1.000000; stroke-opacity:1; 
stroke-linecap:round; stroke-linejoin:round;">
<path style="fill:#C83434; fill-opacity:1.0; 
stroke:#C83434; stroke-width:1.000000; stroke-opacity:1; 
stroke-linecap:round; stroke-linejoin:round;fill-rule:evenodd;"
d="M 64947222.000000,15684145.000000
64993715.000000,15737801.000000
65003819.000000,15808075.000000
64997082.000000,15834374.000000
64995523.000000,15838534.000000
64991895.000000,15853792.000000
64986369.000000,15904657.000000
64986000.000000,15911471.000000
64986000.000000,16484028.000000
64990475.000000,16499267.000000
64991865.000000,16500472.000000
64999548.000000,16502143.000000
67583884.000000,16502143.000000
67599123.000000,16497668.000000
67600328.000000,16496278.000000
67601999.000000,16488595.000000
67601999.000000,15911474.000000
67601629.000000,15904653.000000
67596105.000000,15853791.000000
67592478.000000,15838536.000000
67590918.000000,15834374.000000
67590664.000000,15830905.000000
67590651.000000,15830850.000000
67590660.000000,15830848.000000
67585734.000000,15763567.000000
67619653.000000,15701198.000000
67681908.000000,15667068.000000
67708899.000000,15664143.000000
69469500.000000,15664143.000000
69537621.000000,15684145.000000
69584114.000000,15737801.000000
69595500.000000,15790143.000000
69595500.000000,30015643.000000
69575498.000000,30083764.000000
69521842.000000,30130257.000000
69469500.000000,30141643.000000
50926000.000000,30141643.000000
50857879.000000,30121641.000000
50811386.000000,30067985.000000
50800000.000000,30015643.000000
50800000.000000,25147239.000000
52011000.000000,25147239.000000
52011337.000000,25153754.000000
52021256.000000,25249346.000000
52024150.000000,25262745.000000
52075588.000000,25416926.000000
52081762.000000,25430105.000000
52167063.000000,25567950.000000
52176099.000000,25579351.000000
52290830.000000,25693882.000000
52302241.000000,25702894.000000
52440245.000000,25787961.000000
52453423.000000,25794105.000000
52607716.000000,25845282.000000
52621081.000000,25848148.000000
52715439.000000,25857815.000000
52721855.000000,25858143.000000
54546885.000000,25858143.000000
54562124.000000,25853668.000000
54563329.000000,25852278.000000
54565000.000000,25844595.000000
54565000.000000,25840028.000000
55073000.000000,25840028.000000
55077475.000000,25855267.000000
55078865.000000,25856472.000000
55086548.000000,25858143.000000
56916096.000000,25858143.000000
56922611.000000,25857806.000000
57018203.000000,25847887.000000
57031602.000000,25844993.000000
57185783.000000,25793555.000000
57198962.000000,25787381.000000
57336807.000000,25702080.000000
57348208.000000,25693044.000000
57462739.000000,25578313.000000
57471751.000000,25566902.000000
57556818.000000,25428898.000000
57562962.000000,25415720.000000
57614139.000000,25261427.000000
57617005.000000,25248062.000000
57626672.000000,25153704.000000
57627000.000000,25147288.000000
57627000.000000,24572258.000000
57622525.000000,24557019.000000
57621135.000000,24555814.000000
57613452.000000,24554143.000000
55091115.000000,24554143.000000
55075876.000000,24558618.000000
55074671.000000,24560008.000000
55073000.000000,24567691.000000
55073000.000000,25840028.000000
54565000.000000,25840028.000000
54565000.000000,24572258.000000
54560525.000000,24557019.000000
54559135.000000,24555814.000000
54551452.000000,24554143.000000
52029115.000000,24554143.000000
52013876.000000,24558618.000000
52012671.000000,24560008.000000
52011000.000000,24567691.000000
52011000.000000,25147239.000000
50800000.000000,25147239.000000
50800000.000000,24028028.000000
52011000.000000,24028028.000000
52015475.000000,24043267.000000
52016865.000000,24044472.000000
52024548.000000,24046143.000000
54546885.000000,24046143.000000
54562124.000000,24041668.000000
54563329.000000,24040278.000000
54565000.000000,24032595.000000
54565000.000000,24028028.000000
55073000.000000,24028028.000000
55077475.000000,24043267.000000
55078865.000000,24044472.000000
55086548.000000,24046143.000000
57608885.000000,24046143.000000
57624124.000000,24041668.000000
57625329.000000,24040278.000000
57627000.000000,24032595.000000
57627000.000000,23453047.000000
57626663.000000,23446532.000000
57616744.000000,23350940.000000
57613850.000000,23337541.000000
57562412.000000,23183360.000000
57556238.000000,23170181.000000
57470937.000000,23032336.000000
57461901.000000,23020935.000000
57347170.000000,22906404.000000
57335759.000000,22897392.000000
57197755.000000,22812325.000000
57184577.000000,22806181.000000
57030284.000000,22755004.000000
57016919.000000,22752138.000000
56922561.000000,22742471.000000
56916144.000000,22742143.000000
55091115.000000,22742143.000000
55075876.000000,22746618.000000
55074671.000000,22748008.000000
55073000.000000,22755691.000000
55073000.000000,24028028.000000
54565000.000000,24028028.000000
54565000.000000,22760258.000000
54560525.000000,22745019.000000
54559135.000000,22743814.000000
54551452.000000,22742143.000000
52721904.000000,22742143.000000
52715389.000000,22742480.000000
52619797.000000,22752399.000000
52606398.000000,22755293.000000
52452217.000000,22806731.000000
52439038.000000,22812905.000000
52301193.000000,22898206.000000
52289792.000000,22907242.000000
52175261.000000,23021973.000000
52166249.000000,23033384.000000
52081182.000000,23171388.000000
52075038.000000,23184566.000000
52023861.000000,23338859.000000
52020995.000000,23352224.000000
52011328.000000,23446582.000000
52011000.000000,23452999.000000
52011000.000000,24028028.000000
50800000.000000,24028028.000000
50800000.000000,17600812.000000
64986001.000000,17600812.000000
64986371.000000,17607633.000000
64991895.000000,17658495.000000
64995521.000000,17673747.000000
65040676.000000,17794197.000000
65049214.000000,17809792.000000
65125715.000000,17911867.000000
65138276.000000,17924428.000000
65240351.000000,18000929.000000
65255946.000000,18009467.000000
65376394.000000,18054621.000000
65391649.000000,18058248.000000
65442514.000000,18063774.000000
65449328.000000,18064143.000000
66021885.000000,18064143.000000
66037124.000000,18059668.000000
66038329.000000,18058278.000000
66040000.000000,18050595.000000
66040000.000000,18046027.000000
66548000.000000,18046027.000000
66552475.000000,18061266.000000
66553865.000000,18062471.000000
66561548.000000,18064142.000000
67138669.000000,18064142.000000
67145490.000000,18063772.000000
67196352.000000,18058248.000000
67211604.000000,18054622.000000
67332054.000000,18009467.000000
67347649.000000,18000929.000000
67449724.000000,17924428.000000
67462285.000000,17911867.000000
67538786.000000,17809792.000000
67547324.000000,17794197.000000
67592478.000000,17673749.000000
67596105.000000,17658494.000000
67601631.000000,17607629.000000
67602000.000000,17600815.000000
67602000.000000,17028258.000000
67597525.000000,17013019.000000
67596135.000000,17011814.000000
67588452.000000,17010143.000000
66566115.000000,17010143.000000
66550876.000000,17014618.000000
66549671.000000,17016008.000000
66548000.000000,17023691.000000
66548000.000000,18046027.000000
66040000.000000,18046027.000000
66040000.000000,17028258.000000
66035525.000000,17013019.000000
66034135.000000,17011814.000000
66026452.000000,17010143.000000
65004116.000000,17010143.000000
64988877.000000,17014618.000000
64987672.000000,17016008.000000
64986001.000000,17023691.000000
64986001.000000,17600812.000000
50800000.000000,17600812.000000
50800000.000000,15790143.000000
50820002.000000,15722022.000000
50873658.000000,15675529.000000
50926000.000000,15664143.000000
64879101.000000,15664143.000000
Z" /> 
</g>
</g>
<g style="fill:#C83434; fill-opacity:1.0; 
stroke:#C83434; stroke-width:1.000000; stroke-opacity:1; 
stroke-linecap:round; stroke-linejoin:round;">
<g >
<path style="fill:#C83434; fill-opacity:1.0; 
stroke:#C83434; stroke-width:1.000000; stroke-opacity:1; 
stroke-linecap:round; stroke-linejoin:round;fill-rule:evenodd;"
d="M 34485726.000000,15176362.000000
34532418.000000,15229844.000000
34544000.000000,15282612.000000
34544000.000000,19856143.000000
34523998.000000,19924264.000000
34470342.000000,19970757.000000
34418000.000000,19982143.000000
21336000.000000,19982143.000000
21336000.000000,21560659.000000
21315998.000000,21628780.000000
21262342.000000,21675273.000000
21192068.000000,21685377.000000
21170333.000000,21680252.000000
21109293.000000,21660006.000000
21095914.000000,21657138.000000
21001562.000000,21647471.000000
20995145.000000,21647143.000000
20820115.000000,21647143.000000
20804876.000000,21651618.000000
20803671.000000,21653008.000000
20802000.000000,21660691.000000
20802000.000000,24395027.000000
20806475.000000,24410266.000000
20807865.000000,24411471.000000
20815548.000000,24413142.000000
20995095.000000,24413142.000000
21001614.000000,24412805.000000
21097206.000000,24402886.000000
21110603.000000,24399993.000000
21170125.000000,24380136.000000
21241074.000000,24377552.000000
21302158.000000,24413736.000000
21333982.000000,24477201.000000
21336000.000000,24499660.000000
21336000.000000,30015643.000000
21315998.000000,30083764.000000
21262342.000000,30130257.000000
21210000.000000,30141643.000000
888500.000000,30141643.000000
820379.000000,30121641.000000
773886.000000,30067985.000000
762500.000000,30015643.000000
762500.000000,23702238.000000
19390001.000000,23702238.000000
19390338.000000,23708757.000000
19400257.000000,23804349.000000
19403149.000000,23817743.000000
19454588.000000,23971927.000000
19460761.000000,23985105.000000
19546063.000000,24122950.000000
19555099.000000,24134351.000000
19669829.000000,24248882.000000
19681240.000000,24257894.000000
19819243.000000,24342959.000000
19832424.000000,24349106.000000
19986710.000000,24400281.000000
20000086.000000,24403148.000000
20094438.000000,24412815.000000
20100854.000000,24413143.000000
20275885.000000,24413143.000000
20291124.000000,24408668.000000
20292329.000000,24407278.000000
20294000.000000,24399595.000000
20294000.000000,23302258.000000
20289525.000000,23287019.000000
20288135.000000,23285814.000000
20280452.000000,23284143.000000
19408116.000000,23284143.000000
19392877.000000,23288618.000000
19391672.000000,23290008.000000
19390001.000000,23297691.000000
19390001.000000,23702238.000000
762500.000000,23702238.000000
762500.000000,22758028.000000
19390000.000000,22758028.000000
19394475.000000,22773267.000000
19395865.000000,22774472.000000
19403548.000000,22776143.000000
20275885.000000,22776143.000000
20291124.000000,22771668.000000
20292329.000000,22770278.000000
20294000.000000,22762595.000000
20294000.000000,21665259.000000
20289525.000000,21650020.000000
20288135.000000,21648815.000000
20280452.000000,21647144.000000
20100905.000000,21647144.000000
20094386.000000,21647481.000000
19998794.000000,21657400.000000
19985400.000000,21660292.000000
19831216.000000,21711731.000000
19818038.000000,21717904.000000
19680193.000000,21803206.000000
19668792.000000,21812242.000000
19554261.000000,21926972.000000
19545249.000000,21938383.000000
19460184.000000,22076386.000000
19454037.000000,22089567.000000
19402862.000000,22243853.000000
19399995.000000,22257229.000000
19390328.000000,22351581.000000
19390000.000000,22357998.000000
19390000.000000,22758028.000000
762500.000000,22758028.000000
762500.000000,17842205.000000
3342493.000000,17842205.000000
3351789.000000,17854220.000000
3402994.000000,17890074.000000
3412489.000000,17895557.000000
3609947.000000,17987633.000000
3620239.000000,17991379.000000
3830688.000000,18047768.000000
3841481.000000,18049671.000000
4058525.000000,18068660.000000
4069475.000000,18068660.000000
4286519.000000,18049671.000000
4297312.000000,18047768.000000
4507761.000000,17991379.000000
4518053.000000,17987633.000000
4715511.000000,17895557.000000
4725006.000000,17890074.000000
4777048.000000,17853634.000000
4785424.000000,17843155.000000
4778356.000000,17829709.000000
4076812.000000,17128165.000000
4062868.000000,17120551.000000
4061035.000000,17120682.000000
4054420.000000,17124933.000000
3348923.000000,17830430.000000
3342493.000000,17842205.000000
762500.000000,17842205.000000
762500.000000,16761618.000000
2751483.000000,16761618.000000
2770472.000000,16978662.000000
2772375.000000,16989455.000000
2828764.000000,17199904.000000
2832510.000000,17210196.000000
2924586.000000,17407654.000000
2930069.000000,17417149.000000
2966509.000000,17469191.000000
2976988.000000,17477567.000000
2990434.000000,17470499.000000
3691978.000000,16768955.000000
3698356.000000,16757275.000000
4428408.000000,16757275.000000
4428539.000000,16759108.000000
4432790.000000,16765723.000000
5138287.000000,17471220.000000
5150062.000000,17477650.000000
5162077.000000,17468354.000000
5197931.000000,17417149.000000
5203414.000000,17407654.000000
5295490.000000,17210196.000000
5299236.000000,17199904.000000
5305041.000000,17178238.000000
23484001.000000,17178238.000000
23484338.000000,17184757.000000
23494257.000000,17280349.000000
23497149.000000,17293743.000000
23548588.000000,17447927.000000
23554761.000000,17461105.000000
23640063.000000,17598950.000000
23649099.000000,17610351.000000
23763829.000000,17724882.000000
23775240.000000,17733894.000000
23913243.000000,17818959.000000
23926424.000000,17825106.000000
24080710.000000,17876281.000000
24094086.000000,17879148.000000
24188438.000000,17888815.000000
24194854.000000,17889143.000000
24619885.000000,17889143.000000
24635124.000000,17884668.000000
24636329.000000,17883278.000000
24638000.000000,17875595.000000
24638000.000000,17871027.000000
25146000.000000,17871027.000000
25150475.000000,17886266.000000
25151865.000000,17887471.000000
25159548.000000,17889142.000000
25589095.000000,17889142.000000
25595614.000000,17888805.000000
25691206.000000,17878886.000000
25704600.000000,17875994.000000
25858784.000000,17824555.000000
25871962.000000,17818382.000000
26009807.000000,17733080.000000
26021208.000000,17724044.000000
26135739.000000,17609314.000000
26144751.000000,17597903.000000
26229816.000000,17459900.000000
26235963.000000,17446719.000000
26287138.000000,17292433.000000
26290005.000000,17279057.000000
26299672.000000,17184705.000000
26300000.000000,17178289.000000
26300000.000000,17016812.000000
30696001.000000,17016812.000000
30696371.000000,17023633.000000
30701895.000000,17074495.000000
30705521.000000,17089747.000000
30750676.000000,17210197.000000
30759214.000000,17225792.000000
30835715.000000,17327867.000000
30848276.000000,17340428.000000
30950351.000000,17416929.000000
30965946.000000,17425467.000000
31086394.000000,17470621.000000
31101649.000000,17474248.000000
31152514.000000,17479774.000000
31159328.000000,17480143.000000
31731885.000000,17480143.000000
31747124.000000,17475668.000000
31748329.000000,17474278.000000
31750000.000000,17466595.000000
31750000.000000,17462027.000000
32258000.000000,17462027.000000
32262475.000000,17477266.000000
32263865.000000,17478471.000000
32271548.000000,17480142.000000
32848669.000000,17480142.000000
32855490.000000,17479772.000000
32906352.000000,17474248.000000
32921604.000000,17470622.000000
33042054.000000,17425467.000000
33057649.000000,17416929.000000
33159724.000000,17340428.000000
33172285.000000,17327867.000000
33248786.000000,17225792.000000
33257324.000000,17210197.000000
33302478.000000,17089749.000000
33306105.000000,17074494.000000
33311631.000000,17023629.000000
33312000.000000,17016815.000000
33312000.000000,16444258.000000
33307525.000000,16429019.000000
33306135.000000,16427814.000000
33298452.000000,16426143.000000
32276115.000000,16426143.000000
32260876.000000,16430618.000000
32259671.000000,16432008.000000
32258000.000000,16439691.000000
32258000.000000,17462027.000000
31750000.000000,17462027.000000
31750000.000000,16444258.000000
31745525.000000,16429019.000000
31744135.000000,16427814.000000
31736452.000000,16426143.000000
30714116.000000,16426143.000000
30698877.000000,16430618.000000
30697672.000000,16432008.000000
30696001.000000,16439691.000000
30696001.000000,17016812.000000
26300000.000000,17016812.000000
26300000.000000,16990758.000000
26295525.000000,16975519.000000
26294135.000000,16974314.000000
26286452.000000,16972643.000000
25164115.000000,16972643.000000
25148876.000000,16977118.000000
25147671.000000,16978508.000000
25146000.000000,16986191.000000
25146000.000000,17871027.000000
24638000.000000,17871027.000000
24638000.000000,16990758.000000
24633525.000000,16975519.000000
24632135.000000,16974314.000000
24624452.000000,16972643.000000
23502116.000000,16972643.000000
23486877.000000,16977118.000000
23485672.000000,16978508.000000
23484001.000000,16986191.000000
23484001.000000,17178238.000000
5305041.000000,17178238.000000
5355625.000000,16989455.000000
5357528.000000,16978662.000000
5376517.000000,16761618.000000
5376517.000000,16750668.000000
5357528.000000,16533624.000000
5355625.000000,16522831.000000
5335180.000000,16446528.000000
23484000.000000,16446528.000000
23488475.000000,16461767.000000
23489865.000000,16462972.000000
23497548.000000,16464643.000000
24619885.000000,16464643.000000
24635124.000000,16460168.000000
24636329.000000,16458778.000000
24638000.000000,16451095.000000
24638000.000000,16446528.000000
25146000.000000,16446528.000000
25150475.000000,16461767.000000
25151865.000000,16462972.000000
25159548.000000,16464643.000000
26281884.000000,16464643.000000
26297123.000000,16460168.000000
26298328.000000,16458778.000000
26299999.000000,16451095.000000
26299999.000000,16259048.000000
26299662.000000,16252529.000000
26289743.000000,16156937.000000
26286851.000000,16143543.000000
26235412.000000,15989359.000000
26229239.000000,15976181.000000
26143937.000000,15838336.000000
26134901.000000,15826935.000000
26020171.000000,15712404.000000
26008760.000000,15703392.000000
25870757.000000,15618327.000000
25857576.000000,15612180.000000
25703290.000000,15561005.000000
25689914.000000,15558138.000000
25595562.000000,15548471.000000
25589145.000000,15548143.000000
25164115.000000,15548143.000000
25148876.000000,15552618.000000
25147671.000000,15554008.000000
25146000.000000,15561691.000000
25146000.000000,16446528.000000
24638000.000000,16446528.000000
24638000.000000,15566259.000000
24633525.000000,15551020.000000
24632135.000000,15549815.000000
24624452.000000,15548144.000000
24194905.000000,15548144.000000
24188386.000000,15548481.000000
24092794.000000,15558400.000000
24079400.000000,15561292.000000
23925216.000000,15612731.000000
23912038.000000,15618904.000000
23774193.000000,15704206.000000
23762792.000000,15713242.000000
23648261.000000,15827972.000000
23639249.000000,15839383.000000
23554184.000000,15977386.000000
23548037.000000,15990567.000000
23496862.000000,16144853.000000
23493995.000000,16158229.000000
23484328.000000,16252581.000000
23484000.000000,16258998.000000
23484000.000000,16446528.000000
5335180.000000,16446528.000000
5299236.000000,16312382.000000
5295490.000000,16302090.000000
5203414.000000,16104632.000000
5197931.000000,16095137.000000
5161491.000000,16043095.000000
5151012.000000,16034719.000000
5137566.000000,16041787.000000
4436022.000000,16743331.000000
4428408.000000,16757275.000000
3698356.000000,16757275.000000
3699592.000000,16755011.000000
3699461.000000,16753178.000000
3695210.000000,16746563.000000
2989713.000000,16041066.000000
2977938.000000,16034636.000000
2965923.000000,16043932.000000
2930069.000000,16095137.000000
2924586.000000,16104632.000000
2832510.000000,16302090.000000
2828764.000000,16312382.000000
2772375.000000,16522831.000000
2770472.000000,16533624.000000
2751483.000000,16750668.000000
2751483.000000,16761618.000000
762500.000000,16761618.000000
762500.000000,15407257.000000
782502.000000,15339136.000000
836158.000000,15292643.000000
888031.000000,15281258.000000
1334622.000000,15279598.000000
3594641.000000,15271197.000000
3662835.000000,15290946.000000
3709527.000000,15344428.000000
3719892.000000,15414664.000000
3690640.000000,15479354.000000
3627717.000000,15518903.000000
3620246.000000,15520905.000000
3609947.000000,15524653.000000
3412489.000000,15616729.000000
3402994.000000,15622212.000000
3350952.000000,15658652.000000
3342576.000000,15669131.000000
3349644.000000,15682577.000000
4051188.000000,16384121.000000
4065132.000000,16391735.000000
4066965.000000,16391604.000000
4073580.000000,16387353.000000
4779077.000000,15681856.000000
4785507.000000,15670081.000000
4776211.000000,15658066.000000
4725006.000000,15622212.000000
4715511.000000,15616729.000000
4518053.000000,15524653.000000
4507764.000000,15520908.000000
4487446.000000,15515464.000000
4426824.000000,15478512.000000
4395802.000000,15414651.000000
4404231.000000,15344157.000000
4449434.000000,15289410.000000
4519590.000000,15267758.000000
30571740.000000,15170910.000000
30639934.000000,15190659.000000
30686626.000000,15244141.000000
30697471.000000,15310521.000000
30696368.000000,15320667.000000
30696000.000000,15327471.000000
30696000.000000,15900028.000000
30700475.000000,15915267.000000
30701865.000000,15916472.000000
30709548.000000,15918143.000000
33293884.000000,15918143.000000
33309123.000000,15913668.000000
33310328.000000,15912278.000000
33311999.000000,15904595.000000
33311999.000000,15327474.000000
33311630.000000,15320660.000000
33309372.000000,15299876.000000
33321900.000000,15229993.000000
33370221.000000,15177978.000000
33434167.000000,15160269.000000
34040079.000000,15158016.000000
34417532.000000,15156613.000000
Z" /> 
</g>
</g>
<g style="fill:#C83434; fill-opacity:1.0; 
stroke:#C83434; stroke-width:1.000000; stroke-opacity:1; 
stroke-linecap:round; stroke-linejoin:round;">
<g >
<path style="fill:#C83434; fill-opacity:1.0; 
stroke:#C83434; stroke-width:1.000000; stroke-opacity:1; 
stroke-linecap:round; stroke-linejoin:round;fill-rule:evenodd;"
d="M 34994121.000000,698645.000000
35040614.000000,752301.000000
35052000.000000,804643.000000
35052000.000000,1723659.000000
35031998.000000,1791780.000000
34978342.000000,1838273.000000
34908068.000000,1848377.000000
34886333.000000,1843252.000000
34825293.000000,1823006.000000
34811914.000000,1820138.000000
34717562.000000,1810471.000000
34711145.000000,1810143.000000
34523615.000000,1810143.000000
34508376.000000,1814618.000000
34507171.000000,1816008.000000
34505500.000000,1823691.000000
34505500.000000,4608027.000000
34509975.000000,4623266.000000
34511365.000000,4624471.000000
34519048.000000,4626142.000000
34711095.000000,4626142.000000
34717614.000000,4625805.000000
34813206.000000,4615886.000000
34826603.000000,4612993.000000
34886125.000000,4593136.000000
34957074.000000,4590552.000000
35018158.000000,4626736.000000
35049982.000000,4690201.000000
35052000.000000,4712660.000000
35052000.000000,9442143.000000
35031998.000000,9510264.000000
34978342.000000,9556757.000000
34926000.000000,9568143.000000
33434188.000000,9568143.000000
33366067.000000,9548141.000000
33319574.000000,9494485.000000
33308925.000000,9428534.000000
33311631.000000,9403626.000000
33312000.000000,9396815.000000
33312000.000000,8824258.000000
33307525.000000,8809019.000000
33306135.000000,8807814.000000
33298452.000000,8806143.000000
30714116.000000,8806143.000000
30698877.000000,8810618.000000
30697672.000000,8812008.000000
30696001.000000,8819691.000000
30696001.000000,9396812.000000
30696370.000000,9403628.000000
30699076.000000,9428536.000000
30686548.000000,9498418.000000
30638227.000000,9550434.000000
30573813.000000,9568143.000000
27431000.000000,9568143.000000
27362879.000000,9548141.000000
27316386.000000,9494485.000000
27305000.000000,9442143.000000
27305000.000000,8280028.000000
30696000.000000,8280028.000000
30700475.000000,8295267.000000
30701865.000000,8296472.000000
30709548.000000,8298143.000000
31731885.000000,8298143.000000
31747124.000000,8293668.000000
31748329.000000,8292278.000000
31750000.000000,8284595.000000
31750000.000000,8280028.000000
32258000.000000,8280028.000000
32262475.000000,8295267.000000
32263865.000000,8296472.000000
32271548.000000,8298143.000000
33293884.000000,8298143.000000
33309123.000000,8293668.000000
33310328.000000,8292278.000000
33311999.000000,8284595.000000
33311999.000000,7707474.000000
33311629.000000,7700653.000000
33306105.000000,7649791.000000
33302479.000000,7634539.000000
33257324.000000,7514089.000000
33248786.000000,7498494.000000
33172285.000000,7396419.000000
33159724.000000,7383858.000000
33057649.000000,7307357.000000
33042054.000000,7298819.000000
32921606.000000,7253665.000000
32906351.000000,7250038.000000
32855486.000000,7244512.000000
32848672.000000,7244143.000000
32276115.000000,7244143.000000
32260876.000000,7248618.000000
32259671.000000,7250008.000000
32258000.000000,7257691.000000
32258000.000000,8280028.000000
31750000.000000,8280028.000000
31750000.000000,7262259.000000
31745525.000000,7247020.000000
31744135.000000,7245815.000000
31736452.000000,7244144.000000
31159331.000000,7244144.000000
31152510.000000,7244514.000000
31101648.000000,7250038.000000
31086396.000000,7253664.000000
30965946.000000,7298819.000000
30950351.000000,7307357.000000
30848276.000000,7383858.000000
30835715.000000,7396419.000000
30759214.000000,7498494.000000
30750676.000000,7514089.000000
30705522.000000,7634537.000000
30701895.000000,7649792.000000
30696369.000000,7700657.000000
30696000.000000,7707471.000000
30696000.000000,8280028.000000
27305000.000000,8280028.000000
27305000.000000,3915238.000000
33081001.000000,3915238.000000
33081338.000000,3921757.000000
33091257.000000,4017349.000000
33094149.000000,4030743.000000
33145588.000000,4184927.000000
33151761.000000,4198105.000000
33237063.000000,4335950.000000
33246099.000000,4347351.000000
33360829.000000,4461882.000000
33372240.000000,4470894.000000
33510243.000000,4555959.000000
33523424.000000,4562106.000000
33677710.000000,4613281.000000
33691086.000000,4616148.000000
33785438.000000,4625815.000000
33791854.000000,4626143.000000
33979385.000000,4626143.000000
33994624.000000,4621668.000000
33995829.000000,4620278.000000
33997500.000000,4612595.000000
33997500.000000,3490258.000000
33993025.000000,3475019.000000
33991635.000000,3473814.000000
33983952.000000,3472143.000000
33099116.000000,3472143.000000
33083877.000000,3476618.000000
33082672.000000,3478008.000000
33081001.000000,3485691.000000
33081001.000000,3915238.000000
27305000.000000,3915238.000000
27305000.000000,2946028.000000
33081000.000000,2946028.000000
33085475.000000,2961267.000000
33086865.000000,2962472.000000
33094548.000000,2964143.000000
33979385.000000,2964143.000000
33994624.000000,2959668.000000
33995829.000000,2958278.000000
33997500.000000,2950595.000000
33997500.000000,1828259.000000
33993025.000000,1813020.000000
33991635.000000,1811815.000000
33983952.000000,1810144.000000
33791905.000000,1810144.000000
33785386.000000,1810481.000000
33689794.000000,1820400.000000
33676400.000000,1823292.000000
33522216.000000,1874731.000000
33509038.000000,1880904.000000
33371193.000000,1966206.000000
33359792.000000,1975242.000000
33245261.000000,2089972.000000
33236249.000000,2101383.000000
33151184.000000,2239386.000000
33145037.000000,2252567.000000
33093862.000000,2406853.000000
33090995.000000,2420229.000000
33081328.000000,2514581.000000
33081000.000000,2520998.000000
33081000.000000,2946028.000000
27305000.000000,2946028.000000
27305000.000000,804643.000000
27325002.000000,736522.000000
27378658.000000,690029.000000
27431000.000000,678643.000000
34926000.000000,678643.000000
Z" /> 
</g>
</g>
<g style="fill:#C83434; fill-opacity:1.0; 
stroke:#C83434; stroke-width:1.000000; stroke-opacity:1; 
stroke-linecap:round; stroke-linejoin:round;">
<g >
<path style="fill:#C83434; fill-opacity:1.0; 
stroke:#C83434; stroke-width:1.000000; stroke-opacity:1; 
stroke-linecap:round; stroke-linejoin:round;fill-rule:evenodd;"
d="M 38261933.000000,15176145.000000
38308426.000000,15229801.000000
38319075.000000,15295752.000000
38316369.000000,15320660.000000
38316000.000000,15327471.000000
38316000.000000,15900028.000000
38320475.000000,15915267.000000
38321865.000000,15916472.000000
38329548.000000,15918143.000000
40913884.000000,15918143.000000
40929123.000000,15913668.000000
40930328.000000,15912278.000000
40931999.000000,15904595.000000
40931999.000000,15327474.000000
40931630.000000,15320658.000000
40928924.000000,15295750.000000
40941452.000000,15225868.000000
40989773.000000,15173852.000000
41054187.000000,15156143.000000
43308000.000000,15156143.000000
43376121.000000,15176145.000000
43422614.000000,15229801.000000
43434000.000000,15282143.000000
43434000.000000,16172143.000000
49785000.000000,16172143.000000
49853121.000000,16192145.000000
49899614.000000,16245801.000000
49911000.000000,16298143.000000
49911000.000000,30015643.000000
49890998.000000,30083764.000000
49837342.000000,30130257.000000
49785000.000000,30141643.000000
37464000.000000,30141643.000000
37395879.000000,30121641.000000
37349386.000000,30067985.000000
37338000.000000,30015643.000000
37338000.000000,25147239.000000
43211000.000000,25147239.000000
43211337.000000,25153754.000000
43221256.000000,25249346.000000
43224150.000000,25262745.000000
43275588.000000,25416926.000000
43281762.000000,25430105.000000
43367063.000000,25567950.000000
43376099.000000,25579351.000000
43490830.000000,25693882.000000
43502241.000000,25702894.000000
43640245.000000,25787961.000000
43653423.000000,25794105.000000
43807716.000000,25845282.000000
43821081.000000,25848148.000000
43915439.000000,25857815.000000
43921855.000000,25858143.000000
45746885.000000,25858143.000000
45762124.000000,25853668.000000
45763329.000000,25852278.000000
45765000.000000,25844595.000000
45765000.000000,25840028.000000
46273000.000000,25840028.000000
46277475.000000,25855267.000000
46278865.000000,25856472.000000
46286548.000000,25858143.000000
48116096.000000,25858143.000000
48122611.000000,25857806.000000
48218203.000000,25847887.000000
48231602.000000,25844993.000000
48385783.000000,25793555.000000
48398962.000000,25787381.000000
48536807.000000,25702080.000000
48548208.000000,25693044.000000
48662739.000000,25578313.000000
48671751.000000,25566902.000000
48756818.000000,25428898.000000
48762962.000000,25415720.000000
48814139.000000,25261427.000000
48817005.000000,25248062.000000
48826672.000000,25153704.000000
48827000.000000,25147288.000000
48827000.000000,24572258.000000
48822525.000000,24557019.000000
48821135.000000,24555814.000000
48813452.000000,24554143.000000
46291115.000000,24554143.000000
46275876.000000,24558618.000000
46274671.000000,24560008.000000
46273000.000000,24567691.000000
46273000.000000,25840028.000000
45765000.000000,25840028.000000
45765000.000000,24572258.000000
45760525.000000,24557019.000000
45759135.000000,24555814.000000
45751452.000000,24554143.000000
43229115.000000,24554143.000000
43213876.000000,24558618.000000
43212671.000000,24560008.000000
43211000.000000,24567691.000000
43211000.000000,25147239.000000
37338000.000000,25147239.000000
37338000.000000,24400556.000000
37358002.000000,24332435.000000
37411658.000000,24285942.000000
37481932.000000,24275838.000000
37530116.000000,24293296.000000
37651243.000000,24367959.000000
37664424.000000,24374106.000000
37818710.000000,24425281.000000
37832086.000000,24428148.000000
37926438.000000,24437815.000000
37932854.000000,24438143.000000
38120385.000000,24438143.000000
38135624.000000,24433668.000000
38136829.000000,24432278.000000
38138500.000000,24424595.000000
38138500.000000,24420027.000000
38646500.000000,24420027.000000
38650975.000000,24435266.000000
38652365.000000,24436471.000000
38660048.000000,24438142.000000
38852095.000000,24438142.000000
38858614.000000,24437805.000000
38954206.000000,24427886.000000
38967600.000000,24424994.000000
39121784.000000,24373555.000000
39134962.000000,24367382.000000
39272807.000000,24282080.000000
39284208.000000,24273044.000000
39398739.000000,24158314.000000
39407751.000000,24146903.000000
39481026.000000,24028028.000000
43211000.000000,24028028.000000
43215475.000000,24043267.000000
43216865.000000,24044472.000000
43224548.000000,24046143.000000
45746885.000000,24046143.000000
45762124.000000,24041668.000000
45763329.000000,24040278.000000
45765000.000000,24032595.000000
45765000.000000,24028028.000000
46273000.000000,24028028.000000
46277475.000000,24043267.000000
46278865.000000,24044472.000000
46286548.000000,24046143.000000
48808885.000000,24046143.000000
48824124.000000,24041668.000000
48825329.000000,24040278.000000
48827000.000000,24032595.000000
48827000.000000,23453047.000000
48826663.000000,23446532.000000
48816744.000000,23350940.000000
48813850.000000,23337541.000000
48762412.000000,23183360.000000
48756238.000000,23170181.000000
48670937.000000,23032336.000000
48661901.000000,23020935.000000
48547170.000000,22906404.000000
48535759.000000,22897392.000000
48397755.000000,22812325.000000
48384577.000000,22806181.000000
48230284.000000,22755004.000000
48216919.000000,22752138.000000
48122561.000000,22742471.000000
48116144.000000,22742143.000000
46291115.000000,22742143.000000
46275876.000000,22746618.000000
46274671.000000,22748008.000000
46273000.000000,22755691.000000
46273000.000000,24028028.000000
45765000.000000,24028028.000000
45765000.000000,22760258.000000
45760525.000000,22745019.000000
45759135.000000,22743814.000000
45751452.000000,22742143.000000
43921904.000000,22742143.000000
43915389.000000,22742480.000000
43819797.000000,22752399.000000
43806398.000000,22755293.000000
43652217.000000,22806731.000000
43639038.000000,22812905.000000
43501193.000000,22898206.000000
43489792.000000,22907242.000000
43375261.000000,23021973.000000
43366249.000000,23033384.000000
43281182.000000,23171388.000000
43275038.000000,23184566.000000
43223861.000000,23338859.000000
43220995.000000,23352224.000000
43211328.000000,23446582.000000
43211000.000000,23452999.000000
43211000.000000,24028028.000000
39481026.000000,24028028.000000
39492816.000000,24008900.000000
39498963.000000,23995719.000000
39550138.000000,23841433.000000
39553005.000000,23828057.000000
39562672.000000,23733705.000000
39563000.000000,23727289.000000
39563000.000000,23302258.000000
39558525.000000,23287019.000000
39557135.000000,23285814.000000
39549452.000000,23284143.000000
38664615.000000,23284143.000000
38649376.000000,23288618.000000
38648171.000000,23290008.000000
38646500.000000,23297691.000000
38646500.000000,24420027.000000
38138500.000000,24420027.000000
38138500.000000,22758028.000000
38646500.000000,22758028.000000
38650975.000000,22773267.000000
38652365.000000,22774472.000000
38660048.000000,22776143.000000
39544884.000000,22776143.000000
39560123.000000,22771668.000000
39561328.000000,22770278.000000
39562999.000000,22762595.000000
39562999.000000,22333048.000000
39562662.000000,22326529.000000
39552743.000000,22230937.000000
39549851.000000,22217543.000000
39498412.000000,22063359.000000
39492239.000000,22050181.000000
39406937.000000,21912336.000000
39397901.000000,21900935.000000
39283171.000000,21786404.000000
39271760.000000,21777392.000000
39133757.000000,21692327.000000
39120576.000000,21686180.000000
38966290.000000,21635005.000000
38952914.000000,21632138.000000
38858562.000000,21622471.000000
38852145.000000,21622143.000000
38664615.000000,21622143.000000
38649376.000000,21626618.000000
38648171.000000,21628008.000000
38646500.000000,21635691.000000
38646500.000000,22758028.000000
38138500.000000,22758028.000000
38138500.000000,21640259.000000
38134025.000000,21625020.000000
38132635.000000,21623815.000000
38124952.000000,21622144.000000
37932905.000000,21622144.000000
37926386.000000,21622481.000000
37830794.000000,21632400.000000
37817400.000000,21635292.000000
37663216.000000,21686731.000000
37650038.000000,21692905.000000
37530303.000000,21766999.000000
37461851.000000,21785837.000000
37394082.000000,21764676.000000
37348510.000000,21710235.000000
37338000.000000,21659855.000000
37338000.000000,17016812.000000
38316001.000000,17016812.000000
38316371.000000,17023633.000000
38321895.000000,17074495.000000
38325521.000000,17089747.000000
38370676.000000,17210197.000000
38379214.000000,17225792.000000
38455715.000000,17327867.000000
38468276.000000,17340428.000000
38570351.000000,17416929.000000
38585946.000000,17425467.000000
38706394.000000,17470621.000000
38721649.000000,17474248.000000
38772514.000000,17479774.000000
38779328.000000,17480143.000000
39351885.000000,17480143.000000
39367124.000000,17475668.000000
39368329.000000,17474278.000000
39370000.000000,17466595.000000
39370000.000000,17462027.000000
39878000.000000,17462027.000000
39882475.000000,17477266.000000
39883865.000000,17478471.000000
39891548.000000,17480142.000000
40468669.000000,17480142.000000
40475490.000000,17479772.000000
40526352.000000,17474248.000000
40541604.000000,17470622.000000
40662054.000000,17425467.000000
40677649.000000,17416929.000000
40779724.000000,17340428.000000
40792285.000000,17327867.000000
40868786.000000,17225792.000000
40877324.000000,17210197.000000
40922478.000000,17089749.000000
40926105.000000,17074494.000000
40931631.000000,17023629.000000
40932000.000000,17016815.000000
40932000.000000,16444258.000000
40927525.000000,16429019.000000
40926135.000000,16427814.000000
40918452.000000,16426143.000000
39896115.000000,16426143.000000
39880876.000000,16430618.000000
39879671.000000,16432008.000000
39878000.000000,16439691.000000
39878000.000000,17462027.000000
39370000.000000,17462027.000000
39370000.000000,16444258.000000
39365525.000000,16429019.000000
39364135.000000,16427814.000000
39356452.000000,16426143.000000
38334116.000000,16426143.000000
38318877.000000,16430618.000000
38317672.000000,16432008.000000
38316001.000000,16439691.000000
38316001.000000,17016812.000000
37338000.000000,17016812.000000
37338000.000000,15282143.000000
37358002.000000,15214022.000000
37411658.000000,15167529.000000
37464000.000000,15156143.000000
38193812.000000,15156143.000000
Z" /> 
</g>
</g>
<g style="fill:#C83434; fill-opacity:1.0; 
stroke:#C83434; stroke-width:1.000000; stroke-opacity:1; 
stroke-linecap:round; stroke-linejoin:round;">
<g >
<path style="fill:#C83434; fill-opacity:1.0; 
stroke:#C83434; stroke-width:1.000000; stroke-opacity:1; 
stroke-linecap:round; stroke-linejoin:round;fill-rule:evenodd;"
d="M 36010121.000000,20764145.000000
36056614.000000,20817801.000000
36068000.000000,20870143.000000
36068000.000000,21535659.000000
36047998.000000,21603780.000000
35994342.000000,21650273.000000
35924068.000000,21660377.000000
35902333.000000,21655252.000000
35841293.000000,21635006.000000
35827914.000000,21632138.000000
35733562.000000,21622471.000000
35727145.000000,21622143.000000
35539615.000000,21622143.000000
35524376.000000,21626618.000000
35523171.000000,21628008.000000
35521500.000000,21635691.000000
35521500.000000,24420027.000000
35525975.000000,24435266.000000
35527365.000000,24436471.000000
35535048.000000,24438142.000000
35727095.000000,24438142.000000
35733614.000000,24437805.000000
35829206.000000,24427886.000000
35842603.000000,24424993.000000
35902125.000000,24405136.000000
35973074.000000,24402552.000000
36034158.000000,24438736.000000
36065982.000000,24502201.000000
36068000.000000,24524660.000000
36068000.000000,30015643.000000
36047998.000000,30083764.000000
35994342.000000,30130257.000000
35942000.000000,30141643.000000
22986000.000000,30141643.000000
22917879.000000,30121641.000000
22871386.000000,30067985.000000
22860000.000000,30015643.000000
22860000.000000,24499627.000000
22880002.000000,24431506.000000
22933658.000000,24385013.000000
23003932.000000,24374909.000000
23025667.000000,24380034.000000
23086707.000000,24400280.000000
23100086.000000,24403148.000000
23194438.000000,24412815.000000
23200854.000000,24413143.000000
23375885.000000,24413143.000000
23391124.000000,24408668.000000
23392329.000000,24407278.000000
23394000.000000,24399595.000000
23394000.000000,24395027.000000
23902000.000000,24395027.000000
23906475.000000,24410266.000000
23907865.000000,24411471.000000
23915548.000000,24413142.000000
24095095.000000,24413142.000000
24101614.000000,24412805.000000
24197206.000000,24402886.000000
24210600.000000,24399994.000000
24364784.000000,24348555.000000
24377962.000000,24342382.000000
24515807.000000,24257080.000000
24527208.000000,24248044.000000
24641739.000000,24133314.000000
24650751.000000,24121903.000000
24735816.000000,23983900.000000
24741963.000000,23970719.000000
24793138.000000,23816433.000000
24796005.000000,23803057.000000
24803773.000000,23727238.000000
34097001.000000,23727238.000000
34097338.000000,23733757.000000
34107257.000000,23829349.000000
34110149.000000,23842743.000000
34161588.000000,23996927.000000
34167761.000000,24010105.000000
34253063.000000,24147950.000000
34262099.000000,24159351.000000
34376829.000000,24273882.000000
34388240.000000,24282894.000000
34526243.000000,24367959.000000
34539424.000000,24374106.000000
34693710.000000,24425281.000000
34707086.000000,24428148.000000
34801438.000000,24437815.000000
34807854.000000,24438143.000000
34995385.000000,24438143.000000
35010624.000000,24433668.000000
35011829.000000,24432278.000000
35013500.000000,24424595.000000
35013500.000000,23302258.000000
35009025.000000,23287019.000000
35007635.000000,23285814.000000
34999952.000000,23284143.000000
34115116.000000,23284143.000000
34099877.000000,23288618.000000
34098672.000000,23290008.000000
34097001.000000,23297691.000000
34097001.000000,23727238.000000
24803773.000000,23727238.000000
24805672.000000,23708705.000000
24806000.000000,23702289.000000
24806000.000000,23302258.000000
24801525.000000,23287019.000000
24800135.000000,23285814.000000
24792452.000000,23284143.000000
23920115.000000,23284143.000000
23904876.000000,23288618.000000
23903671.000000,23290008.000000
23902000.000000,23297691.000000
23902000.000000,24395027.000000
23394000.000000,24395027.000000
23394000.000000,22758028.000000
23902000.000000,22758028.000000
23906475.000000,22773267.000000
23907865.000000,22774472.000000
23915548.000000,22776143.000000
24787884.000000,22776143.000000
24803123.000000,22771668.000000
24804328.000000,22770278.000000
24805999.000000,22762595.000000
24805999.000000,22758028.000000
34097000.000000,22758028.000000
34101475.000000,22773267.000000
34102865.000000,22774472.000000
34110548.000000,22776143.000000
34995385.000000,22776143.000000
35010624.000000,22771668.000000
35011829.000000,22770278.000000
35013500.000000,22762595.000000
35013500.000000,21640259.000000
35009025.000000,21625020.000000
35007635.000000,21623815.000000
34999952.000000,21622144.000000
34807905.000000,21622144.000000
34801386.000000,21622481.000000
34705794.000000,21632400.000000
34692400.000000,21635292.000000
34538216.000000,21686731.000000
34525038.000000,21692904.000000
34387193.000000,21778206.000000
34375792.000000,21787242.000000
34261261.000000,21901972.000000
34252249.000000,21913383.000000
34167184.000000,22051386.000000
34161037.000000,22064567.000000
34109862.000000,22218853.000000
34106995.000000,22232229.000000
34097328.000000,22326581.000000
34097000.000000,22332998.000000
34097000.000000,22758028.000000
24805999.000000,22758028.000000
24805999.000000,22358048.000000
24805662.000000,22351529.000000
24795743.000000,22255937.000000
24792851.000000,22242543.000000
24741412.000000,22088359.000000
24735239.000000,22075181.000000
24649937.000000,21937336.000000
24640901.000000,21925935.000000
24526171.000000,21811404.000000
24514760.000000,21802392.000000
24376757.000000,21717327.000000
24363576.000000,21711180.000000
24209290.000000,21660005.000000
24195914.000000,21657138.000000
24101562.000000,21647471.000000
24095145.000000,21647143.000000
23920115.000000,21647143.000000
23904876.000000,21651618.000000
23903671.000000,21653008.000000
23902000.000000,21660691.000000
23902000.000000,22758028.000000
23394000.000000,22758028.000000
23394000.000000,21665259.000000
23389525.000000,21650020.000000
23388135.000000,21648815.000000
23380452.000000,21647144.000000
23200905.000000,21647144.000000
23194386.000000,21647481.000000
23098794.000000,21657400.000000
23085397.000000,21660293.000000
23025875.000000,21680150.000000
22954926.000000,21682734.000000
22893842.000000,21646550.000000
22862018.000000,21583085.000000
22860000.000000,21560626.000000
22860000.000000,20870143.000000
22880002.000000,20802022.000000
22933658.000000,20755529.000000
22986000.000000,20744143.000000
35942000.000000,20744143.000000
Z" /> 
</g>
</g>
<g style="fill:#C83434; fill-opacity:1.0; 
stroke:#C83434; stroke-width:1.000000; stroke-opacity:1; 
stroke-linecap:round; stroke-linejoin:round;">
<g >
<path style="fill:#C83434; fill-opacity:1.0; 
stroke:#C83434; stroke-width:1.000000; stroke-opacity:1; 
stroke-linecap:round; stroke-linejoin:round;fill-rule:evenodd;"
d="M 69537621.000000,698645.000000
69584114.000000,752301.000000
69595500.000000,804643.000000
69595500.000000,15030143.000000
69575498.000000,15098264.000000
69521842.000000,15144757.000000
69469500.000000,15156143.000000
45592000.000000,15156143.000000
45523879.000000,15136141.000000
45477386.000000,15082485.000000
45466000.000000,15030143.000000
45466000.000000,14642205.000000
65572493.000000,14642205.000000
65581789.000000,14654220.000000
65632994.000000,14690074.000000
65642489.000000,14695557.000000
65839947.000000,14787633.000000
65850239.000000,14791379.000000
66060688.000000,14847768.000000
66071481.000000,14849671.000000
66288525.000000,14868660.000000
66299475.000000,14868660.000000
66516519.000000,14849671.000000
66527312.000000,14847768.000000
66737761.000000,14791379.000000
66748053.000000,14787633.000000
66945511.000000,14695557.000000
66955006.000000,14690074.000000
67007048.000000,14653634.000000
67015424.000000,14643155.000000
67008356.000000,14629709.000000
66306812.000000,13928165.000000
66292868.000000,13920551.000000
66291035.000000,13920682.000000
66284420.000000,13924933.000000
65578923.000000,14630430.000000
65572493.000000,14642205.000000
45466000.000000,14642205.000000
45466000.000000,13561618.000000
64981483.000000,13561618.000000
65000472.000000,13778662.000000
65002375.000000,13789455.000000
65058764.000000,13999904.000000
65062510.000000,14010196.000000
65154586.000000,14207654.000000
65160069.000000,14217149.000000
65196509.000000,14269191.000000
65206988.000000,14277567.000000
65220434.000000,14270499.000000
65921978.000000,13568955.000000
65928356.000000,13557275.000000
66658408.000000,13557275.000000
66658539.000000,13559108.000000
66662790.000000,13565723.000000
67368287.000000,14271220.000000
67380062.000000,14277650.000000
67392077.000000,14268354.000000
67427931.000000,14217149.000000
67433414.000000,14207654.000000
67525490.000000,14010196.000000
67529236.000000,13999904.000000
67585625.000000,13789455.000000
67587528.000000,13778662.000000
67606517.000000,13561618.000000
67606517.000000,13550668.000000
67587528.000000,13333624.000000
67585625.000000,13322831.000000
67529236.000000,13112382.000000
67525490.000000,13102090.000000
67433414.000000,12904632.000000
67427931.000000,12895137.000000
67391491.000000,12843095.000000
67381012.000000,12834719.000000
67367566.000000,12841787.000000
66666022.000000,13543331.000000
66658408.000000,13557275.000000
65928356.000000,13557275.000000
65929592.000000,13555011.000000
65929461.000000,13553178.000000
65925210.000000,13546563.000000
65219713.000000,12841066.000000
65207938.000000,12834636.000000
65195923.000000,12843932.000000
65160069.000000,12895137.000000
65154586.000000,12904632.000000
65062510.000000,13102090.000000
65058764.000000,13112382.000000
65002375.000000,13322831.000000
65000472.000000,13333624.000000
64981483.000000,13550668.000000
64981483.000000,13561618.000000
45466000.000000,13561618.000000
45466000.000000,12586627.000000
45486002.000000,12518506.000000
45539658.000000,12472013.000000
45609932.000000,12461909.000000
45631667.000000,12467034.000000
45692707.000000,12487280.000000
45706086.000000,12490148.000000
45800438.000000,12499815.000000
45806854.000000,12500143.000000
45994385.000000,12500143.000000
46009624.000000,12495668.000000
46010829.000000,12494278.000000
46012500.000000,12486595.000000
46012500.000000,12482027.000000
46520500.000000,12482027.000000
46524975.000000,12497266.000000
46526365.000000,12498471.000000
46534048.000000,12500142.000000
46726095.000000,12500142.000000
46732614.000000,12499805.000000
46828206.000000,12489886.000000
46841600.000000,12486994.000000
46895143.000000,12469131.000000
65572576.000000,12469131.000000
65579644.000000,12482577.000000
66281188.000000,13184121.000000
66295132.000000,13191735.000000
66296965.000000,13191604.000000
66303580.000000,13187353.000000
67009077.000000,12481856.000000
67015507.000000,12470081.000000
67006211.000000,12458066.000000
66955006.000000,12422212.000000
66945511.000000,12416729.000000
66748053.000000,12324653.000000
66737761.000000,12320907.000000
66527312.000000,12264518.000000
66516519.000000,12262615.000000
66299475.000000,12243626.000000
66288525.000000,12243626.000000
66071481.000000,12262615.000000
66060688.000000,12264518.000000
65850239.000000,12320907.000000
65839947.000000,12324653.000000
65642489.000000,12416729.000000
65632994.000000,12422212.000000
65580952.000000,12458652.000000
65572576.000000,12469131.000000
46895143.000000,12469131.000000
46995784.000000,12435555.000000
47008962.000000,12429382.000000
47146807.000000,12344080.000000
47158208.000000,12335044.000000
47272739.000000,12220314.000000
47281751.000000,12208903.000000
47366816.000000,12070900.000000
47372963.000000,12057719.000000
47424138.000000,11903433.000000
47427005.000000,11890057.000000
47436672.000000,11795705.000000
47437000.000000,11789289.000000
47437000.000000,11364258.000000
47432525.000000,11349019.000000
47431135.000000,11347814.000000
47423452.000000,11346143.000000
46538615.000000,11346143.000000
46523376.000000,11350618.000000
46522171.000000,11352008.000000
46520500.000000,11359691.000000
46520500.000000,12482027.000000
46012500.000000,12482027.000000
46012500.000000,10820028.000000
46520500.000000,10820028.000000
46524975.000000,10835267.000000
46526365.000000,10836472.000000
46534048.000000,10838143.000000
47418884.000000,10838143.000000
47434123.000000,10833668.000000
47435328.000000,10832278.000000
47436999.000000,10824595.000000
47436999.000000,10395048.000000
47436662.000000,10388529.000000
47426743.000000,10292937.000000
47423851.000000,10279543.000000
47372412.000000,10125359.000000
47366239.000000,10112181.000000
47280937.000000,9974336.000000
47271901.000000,9962935.000000
47157171.000000,9848404.000000
47145760.000000,9839392.000000
47007757.000000,9754327.000000
46994576.000000,9748180.000000
46840290.000000,9697005.000000
46826914.000000,9694138.000000
46732562.000000,9684471.000000
46726145.000000,9684143.000000
46538615.000000,9684143.000000
46523376.000000,9688618.000000
46522171.000000,9690008.000000
46520500.000000,9697691.000000
46520500.000000,10820028.000000
46012500.000000,10820028.000000
46012500.000000,9702259.000000
46008025.000000,9687020.000000
46006635.000000,9685815.000000
45998952.000000,9684144.000000
45806905.000000,9684144.000000
45800386.000000,9684481.000000
45704794.000000,9694400.000000
45691397.000000,9697293.000000
45631875.000000,9717150.000000
45560926.000000,9719734.000000
45499842.000000,9683550.000000
45468018.000000,9620085.000000
45466000.000000,9597626.000000
45466000.000000,4868143.000000
45486002.000000,4800022.000000
45539658.000000,4753529.000000
45592000.000000,4742143.000000
48413969.000000,4742143.000000
48403952.000000,4028162.000000
48422997.000000,3959767.000000
48444702.000000,3936110.000000
48443729.000000,3935137.000000
48450081.000000,3928785.000000
48457261.000000,3923404.000000
48462642.000000,3916224.000000
48462645.000000,3916221.000000
48528032.000000,3828974.000000
48544615.000000,3806848.000000
48588798.000000,3688991.000000
48631440.000000,3632227.000000
48698001.000000,3607527.000000
48767350.000000,3622735.000000
48802017.000000,3650723.000000
48827218.000000,3679816.000000
48834580.000000,3687026.000000
48998434.000000,3823059.000000
49006881.000000,3828974.000000
49190756.000000,3936422.000000
49200042.000000,3940872.000000
49399001.000000,4016846.000000
49408899.000000,4019722.000000
49512250.000000,4040749.000000
49526299.000000,4039553.000000
49530000.000000,4029208.000000
49530000.000000,4028660.000000
50038000.000000,4028660.000000
50042064.000000,4042502.000000
50055478.000000,4044536.000000
50062184.000000,4043677.000000
50072262.000000,4041535.000000
50276255.000000,3980334.000000
50285842.000000,3976576.000000
50477095.000000,3882882.000000
50485945.000000,3877607.000000
50659328.000000,3753935.000000
50667200.000000,3747282.000000
50818052.000000,3596955.000000
50824730.000000,3589108.000000
50949003.000000,3416163.000000
50954313.000000,3407326.000000
51048670.000000,3216410.000000
51052469.000000,3206815.000000
51114377.000000,3003053.000000
51116555.000000,2992980.000000
51117986.000000,2982105.000000
51115775.000000,2967921.000000
51102617.000000,2964143.000000
50056115.000000,2964143.000000
50040876.000000,2968618.000000
50039671.000000,2970008.000000
50038000.000000,2977691.000000
50038000.000000,4028660.000000
49530000.000000,4028660.000000
49530000.000000,2438028.000000
50038000.000000,2438028.000000
50042475.000000,2453267.000000
50043865.000000,2454472.000000
50051548.000000,2456143.000000
51102344.000000,2456143.000000
51115875.000000,2452170.000000
51117180.000000,2443090.000000
51075214.000000,2276018.000000
51071894.000000,2266267.000000
50986972.000000,2070957.000000
50982105.000000,2061882.000000
50866426.000000,1883069.000000
50860136.000000,1874900.000000
50716806.000000,1717383.000000
50709273.000000,1710358.000000
50542139.000000,1578365.000000
50533552.000000,1572660.000000
50347117.000000,1469742.000000
50337705.000000,1465512.000000
50136959.000000,1394423.000000
50126988.000000,1391789.000000
50055837.000000,1379115.000000
50042540.000000,1380575.000000
50038000.000000,1395132.000000
50038000.000000,2438028.000000
49530000.000000,2438028.000000
49530000.000000,1393245.000000
49526082.000000,1379901.000000
49511806.000000,1377914.000000
49473324.000000,1383803.000000
49463288.000000,1386194.000000
49260868.000000,1452355.000000
49251359.000000,1456352.000000
49062463.000000,1554685.000000
49053738.000000,1560179.000000
48883433.000000,1688048.000000
48875726.000000,1694891.000000
48798478.000000,1775727.000000
48736954.000000,1811157.000000
48666042.000000,1807700.000000
48608255.000000,1766454.000000
48589402.000000,1732906.000000
48547767.000000,1621846.000000
48544615.000000,1613438.000000
48457261.000000,1496882.000000
48417049.000000,1466744.000000
48374534.000000,1409886.000000
48366626.000000,1367686.000000
48358752.000000,806410.000000
48377797.000000,738016.000000
48430795.000000,690775.000000
48484740.000000,678643.000000
69469500.000000,678643.000000
Z" /> 
</g>
</g>
<g style="fill:#C83434; fill-opacity:1.0; 
stroke:#C83434; stroke-width:1.000000; stroke-opacity:1; 
stroke-linecap:round; stroke-linejoin:round;">
<g >
<path style="fill:#C83434; fill-opacity:1.0; 
stroke:#C83434; stroke-width:1.000000; stroke-opacity:1; 
stroke-linecap:round; stroke-linejoin:round;fill-rule:evenodd;"
d="M 26231121.000000,698645.000000
26277614.000000,752301.000000
26289000.000000,804643.000000
26289000.000000,12551949.000000
26268998.000000,12620070.000000
26215342.000000,12666563.000000
26145068.000000,12676667.000000
26080488.000000,12647173.000000
26073982.000000,12641122.000000
26020171.000000,12587404.000000
26008760.000000,12578392.000000
25870757.000000,12493327.000000
25857576.000000,12487180.000000
25703290.000000,12436005.000000
25689914.000000,12433138.000000
25595562.000000,12423471.000000
25589145.000000,12423143.000000
25164115.000000,12423143.000000
25148876.000000,12427618.000000
25147671.000000,12429008.000000
25146000.000000,12436691.000000
25146000.000000,13721643.000000
25125998.000000,13789764.000000
25072342.000000,13836257.000000
25020000.000000,13847643.000000
23502116.000000,13847643.000000
23486877.000000,13852118.000000
23485672.000000,13853508.000000
23484001.000000,13861191.000000
23484001.000000,14053238.000000
23484338.000000,14059757.000000
23494257.000000,14155349.000000
23497149.000000,14168743.000000
23548588.000000,14322927.000000
23554762.000000,14336105.000000
23628856.000000,14455840.000000
23647694.000000,14524292.000000
23626533.000000,14592061.000000
23572092.000000,14637633.000000
23521712.000000,14648143.000000
5478899.000000,14648143.000000
5410778.000000,14628141.000000
5364285.000000,14574485.000000
5354181.000000,14504211.000000
5360918.000000,14477912.000000
5362477.000000,14473752.000000
5366105.000000,14458494.000000
5371631.000000,14407629.000000
5372000.000000,14400815.000000
5372000.000000,13828258.000000
5367525.000000,13813019.000000
5366135.000000,13811814.000000
5358452.000000,13810143.000000
2774116.000000,13810143.000000
2758877.000000,13814618.000000
2757672.000000,13816008.000000
2756001.000000,13823691.000000
2756001.000000,14400812.000000
2756371.000000,14407633.000000
2761895.000000,14458495.000000
2765522.000000,14473750.000000
2767082.000000,14477912.000000
2767336.000000,14481381.000000
2767349.000000,14481436.000000
2767340.000000,14481438.000000
2772266.000000,14548719.000000
2738347.000000,14611088.000000
2676092.000000,14645218.000000
2649101.000000,14648143.000000
888500.000000,14648143.000000
820379.000000,14628141.000000
773886.000000,14574485.000000
762500.000000,14522143.000000
762500.000000,13321528.000000
23484000.000000,13321528.000000
23488475.000000,13336767.000000
23489865.000000,13337972.000000
23497548.000000,13339643.000000
24619885.000000,13339643.000000
24635124.000000,13335168.000000
24636329.000000,13333778.000000
24638000.000000,13326095.000000
24638000.000000,12441259.000000
24633525.000000,12426020.000000
24632135.000000,12424815.000000
24624452.000000,12423144.000000
24194905.000000,12423144.000000
24188386.000000,12423481.000000
24092794.000000,12433400.000000
24079400.000000,12436292.000000
23925216.000000,12487731.000000
23912038.000000,12493904.000000
23774193.000000,12579206.000000
23762792.000000,12588242.000000
23648261.000000,12702972.000000
23639249.000000,12714383.000000
23554184.000000,12852386.000000
23548037.000000,12865567.000000
23496862.000000,13019853.000000
23493995.000000,13033229.000000
23484328.000000,13127581.000000
23484000.000000,13133998.000000
23484000.000000,13321528.000000
762500.000000,13321528.000000
762500.000000,13284028.000000
2756000.000000,13284028.000000
2760475.000000,13299267.000000
2761865.000000,13300472.000000
2769548.000000,13302143.000000
3791885.000000,13302143.000000
3807124.000000,13297668.000000
3808329.000000,13296278.000000
3810000.000000,13288595.000000
3810000.000000,13284028.000000
4318000.000000,13284028.000000
4322475.000000,13299267.000000
4323865.000000,13300472.000000
4331548.000000,13302143.000000
5353884.000000,13302143.000000
5369123.000000,13297668.000000
5370328.000000,13296278.000000
5371999.000000,13288595.000000
5371999.000000,12711474.000000
5371629.000000,12704653.000000
5366105.000000,12653791.000000
5362479.000000,12638539.000000
5317324.000000,12518089.000000
5308786.000000,12502494.000000
5232285.000000,12400419.000000
5219724.000000,12387858.000000
5117649.000000,12311357.000000
5102054.000000,12302819.000000
4981606.000000,12257665.000000
4966351.000000,12254038.000000
4915486.000000,12248512.000000
4908672.000000,12248143.000000
4336115.000000,12248143.000000
4320876.000000,12252618.000000
4319671.000000,12254008.000000
4318000.000000,12261691.000000
4318000.000000,13284028.000000
3810000.000000,13284028.000000
3810000.000000,12266259.000000
3805525.000000,12251020.000000
3804135.000000,12249815.000000
3796452.000000,12248144.000000
3219331.000000,12248144.000000
3212510.000000,12248514.000000
3161648.000000,12254038.000000
3146396.000000,12257664.000000
3025946.000000,12302819.000000
3010351.000000,12311357.000000
2908276.000000,12387858.000000
2895715.000000,12400419.000000
2819214.000000,12502494.000000
2810676.000000,12518089.000000
2765522.000000,12638537.000000
2761895.000000,12653792.000000
2756369.000000,12704657.000000
2756000.000000,12711471.000000
2756000.000000,13284028.000000
762500.000000,13284028.000000
762500.000000,804643.000000
782502.000000,736522.000000
836158.000000,690029.000000
888500.000000,678643.000000
26163000.000000,678643.000000
Z" /> 
</g>
</g>
<g style="fill:#C83434; fill-opacity:1.0; 
stroke:#C83434; stroke-width:1.000000; stroke-opacity:1; 
stroke-linecap:round; stroke-linejoin:round;">
<g >
<path style="fill:#C83434; fill-opacity:1.0; 
stroke:#C83434; stroke-width:1.000000; stroke-opacity:1; 
stroke-linecap:round; stroke-linejoin:round;fill-rule:evenodd;"
d="M 44519121.000000,698645.000000
44565614.000000,752301.000000
44577000.000000,804643.000000
44577000.000000,9442143.000000
44556998.000000,9510264.000000
44503342.000000,9556757.000000
44451000.000000,9568143.000000
41054188.000000,9568143.000000
40986067.000000,9548141.000000
40939574.000000,9494485.000000
40928925.000000,9428534.000000
40931631.000000,9403626.000000
40932000.000000,9396815.000000
40932000.000000,8824258.000000
40927525.000000,8809019.000000
40926135.000000,8807814.000000
40918452.000000,8806143.000000
38334116.000000,8806143.000000
38318877.000000,8810618.000000
38317672.000000,8812008.000000
38316001.000000,8819691.000000
38316001.000000,9396812.000000
38316370.000000,9403628.000000
38319076.000000,9428536.000000
38306548.000000,9498418.000000
38258227.000000,9550434.000000
38193813.000000,9568143.000000
36702000.000000,9568143.000000
36633879.000000,9548141.000000
36587386.000000,9494485.000000
36576000.000000,9442143.000000
36576000.000000,8280028.000000
38316000.000000,8280028.000000
38320475.000000,8295267.000000
38321865.000000,8296472.000000
38329548.000000,8298143.000000
39351885.000000,8298143.000000
39367124.000000,8293668.000000
39368329.000000,8292278.000000
39370000.000000,8284595.000000
39370000.000000,8280028.000000
39878000.000000,8280028.000000
39882475.000000,8295267.000000
39883865.000000,8296472.000000
39891548.000000,8298143.000000
40913884.000000,8298143.000000
40929123.000000,8293668.000000
40930328.000000,8292278.000000
40931999.000000,8284595.000000
40931999.000000,7707474.000000
40931629.000000,7700653.000000
40926105.000000,7649791.000000
40922479.000000,7634539.000000
40877324.000000,7514089.000000
40868786.000000,7498494.000000
40792285.000000,7396419.000000
40779724.000000,7383858.000000
40677649.000000,7307357.000000
40662054.000000,7298819.000000
40541606.000000,7253665.000000
40526351.000000,7250038.000000
40475486.000000,7244512.000000
40468672.000000,7244143.000000
39896115.000000,7244143.000000
39880876.000000,7248618.000000
39879671.000000,7250008.000000
39878000.000000,7257691.000000
39878000.000000,8280028.000000
39370000.000000,8280028.000000
39370000.000000,7262259.000000
39365525.000000,7247020.000000
39364135.000000,7245815.000000
39356452.000000,7244144.000000
38779331.000000,7244144.000000
38772510.000000,7244514.000000
38721648.000000,7250038.000000
38706396.000000,7253664.000000
38585946.000000,7298819.000000
38570351.000000,7307357.000000
38468276.000000,7383858.000000
38455715.000000,7396419.000000
38379214.000000,7498494.000000
38370676.000000,7514089.000000
38325522.000000,7634537.000000
38321895.000000,7649792.000000
38316369.000000,7700657.000000
38316000.000000,7707471.000000
38316000.000000,8280028.000000
36576000.000000,8280028.000000
36576000.000000,4712627.000000
36596002.000000,4644506.000000
36649658.000000,4598013.000000
36719932.000000,4587909.000000
36741667.000000,4593034.000000
36802707.000000,4613280.000000
36816086.000000,4616148.000000
36910438.000000,4625815.000000
36916854.000000,4626143.000000
37104385.000000,4626143.000000
37119624.000000,4621668.000000
37120829.000000,4620278.000000
37122500.000000,4612595.000000
37122500.000000,4608027.000000
37630500.000000,4608027.000000
37634975.000000,4623266.000000
37636365.000000,4624471.000000
37644048.000000,4626142.000000
37836095.000000,4626142.000000
37842614.000000,4625805.000000
37938206.000000,4615886.000000
37951600.000000,4612994.000000
38105784.000000,4561555.000000
38118962.000000,4555382.000000
38256807.000000,4470080.000000
38268208.000000,4461044.000000
38382739.000000,4346314.000000
38391751.000000,4334903.000000
38476816.000000,4196900.000000
38482963.000000,4183719.000000
38534138.000000,4029433.000000
38537005.000000,4016057.000000
38546672.000000,3921705.000000
38547000.000000,3915289.000000
38547000.000000,3490258.000000
38542525.000000,3475019.000000
38541135.000000,3473814.000000
38533452.000000,3472143.000000
37648615.000000,3472143.000000
37633376.000000,3476618.000000
37632171.000000,3478008.000000
37630500.000000,3485691.000000
37630500.000000,4608027.000000
37122500.000000,4608027.000000
37122500.000000,2946028.000000
37630500.000000,2946028.000000
37634975.000000,2961267.000000
37636365.000000,2962472.000000
37644048.000000,2964143.000000
38528884.000000,2964143.000000
38544123.000000,2959668.000000
38545328.000000,2958278.000000
38546999.000000,2950595.000000
38546999.000000,2521048.000000
38546662.000000,2514529.000000
38536743.000000,2418937.000000
38533851.000000,2405543.000000
38482412.000000,2251359.000000
38476239.000000,2238181.000000
38390937.000000,2100336.000000
38381901.000000,2088935.000000
38267171.000000,1974404.000000
38255760.000000,1965392.000000
38117757.000000,1880327.000000
38104576.000000,1874180.000000
37950290.000000,1823005.000000
37936914.000000,1820138.000000
37842562.000000,1810471.000000
37836145.000000,1810143.000000
37648615.000000,1810143.000000
37633376.000000,1814618.000000
37632171.000000,1816008.000000
37630500.000000,1823691.000000
37630500.000000,2946028.000000
37122500.000000,2946028.000000
37122500.000000,1828259.000000
37118025.000000,1813020.000000
37116635.000000,1811815.000000
37108952.000000,1810144.000000
36916905.000000,1810144.000000
36910386.000000,1810481.000000
36814794.000000,1820400.000000
36801397.000000,1823293.000000
36741875.000000,1843150.000000
36670926.000000,1845734.000000
36609842.000000,1809550.000000
36578018.000000,1746085.000000
36576000.000000,1723626.000000
36576000.000000,804643.000000
36596002.000000,736522.000000
36649658.000000,690029.000000
36702000.000000,678643.000000
44451000.000000,678643.000000
Z" /> 
</g>
</g>
</g>
<g style="fill:#FFFFFF; fill-opacity:1.0; 
stroke:#FFFFFF; stroke-width:1.000000; stroke-opacity:1; 
stroke-linecap:round; stroke-linejoin:round;">
<circle cx="4064000.000000" cy="6774143.000000" r="200000.000000" /> 
</g>
<g style="fill:#FFFFFF; fill-opacity:1.0; 
stroke:#FFFFFF; stroke-width:21200.000000; stroke-opacity:1; 
stroke-linecap:round; stroke-linejoin:round;">
</g>
<g style="fill:#FFFFFF; fill-opacity:1.0; 
stroke:#FFFFFF; stroke-width:1.000000; stroke-opacity:1; 
stroke-linecap:round; stroke-linejoin:round;">
<circle cx="28956000.000000" cy="11092143.000000" r="200000.000000" /> 
</g>
<g style="fill:#FFFFFF; fill-opacity:1.0; 
stroke:#FFFFFF; stroke-width:21200.000000; stroke-opacity:1; 
stroke-linecap:round; stroke-linejoin:round;">
</g>
<g style="fill:#FFFFFF; fill-opacity:1.0; 
stroke:#FFFFFF; stroke-width:1.000000; stroke-opacity:1; 
stroke-linecap:round; stroke-linejoin:round;">
<circle cx="58674000.000000" cy="7790143.000000" r="200000.000000" /> 
</g>
<g style="fill:#FFFFFF; fill-opacity:1.0; 
stroke:#FFFFFF; stroke-width:21200.000000; stroke-opacity:1; 
stroke-linecap:round; stroke-linejoin:round;">
</g>
<g style="fill:#FFFFFF; fill-opacity:1.0; 
stroke:#FFFFFF; stroke-width:1.000000; stroke-opacity:1; 
stroke-linecap:round; stroke-linejoin:round;">
<circle cx="10668000.000000" cy="23030143.000000" r="200000.000000" /> 
</g>
<g style="fill:#FFFFFF; fill-opacity:1.0; 
stroke:#FFFFFF; stroke-width:21200.000000; stroke-opacity:1; 
stroke-linecap:round; stroke-linejoin:round;">
</g>
<g style="fill:#FFFFFF; fill-opacity:1.0; 
stroke:#FFFFFF; stroke-width:1.000000; stroke-opacity:1; 
stroke-linecap:round; stroke-linejoin:round;">
<circle cx="66548000.000000" cy="22522143.000000" r="200000.000000" /> 
</g>
<g style="fill:#FFFFFF; fill-opacity:1.0; 
stroke:#FFFFFF; stroke-width:21200.000000; stroke-opacity:1; 
stroke-linecap:round; stroke-linejoin:round;">
</g>
<g style="fill:#FFFFFF; fill-opacity:1.0; 
stroke:#FFFFFF; stroke-width:1.000000; stroke-opacity:1; 
stroke-linecap:round; stroke-linejoin:round;">
<circle cx="42418000.000000" cy="13632143.000000" r="200000.000000" /> 
</g>
<g style="fill:#FFFFFF; fill-opacity:1.0; 
stroke:#FFFFFF; stroke-width:21200.000000; stroke-opacity:1; 
stroke-linecap:round; stroke-linejoin:round;">
</g>
<g style="fill:#FFFFFF; fill-opacity:1.0; 
stroke:#FFFFFF; stroke-width:1.000000; stroke-opacity:1; 
stroke-linecap:round; stroke-linejoin:round;">
<circle cx="47244000.000000" cy="2710143.000000" r="500000.000000" /> 
</g>
<g style="fill:#FFFFFF; fill-opacity:1.0; 
stroke:#FFFFFF; stroke-width:21200.000000; stroke-opacity:1; 
stroke-linecap:round; stroke-linejoin:round;">
</g>
<g style="fill:#FFFFFF; fill-opacity:1.0; 
stroke:#FFFFFF; stroke-width:1.000000; stroke-opacity:1; 
stroke-linecap:round; stroke-linejoin:round;">
<circle cx="49784000.000000" cy="2710143.000000" r="500000.000000" /> 
</g>
<g style="fill:#FFFFFF; fill-opacity:1.0; 
stroke:#FFFFFF; stroke-width:21200.000000; stroke-opacity:1; 
stroke-linecap:round; stroke-linejoin:round;">
</g>
<g style="fill:#FFFFFF; fill-opacity:1.0; 
stroke:#FFFFFF; stroke-width:1.000000; stroke-opacity:1; 
stroke-linecap:round; stroke-linejoin:round;">
<circle cx="66294000.000000" cy="16756143.000000" r="500000.000000" /> 
</g>
<g style="fill:#FFFFFF; fill-opacity:1.0; 
stroke:#FFFFFF; stroke-width:21200.000000; stroke-opacity:1; 
stroke-linecap:round; stroke-linejoin:round;">
</g>
<g style="fill:#FFFFFF; fill-opacity:1.0; 
stroke:#FFFFFF; stroke-width:1.000000; stroke-opacity:1; 
stroke-linecap:round; stroke-linejoin:round;">
<circle cx="66294000.000000" cy="13556143.000000" r="500000.000000" /> 
</g>
<g style="fill:#FFFFFF; fill-opacity:1.0; 
stroke:#FFFFFF; stroke-width:21200.000000; stroke-opacity:1; 
stroke-linecap:round; stroke-linejoin:round;">
</g>
<g style="fill:#FFFFFF; fill-opacity:1.0; 
stroke:#FFFFFF; stroke-width:1.000000; stroke-opacity:1; 
stroke-linecap:round; stroke-linejoin:round;">
<circle cx="4064000.000000" cy="13556143.000000" r="500000.000000" /> 
</g>
<g style="fill:#FFFFFF; fill-opacity:1.0; 
stroke:#FFFFFF; stroke-width:21200.000000; stroke-opacity:1; 
stroke-linecap:round; stroke-linejoin:round;">
</g>
<g style="fill:#FFFFFF; fill-opacity:1.0; 
stroke:#FFFFFF; stroke-width:1.000000; stroke-opacity:1; 
stroke-linecap:round; stroke-linejoin:round;">
<circle cx="4064000.000000" cy="16756143.000000" r="500000.000000" /> 
</g>
<g style="fill:#FFFFFF; fill-opacity:1.0; 
stroke:#FFFFFF; stroke-width:21200.000000; stroke-opacity:1; 
stroke-linecap:round; stroke-linejoin:round;">
</g>
<g style="fill:#000000; fill-opacity:1.0; 
stroke:#000000; stroke-width:21200.000000; stroke-opacity:1; 
stroke-linecap:round; stroke-linejoin:round;">
</g>
<g style="fill:#D0D2CD; fill-opacity:1.0; 
stroke:#D0D2CD; stroke-width:21200.000000; stroke-opacity:1; 
stroke-linecap:round; stroke-linejoin:round;">
</g>
<g style="fill:#D0D2CD; fill-opacity:1.0; 
stroke:#D0D2CD; stroke-width:100000.000000; stroke-opacity:1; 
stroke-linecap:round; stroke-linejoin:round;">
</g>
<g style="fill:#D0D2CD; fill-opacity:0.0; 
stroke:#D0D2CD; stroke-width:100000.000000; stroke-opacity:1; 
stroke-linecap:round; stroke-linejoin:round;">
<path d="M254000 170143
L70104000 170143
" />
<path d="M70104000 170143
L70104000 30650143
" />
<path d="M70104000 30650143
L254000 30650143
" />
<path d="M254000 30650143
L254000 170143
" />
<g >
</g>
<g >
</g>
<g >
</g>
<g >
</g>
<g >
</g>
<g >
</g>
<g >
</g>
<g >
</g>
<g >
</g>
<g >
</g>
<g >
</g>
<g >
</g>
<g >
</g>
</g> 
</svg>
